0
SECTION
2
HEADER
9
$INSUNITS
70
4
0
ENDSEC
0
SECTION
2
TABLES
0
TABLE
2
LTYPE
0
LTYPE
72
65
70
64
2
CONTINUOUS
3
______
73
0
40
0
0
ENDTAB
0
TABLE
2
LAYER
0
ENDTAB
0
ENDSEC
0
SECTION
2
ENTITIES
0
LINE
8
0
10
-8.6600863
20
-4.6126581
11
-15.360252
21
43.0614982
0
LINE
8
0
10
-13.5219716
20
47.6700172
11
6.5590214
21
63.6472419
0
LINE
8
0
10
8.5986583
20
64.6180055
11
30.6405131
21
69.4630225
0
LINE
8
0
10
32.0627186
20
69.5674256
11
53.8858934
21
68.0414006
0
LINE
8
0
10
54.6805419
20
67.9210813
11
112.1373978
21
54.4238133
0
LINE
8
0
10
115.8919986
20
48.5516803
11
109.6494252
21
18.1163416
0
LINE
8
0
10
109.6124104
20
17.9502837
11
108.7752148
21
14.4740239
0
LINE
8
0
10
110.9344242
20
9.0961691
11
117.4021313
21
4.9426592
0
LINE
8
0
10
118.6935014
20
3.7445694
11
129.6609372
21
-10.8097093
0
LINE
8
0
10
129.5730986
20
-16.9410154
11
120.9668366
21
-27.7058738
0
LINE
8
0
10
120.0705726
20
-28.5768203
11
107.053312
21
-38.3860298
0
LINE
8
0
10
100.0091365
20
-37.3454722
11
92.0725214
21
-26.4991586
0
LINE
8
0
10
90.5374209
20
-25.1216516
11
74.1402876
21
-15.6547622
0
LINE
8
0
10
72.2591091
20
-15.023331
11
55.9375851
21
-12.9876585
0
LINE
8
0
10
52.2072652
20
-10.4928733
11
41.3605448
21
8.630865
0
LINE
8
0
10
34.5728894
20
10.5291406
11
31.4401209
21
8.779034
0
LINE
8
0
10
31.4401209
20
8.779034
11
15.9535549
21
-5.3234371
0
LINE
8
0
10
13.2829503
20
-6.5779033
11
-3.0128805
21
-8.8681329
0
ARC
8
0
10
-10.4089117
20
43.7573637
40
5
50
128.5071285
51
187.9999997
0
ARC
8
0
10
9.6720814
20
59.7345884
40
5
50
102.3970245
51
128.5071285
0
ARC
8
0
10
31.7139361
20
64.5796053
40
5
50
85.9999987
51
102.3970245
0
ARC
8
0
10
53.5371109
20
63.0535803
40
5
50
76.7802649
51
85.9999987
0
ARC
8
0
10
110.9939669
20
49.5563123
40
5
50
348.4088619
51
76.7802649
0
ARC
8
0
10
104.7513935
20
19.1209737
40
5
50
346.4591841
51
348.4088619
0
ARC
8
0
10
113.6362316
20
13.303334
40
5
50
166.4591841
51
237.2917497
0
ARC
8
0
10
114.7003239
20
0.7354943
40
5
50
36.9999993
51
57.2917497
0
ARC
8
0
10
125.6677596
20
-13.8187844
40
5
50
321.3584477
51
36.9999993
0
ARC
8
0
10
117.0614976
20
-24.5836428
40
5
50
306.9999993
51
321.3584477
0
ARC
8
0
10
104.044237
20
-34.3928522
40
5
50
216.1942009
51
306.9999993
0
ARC
8
0
10
88.0374209
20
-29.4517786
40
5
50
36.1942009
51
59.9999999
0
ARC
8
0
10
71.6402876
20
-19.9848892
40
5
50
59.9999999
51
82.8905984
0
ARC
8
0
10
56.5564066
20
-8.0261003
40
5
50
209.5613087
51
262.8905984
0
ARC
8
0
10
37.0114034
20
6.164092
40
5
50
29.5613087
51
119.1897055
0
ARC
8
0
10
12.5870848
20
-1.626563
40
5
50
277.9999997
51
312.3218117
0
ARC
8
0
10
-3.708746
20
-3.9167926
40
5
50
187.9999997
51
277.9999997
0
LINE
8
0
10
277.7141167
20
-4.6126581
11
284.4142824
21
43.0614982
0
LINE
8
0
10
282.576002
20
47.6700172
11
262.495009
21
63.6472419
0
LINE
8
0
10
260.4553721
20
64.6180055
11
238.4135173
21
69.4630225
0
LINE
8
0
10
236.9913118
20
69.5674256
11
215.168137
21
68.0414006
0
LINE
8
0
10
214.3734885
20
67.9210813
11
156.9166326
21
54.4238133
0
LINE
8
0
10
153.1620318
20
48.5516803
11
159.4046052
21
18.1163416
0
LINE
8
0
10
159.44162
20
17.9502837
11
160.2788156
21
14.4740239
0
LINE
8
0
10
158.1196062
20
9.0961691
11
151.6518991
21
4.9426592
0
LINE
8
0
10
150.360529
20
3.7445694
11
139.3930932
21
-10.8097093
0
LINE
8
0
10
139.4809318
20
-16.9410154
11
148.0871938
21
-27.7058738
0
LINE
8
0
10
148.9834578
20
-28.5768203
11
162.0007184
21
-38.3860298
0
LINE
8
0
10
169.0448939
20
-37.3454722
11
176.981509
21
-26.4991586
0
LINE
8
0
10
178.5166095
20
-25.1216516
11
194.9137428
21
-15.6547622
0
LINE
8
0
10
196.7949213
20
-15.023331
11
213.1164453
21
-12.9876585
0
LINE
8
0
10
216.8467652
20
-10.4928733
11
227.6934856
21
8.630865
0
LINE
8
0
10
234.481141
20
10.5291406
11
237.6139095
21
8.779034
0
LINE
8
0
10
237.6139095
20
8.779034
11
253.1004755
21
-5.3234371
0
LINE
8
0
10
255.7710801
20
-6.5779033
11
272.0669109
21
-8.8681329
0
ARC
8
0
10
279.4629421
20
43.7573637
40
5
50
352.0000003
51
51.4928715
0
ARC
8
0
10
259.381949
20
59.7345884
40
5
50
51.4928715
51
77.6029755
0
ARC
8
0
10
237.3400943
20
64.5796053
40
5
50
77.6029755
51
94.0000013
0
ARC
8
0
10
215.5169195
20
63.0535803
40
5
50
94.0000013
51
103.2197351
0
ARC
8
0
10
158.0600635
20
49.5563123
40
5
50
103.2197351
51
191.5911381
0
ARC
8
0
10
164.3026369
20
19.1209737
40
5
50
191.5911381
51
193.5408159
0
ARC
8
0
10
155.4177988
20
13.303334
40
5
50
302.7082503
51
13.5408159
0
ARC
8
0
10
154.3537065
20
0.7354943
40
5
50
122.7082503
51
143.0000007
0
ARC
8
0
10
143.3862708
20
-13.8187844
40
5
50
143.0000007
51
218.6415523
0
ARC
8
0
10
151.9925328
20
-24.5836428
40
5
50
218.6415523
51
233.0000007
0
ARC
8
0
10
165.0097934
20
-34.3928522
40
5
50
233.0000007
51
323.8057991
0
ARC
8
0
10
181.0166095
20
-29.4517786
40
5
50
120.0000001
51
143.8057991
0
ARC
8
0
10
197.4137428
20
-19.9848892
40
5
50
97.1094016
51
120.0000001
0
ARC
8
0
10
212.4976238
20
-8.0261003
40
5
50
277.1094016
51
330.4386913
0
ARC
8
0
10
232.042627
20
6.164092
40
5
50
60.8102945
51
150.4386913
0
ARC
8
0
10
256.4669456
20
-1.626563
40
5
50
227.6781883
51
262.0000003
0
ARC
8
0
10
272.7627764
20
-3.9167926
40
5
50
262.0000003
51
352.0000003
0
ENDSEC
0
EOF