0
SECTION
2
HEADER
9
$INSUNITS
70
4
0
ENDSEC
0
SECTION
2
TABLES
0
TABLE
2
LTYPE
0
LTYPE
72
65
70
64
2
CONTINUOUS
3
______
73
0
40
0
0
ENDTAB
0
TABLE
2
LAYER
0
ENDTAB
0
ENDSEC
0
SECTION
2
ENTITIES
0
LINE
8
0
10
76.3399137
20
-154.6126581
11
69.639748
21
-106.9385018
0
LINE
8
0
10
71.4780284
20
-102.3299828
11
91.5590214
21
-86.3527581
0
LINE
8
0
10
93.5986583
20
-85.3819945
11
115.6405131
21
-80.5369775
0
LINE
8
0
10
117.0627186
20
-80.4325744
11
138.8858934
21
-81.9585994
0
LINE
8
0
10
139.6805419
20
-82.0789187
11
197.1373978
21
-95.5761867
0
LINE
8
0
10
200.8919986
20
-101.4483197
11
194.6494252
21
-131.8836584
0
LINE
8
0
10
194.6124104
20
-132.0497163
11
193.7752148
21
-135.5259761
0
LINE
8
0
10
195.9344242
20
-140.9038309
11
202.4021313
21
-145.0573408
0
LINE
8
0
10
203.6935014
20
-146.2554306
11
214.6609372
21
-160.8097093
0
LINE
8
0
10
214.5730986
20
-166.9410154
11
205.9668366
21
-177.7058738
0
LINE
8
0
10
205.0705726
20
-178.5768203
11
192.053312
21
-188.3860298
0
LINE
8
0
10
185.0091365
20
-187.3454722
11
177.0725214
21
-176.4991586
0
LINE
8
0
10
175.5374209
20
-175.1216516
11
159.1402876
21
-165.6547622
0
LINE
8
0
10
157.2591091
20
-165.023331
11
140.9375851
21
-162.9876585
0
LINE
8
0
10
137.2072652
20
-160.4928733
11
126.3605448
21
-141.369135
0
LINE
8
0
10
119.5728894
20
-139.4708594
11
116.4401209
21
-141.220966
0
LINE
8
0
10
116.4401209
20
-141.220966
11
100.9535549
21
-155.3234371
0
LINE
8
0
10
98.2829503
20
-156.5779033
11
81.9871195
21
-158.8681329
0
ARC
8
0
10
74.5910883
20
-106.2426363
40
5
50
128.5071285
51
187.9999997
0
ARC
8
0
10
94.6720814
20
-90.2654116
40
5
50
102.3970245
51
128.5071285
0
ARC
8
0
10
116.7139361
20
-85.4203947
40
5
50
85.9999987
51
102.3970245
0
ARC
8
0
10
138.5371109
20
-86.9464197
40
5
50
76.7802649
51
85.9999987
0
ARC
8
0
10
195.9939669
20
-100.4436877
40
5
50
348.4088619
51
76.7802649
0
ARC
8
0
10
189.7513935
20
-130.8790263
40
5
50
346.4591841
51
348.4088619
0
ARC
8
0
10
198.6362316
20
-136.696666
40
5
50
166.4591841
51
237.2917497
0
ARC
8
0
10
199.7003239
20
-149.2645057
40
5
50
36.9999993
51
57.2917497
0
ARC
8
0
10
210.6677596
20
-163.8187844
40
5
50
321.3584477
51
36.9999993
0
ARC
8
0
10
202.0614976
20
-174.5836428
40
5
50
306.9999993
51
321.3584477
0
ARC
8
0
10
189.044237
20
-184.3928522
40
5
50
216.1942009
51
306.9999993
0
ARC
8
0
10
173.0374209
20
-179.4517786
40
5
50
36.1942009
51
59.9999999
0
ARC
8
0
10
156.6402876
20
-169.9848892
40
5
50
59.9999999
51
82.8905984
0
ARC
8
0
10
141.5564066
20
-158.0261003
40
5
50
209.5613087
51
262.8905984
0
ARC
8
0
10
122.0114034
20
-143.835908
40
5
50
29.5613087
51
119.1897055
0
ARC
8
0
10
97.5870848
20
-151.626563
40
5
50
277.9999997
51
312.3218117
0
ARC
8
0
10
81.291254
20
-153.9167926
40
5
50
187.9999997
51
277.9999997
0
LINE
8
0
10
362.7141167
20
-154.6126581
11
369.4142824
21
-106.9385018
0
LINE
8
0
10
367.576002
20
-102.3299828
11
347.495009
21
-86.3527581
0
LINE
8
0
10
345.4553721
20
-85.3819945
11
323.4135173
21
-80.5369775
0
LINE
8
0
10
321.9913118
20
-80.4325744
11
300.168137
21
-81.9585994
0
LINE
8
0
10
299.3734885
20
-82.0789187
11
241.9166326
21
-95.5761867
0
LINE
8
0
10
238.1620318
20
-101.4483197
11
244.4046052
21
-131.8836584
0
LINE
8
0
10
244.44162
20
-132.0497163
11
245.2788156
21
-135.5259761
0
LINE
8
0
10
243.1196062
20
-140.9038309
11
236.6518991
21
-145.0573408
0
LINE
8
0
10
235.360529
20
-146.2554306
11
224.3930932
21
-160.8097093
0
LINE
8
0
10
224.4809318
20
-166.9410154
11
233.0871938
21
-177.7058738
0
LINE
8
0
10
233.9834578
20
-178.5768203
11
247.0007184
21
-188.3860298
0
LINE
8
0
10
254.0448939
20
-187.3454722
11
261.981509
21
-176.4991586
0
LINE
8
0
10
263.5166095
20
-175.1216516
11
279.9137428
21
-165.6547622
0
LINE
8
0
10
281.7949213
20
-165.023331
11
298.1164453
21
-162.9876585
0
LINE
8
0
10
301.8467652
20
-160.4928733
11
312.6934856
21
-141.369135
0
LINE
8
0
10
319.481141
20
-139.4708594
11
322.6139095
21
-141.220966
0
LINE
8
0
10
322.6139095
20
-141.220966
11
338.1004755
21
-155.3234371
0
LINE
8
0
10
340.7710801
20
-156.5779033
11
357.0669109
21
-158.8681329
0
ARC
8
0
10
364.4629421
20
-106.2426363
40
5
50
352.0000003
51
51.4928715
0
ARC
8
0
10
344.381949
20
-90.2654116
40
5
50
51.4928715
51
77.6029755
0
ARC
8
0
10
322.3400943
20
-85.4203947
40
5
50
77.6029755
51
94.0000013
0
ARC
8
0
10
300.5169195
20
-86.9464197
40
5
50
94.0000013
51
103.2197351
0
ARC
8
0
10
243.0600635
20
-100.4436877
40
5
50
103.2197351
51
191.5911381
0
ARC
8
0
10
249.3026369
20
-130.8790263
40
5
50
191.5911381
51
193.5408159
0
ARC
8
0
10
240.4177988
20
-136.696666
40
5
50
302.7082503
51
13.5408159
0
ARC
8
0
10
239.3537065
20
-149.2645057
40
5
50
122.7082503
51
143.0000007
0
ARC
8
0
10
228.3862708
20
-163.8187844
40
5
50
143.0000007
51
218.6415523
0
ARC
8
0
10
236.9925328
20
-174.5836428
40
5
50
218.6415523
51
233.0000007
0
ARC
8
0
10
250.0097934
20
-184.3928522
40
5
50
233.0000007
51
323.8057991
0
ARC
8
0
10
266.0166095
20
-179.4517786
40
5
50
120.0000001
51
143.8057991
0
ARC
8
0
10
282.4137428
20
-169.9848892
40
5
50
97.1094016
51
120.0000001
0
ARC
8
0
10
297.4976238
20
-158.0261003
40
5
50
277.1094016
51
330.4386913
0
ARC
8
0
10
317.042627
20
-143.835908
40
5
50
60.8102945
51
150.4386913
0
ARC
8
0
10
341.4669456
20
-151.626563
40
5
50
227.6781883
51
262.0000003
0
ARC
8
0
10
357.7627764
20
-153.9167926
40
5
50
262.0000003
51
352.0000003
0
ENDSEC
0
EOF