0
SECTION
2
HEADER
9
$INSUNITS
70
4
0
ENDSEC
0
SECTION
2
TABLES
0
TABLE
2
LTYPE
0
LTYPE
72
65
70
64
2
CONTINUOUS
3
______
73
0
40
0
0
ENDTAB
0
TABLE
2
LAYER
0
ENDTAB
0
ENDSEC
0
SECTION
2
ENTITIES
0
LINE
8
0
10
79.3762904
20
-156.4580352
11
96.7059816
21
-154.0225059
0
LINE
8
0
10
96.7059816
20
-154.0225059
11
94.4096254
21
-137.6830828
0
LINE
8
0
10
94.4096254
20
-137.6830828
11
77.0799342
21
-140.1186121
0
LINE
8
0
10
77.0799342
20
-140.1186121
11
79.3762904
21
-156.4580352
0
LINE
8
0
10
77.0103477
20
-139.623478
11
94.3400389
21
-137.1879487
0
LINE
8
0
10
94.3400389
20
-137.1879487
11
92.0436827
21
-120.8485256
0
LINE
8
0
10
92.0436827
20
-120.8485256
11
74.7139915
21
-123.2840549
0
LINE
8
0
10
74.7139915
20
-123.2840549
11
77.0103477
21
-139.623478
0
LINE
8
0
10
74.644405
20
-122.7889208
11
91.9740962
21
-120.3533915
0
LINE
8
0
10
91.9740962
20
-120.3533915
11
89.67774
21
-104.0139684
0
LINE
8
0
10
89.67774
20
-104.0139684
11
72.3480488
21
-106.4494977
0
LINE
8
0
10
72.3480488
20
-106.4494977
11
74.644405
21
-122.7889208
0
LINE
8
0
10
96.1452109
20
-138.824796
11
113.6425456
21
-138.5193789
0
LINE
8
0
10
113.6425456
20
-138.5193789
11
113.3545809
21
-122.021892
0
LINE
8
0
10
113.3545809
20
-122.021892
11
95.8572462
21
-122.3273091
0
LINE
8
0
10
95.8572462
20
-122.3273091
11
96.1452109
21
-138.824796
0
LINE
8
0
10
95.84852
20
-121.8273852
11
113.3458547
21
-121.5219681
0
LINE
8
0
10
113.3458547
20
-121.5219681
11
113.05789
21
-105.0244812
0
LINE
8
0
10
113.05789
20
-105.0244812
11
95.5605553
21
-105.3298983
0
LINE
8
0
10
95.5605553
20
-105.3298983
11
95.84852
21
-121.8273852
0
LINE
8
0
10
95.5518291
20
-104.8299744
11
113.0491638
21
-104.5245573
0
LINE
8
0
10
113.0491638
20
-104.5245573
11
112.7611991
21
-88.0270704
0
LINE
8
0
10
112.7611991
20
-88.0270704
11
95.2638644
21
-88.3324875
0
LINE
8
0
10
95.2638644
20
-88.3324875
11
95.5518291
21
-104.8299744
0
LINE
8
0
10
115.3728638
20
-133.6944394
11
132.8302346
21
-134.9151777
0
LINE
8
0
10
132.8302346
20
-134.9151777
11
133.9812164
21
-118.4553708
0
LINE
8
0
10
133.9812164
20
-118.4553708
11
116.5238456
21
-117.2346325
0
LINE
8
0
10
116.5238456
20
-117.2346325
11
115.3728638
21
-133.6944394
0
LINE
8
0
10
116.5587239
20
-116.7358505
11
134.0160947
21
-117.9565888
0
LINE
8
0
10
134.0160947
20
-117.9565888
11
135.1670765
21
-101.4967819
0
LINE
8
0
10
135.1670765
20
-101.4967819
11
117.7097057
21
-100.2760436
0
LINE
8
0
10
117.7097057
20
-100.2760436
11
116.5587239
21
-116.7358505
0
LINE
8
0
10
117.744584
20
-99.7772616
11
135.2019548
21
-100.9979999
0
LINE
8
0
10
135.2019548
20
-100.9979999
11
136.3529366
21
-84.538193
0
LINE
8
0
10
136.3529366
20
-84.538193
11
118.8955658
21
-83.3174547
0
LINE
8
0
10
118.8955658
20
-83.3174547
11
117.744584
21
-99.7772616
0
LINE
8
0
10
133.3491173
20
-139.1677256
11
150.6336632
21
-141.9053288
0
LINE
8
0
10
150.6336632
20
-141.9053288
11
153.2148319
21
-125.6084712
0
LINE
8
0
10
153.2148319
20
-125.6084712
11
135.930286
21
-122.870868
0
LINE
8
0
10
135.930286
20
-122.870868
11
133.3491173
21
-139.1677256
0
LINE
8
0
10
136.0085032
20
-122.3770238
11
153.2930491
21
-125.114627
0
LINE
8
0
10
153.2930491
20
-125.114627
11
155.8742178
21
-108.8177694
0
LINE
8
0
10
155.8742178
20
-108.8177694
11
138.5896719
21
-106.0801662
0
LINE
8
0
10
138.5896719
20
-106.0801662
11
136.0085032
21
-122.3770238
0
LINE
8
0
10
138.6678891
20
-105.586322
11
155.952435
21
-108.3239252
0
LINE
8
0
10
155.952435
20
-108.3239252
11
158.5336037
21
-92.0270676
0
LINE
8
0
10
158.5336037
20
-92.0270676
11
141.2490578
21
-89.2894644
0
LINE
8
0
10
141.2490578
20
-89.2894644
11
138.6678891
21
-105.586322
0
LINE
8
0
10
151.9983878
20
-141.9655955
11
169.2325235
21
-145.0044386
0
LINE
8
0
10
169.2325235
20
-145.0044386
11
172.0977184
21
-128.7551107
0
LINE
8
0
10
172.0977184
20
-128.7551107
11
154.8635827
21
-125.7162676
0
LINE
8
0
10
154.8635827
20
-125.7162676
11
151.9983878
21
-141.9655955
0
LINE
8
0
10
154.9504068
20
-125.2238637
11
172.1845425
21
-128.2627068
0
LINE
8
0
10
172.1845425
20
-128.2627068
11
175.0497374
21
-112.0133789
0
LINE
8
0
10
175.0497374
20
-112.0133789
11
157.8156017
21
-108.9745358
0
LINE
8
0
10
157.8156017
20
-108.9745358
11
154.9504068
21
-125.2238637
0
LINE
8
0
10
157.9024258
20
-108.4821319
11
175.1365615
21
-111.520975
0
LINE
8
0
10
175.1365615
20
-111.520975
11
178.0017564
21
-95.2716471
0
LINE
8
0
10
178.0017564
20
-95.2716471
11
160.7676207
21
-92.232804
0
LINE
8
0
10
160.7676207
20
-92.232804
11
157.9024258
21
-108.4821319
0
LINE
8
0
10
141.63177
20
-160.4462133
11
158.8659057
21
-163.4850564
0
LINE
8
0
10
158.8659057
20
-163.4850564
11
161.7311006
21
-147.2357285
0
LINE
8
0
10
161.7311006
20
-147.2357285
11
144.4969649
21
-144.1968854
0
LINE
8
0
10
144.4969649
20
-144.1968854
11
141.63177
21
-160.4462133
0
LINE
8
0
10
161.1541619
20
-163.6420467
11
176.3096065
21
-172.3920467
0
LINE
8
0
10
176.3096065
20
-172.3920467
11
184.5596065
21
-158.1026275
0
LINE
8
0
10
184.5596065
20
-158.1026275
11
169.4041619
21
-149.3526275
0
LINE
8
0
10
169.4041619
20
-149.3526275
11
161.1541619
21
-163.6420467
0
LINE
8
0
10
178.0130696
20
-173.6103642
11
188.5448325
21
-187.5864857
0
LINE
8
0
10
188.5448325
20
-187.5864857
11
201.7223184
21
-177.6565378
0
LINE
8
0
10
201.7223184
20
-177.6565378
11
191.1905555
21
-163.6804163
0
LINE
8
0
10
191.1905555
20
-163.6804163
11
178.0130696
21
-173.6103642
0
LINE
8
0
10
172.7522381
20
-149.5535894
11
187.9076827
21
-158.3035894
0
LINE
8
0
10
187.9076827
20
-158.3035894
11
196.1576827
21
-144.0141702
0
LINE
8
0
10
196.1576827
20
-144.0141702
11
181.0022381
21
-135.2641702
0
LINE
8
0
10
181.0022381
20
-135.2641702
11
172.7522381
21
-149.5535894
0
LINE
8
0
10
189.4362752
20
-159.322025
11
199.9680381
21
-173.2981465
0
LINE
8
0
10
199.9680381
20
-173.2981465
11
213.145524
21
-163.3681986
0
LINE
8
0
10
213.145524
20
-163.3681986
11
202.6137611
21
-149.3920771
0
LINE
8
0
10
202.6137611
20
-149.3920771
11
189.4362752
21
-159.322025
0
LINE
8
0
10
342.3480488
20
-154.0225059
11
359.67774
21
-156.4580352
0
LINE
8
0
10
359.67774
20
-156.4580352
11
361.9740962
21
-140.1186121
0
LINE
8
0
10
361.9740962
20
-140.1186121
11
344.644405
21
-137.6830828
0
LINE
8
0
10
344.644405
20
-137.6830828
11
342.3480488
21
-154.0225059
0
LINE
8
0
10
344.7139915
20
-137.1879487
11
362.0436827
21
-139.623478
0
LINE
8
0
10
362.0436827
20
-139.623478
11
364.3400389
21
-123.2840549
0
LINE
8
0
10
364.3400389
20
-123.2840549
11
347.0103477
21
-120.8485256
0
LINE
8
0
10
347.0103477
20
-120.8485256
11
344.7139915
21
-137.1879487
0
LINE
8
0
10
347.0799342
20
-120.3533915
11
364.4096254
21
-122.7889208
0
LINE
8
0
10
364.4096254
20
-122.7889208
11
366.7059816
21
-106.4494977
0
LINE
8
0
10
366.7059816
20
-106.4494977
11
349.3762904
21
-104.0139684
0
LINE
8
0
10
349.3762904
20
-104.0139684
11
347.0799342
21
-120.3533915
0
LINE
8
0
10
325.4114848
20
-138.5193789
11
342.9088195
21
-138.824796
0
LINE
8
0
10
342.9088195
20
-138.824796
11
343.1967842
21
-122.3273091
0
LINE
8
0
10
343.1967842
20
-122.3273091
11
325.6994495
21
-122.021892
0
LINE
8
0
10
325.6994495
20
-122.021892
11
325.4114848
21
-138.5193789
0
LINE
8
0
10
325.7081757
20
-121.5219681
11
343.2055104
21
-121.8273852
0
LINE
8
0
10
343.2055104
20
-121.8273852
11
343.4934751
21
-105.3298983
0
LINE
8
0
10
343.4934751
20
-105.3298983
11
325.9961404
21
-105.0244812
0
LINE
8
0
10
325.9961404
20
-105.0244812
11
325.7081757
21
-121.5219681
0
LINE
8
0
10
326.0048666
20
-104.5245573
11
343.5022013
21
-104.8299744
0
LINE
8
0
10
343.5022013
20
-104.8299744
11
343.790166
21
-88.3324875
0
LINE
8
0
10
343.790166
20
-88.3324875
11
326.2928313
21
-88.0270704
0
LINE
8
0
10
326.2928313
20
-88.0270704
11
326.0048666
21
-104.5245573
0
LINE
8
0
10
306.2237958
20
-134.9151777
11
323.6811666
21
-133.6944394
0
LINE
8
0
10
323.6811666
20
-133.6944394
11
322.5301848
21
-117.2346325
0
LINE
8
0
10
322.5301848
20
-117.2346325
11
305.072814
21
-118.4553708
0
LINE
8
0
10
305.072814
20
-118.4553708
11
306.2237958
21
-134.9151777
0
LINE
8
0
10
305.0379357
20
-117.9565888
11
322.4953065
21
-116.7358505
0
LINE
8
0
10
322.4953065
20
-116.7358505
11
321.3443247
21
-100.2760436
0
LINE
8
0
10
321.3443247
20
-100.2760436
11
303.8869539
21
-101.4967819
0
LINE
8
0
10
303.8869539
20
-101.4967819
11
305.0379357
21
-117.9565888
0
LINE
8
0
10
303.8520756
20
-100.9979999
11
321.3094464
21
-99.7772616
0
LINE
8
0
10
321.3094464
20
-99.7772616
11
320.1584646
21
-83.3174547
0
LINE
8
0
10
320.1584646
20
-83.3174547
11
302.7010938
21
-84.538193
0
LINE
8
0
10
302.7010938
20
-84.538193
11
303.8520756
21
-100.9979999
0
LINE
8
0
10
288.4203672
20
-141.9053288
11
305.7049131
21
-139.1677256
0
LINE
8
0
10
305.7049131
20
-139.1677256
11
303.1237444
21
-122.870868
0
LINE
8
0
10
303.1237444
20
-122.870868
11
285.8391985
21
-125.6084712
0
LINE
8
0
10
285.8391985
20
-125.6084712
11
288.4203672
21
-141.9053288
0
LINE
8
0
10
285.7609813
20
-125.114627
11
303.0455272
21
-122.3770238
0
LINE
8
0
10
303.0455272
20
-122.3770238
11
300.4643585
21
-106.0801662
0
LINE
8
0
10
300.4643585
20
-106.0801662
11
283.1798126
21
-108.8177694
0
LINE
8
0
10
283.1798126
20
-108.8177694
11
285.7609813
21
-125.114627
0
LINE
8
0
10
283.1015954
20
-108.3239252
11
300.3861413
21
-105.586322
0
LINE
8
0
10
300.3861413
20
-105.586322
11
297.8049726
21
-89.2894644
0
LINE
8
0
10
297.8049726
20
-89.2894644
11
280.5204267
21
-92.0270676
0
LINE
8
0
10
280.5204267
20
-92.0270676
11
283.1015954
21
-108.3239252
0
LINE
8
0
10
269.8215069
20
-145.0044386
11
287.0556426
21
-141.9655955
0
LINE
8
0
10
287.0556426
20
-141.9655955
11
284.1904477
21
-125.7162676
0
LINE
8
0
10
284.1904477
20
-125.7162676
11
266.956312
21
-128.7551107
0
LINE
8
0
10
266.956312
20
-128.7551107
11
269.8215069
21
-145.0044386
0
LINE
8
0
10
266.8694879
20
-128.2627068
11
284.1036236
21
-125.2238637
0
LINE
8
0
10
284.1036236
20
-125.2238637
11
281.2384287
21
-108.9745358
0
LINE
8
0
10
281.2384287
20
-108.9745358
11
264.004293
21
-112.0133789
0
LINE
8
0
10
264.004293
20
-112.0133789
11
266.8694879
21
-128.2627068
0
LINE
8
0
10
263.9174689
20
-111.520975
11
281.1516046
21
-108.4821319
0
LINE
8
0
10
281.1516046
20
-108.4821319
11
278.2864097
21
-92.232804
0
LINE
8
0
10
278.2864097
20
-92.232804
11
261.052274
21
-95.2716471
0
LINE
8
0
10
261.052274
20
-95.2716471
11
263.9174689
21
-111.520975
0
LINE
8
0
10
280.1881247
20
-163.4850564
11
297.4222604
21
-160.4462133
0
LINE
8
0
10
297.4222604
20
-160.4462133
11
294.5570655
21
-144.1968854
0
LINE
8
0
10
294.5570655
20
-144.1968854
11
277.3229298
21
-147.2357285
0
LINE
8
0
10
277.3229298
20
-147.2357285
11
280.1881247
21
-163.4850564
0
LINE
8
0
10
262.7444239
20
-172.3920467
11
277.8998685
21
-163.6420467
0
LINE
8
0
10
277.8998685
20
-163.6420467
11
269.6498685
21
-149.3526275
0
LINE
8
0
10
269.6498685
20
-149.3526275
11
254.4944239
21
-158.1026275
0
LINE
8
0
10
254.4944239
20
-158.1026275
11
262.7444239
21
-172.3920467
0
LINE
8
0
10
250.5091979
20
-187.5864857
11
261.0409608
21
-173.6103642
0
LINE
8
0
10
261.0409608
20
-173.6103642
11
247.8634749
21
-163.6804163
0
LINE
8
0
10
247.8634749
20
-163.6804163
11
237.331712
21
-177.6565378
0
LINE
8
0
10
237.331712
20
-177.6565378
11
250.5091979
21
-187.5864857
0
LINE
8
0
10
251.1463477
20
-158.3035894
11
266.3017923
21
-149.5535894
0
LINE
8
0
10
266.3017923
20
-149.5535894
11
258.0517923
21
-135.2641702
0
LINE
8
0
10
258.0517923
20
-135.2641702
11
242.8963477
21
-144.0141702
0
LINE
8
0
10
242.8963477
20
-144.0141702
11
251.1463477
21
-158.3035894
0
LINE
8
0
10
239.0859923
20
-173.2981465
11
249.6177552
21
-159.322025
0
LINE
8
0
10
249.6177552
20
-159.322025
11
236.4402693
21
-149.3920771
0
LINE
8
0
10
236.4402693
20
-149.3920771
11
225.9085064
21
-163.3681986
0
LINE
8
0
10
225.9085064
20
-163.3681986
11
239.0859923
21
-173.2981465
0
ENDSEC
0
EOF