0
SECTION
2
HEADER
9
$INSUNITS
70
4
0
ENDSEC
0
SECTION
2
TABLES
0
TABLE
2
LTYPE
0
LTYPE
72
65
70
64
2
CONTINUOUS
3
______
73
0
40
0
0
ENDTAB
0
TABLE
2
LAYER
0
ENDTAB
0
ENDSEC
0
SECTION
2
ENTITIES
0
LINE
8
0
10
-5.6237096
20
-6.4580352
11
11.7059816
21
-4.0225059
0
LINE
8
0
10
11.7059816
20
-4.0225059
11
9.4096254
21
12.3169172
0
LINE
8
0
10
9.4096254
20
12.3169172
11
-7.9200658
21
9.8813879
0
LINE
8
0
10
-7.9200658
20
9.8813879
11
-5.6237096
21
-6.4580352
0
LINE
8
0
10
-7.9896523
20
10.376522
11
9.3400389
21
12.8120513
0
LINE
8
0
10
9.3400389
20
12.8120513
11
7.0436827
21
29.1514744
0
LINE
8
0
10
7.0436827
20
29.1514744
11
-10.2860085
21
26.7159451
0
LINE
8
0
10
-10.2860085
20
26.7159451
11
-7.9896523
21
10.376522
0
LINE
8
0
10
-10.355595
20
27.2110792
11
6.9740962
21
29.6466085
0
LINE
8
0
10
6.9740962
20
29.6466085
11
4.67774
21
45.9860316
0
LINE
8
0
10
4.67774
20
45.9860316
11
-12.6519512
21
43.5505023
0
LINE
8
0
10
-12.6519512
20
43.5505023
11
-10.355595
21
27.2110792
0
LINE
8
0
10
11.1452109
20
11.175204
11
28.6425456
21
11.4806211
0
LINE
8
0
10
28.6425456
20
11.4806211
11
28.3545809
21
27.978108
0
LINE
8
0
10
28.3545809
20
27.978108
11
10.8572462
21
27.6726909
0
LINE
8
0
10
10.8572462
20
27.6726909
11
11.1452109
21
11.175204
0
LINE
8
0
10
10.84852
20
28.1726148
11
28.3458547
21
28.4780319
0
LINE
8
0
10
28.3458547
20
28.4780319
11
28.05789
21
44.9755188
0
LINE
8
0
10
28.05789
20
44.9755188
11
10.5605553
21
44.6701017
0
LINE
8
0
10
10.5605553
20
44.6701017
11
10.84852
21
28.1726148
0
LINE
8
0
10
10.5518291
20
45.1700256
11
28.0491638
21
45.4754427
0
LINE
8
0
10
28.0491638
20
45.4754427
11
27.7611991
21
61.9729296
0
LINE
8
0
10
27.7611991
20
61.9729296
11
10.2638644
21
61.6675125
0
LINE
8
0
10
10.2638644
20
61.6675125
11
10.5518291
21
45.1700256
0
LINE
8
0
10
30.3728638
20
16.3055606
11
47.8302346
21
15.0848223
0
LINE
8
0
10
47.8302346
20
15.0848223
11
48.9812164
21
31.5446292
0
LINE
8
0
10
48.9812164
20
31.5446292
11
31.5238456
21
32.7653675
0
LINE
8
0
10
31.5238456
20
32.7653675
11
30.3728638
21
16.3055606
0
LINE
8
0
10
31.5587239
20
33.2641495
11
49.0160947
21
32.0434112
0
LINE
8
0
10
49.0160947
20
32.0434112
11
50.1670765
21
48.5032181
0
LINE
8
0
10
50.1670765
20
48.5032181
11
32.7097057
21
49.7239564
0
LINE
8
0
10
32.7097057
20
49.7239564
11
31.5587239
21
33.2641495
0
LINE
8
0
10
32.744584
20
50.2227384
11
50.2019548
21
49.0020001
0
LINE
8
0
10
50.2019548
20
49.0020001
11
51.3529366
21
65.461807
0
LINE
8
0
10
51.3529366
20
65.461807
11
33.8955658
21
66.6825453
0
LINE
8
0
10
33.8955658
20
66.6825453
11
32.744584
21
50.2227384
0
LINE
8
0
10
48.3491173
20
10.8322744
11
65.6336632
21
8.0946712
0
LINE
8
0
10
65.6336632
20
8.0946712
11
68.2148319
21
24.3915288
0
LINE
8
0
10
68.2148319
20
24.3915288
11
50.930286
21
27.129132
0
LINE
8
0
10
50.930286
20
27.129132
11
48.3491173
21
10.8322744
0
LINE
8
0
10
51.0085032
20
27.6229762
11
68.2930491
21
24.885373
0
LINE
8
0
10
68.2930491
20
24.885373
11
70.8742178
21
41.1822306
0
LINE
8
0
10
70.8742178
20
41.1822306
11
53.5896719
21
43.9198338
0
LINE
8
0
10
53.5896719
20
43.9198338
11
51.0085032
21
27.6229762
0
LINE
8
0
10
53.6678891
20
44.413678
11
70.952435
21
41.6760748
0
LINE
8
0
10
70.952435
20
41.6760748
11
73.5336037
21
57.9729324
0
LINE
8
0
10
73.5336037
20
57.9729324
11
56.2490578
21
60.7105356
0
LINE
8
0
10
56.2490578
20
60.7105356
11
53.6678891
21
44.413678
0
LINE
8
0
10
66.9983878
20
8.0344045
11
84.2325235
21
4.9955614
0
LINE
8
0
10
84.2325235
20
4.9955614
11
87.0977184
21
21.2448893
0
LINE
8
0
10
87.0977184
20
21.2448893
11
69.8635827
21
24.2837324
0
LINE
8
0
10
69.8635827
20
24.2837324
11
66.9983878
21
8.0344045
0
LINE
8
0
10
69.9504068
20
24.7761363
11
87.1845425
21
21.7372932
0
LINE
8
0
10
87.1845425
20
21.7372932
11
90.0497374
21
37.9866211
0
LINE
8
0
10
90.0497374
20
37.9866211
11
72.8156017
21
41.0254642
0
LINE
8
0
10
72.8156017
20
41.0254642
11
69.9504068
21
24.7761363
0
LINE
8
0
10
72.9024258
20
41.5178681
11
90.1365615
21
38.479025
0
LINE
8
0
10
90.1365615
20
38.479025
11
93.0017564
21
54.7283529
0
LINE
8
0
10
93.0017564
20
54.7283529
11
75.7676207
21
57.767196
0
LINE
8
0
10
75.7676207
20
57.767196
11
72.9024258
21
41.5178681
0
LINE
8
0
10
56.63177
20
-10.4462133
11
73.8659057
21
-13.4850564
0
LINE
8
0
10
73.8659057
20
-13.4850564
11
76.7311006
21
2.7642715
0
LINE
8
0
10
76.7311006
20
2.7642715
11
59.4969649
21
5.8031146
0
LINE
8
0
10
59.4969649
20
5.8031146
11
56.63177
21
-10.4462133
0
LINE
8
0
10
76.1541619
20
-13.6420467
11
91.3096065
21
-22.3920467
0
LINE
8
0
10
91.3096065
20
-22.3920467
11
99.5596065
21
-8.1026275
0
LINE
8
0
10
99.5596065
20
-8.1026275
11
84.4041619
21
0.6473725
0
LINE
8
0
10
84.4041619
20
0.6473725
11
76.1541619
21
-13.6420467
0
LINE
8
0
10
93.0130696
20
-23.6103642
11
103.5448325
21
-37.5864857
0
LINE
8
0
10
103.5448325
20
-37.5864857
11
116.7223184
21
-27.6565378
0
LINE
8
0
10
116.7223184
20
-27.6565378
11
106.1905555
21
-13.6804163
0
LINE
8
0
10
106.1905555
20
-13.6804163
11
93.0130696
21
-23.6103642
0
LINE
8
0
10
87.7522381
20
0.4464106
11
102.9076827
21
-8.3035894
0
LINE
8
0
10
102.9076827
20
-8.3035894
11
111.1576827
21
5.9858298
0
LINE
8
0
10
111.1576827
20
5.9858298
11
96.0022381
21
14.7358298
0
LINE
8
0
10
96.0022381
20
14.7358298
11
87.7522381
21
0.4464106
0
LINE
8
0
10
104.4362752
20
-9.322025
11
114.9680381
21
-23.2981465
0
LINE
8
0
10
114.9680381
20
-23.2981465
11
128.145524
21
-13.3681986
0
LINE
8
0
10
128.145524
20
-13.3681986
11
117.6137611
21
0.6079229
0
LINE
8
0
10
117.6137611
20
0.6079229
11
104.4362752
21
-9.322025
0
LINE
8
0
10
257.3480488
20
-4.0225059
11
274.67774
21
-6.4580352
0
LINE
8
0
10
274.67774
20
-6.4580352
11
276.9740962
21
9.8813879
0
LINE
8
0
10
276.9740962
20
9.8813879
11
259.644405
21
12.3169172
0
LINE
8
0
10
259.644405
20
12.3169172
11
257.3480488
21
-4.0225059
0
LINE
8
0
10
259.7139915
20
12.8120513
11
277.0436827
21
10.376522
0
LINE
8
0
10
277.0436827
20
10.376522
11
279.3400389
21
26.7159451
0
LINE
8
0
10
279.3400389
20
26.7159451
11
262.0103477
21
29.1514744
0
LINE
8
0
10
262.0103477
20
29.1514744
11
259.7139915
21
12.8120513
0
LINE
8
0
10
262.0799342
20
29.6466085
11
279.4096254
21
27.2110792
0
LINE
8
0
10
279.4096254
20
27.2110792
11
281.7059816
21
43.5505023
0
LINE
8
0
10
281.7059816
20
43.5505023
11
264.3762904
21
45.9860316
0
LINE
8
0
10
264.3762904
20
45.9860316
11
262.0799342
21
29.6466085
0
LINE
8
0
10
240.4114848
20
11.4806211
11
257.9088195
21
11.175204
0
LINE
8
0
10
257.9088195
20
11.175204
11
258.1967842
21
27.6726909
0
LINE
8
0
10
258.1967842
20
27.6726909
11
240.6994495
21
27.978108
0
LINE
8
0
10
240.6994495
20
27.978108
11
240.4114848
21
11.4806211
0
LINE
8
0
10
240.7081757
20
28.4780319
11
258.2055104
21
28.1726148
0
LINE
8
0
10
258.2055104
20
28.1726148
11
258.4934751
21
44.6701017
0
LINE
8
0
10
258.4934751
20
44.6701017
11
240.9961404
21
44.9755188
0
LINE
8
0
10
240.9961404
20
44.9755188
11
240.7081757
21
28.4780319
0
LINE
8
0
10
241.0048666
20
45.4754427
11
258.5022013
21
45.1700256
0
LINE
8
0
10
258.5022013
20
45.1700256
11
258.790166
21
61.6675125
0
LINE
8
0
10
258.790166
20
61.6675125
11
241.2928313
21
61.9729296
0
LINE
8
0
10
241.2928313
20
61.9729296
11
241.0048666
21
45.4754427
0
LINE
8
0
10
221.2237958
20
15.0848223
11
238.6811666
21
16.3055606
0
LINE
8
0
10
238.6811666
20
16.3055606
11
237.5301848
21
32.7653675
0
LINE
8
0
10
237.5301848
20
32.7653675
11
220.072814
21
31.5446292
0
LINE
8
0
10
220.072814
20
31.5446292
11
221.2237958
21
15.0848223
0
LINE
8
0
10
220.0379357
20
32.0434112
11
237.4953065
21
33.2641495
0
LINE
8
0
10
237.4953065
20
33.2641495
11
236.3443247
21
49.7239564
0
LINE
8
0
10
236.3443247
20
49.7239564
11
218.8869539
21
48.5032181
0
LINE
8
0
10
218.8869539
20
48.5032181
11
220.0379357
21
32.0434112
0
LINE
8
0
10
218.8520756
20
49.0020001
11
236.3094464
21
50.2227384
0
LINE
8
0
10
236.3094464
20
50.2227384
11
235.1584646
21
66.6825453
0
LINE
8
0
10
235.1584646
20
66.6825453
11
217.7010938
21
65.461807
0
LINE
8
0
10
217.7010938
20
65.461807
11
218.8520756
21
49.0020001
0
LINE
8
0
10
203.4203672
20
8.0946712
11
220.7049131
21
10.8322744
0
LINE
8
0
10
220.7049131
20
10.8322744
11
218.1237444
21
27.129132
0
LINE
8
0
10
218.1237444
20
27.129132
11
200.8391985
21
24.3915288
0
LINE
8
0
10
200.8391985
20
24.3915288
11
203.4203672
21
8.0946712
0
LINE
8
0
10
200.7609813
20
24.885373
11
218.0455272
21
27.6229762
0
LINE
8
0
10
218.0455272
20
27.6229762
11
215.4643585
21
43.9198338
0
LINE
8
0
10
215.4643585
20
43.9198338
11
198.1798126
21
41.1822306
0
LINE
8
0
10
198.1798126
20
41.1822306
11
200.7609813
21
24.885373
0
LINE
8
0
10
198.1015954
20
41.6760748
11
215.3861413
21
44.413678
0
LINE
8
0
10
215.3861413
20
44.413678
11
212.8049726
21
60.7105356
0
LINE
8
0
10
212.8049726
20
60.7105356
11
195.5204267
21
57.9729324
0
LINE
8
0
10
195.5204267
20
57.9729324
11
198.1015954
21
41.6760748
0
LINE
8
0
10
184.8215069
20
4.9955614
11
202.0556426
21
8.0344045
0
LINE
8
0
10
202.0556426
20
8.0344045
11
199.1904477
21
24.2837324
0
LINE
8
0
10
199.1904477
20
24.2837324
11
181.956312
21
21.2448893
0
LINE
8
0
10
181.956312
20
21.2448893
11
184.8215069
21
4.9955614
0
LINE
8
0
10
181.8694879
20
21.7372932
11
199.1036236
21
24.7761363
0
LINE
8
0
10
199.1036236
20
24.7761363
11
196.2384287
21
41.0254642
0
LINE
8
0
10
196.2384287
20
41.0254642
11
179.004293
21
37.9866211
0
LINE
8
0
10
179.004293
20
37.9866211
11
181.8694879
21
21.7372932
0
LINE
8
0
10
178.9174689
20
38.479025
11
196.1516046
21
41.5178681
0
LINE
8
0
10
196.1516046
20
41.5178681
11
193.2864097
21
57.767196
0
LINE
8
0
10
193.2864097
20
57.767196
11
176.052274
21
54.7283529
0
LINE
8
0
10
176.052274
20
54.7283529
11
178.9174689
21
38.479025
0
LINE
8
0
10
195.1881247
20
-13.4850564
11
212.4222604
21
-10.4462133
0
LINE
8
0
10
212.4222604
20
-10.4462133
11
209.5570655
21
5.8031146
0
LINE
8
0
10
209.5570655
20
5.8031146
11
192.3229298
21
2.7642715
0
LINE
8
0
10
192.3229298
20
2.7642715
11
195.1881247
21
-13.4850564
0
LINE
8
0
10
177.7444239
20
-22.3920467
11
192.8998685
21
-13.6420467
0
LINE
8
0
10
192.8998685
20
-13.6420467
11
184.6498685
21
0.6473725
0
LINE
8
0
10
184.6498685
20
0.6473725
11
169.4944239
21
-8.1026275
0
LINE
8
0
10
169.4944239
20
-8.1026275
11
177.7444239
21
-22.3920467
0
LINE
8
0
10
165.5091979
20
-37.5864857
11
176.0409608
21
-23.6103642
0
LINE
8
0
10
176.0409608
20
-23.6103642
11
162.8634749
21
-13.6804163
0
LINE
8
0
10
162.8634749
20
-13.6804163
11
152.331712
21
-27.6565378
0
LINE
8
0
10
152.331712
20
-27.6565378
11
165.5091979
21
-37.5864857
0
LINE
8
0
10
166.1463477
20
-8.3035894
11
181.3017923
21
0.4464106
0
LINE
8
0
10
181.3017923
20
0.4464106
11
173.0517923
21
14.7358298
0
LINE
8
0
10
173.0517923
20
14.7358298
11
157.8963477
21
5.9858298
0
LINE
8
0
10
157.8963477
20
5.9858298
11
166.1463477
21
-8.3035894
0
LINE
8
0
10
154.0859923
20
-23.2981465
11
164.6177552
21
-9.322025
0
LINE
8
0
10
164.6177552
20
-9.322025
11
151.4402693
21
0.6079229
0
LINE
8
0
10
151.4402693
20
0.6079229
11
140.9085064
21
-13.3681986
0
LINE
8
0
10
140.9085064
20
-13.3681986
11
154.0859923
21
-23.2981465
0
ENDSEC
0
EOF