0
SECTION
2
HEADER
9
$INSUNITS
70
4
0
ENDSEC
0
SECTION
2
TABLES
0
TABLE
2
LTYPE
0
LTYPE
72
65
70
64
2
CONTINUOUS
3
______
73
0
40
0
0
ENDTAB
0
TABLE
2
LAYER
0
ENDTAB
0
ENDSEC
0
SECTION
2
ENTITIES
0
LINE
8
0
10
-5.8364834
20
-6.7403955
11
11.9883419
21
-4.2352797
0
LINE
8
0
10
4.8905138
20
46.2683919
11
11.9883419
21
-4.2352797
0
LINE
8
0
10
-12.9343115
20
43.7632761
11
-5.8364834
21
-6.7403955
0
LINE
8
0
10
4.8905138
20
46.2683919
11
-12.9343115
21
43.7632761
0
LINE
8
0
10
10.8996121
20
10.9208789
11
28.8968706
21
11.2350222
0
LINE
8
0
10
28.0067979
20
62.2272547
11
28.8968706
21
11.2350222
0
LINE
8
0
10
10.0095394
20
61.9131114
11
10.8996121
21
10.9208789
0
LINE
8
0
10
28.0067979
20
62.2272547
11
10.0095394
21
61.9131114
0
LINE
8
0
10
30.1060336
20
16.0736087
11
48.0621865
21
14.8179922
0
LINE
8
0
10
48.0621865
20
14.8179922
11
51.6197668
21
65.6937589
0
LINE
8
0
10
30.1060336
20
16.0736087
11
33.6636139
21
66.9493754
0
LINE
8
0
10
51.6197668
20
65.6937589
11
33.6636139
21
66.9493754
0
LINE
8
0
10
48.0630866
20
10.6244609
11
65.8414767
21
7.8086405
0
LINE
8
0
10
65.8414767
20
7.8086405
11
73.8196344
21
58.1807459
0
LINE
8
0
10
48.0630866
20
10.6244609
11
56.0412443
21
60.9965663
0
LINE
8
0
10
73.8196344
20
58.1807459
11
56.0412443
21
60.9965663
0
LINE
8
0
10
66.7087738
20
7.8316146
11
84.4353134
21
4.7059474
0
LINE
8
0
10
84.4353134
20
4.7059474
11
93.2913704
21
54.9311428
0
LINE
8
0
10
66.7087738
20
7.8316146
11
75.5648308
21
58.05681
0
LINE
8
0
10
93.2913704
20
54.9311428
11
75.5648308
21
58.05681
0
LINE
8
0
10
56.342156
20
-10.6490032
11
74.0686956
21
-13.7746704
0
LINE
8
0
10
74.0686956
20
-13.7746704
11
77.0207146
21
2.9670614
0
LINE
8
0
10
77.0207146
20
2.9670614
11
59.294175
21
6.0927286
0
LINE
8
0
10
59.294175
20
6.0927286
11
56.342156
21
-10.6490032
0
LINE
8
0
10
75.8126556
20
-13.733553
11
91.4011128
21
-22.733553
0
LINE
8
0
10
91.4011128
20
-22.733553
11
99.9011128
21
-8.0111212
0
LINE
8
0
10
99.9011128
20
-8.0111212
11
84.3126556
21
0.9888788
0
LINE
8
0
10
84.3126556
20
0.9888788
11
75.8126556
21
-13.733553
0
LINE
8
0
10
92.662957
20
-23.5611591
11
103.4956274
21
-37.9365983
0
LINE
8
0
10
103.4956274
20
-37.9365983
11
117.072431
21
-27.7057429
0
LINE
8
0
10
117.072431
20
-27.7057429
11
106.2397606
21
-13.3303037
0
LINE
8
0
10
106.2397606
20
-13.3303037
11
92.662957
21
-23.5611591
0
LINE
8
0
10
87.4107318
20
0.3549043
11
102.999189
21
-8.6450957
0
LINE
8
0
10
102.999189
20
-8.6450957
11
111.499189
21
6.0773361
0
LINE
8
0
10
111.499189
20
6.0773361
11
95.9107318
21
15.0773361
0
LINE
8
0
10
95.9107318
20
15.0773361
11
87.4107318
21
0.3549043
0
LINE
8
0
10
104.0861626
20
-9.2728199
11
114.918833
21
-23.6482591
0
LINE
8
0
10
114.918833
20
-23.6482591
11
128.4956366
21
-13.4174037
0
LINE
8
0
10
128.4956366
20
-13.4174037
11
117.6629662
21
0.9580355
0
LINE
8
0
10
117.6629662
20
0.9580355
11
104.0861626
21
-9.2728199
0
LINE
8
0
10
257.0656885
20
-4.2352797
11
274.8905138
21
-6.7403955
0
LINE
8
0
10
274.8905138
20
-6.7403955
11
281.9883419
21
43.7632761
0
LINE
8
0
10
257.0656885
20
-4.2352797
11
264.1635166
21
46.2683919
0
LINE
8
0
10
281.9883419
20
43.7632761
11
264.1635166
21
46.2683919
0
LINE
8
0
10
240.1571598
20
11.2350222
11
258.1544183
21
10.9208789
0
LINE
8
0
10
258.1544183
20
10.9208789
11
259.044491
21
61.9131114
0
LINE
8
0
10
240.1571598
20
11.2350222
11
241.0472325
21
62.2272547
0
LINE
8
0
10
259.044491
20
61.9131114
11
241.0472325
21
62.2272547
0
LINE
8
0
10
220.9918439
20
14.8179922
11
238.9479968
21
16.0736087
0
LINE
8
0
10
235.3904165
20
66.9493754
11
238.9479968
21
16.0736087
0
LINE
8
0
10
217.4342636
20
65.6937589
11
220.9918439
21
14.8179922
0
LINE
8
0
10
235.3904165
20
66.9493754
11
217.4342636
21
65.6937589
0
LINE
8
0
10
203.2125537
20
7.8086405
11
220.9909438
21
10.6244609
0
LINE
8
0
10
213.0127861
20
60.9965663
11
220.9909438
21
10.6244609
0
LINE
8
0
10
195.234396
20
58.1807459
11
203.2125537
21
7.8086405
0
LINE
8
0
10
213.0127861
20
60.9965663
11
195.234396
21
58.1807459
0
LINE
8
0
10
184.618717
20
4.7059474
11
202.3452566
21
7.8316146
0
LINE
8
0
10
193.4891996
20
58.05681
11
202.3452566
21
7.8316146
0
LINE
8
0
10
175.76266
20
54.9311428
11
184.618717
21
4.7059474
0
LINE
8
0
10
193.4891996
20
58.05681
11
175.76266
21
54.9311428
0
LINE
8
0
10
194.9853348
20
-13.7746704
11
212.7118744
21
-10.6490032
0
LINE
8
0
10
212.7118744
20
-10.6490032
11
209.7598554
21
6.0927286
0
LINE
8
0
10
209.7598554
20
6.0927286
11
192.0333158
21
2.9670614
0
LINE
8
0
10
192.0333158
20
2.9670614
11
194.9853348
21
-13.7746704
0
LINE
8
0
10
177.6529176
20
-22.733553
11
193.2413748
21
-13.733553
0
LINE
8
0
10
193.2413748
20
-13.733553
11
184.7413748
21
0.9888788
0
LINE
8
0
10
184.7413748
20
0.9888788
11
169.1529176
21
-8.0111212
0
LINE
8
0
10
169.1529176
20
-8.0111212
11
177.6529176
21
-22.733553
0
LINE
8
0
10
165.558403
20
-37.9365983
11
176.3910734
21
-23.5611591
0
LINE
8
0
10
176.3910734
20
-23.5611591
11
162.8142698
21
-13.3303037
0
LINE
8
0
10
162.8142698
20
-13.3303037
11
151.9815994
21
-27.7057429
0
LINE
8
0
10
151.9815994
20
-27.7057429
11
165.558403
21
-37.9365983
0
LINE
8
0
10
166.0548414
20
-8.6450957
11
181.6432986
21
0.3549043
0
LINE
8
0
10
181.6432986
20
0.3549043
11
173.1432986
21
15.0773361
0
LINE
8
0
10
173.1432986
20
15.0773361
11
157.5548414
21
6.0773361
0
LINE
8
0
10
157.5548414
20
6.0773361
11
166.0548414
21
-8.6450957
0
LINE
8
0
10
154.1351974
20
-23.6482591
11
164.9678678
21
-9.2728199
0
LINE
8
0
10
164.9678678
20
-9.2728199
11
151.3910642
21
0.9580355
0
LINE
8
0
10
151.3910642
20
0.9580355
11
140.5583938
21
-13.4174037
0
LINE
8
0
10
140.5583938
20
-13.4174037
11
154.1351974
21
-23.6482591
0
ENDSEC
0
EOF