0
SECTION
2
HEADER
9
$INSUNITS
70
4
0
ENDSEC
0
SECTION
2
TABLES
0
TABLE
2
LTYPE
0
LTYPE
72
65
70
64
2
CONTINUOUS
3
______
73
0
40
0
0
ENDTAB
0
TABLE
2
LAYER
0
ENDTAB
0
ENDSEC
0
SECTION
2
ENTITIES
0
LINE
8
0
10
9
20
-4.6552638
11
11.9883419
21
-4.2352797
0
LINE
8
0
10
4.8905138
20
46.2683919
11
11.9883419
21
-4.2352797
0
LINE
8
0
10
-12.9343115
20
43.7632761
11
-7.9783813
21
8.5
0
LINE
8
0
10
4.8905138
20
46.2683919
11
-12.9343115
21
43.7632761
0
LINE
8
0
10
10.8996121
20
10.9208789
11
28.8968706
21
11.2350222
0
LINE
8
0
10
28.8968706
20
11.2350222
11
28.6001797
21
28.2324331
0
LINE
8
0
10
28.6001797
20
28.2324331
11
10.6029212
21
27.9182898
0
LINE
8
0
10
10.6029212
20
27.9182898
11
10.8996121
21
10.9208789
0
LINE
8
0
10
10.5680164
20
29.9179851
11
28.5652749
21
30.2321284
0
LINE
8
0
10
28.5652749
20
30.2321284
11
28.268584
21
47.2295393
0
LINE
8
0
10
28.268584
20
47.2295393
11
10.2713255
21
46.915396
0
LINE
8
0
10
10.2713255
20
46.915396
11
10.5680164
21
29.9179851
0
LINE
8
0
10
10.2364207
20
48.9150913
11
28.2336792
21
49.2292346
0
LINE
8
0
10
28.2336792
20
49.2292346
11
27.9369883
21
66.2266455
0
LINE
8
0
10
27.9369883
20
66.2266455
11
9.9397298
21
65.9125022
0
LINE
8
0
10
9.9397298
20
65.9125022
11
10.2364207
21
48.9150913
0
LINE
8
0
10
30.1060336
20
16.0736087
11
48.0621865
21
14.8179922
0
LINE
8
0
10
48.0621865
20
14.8179922
11
49.2480466
21
31.7765811
0
LINE
8
0
10
49.2480466
20
31.7765811
11
31.2918937
21
33.0321976
0
LINE
8
0
10
31.2918937
20
33.0321976
11
30.1060336
21
16.0736087
0
LINE
8
0
10
31.4314066
20
35.0273257
11
49.3875595
21
33.7717092
0
LINE
8
0
10
49.3875595
20
33.7717092
11
50.5734196
21
50.7302981
0
LINE
8
0
10
50.5734196
20
50.7302981
11
32.6172667
21
51.9859146
0
LINE
8
0
10
32.6172667
20
51.9859146
11
31.4314066
21
35.0273257
0
LINE
8
0
10
32.7567796
20
53.9810427
11
50.7129325
21
52.7254262
0
LINE
8
0
10
50.7129325
20
52.7254262
11
51.8987926
21
69.6840151
0
LINE
8
0
10
51.8987926
20
69.6840151
11
33.9426397
21
70.9396316
0
LINE
8
0
10
33.9426397
20
70.9396316
11
32.7567796
21
53.9810427
0
LINE
8
0
10
48.0630866
20
10.6244609
11
65.8414767
21
7.8086405
0
LINE
8
0
10
65.8414767
20
7.8086405
11
68.5008626
21
24.5993423
0
LINE
8
0
10
68.5008626
20
24.5993423
11
50.7224725
21
27.4151627
0
LINE
8
0
10
50.7224725
20
27.4151627
11
48.0630866
21
10.6244609
0
LINE
8
0
10
51.0353414
20
29.3905394
11
68.8137315
21
26.574719
0
LINE
8
0
10
68.8137315
20
26.574719
11
71.4731174
21
43.3654208
0
LINE
8
0
10
71.4731174
20
43.3654208
11
53.6947273
21
46.1812412
0
LINE
8
0
10
53.6947273
20
46.1812412
11
51.0353414
21
29.3905394
0
LINE
8
0
10
54.0075962
20
48.1566179
11
71.7859863
21
45.3407975
0
LINE
8
0
10
71.7859863
20
45.3407975
11
74.4453722
21
62.1314993
0
LINE
8
0
10
74.4453722
20
62.1314993
11
56.6669821
21
64.9473197
0
LINE
8
0
10
56.6669821
20
64.9473197
11
54.0075962
21
48.1566179
0
LINE
8
0
10
66.7087738
20
7.8316146
11
84.4353134
21
4.7059474
0
LINE
8
0
10
84.4353134
20
4.7059474
11
87.3873324
21
21.4476792
0
LINE
8
0
10
87.3873324
20
21.4476792
11
69.6607928
21
24.5733464
0
LINE
8
0
10
69.6607928
20
24.5733464
11
66.7087738
21
7.8316146
0
LINE
8
0
10
70.0080892
20
26.5429619
11
87.7346288
21
23.4172947
0
LINE
8
0
10
87.7346288
20
23.4172947
11
90.6866478
21
40.1590265
0
LINE
8
0
10
90.6866478
20
40.1590265
11
72.9601082
21
43.2846937
0
LINE
8
0
10
72.9601082
20
43.2846937
11
70.0080892
21
26.5429619
0
LINE
8
0
10
73.3074046
20
45.2543092
11
91.0339442
21
42.128642
0
LINE
8
0
10
91.0339442
20
42.128642
11
93.9859632
21
58.8703738
0
LINE
8
0
10
93.9859632
20
58.8703738
11
76.2594236
21
61.996041
0
LINE
8
0
10
76.2594236
20
61.996041
11
73.3074046
21
45.2543092
0
LINE
8
0
10
56.342156
20
-10.6490032
11
74.0686956
21
-13.7746704
0
LINE
8
0
10
74.0686956
20
-13.7746704
11
77.0207146
21
2.9670614
0
LINE
8
0
10
77.0207146
20
2.9670614
11
59.294175
21
6.0927286
0
LINE
8
0
10
59.294175
20
6.0927286
11
56.342156
21
-10.6490032
0
LINE
8
0
10
75.8126556
20
-13.733553
11
91.4011128
21
-22.733553
0
LINE
8
0
10
91.4011128
20
-22.733553
11
99.9011128
21
-8.0111212
0
LINE
8
0
10
99.9011128
20
-8.0111212
11
84.3126556
21
0.9888788
0
LINE
8
0
10
84.3126556
20
0.9888788
11
75.8126556
21
-13.733553
0
LINE
8
0
10
92.662957
20
-23.5611591
11
103.4956274
21
-37.9365983
0
LINE
8
0
10
103.4956274
20
-37.9365983
11
117.072431
21
-27.7057429
0
LINE
8
0
10
117.072431
20
-27.7057429
11
106.2397606
21
-13.3303037
0
LINE
8
0
10
106.2397606
20
-13.3303037
11
92.662957
21
-23.5611591
0
LINE
8
0
10
87.9107318
20
1.2209297
11
103.499189
21
-7.7790703
0
LINE
8
0
10
103.499189
20
-7.7790703
11
111.999189
21
6.9433615
0
LINE
8
0
10
111.999189
20
6.9433615
11
96.4107318
21
15.9433615
0
LINE
8
0
10
96.4107318
20
15.9433615
11
87.9107318
21
1.2209297
0
LINE
8
0
10
104.8847981
20
-8.6710048
11
115.7174685
21
-23.046444
0
LINE
8
0
10
115.7174685
20
-23.046444
11
129.2942721
21
-12.8155886
0
LINE
8
0
10
129.2942721
20
-12.8155886
11
118.4616017
21
1.5598506
0
LINE
8
0
10
118.4616017
20
1.5598506
11
104.8847981
21
-8.6710048
0
LINE
8
0
10
-9
20
-8.5
11
9
21
-8.5
0
LINE
8
0
10
9
20
-8.5
11
9
21
-4.6552638
0
LINE
8
0
10
-7.9783813
20
8.5
11
-9
21
8.5
0
LINE
8
0
10
-9
20
8.5
11
-9
21
-8.5
0
LINE
8
0
10
257.0656885
20
-4.2352797
11
260.0540304
21
-4.6552638
0
LINE
8
0
10
277.0324117
20
8.5
11
281.9883419
21
43.7632761
0
LINE
8
0
10
257.0656885
20
-4.2352797
11
264.1635166
21
46.2683919
0
LINE
8
0
10
281.9883419
20
43.7632761
11
264.1635166
21
46.2683919
0
LINE
8
0
10
240.1571598
20
11.2350222
11
258.1544183
21
10.9208789
0
LINE
8
0
10
258.1544183
20
10.9208789
11
258.4511092
21
27.9182898
0
LINE
8
0
10
258.4511092
20
27.9182898
11
240.4538507
21
28.2324331
0
LINE
8
0
10
240.4538507
20
28.2324331
11
240.1571598
21
11.2350222
0
LINE
8
0
10
240.4887555
20
30.2321284
11
258.486014
21
29.9179851
0
LINE
8
0
10
258.486014
20
29.9179851
11
258.7827049
21
46.915396
0
LINE
8
0
10
258.7827049
20
46.915396
11
240.7854464
21
47.2295393
0
LINE
8
0
10
240.7854464
20
47.2295393
11
240.4887555
21
30.2321284
0
LINE
8
0
10
240.8203512
20
49.2292346
11
258.8176097
21
48.9150913
0
LINE
8
0
10
258.8176097
20
48.9150913
11
259.1143006
21
65.9125022
0
LINE
8
0
10
259.1143006
20
65.9125022
11
241.1170421
21
66.2266455
0
LINE
8
0
10
241.1170421
20
66.2266455
11
240.8203512
21
49.2292346
0
LINE
8
0
10
220.9918439
20
14.8179922
11
238.9479968
21
16.0736087
0
LINE
8
0
10
238.9479968
20
16.0736087
11
237.7621367
21
33.0321976
0
LINE
8
0
10
237.7621367
20
33.0321976
11
219.8059838
21
31.7765811
0
LINE
8
0
10
219.8059838
20
31.7765811
11
220.9918439
21
14.8179922
0
LINE
8
0
10
219.6664709
20
33.7717092
11
237.6226238
21
35.0273257
0
LINE
8
0
10
237.6226238
20
35.0273257
11
236.4367637
21
51.9859146
0
LINE
8
0
10
236.4367637
20
51.9859146
11
218.4806108
21
50.7302981
0
LINE
8
0
10
218.4806108
20
50.7302981
11
219.6664709
21
33.7717092
0
LINE
8
0
10
218.3410979
20
52.7254262
11
236.2972508
21
53.9810427
0
LINE
8
0
10
236.2972508
20
53.9810427
11
235.1113907
21
70.9396316
0
LINE
8
0
10
235.1113907
20
70.9396316
11
217.1552378
21
69.6840151
0
LINE
8
0
10
217.1552378
20
69.6840151
11
218.3410979
21
52.7254262
0
LINE
8
0
10
203.2125537
20
7.8086405
11
220.9909438
21
10.6244609
0
LINE
8
0
10
220.9909438
20
10.6244609
11
218.3315579
21
27.4151627
0
LINE
8
0
10
218.3315579
20
27.4151627
11
200.5531678
21
24.5993423
0
LINE
8
0
10
200.5531678
20
24.5993423
11
203.2125537
21
7.8086405
0
LINE
8
0
10
200.2402989
20
26.574719
11
218.018689
21
29.3905394
0
LINE
8
0
10
218.018689
20
29.3905394
11
215.3593031
21
46.1812412
0
LINE
8
0
10
215.3593031
20
46.1812412
11
197.580913
21
43.3654208
0
LINE
8
0
10
197.580913
20
43.3654208
11
200.2402989
21
26.574719
0
LINE
8
0
10
197.2680441
20
45.3407975
11
215.0464342
21
48.1566179
0
LINE
8
0
10
215.0464342
20
48.1566179
11
212.3870483
21
64.9473197
0
LINE
8
0
10
212.3870483
20
64.9473197
11
194.6086582
21
62.1314993
0
LINE
8
0
10
194.6086582
20
62.1314993
11
197.2680441
21
45.3407975
0
LINE
8
0
10
184.618717
20
4.7059474
11
202.3452566
21
7.8316146
0
LINE
8
0
10
202.3452566
20
7.8316146
11
199.3932376
21
24.5733464
0
LINE
8
0
10
199.3932376
20
24.5733464
11
181.666698
21
21.4476792
0
LINE
8
0
10
181.666698
20
21.4476792
11
184.618717
21
4.7059474
0
LINE
8
0
10
181.3194016
20
23.4172947
11
199.0459412
21
26.5429619
0
LINE
8
0
10
199.0459412
20
26.5429619
11
196.0939222
21
43.2846937
0
LINE
8
0
10
196.0939222
20
43.2846937
11
178.3673826
21
40.1590265
0
LINE
8
0
10
178.3673826
20
40.1590265
11
181.3194016
21
23.4172947
0
LINE
8
0
10
178.0200862
20
42.128642
11
195.7466258
21
45.2543092
0
LINE
8
0
10
195.7466258
20
45.2543092
11
192.7946068
21
61.996041
0
LINE
8
0
10
192.7946068
20
61.996041
11
175.0680672
21
58.8703738
0
LINE
8
0
10
175.0680672
20
58.8703738
11
178.0200862
21
42.128642
0
LINE
8
0
10
194.9853348
20
-13.7746704
11
212.7118744
21
-10.6490032
0
LINE
8
0
10
212.7118744
20
-10.6490032
11
209.7598554
21
6.0927286
0
LINE
8
0
10
209.7598554
20
6.0927286
11
192.0333158
21
2.9670614
0
LINE
8
0
10
192.0333158
20
2.9670614
11
194.9853348
21
-13.7746704
0
LINE
8
0
10
177.6529176
20
-22.733553
11
193.2413748
21
-13.733553
0
LINE
8
0
10
193.2413748
20
-13.733553
11
184.7413748
21
0.9888788
0
LINE
8
0
10
184.7413748
20
0.9888788
11
169.1529176
21
-8.0111212
0
LINE
8
0
10
169.1529176
20
-8.0111212
11
177.6529176
21
-22.733553
0
LINE
8
0
10
165.558403
20
-37.9365983
11
176.3910734
21
-23.5611591
0
LINE
8
0
10
176.3910734
20
-23.5611591
11
162.8142698
21
-13.3303037
0
LINE
8
0
10
162.8142698
20
-13.3303037
11
151.9815994
21
-27.7057429
0
LINE
8
0
10
151.9815994
20
-27.7057429
11
165.558403
21
-37.9365983
0
LINE
8
0
10
165.5548414
20
-7.7790703
11
181.1432986
21
1.2209297
0
LINE
8
0
10
181.1432986
20
1.2209297
11
172.6432986
21
15.9433615
0
LINE
8
0
10
172.6432986
20
15.9433615
11
157.0548414
21
6.9433615
0
LINE
8
0
10
157.0548414
20
6.9433615
11
165.5548414
21
-7.7790703
0
LINE
8
0
10
153.3365619
20
-23.046444
11
164.1692323
21
-8.6710048
0
LINE
8
0
10
164.1692323
20
-8.6710048
11
150.5924287
21
1.5598506
0
LINE
8
0
10
150.5924287
20
1.5598506
11
139.7597583
21
-12.8155886
0
LINE
8
0
10
139.7597583
20
-12.8155886
11
153.3365619
21
-23.046444
0
LINE
8
0
10
260.0540304
20
-8.5
11
278.0540304
21
-8.5
0
LINE
8
0
10
278.0540304
20
-8.5
11
278.0540304
21
8.5
0
LINE
8
0
10
278.0540304
20
8.5
11
277.0324117
21
8.5
0
LINE
8
0
10
260.0540304
20
-4.6552638
11
260.0540304
21
-8.5
0
ENDSEC
0
EOF