0
SECTION
2
HEADER
9
$INSUNITS
70
4
0
ENDSEC
0
SECTION
2
TABLES
0
TABLE
2
LTYPE
0
LTYPE
72
65
70
64
2
CONTINUOUS
3
______
73
0
40
0
0
ENDTAB
0
TABLE
2
LAYER
0
ENDTAB
0
ENDSEC
0
SECTION
2
ENTITIES
0
LINE
8
0
10
79.1635166
20
-156.7403955
11
96.9883419
21
-154.2352797
0
LINE
8
0
10
89.8905138
20
-103.7316081
11
96.9883419
21
-154.2352797
0
LINE
8
0
10
72.0656885
20
-106.2367239
11
79.1635166
21
-156.7403955
0
LINE
8
0
10
89.8905138
20
-103.7316081
11
72.0656885
21
-106.2367239
0
LINE
8
0
10
95.8996121
20
-139.0791211
11
113.8968706
21
-138.7649778
0
LINE
8
0
10
113.0067979
20
-87.7727453
11
113.8968706
21
-138.7649778
0
LINE
8
0
10
95.0095394
20
-88.0868886
11
95.8996121
21
-139.0791211
0
LINE
8
0
10
113.0067979
20
-87.7727453
11
95.0095394
21
-88.0868886
0
LINE
8
0
10
115.1060336
20
-133.9263913
11
133.0621865
21
-135.1820078
0
LINE
8
0
10
133.0621865
20
-135.1820078
11
136.6197668
21
-84.3062411
0
LINE
8
0
10
115.1060336
20
-133.9263913
11
118.6636139
21
-83.0506246
0
LINE
8
0
10
136.6197668
20
-84.3062411
11
118.6636139
21
-83.0506246
0
LINE
8
0
10
133.0630866
20
-139.3755391
11
150.8414767
21
-142.1913595
0
LINE
8
0
10
150.8414767
20
-142.1913595
11
158.8196344
21
-91.8192541
0
LINE
8
0
10
133.0630866
20
-139.3755391
11
141.0412443
21
-89.0034337
0
LINE
8
0
10
158.8196344
20
-91.8192541
11
141.0412443
21
-89.0034337
0
LINE
8
0
10
151.7087738
20
-142.1683854
11
169.4353134
21
-145.2940526
0
LINE
8
0
10
169.4353134
20
-145.2940526
11
178.2913704
21
-95.0688572
0
LINE
8
0
10
151.7087738
20
-142.1683854
11
160.5648308
21
-91.94319
0
LINE
8
0
10
178.2913704
20
-95.0688572
11
160.5648308
21
-91.94319
0
LINE
8
0
10
141.342156
20
-160.6490032
11
159.0686956
21
-163.7746704
0
LINE
8
0
10
159.0686956
20
-163.7746704
11
162.0207146
21
-147.0329386
0
LINE
8
0
10
162.0207146
20
-147.0329386
11
144.294175
21
-143.9072714
0
LINE
8
0
10
144.294175
20
-143.9072714
11
141.342156
21
-160.6490032
0
LINE
8
0
10
160.8126556
20
-163.733553
11
176.4011128
21
-172.733553
0
LINE
8
0
10
176.4011128
20
-172.733553
11
184.9011128
21
-158.0111212
0
LINE
8
0
10
184.9011128
20
-158.0111212
11
169.3126556
21
-149.0111212
0
LINE
8
0
10
169.3126556
20
-149.0111212
11
160.8126556
21
-163.733553
0
LINE
8
0
10
177.662957
20
-173.5611591
11
188.4956274
21
-187.9365983
0
LINE
8
0
10
188.4956274
20
-187.9365983
11
202.072431
21
-177.7057429
0
LINE
8
0
10
202.072431
20
-177.7057429
11
191.2397606
21
-163.3303037
0
LINE
8
0
10
191.2397606
20
-163.3303037
11
177.662957
21
-173.5611591
0
LINE
8
0
10
172.4107318
20
-149.6450957
11
187.999189
21
-158.6450957
0
LINE
8
0
10
187.999189
20
-158.6450957
11
196.499189
21
-143.9226639
0
LINE
8
0
10
196.499189
20
-143.9226639
11
180.9107318
21
-134.9226639
0
LINE
8
0
10
180.9107318
20
-134.9226639
11
172.4107318
21
-149.6450957
0
LINE
8
0
10
189.0861626
20
-159.2728199
11
199.918833
21
-173.6482591
0
LINE
8
0
10
199.918833
20
-173.6482591
11
213.4956366
21
-163.4174037
0
LINE
8
0
10
213.4956366
20
-163.4174037
11
202.6629662
21
-149.0419645
0
LINE
8
0
10
202.6629662
20
-149.0419645
11
189.0861626
21
-159.2728199
0
LINE
8
0
10
342.0656885
20
-154.2352797
11
359.8905138
21
-156.7403955
0
LINE
8
0
10
359.8905138
20
-156.7403955
11
366.9883419
21
-106.2367239
0
LINE
8
0
10
342.0656885
20
-154.2352797
11
349.1635166
21
-103.7316081
0
LINE
8
0
10
366.9883419
20
-106.2367239
11
349.1635166
21
-103.7316081
0
LINE
8
0
10
325.1571598
20
-138.7649778
11
343.1544183
21
-139.0791211
0
LINE
8
0
10
343.1544183
20
-139.0791211
11
344.044491
21
-88.0868886
0
LINE
8
0
10
325.1571598
20
-138.7649778
11
326.0472325
21
-87.7727453
0
LINE
8
0
10
344.044491
20
-88.0868886
11
326.0472325
21
-87.7727453
0
LINE
8
0
10
305.9918439
20
-135.1820078
11
323.9479968
21
-133.9263913
0
LINE
8
0
10
320.3904165
20
-83.0506246
11
323.9479968
21
-133.9263913
0
LINE
8
0
10
302.4342636
20
-84.3062411
11
305.9918439
21
-135.1820078
0
LINE
8
0
10
320.3904165
20
-83.0506246
11
302.4342636
21
-84.3062411
0
LINE
8
0
10
288.2125537
20
-142.1913595
11
305.9909438
21
-139.3755391
0
LINE
8
0
10
298.0127861
20
-89.0034337
11
305.9909438
21
-139.3755391
0
LINE
8
0
10
280.234396
20
-91.8192541
11
288.2125537
21
-142.1913595
0
LINE
8
0
10
298.0127861
20
-89.0034337
11
280.234396
21
-91.8192541
0
LINE
8
0
10
269.618717
20
-145.2940526
11
287.3452566
21
-142.1683854
0
LINE
8
0
10
278.4891996
20
-91.94319
11
287.3452566
21
-142.1683854
0
LINE
8
0
10
260.76266
20
-95.0688572
11
269.618717
21
-145.2940526
0
LINE
8
0
10
278.4891996
20
-91.94319
11
260.76266
21
-95.0688572
0
LINE
8
0
10
279.9853348
20
-163.7746704
11
297.7118744
21
-160.6490032
0
LINE
8
0
10
297.7118744
20
-160.6490032
11
294.7598554
21
-143.9072714
0
LINE
8
0
10
294.7598554
20
-143.9072714
11
277.0333158
21
-147.0329386
0
LINE
8
0
10
277.0333158
20
-147.0329386
11
279.9853348
21
-163.7746704
0
LINE
8
0
10
262.6529176
20
-172.733553
11
278.2413748
21
-163.733553
0
LINE
8
0
10
278.2413748
20
-163.733553
11
269.7413748
21
-149.0111212
0
LINE
8
0
10
269.7413748
20
-149.0111212
11
254.1529176
21
-158.0111212
0
LINE
8
0
10
254.1529176
20
-158.0111212
11
262.6529176
21
-172.733553
0
LINE
8
0
10
250.558403
20
-187.9365983
11
261.3910734
21
-173.5611591
0
LINE
8
0
10
261.3910734
20
-173.5611591
11
247.8142698
21
-163.3303037
0
LINE
8
0
10
247.8142698
20
-163.3303037
11
236.9815994
21
-177.7057429
0
LINE
8
0
10
236.9815994
20
-177.7057429
11
250.558403
21
-187.9365983
0
LINE
8
0
10
251.0548414
20
-158.6450957
11
266.6432986
21
-149.6450957
0
LINE
8
0
10
266.6432986
20
-149.6450957
11
258.1432986
21
-134.9226639
0
LINE
8
0
10
258.1432986
20
-134.9226639
11
242.5548414
21
-143.9226639
0
LINE
8
0
10
242.5548414
20
-143.9226639
11
251.0548414
21
-158.6450957
0
LINE
8
0
10
239.1351974
20
-173.6482591
11
249.9678678
21
-159.2728199
0
LINE
8
0
10
249.9678678
20
-159.2728199
11
236.3910642
21
-149.0419645
0
LINE
8
0
10
236.3910642
20
-149.0419645
11
225.5583938
21
-163.4174037
0
LINE
8
0
10
225.5583938
20
-163.4174037
11
239.1351974
21
-173.6482591
0
ENDSEC
0
EOF