<?xml version="1.0" standalone="no"?>
 <!DOCTYPE svg PUBLIC "-//W3C//DTD SVG 1.1//EN" 
 "http://www.w3.org/Graphics/SVG/1.1/DTD/svg11.dtd"> 
<svg
  xmlns:svg="http://www.w3.org/2000/svg"
  xmlns="http://www.w3.org/2000/svg"
  xmlns:xlink="http://www.w3.org/1999/xlink"
  version="1.1"
  width="419.9890mm" height="297.0022mm" viewBox="0.0000 0.0000 419.9890 297.0022">
<title>SVG Image created as routed_banana_split-Edge_Cuts.svg date 2025/07/07 13:44:47 </title>
  <desc>Image generated by PCBNEW </desc>
<g style="fill:#000000; fill-opacity:1.0000;stroke:#000000; stroke-opacity:1.0000;
stroke-linecap:round; stroke-linejoin:round;"
 transform="translate(0 0) scale(1 1)">
</g>
<g style="fill:none; 
stroke:#000000; stroke-width:0.1500; stroke-opacity:1; 
stroke-linecap:round; stroke-linejoin:round;">
<path d="M98.2829 156.5779
L81.9871 158.8681
" />
<path d="M93.5987 85.3820 A5.0000 5.0000 0.0 0 0 91.5590 86.3528" />
<path d="M200.8920 101.4483
L194.6494 131.8837
" />
<path d="M340.7711 156.5779
L357.0669 158.8681
" />
<path d="M362.7141 154.6127
L369.4143 106.9385
" />
<path d="M224.3931 160.8097 A5.0000 5.0000 0.0 0 0 224.4809 166.9410" />
<path d="M203.6935 146.2554 A5.0000 5.0000 0.0 0 0 202.4021 145.0573" />
<path d="M244.4046 131.8837 A4.9997 4.9997 0.0 0 0 244.4416 132.0497" />
<path d="M224.4809 166.9410
L233.0872 177.7059
" />
<path d="M159.1403 165.6548 A5.0000 5.0000 0.0 0 0 157.2591 165.0233" />
<path d="M322.6139 141.2210
L338.1005 155.3234
" />
<path d="M76.3399 154.6127 A5.0000 5.0000 0.0 0 0 81.9871 158.8681" />
</g>
<g style="fill:none; 
stroke:#000000; stroke-width:0.0500; stroke-opacity:1; 
stroke-linecap:round; stroke-linejoin:round;">
<circle cx="184.0900" cy="164.7800" r="1.5358" /> 
</g>
<g style="fill:none; 
stroke:#000000; stroke-width:0.1500; stroke-opacity:1; 
stroke-linecap:round; stroke-linejoin:round;">
<path d="M119.5729 139.4709
L116.4401 141.2210
" />
<path d="M214.5731 166.9410
L205.9668 177.7059
" />
<path d="M185.0091 187.3455
L177.0725 176.4992
" />
<path d="M347.4950 86.3528 A5.0000 5.0000 0.0 0 0 345.4554 85.3820" />
<path d="M243.1196 140.9039 A5.0000 5.0000 0.0 0 0 245.2788 135.5260" />
<path d="M345.4554 85.3820
L323.4135 80.5370
" />
<path d="M233.0872 177.7059 A4.9999 4.9999 0.0 0 0 233.9835 178.5768" />
</g>
<g style="fill:none; 
stroke:#000000; stroke-width:0.0500; stroke-opacity:1; 
stroke-linecap:round; stroke-linejoin:round;">
<circle cx="359.9158" cy="101.3300" r="1.5253" /> 
</g>
<g style="fill:none; 
stroke:#000000; stroke-width:0.1500; stroke-opacity:1; 
stroke-linecap:round; stroke-linejoin:round;">
<path d="M194.6124 132.0497
L193.7752 135.5260
" />
<path d="M243.1196 140.9038
L236.6519 145.0573
" />
<path d="M241.9166 95.5762 A5.0000 5.0000 0.0 0 0 238.1620 101.4483" />
<path d="M236.6519 145.0573 A5.0000 5.0000 0.0 0 0 235.3605 146.2554" />
<path d="M98.2830 156.5779 A5.0000 5.0000 0.0 0 0 100.9536 155.3234" />
<path d="M117.0627 80.4326 A5.0000 5.0000 0.0 0 0 115.6405 80.5370" />
<path d="M301.8468 160.4929
L312.6935 141.3691
" />
<path d="M281.7949 165.0233
L298.1164 162.9877
" />
<path d="M205.0706 178.5768
L192.0533 188.3860
" />
</g>
<g style="fill:none; 
stroke:#000000; stroke-width:0.0500; stroke-opacity:1; 
stroke-linecap:round; stroke-linejoin:round;">
<circle cx="187.4700" cy="112.0800" r="1.5487" /> 
</g>
<g style="fill:none; 
stroke:#000000; stroke-width:0.1500; stroke-opacity:1; 
stroke-linecap:round; stroke-linejoin:round;">
<path d="M139.6805 82.0789
L197.1374 95.5762
" />
<path d="M321.9913 80.4326
L300.1681 81.9586
" />
<path d="M93.5987 85.3820
L115.6405 80.5370
" />
<path d="M299.3735 82.0789
L241.9166 95.5762
" />
<path d="M233.9835 178.5768
L247.0007 188.3860
" />
<path d="M300.1681 81.9586 A5.0000 5.0000 0.0 0 0 299.3735 82.0789" />
</g>
<g style="fill:none; 
stroke:#000000; stroke-width:0.0500; stroke-opacity:1; 
stroke-linecap:round; stroke-linejoin:round;">
<circle cx="251.4058" cy="111.9700" r="1.5487" /> 
</g>
<g style="fill:none; 
stroke:#000000; stroke-width:0.1500; stroke-opacity:1; 
stroke-linecap:round; stroke-linejoin:round;">
<path d="M281.7949 165.0233 A5.0000 5.0000 0.0 0 0 279.9137 165.6548" />
<path d="M195.9344 140.9038
L202.4021 145.0573
" />
<path d="M157.2591 165.0233
L140.9376 162.9877
" />
<path d="M367.5760 102.3300
L347.4950 86.3528
" />
<path d="M323.4135 80.5370 A5.0000 5.0000 0.0 0 0 321.9913 80.4326" />
<path d="M126.3605 141.3691 A5.0000 5.0000 0.0 0 0 119.5729 139.4709" />
<path d="M116.4401 141.2210
L100.9536 155.3234
" />
<path d="M177.0725 176.4992 A5.0000 5.0000 0.0 0 0 175.5374 175.1217" />
<path d="M319.4811 139.4709 A5.0000 5.0000 0.0 0 0 312.6935 141.3691" />
</g>
<g style="fill:none; 
stroke:#000000; stroke-width:0.0500; stroke-opacity:1; 
stroke-linecap:round; stroke-linejoin:round;">
<circle cx="336.8058" cy="144.7900" r="1.5182" /> 
</g>
<g style="fill:none; 
stroke:#000000; stroke-width:0.1500; stroke-opacity:1; 
stroke-linecap:round; stroke-linejoin:round;">
<path d="M263.5166 175.1217
L279.9137 165.6548
" />
</g>
<g style="fill:none; 
stroke:#000000; stroke-width:0.0500; stroke-opacity:1; 
stroke-linecap:round; stroke-linejoin:round;">
<circle cx="102.0700" cy="144.9000" r="1.5182" /> 
</g>
<g style="fill:none; 
stroke:#000000; stroke-width:0.1500; stroke-opacity:1; 
stroke-linecap:round; stroke-linejoin:round;">
<path d="M71.4780 102.3300
L91.5590 86.3528
" />
<path d="M263.5166 175.1217 A5.0000 5.0000 0.0 0 0 261.9815 176.4992" />
<path d="M254.0449 187.3455
L261.9815 176.4992
" />
<path d="M203.6935 146.2554
L214.6609 160.8097
" />
<path d="M298.1164 162.9877 A5.0000 5.0000 0.0 0 0 301.8468 160.4929" />
<path d="M194.6124 132.0497 A4.9997 4.9997 0.0 0 0 194.6494 131.8837" />
<path d="M205.0706 178.5768 A4.9999 4.9999 0.0 0 0 205.9668 177.7059" />
<path d="M200.8920 101.4483 A5.0000 5.0000 0.0 0 0 197.1374 95.5762" />
<path d="M117.0627 80.4326
L138.8859 81.9586
" />
<path d="M244.4416 132.0497
L245.2788 135.5260
" />
</g>
<g style="fill:none; 
stroke:#000000; stroke-width:0.0500; stroke-opacity:1; 
stroke-linecap:round; stroke-linejoin:round;">
<circle cx="254.7858" cy="164.6700" r="1.5358" /> 
</g>
<g style="fill:none; 
stroke:#000000; stroke-width:0.1500; stroke-opacity:1; 
stroke-linecap:round; stroke-linejoin:round;">
<path d="M214.5731 166.9410 A5.0000 5.0000 0.0 0 0 214.6609 160.8097" />
<path d="M369.4142 106.9385 A5.0000 5.0000 0.0 0 0 367.5760 102.3300" />
<path d="M175.5374 175.1217
L159.1403 165.6548
" />
<path d="M247.0007 188.3860 A5.0000 5.0000 0.0 0 0 254.0449 187.3455" />
<path d="M185.0091 187.3455 A5.0000 5.0000 0.0 0 0 192.0533 188.3860" />
<path d="M71.4780 102.3300 A5.0000 5.0000 0.0 0 0 69.6397 106.9385" />
<path d="M137.2073 160.4929 A5.0000 5.0000 0.0 0 0 140.9376 162.9877" />
<path d="M139.6805 82.0789 A5.0000 5.0000 0.0 0 0 138.8859 81.9586" />
<path d="M235.3605 146.2554
L224.3931 160.8097
" />
</g>
<g style="fill:none; 
stroke:#000000; stroke-width:0.0500; stroke-opacity:1; 
stroke-linecap:round; stroke-linejoin:round;">
<circle cx="78.9600" cy="101.4400" r="1.5253" /> 
</g>
<g style="fill:none; 
stroke:#000000; stroke-width:0.1500; stroke-opacity:1; 
stroke-linecap:round; stroke-linejoin:round;">
<path d="M238.1620 101.4483
L244.4046 131.8837
" />
<path d="M76.3399 154.6127
L69.6397 106.9385
" />
<path d="M137.2073 160.4929
L126.3605 141.3691
" />
<path d="M193.7752 135.5260 A5.0000 5.0000 0.0 0 0 195.9344 140.9038" />
<path d="M319.4811 139.4709
L322.6139 141.2210
" />
<path d="M357.0669 158.8681 A5.0000 5.0000 0.0 0 0 362.7141 154.6127" />
<path d="M338.1005 155.3234 A5.0000 5.0000 0.0 0 0 340.7711 156.5779" />
</g> 
</svg>
