<svg width="295.062mm" height="105.686mm" viewBox="0 0 295.062 105.686" xmlns="http://www.w3.org/2000/svg"><g id="svgGroup" stroke-linecap="round" fill-rule="evenodd" font-size="9pt" stroke="#000" stroke-width="0.25mm" fill="none" style="stroke:#000;stroke-width:0.25mm;fill:none"><path d="M 63.805 39.539 L 81.583 42.355 L 78.767 60.133 L 60.989 57.318 L 63.805 39.539 Z M 66.464 22.748 L 84.242 25.564 L 81.427 43.343 L 63.648 40.527 L 66.464 22.748 Z M 69.123 5.958 L 86.902 8.774 L 84.086 26.552 L 66.308 23.736 L 69.123 5.958 Z M 213.479 42.355 L 231.257 39.539 L 234.073 57.318 L 216.295 60.133 L 213.479 42.355 Z M 210.819 25.564 L 228.598 22.748 L 231.414 40.527 L 213.635 43.343 L 210.819 25.564 Z M 208.16 8.774 L 225.938 5.958 L 228.754 23.736 L 210.976 26.552 L 208.16 8.774 Z M 82.752 42.382 L 100.478 45.508 L 97.352 63.235 L 79.626 60.109 L 82.752 42.382 Z M 85.704 25.641 L 103.43 28.766 L 100.304 46.493 L 82.578 43.367 L 85.704 25.641 Z M 88.656 8.899 L 106.382 12.025 L 103.256 29.751 L 85.53 26.625 L 88.656 8.899 Z M 204.95 63.989 L 222.677 60.863 L 225.803 78.59 L 208.076 81.715 L 204.95 63.989 Z M 72.385 60.863 L 90.111 63.989 L 86.986 81.715 L 69.259 78.59 L 72.385 60.863 Z M 194.584 45.508 L 212.31 42.382 L 215.436 60.109 L 197.709 63.235 L 194.584 45.508 Z M 191.632 28.766 L 209.358 25.641 L 212.484 43.367 L 194.757 46.493 L 191.632 28.766 Z M 188.68 12.025 L 206.406 8.899 L 209.532 26.625 L 191.805 29.751 L 188.68 12.025 Z M 119.643 80.478 L 130.476 94.853 L 116.1 105.686 L 105.268 91.31 L 119.643 80.478 Z M 131.066 66.189 L 141.899 80.565 L 127.523 91.397 L 116.691 77.022 L 131.066 66.189 Z M 153.163 80.565 L 163.996 66.189 L 178.371 77.022 L 167.538 91.397 L 153.163 80.565 Z M 164.586 94.853 L 175.419 80.478 L 189.794 91.31 L 178.962 105.686 L 164.586 94.853 Z M 45.517 16.959 L 63.473 18.214 L 62.217 36.17 L 44.261 34.915 L 45.517 16.959 Z M 46.702 0 L 64.659 1.256 L 63.403 19.212 L 45.447 17.956 L 46.702 0 Z M 44.331 33.917 L 62.287 35.173 L 61.031 53.129 L 43.075 51.873 L 44.331 33.917 Z M 231.589 18.214 L 249.545 16.959 L 250.801 34.915 L 232.845 36.17 L 231.589 18.214 Z M 232.775 35.173 L 250.731 33.917 L 251.987 51.873 L 234.031 53.129 L 232.775 35.173 Z M 230.403 1.256 L 248.359 0 L 249.615 17.956 L 231.659 19.212 L 230.403 1.256 Z M 253.763 21.718 L 271.76 22.033 L 271.446 40.03 L 253.449 39.716 L 253.763 21.718 Z M 23.598 39.03 L 41.595 38.716 L 41.909 56.713 L 23.912 57.027 L 23.598 39.03 Z M 23.301 22.033 L 41.299 21.718 L 41.613 39.716 L 23.616 40.03 L 23.301 22.033 Z M 23.005 5.035 L 41.002 4.721 L 41.316 22.718 L 23.319 23.032 L 23.005 5.035 Z M 253.466 38.716 L 271.464 39.03 L 271.15 57.027 L 253.152 56.713 L 253.466 38.716 Z M 254.06 4.721 L 272.057 5.035 L 271.743 23.032 L 253.746 22.718 L 254.06 4.721 Z M 4.732 56.859 L 22.557 54.354 L 25.062 72.179 L 7.237 74.684 L 4.732 56.859 Z M 2.366 40.024 L 20.191 37.519 L 22.696 55.344 L 4.871 57.849 L 2.366 40.024 Z M 0 23.19 L 17.825 20.685 L 20.33 38.509 L 2.505 41.015 L 0 23.19 Z M 272.505 54.354 L 290.33 56.859 L 287.825 74.684 L 270 72.179 L 272.505 54.354 Z M 274.871 37.519 L 292.696 40.024 L 290.191 57.849 L 272.366 55.344 L 274.871 37.519 Z M 277.237 20.685 L 295.062 23.19 L 292.557 41.015 L 274.732 38.509 L 277.237 20.685 Z M 97.567 66.026 L 113.155 75.026 L 104.155 90.615 L 88.567 81.615 L 97.567 66.026 Z M 109.165 51.938 L 124.753 60.938 L 115.753 76.526 L 100.165 67.526 L 109.165 51.938 Z M 181.907 75.026 L 197.495 66.026 L 206.495 81.615 L 190.907 90.615 L 181.907 75.026 Z M 170.309 60.938 L 185.897 51.938 L 194.897 67.526 L 179.309 76.526 L 170.309 60.938 Z" vector-effect="non-scaling-stroke"/></g></svg>