<svg width="295.619mm" height="109.676mm" viewBox="0 0 295.619 109.676" xmlns="http://www.w3.org/2000/svg"><g id="svgGroup" stroke-linecap="round" fill-rule="evenodd" font-size="9pt" stroke="#000" stroke-width="0.25mm" fill="none" style="stroke:#000;stroke-width:0.25mm;fill:none"><path d="M 64.361 43.529 L 82.14 46.345 L 79.324 64.124 L 61.545 61.308 L 64.361 43.529 Z M 67.334 24.763 L 85.112 27.579 L 82.296 45.358 L 64.518 42.542 L 67.334 24.763 Z M 70.306 5.997 L 88.084 8.813 L 85.268 26.591 L 67.49 23.776 L 70.306 5.997 Z M 213.479 46.345 L 231.257 43.529 L 234.073 61.308 L 216.295 64.124 L 213.479 46.345 Z M 210.507 27.579 L 228.285 24.763 L 231.101 42.542 L 213.322 45.358 L 210.507 27.579 Z M 207.534 8.813 L 225.313 5.997 L 228.129 23.776 L 210.35 26.591 L 207.534 8.813 Z M 83.308 46.373 L 101.035 49.498 L 97.909 67.225 L 80.183 64.099 L 83.308 46.373 Z M 89.907 8.95 L 107.633 12.076 L 104.508 29.802 L 86.781 26.677 L 89.907 8.95 Z M 187.985 12.076 L 205.712 8.95 L 208.837 26.677 L 191.111 29.802 L 187.985 12.076 Z M 204.95 67.979 L 222.677 64.853 L 225.803 82.58 L 208.076 85.705 L 204.95 67.979 Z M 72.942 64.853 L 90.668 67.979 L 87.542 85.705 L 69.816 82.58 L 72.942 64.853 Z M 86.608 27.661 L 104.334 30.787 L 101.208 48.514 L 83.482 45.388 L 86.608 27.661 Z M 194.584 49.498 L 212.31 46.373 L 215.436 64.099 L 197.709 67.225 L 194.584 49.498 Z M 191.284 30.787 L 209.011 27.661 L 212.137 45.388 L 194.41 48.514 L 191.284 30.787 Z M 120.2 84.468 L 131.032 98.843 L 116.657 109.676 L 105.824 95.3 L 120.2 84.468 Z M 132.422 69.578 L 143.254 83.953 L 128.879 94.786 L 118.046 80.41 L 132.422 69.578 Z M 152.364 83.953 L 163.197 69.578 L 177.572 80.41 L 166.74 94.786 L 152.364 83.953 Z M 164.586 98.843 L 175.419 84.468 L 189.794 95.3 L 178.962 109.676 L 164.586 98.843 Z M 46.213 18.954 L 64.169 20.209 L 62.913 38.165 L 44.957 36.91 L 46.213 18.954 Z M 47.538 0 L 65.494 1.256 L 64.239 19.212 L 46.282 17.956 L 47.538 0 Z M 44.887 37.907 L 62.844 39.163 L 61.588 57.119 L 43.632 55.864 L 44.887 37.907 Z M 231.45 20.209 L 249.406 18.954 L 250.661 36.91 L 232.705 38.165 L 231.45 20.209 Z M 232.775 39.163 L 250.731 37.907 L 251.987 55.864 L 234.031 57.119 L 232.775 39.163 Z M 230.124 1.256 L 248.08 0 L 249.336 17.956 L 231.38 19.212 L 230.124 1.256 Z M 24.155 43.02 L 42.152 42.706 L 42.466 60.703 L 24.469 61.017 L 24.155 43.02 Z M 23.823 24.023 L 41.82 23.709 L 42.135 41.706 L 24.137 42.02 L 23.823 24.023 Z M 23.492 5.026 L 41.489 4.712 L 41.803 22.709 L 23.806 23.023 L 23.492 5.026 Z M 253.466 42.706 L 271.464 43.02 L 271.15 61.017 L 253.152 60.703 L 253.466 42.706 Z M 253.798 23.709 L 271.795 24.023 L 271.481 42.02 L 253.484 41.706 L 253.798 23.709 Z M 254.13 4.712 L 272.127 5.026 L 271.813 23.023 L 253.816 22.709 L 254.13 4.712 Z M 5.289 60.849 L 23.113 58.344 L 25.619 76.169 L 7.794 78.674 L 5.289 60.849 Z M 2.644 42.034 L 20.469 39.529 L 22.974 57.354 L 5.149 59.859 L 2.644 42.034 Z M 0 23.219 L 17.825 20.714 L 20.33 38.539 L 2.505 41.044 L 0 23.219 Z M 272.505 58.344 L 290.33 60.849 L 287.825 78.674 L 270 76.169 L 272.505 58.344 Z M 275.149 39.529 L 292.974 42.034 L 290.469 59.859 L 272.644 57.354 L 275.149 39.529 Z M 277.794 20.714 L 295.619 23.219 L 293.113 41.044 L 275.289 38.539 L 277.794 20.714 Z M 98.123 70.017 L 113.712 79.017 L 104.712 94.605 L 89.123 85.605 L 98.123 70.017 Z M 110.221 55.062 L 125.81 64.062 L 116.81 79.65 L 101.221 70.65 L 110.221 55.062 Z M 181.907 79.017 L 197.495 70.017 L 206.495 85.605 L 190.907 94.605 L 181.907 79.017 Z M 169.809 64.062 L 185.397 55.062 L 194.397 70.65 L 178.809 79.65 L 169.809 64.062 Z" vector-effect="non-scaling-stroke"/></g></svg>