0
SECTION
2
HEADER
9
$INSUNITS
70
4
0
ENDSEC
0
SECTION
2
TABLES
0
TABLE
2
LTYPE
0
LTYPE
72
65
70
64
2
CONTINUOUS
3
______
73
0
40
0
0
ENDTAB
0
TABLE
2
LAYER
0
ENDTAB
0
ENDSEC
0
SECTION
2
ENTITIES
0
LINE
8
0
10
-8.2720126
20
10.5892957
11
9.5528126
21
13.0944115
0
LINE
8
0
10
9.5528126
20
13.0944115
11
12.0579284
21
-4.7304137
0
LINE
8
0
10
12.0579284
20
-4.7304137
11
-5.7668968
21
-7.2355295
0
LINE
8
0
10
-5.7668968
20
-7.2355295
11
-8.2720126
21
10.5892957
0
LINE
8
0
10
-10.6379553
20
27.4238529
11
7.1868699
21
29.9289687
0
LINE
8
0
10
7.1868699
20
29.9289687
11
9.6919857
21
12.1041435
0
LINE
8
0
10
9.6919857
20
12.1041435
11
-8.1328395
21
9.5990277
0
LINE
8
0
10
-8.1328395
20
9.5990277
11
-10.6379553
21
27.4238529
0
LINE
8
0
10
-13.003898
20
44.2584101
11
4.8209272
21
46.7635259
0
LINE
8
0
10
4.8209272
20
46.7635259
11
7.326043
21
28.9387007
0
LINE
8
0
10
7.326043
20
28.9387007
11
-10.4987822
21
26.4335849
0
LINE
8
0
10
-10.4987822
20
26.4335849
11
-13.003898
21
44.2584101
0
LINE
8
0
10
10.594195
20
28.4182136
11
28.5914535
21
28.7323569
0
LINE
8
0
10
28.5914535
20
28.7323569
11
28.9055968
21
10.7350984
0
LINE
8
0
10
28.9055968
20
10.7350984
11
10.9083383
21
10.4209551
0
LINE
8
0
10
10.9083383
20
10.4209551
11
10.594195
21
28.4182136
0
LINE
8
0
10
10.2975041
20
45.4156244
11
28.2947626
21
45.7297677
0
LINE
8
0
10
28.2947626
20
45.7297677
11
28.6089059
21
27.7325092
0
LINE
8
0
10
28.6089059
20
27.7325092
11
10.6116474
21
27.4183659
0
LINE
8
0
10
10.6116474
20
27.4183659
11
10.2975041
21
45.4156244
0
LINE
8
0
10
10.0008132
20
62.4130352
11
27.9980717
21
62.7271785
0
LINE
8
0
10
27.9980717
20
62.7271785
11
28.312215
21
44.72992
0
LINE
8
0
10
28.312215
20
44.72992
11
10.3149565
21
44.4157767
0
LINE
8
0
10
10.3149565
20
44.4157767
11
10.0008132
21
62.4130352
0
LINE
8
0
10
31.3267719
20
33.5309796
11
49.2829248
21
32.2753631
0
LINE
8
0
10
49.2829248
20
32.2753631
11
48.0273083
21
14.3192102
0
LINE
8
0
10
48.0273083
20
14.3192102
11
30.0711554
21
15.5748267
0
LINE
8
0
10
30.0711554
20
15.5748267
11
31.3267719
21
33.5309796
0
LINE
8
0
10
32.512632
20
50.4895685
11
50.4687849
21
49.233952
0
LINE
8
0
10
50.4687849
20
49.233952
11
49.2131684
21
31.2777991
0
LINE
8
0
10
49.2131684
20
31.2777991
11
31.2570155
21
32.5334156
0
LINE
8
0
10
31.2570155
20
32.5334156
11
32.512632
21
50.4895685
0
LINE
8
0
10
33.6984921
20
67.4481574
11
51.654645
21
66.1925409
0
LINE
8
0
10
51.654645
20
66.1925409
11
50.3990285
21
48.236388
0
LINE
8
0
10
50.3990285
20
48.236388
11
32.4428756
21
49.4920045
0
LINE
8
0
10
32.4428756
20
49.4920045
11
33.6984921
21
67.4481574
0
LINE
8
0
10
50.8006897
20
27.9090069
11
68.5790799
21
25.0931865
0
LINE
8
0
10
68.5790799
20
25.0931865
11
65.7632595
21
7.3147963
0
LINE
8
0
10
65.7632595
20
7.3147963
11
47.9848693
21
10.1306167
0
LINE
8
0
10
47.9848693
20
10.1306167
11
50.8006897
21
27.9090069
0
LINE
8
0
10
53.4600756
20
44.6997087
11
71.2384658
21
41.8838883
0
LINE
8
0
10
71.2384658
20
41.8838883
11
68.4226454
21
24.1054981
0
LINE
8
0
10
68.4226454
20
24.1054981
11
50.6442552
21
26.9213185
0
LINE
8
0
10
50.6442552
20
26.9213185
11
53.4600756
21
44.6997087
0
LINE
8
0
10
56.1194615
20
61.4904105
11
73.8978517
21
58.6745901
0
LINE
8
0
10
73.8978517
20
58.6745901
11
71.0820313
21
40.8961999
0
LINE
8
0
10
71.0820313
20
40.8961999
11
53.3036411
21
43.7120203
0
LINE
8
0
10
53.3036411
20
43.7120203
11
56.1194615
21
61.4904105
0
LINE
8
0
10
69.7476169
20
25.0657503
11
87.4741565
21
21.9400831
0
LINE
8
0
10
87.4741565
20
21.9400831
11
84.3484893
21
4.2135435
0
LINE
8
0
10
84.3484893
20
4.2135435
11
66.6219497
21
7.3392107
0
LINE
8
0
10
66.6219497
20
7.3392107
11
69.7476169
21
25.0657503
0
LINE
8
0
10
72.6996359
20
41.8074821
11
90.4261755
21
38.6818149
0
LINE
8
0
10
90.4261755
20
38.6818149
11
87.3005083
21
20.9552753
0
LINE
8
0
10
87.3005083
20
20.9552753
11
69.5739687
21
24.0809425
0
LINE
8
0
10
69.5739687
20
24.0809425
11
72.6996359
21
41.8074821
0
LINE
8
0
10
75.6516549
20
58.5492139
11
93.3781945
21
55.4235467
0
LINE
8
0
10
93.3781945
20
55.4235467
11
90.2525273
21
37.6970071
0
LINE
8
0
10
90.2525273
20
37.6970071
11
72.5259877
21
40.8226743
0
LINE
8
0
10
72.5259877
20
40.8226743
11
75.6516549
21
58.5492139
0
LINE
8
0
10
59.3809991
20
6.5851325
11
77.1075387
21
3.4594653
0
LINE
8
0
10
77.1075387
20
3.4594653
11
73.9818715
21
-14.2670743
0
LINE
8
0
10
73.9818715
20
-14.2670743
11
56.2553319
21
-11.1414071
0
LINE
8
0
10
56.2553319
20
-11.1414071
11
59.3809991
21
6.5851325
0
LINE
8
0
10
84.5626556
20
1.4218915
11
100.1511128
21
-7.5781085
0
LINE
8
0
10
100.1511128
20
-7.5781085
11
91.1511128
21
-23.1665657
0
LINE
8
0
10
91.1511128
20
-23.1665657
11
75.5626556
21
-14.1665657
0
LINE
8
0
10
75.5626556
20
-14.1665657
11
84.5626556
21
1.4218915
0
LINE
8
0
10
106.6390784
20
-13.0293962
11
117.4717488
21
-27.4048354
0
LINE
8
0
10
117.4717488
20
-27.4048354
11
103.0963096
21
-38.2375058
0
LINE
8
0
10
103.0963096
20
-38.2375058
11
92.2636392
21
-23.8620666
0
LINE
8
0
10
92.2636392
20
-23.8620666
11
106.6390784
21
-13.0293962
0
LINE
8
0
10
96.1607318
20
15.5103488
11
111.749189
21
6.5103488
0
LINE
8
0
10
111.749189
20
6.5103488
11
102.749189
21
-9.0781084
0
LINE
8
0
10
102.749189
20
-9.0781084
11
87.1607318
21
-0.0781084
0
LINE
8
0
10
87.1607318
20
-0.0781084
11
96.1607318
21
15.5103488
0
LINE
8
0
10
118.062284
20
1.258943
11
128.8949544
21
-13.1164962
0
LINE
8
0
10
128.8949544
20
-13.1164962
11
114.5195152
21
-23.9491666
0
LINE
8
0
10
114.5195152
20
-23.9491666
11
103.6868448
21
-9.5737274
0
LINE
8
0
10
103.6868448
20
-9.5737274
11
118.062284
21
1.258943
0
LINE
8
0
10
259.5012178
20
13.0944115
11
277.326043
21
10.5892957
0
LINE
8
0
10
277.326043
20
10.5892957
11
274.8209272
21
-7.2355295
0
LINE
8
0
10
274.8209272
20
-7.2355295
11
256.996102
21
-4.7304137
0
LINE
8
0
10
256.996102
20
-4.7304137
11
259.5012178
21
13.0944115
0
LINE
8
0
10
261.8671605
20
29.9289687
11
279.6919857
21
27.4238529
0
LINE
8
0
10
279.6919857
20
27.4238529
11
277.1868699
21
9.5990277
0
LINE
8
0
10
277.1868699
20
9.5990277
11
259.3620447
21
12.1041435
0
LINE
8
0
10
259.3620447
20
12.1041435
11
261.8671605
21
29.9289687
0
LINE
8
0
10
264.2331032
20
46.7635259
11
282.0579284
21
44.2584101
0
LINE
8
0
10
282.0579284
20
44.2584101
11
279.5528126
21
26.4335849
0
LINE
8
0
10
279.5528126
20
26.4335849
11
261.7279874
21
28.9387007
0
LINE
8
0
10
261.7279874
20
28.9387007
11
264.2331032
21
46.7635259
0
LINE
8
0
10
240.4625769
20
28.7323569
11
258.4598354
21
28.4182136
0
LINE
8
0
10
258.4598354
20
28.4182136
11
258.1456921
21
10.4209551
0
LINE
8
0
10
258.1456921
20
10.4209551
11
240.1484336
21
10.7350984
0
LINE
8
0
10
240.1484336
20
10.7350984
11
240.4625769
21
28.7323569
0
LINE
8
0
10
240.7592678
20
45.7297677
11
258.7565263
21
45.4156244
0
LINE
8
0
10
258.7565263
20
45.4156244
11
258.442383
21
27.4183659
0
LINE
8
0
10
258.442383
20
27.4183659
11
240.4451245
21
27.7325092
0
LINE
8
0
10
240.4451245
20
27.7325092
11
240.7592678
21
45.7297677
0
LINE
8
0
10
241.0559587
20
62.7271785
11
259.0532172
21
62.4130352
0
LINE
8
0
10
259.0532172
20
62.4130352
11
258.7390739
21
44.4157767
0
LINE
8
0
10
258.7390739
20
44.4157767
11
240.7418154
21
44.72992
0
LINE
8
0
10
240.7418154
20
44.72992
11
241.0559587
21
62.7271785
0
LINE
8
0
10
219.7711056
20
32.2753631
11
237.7272585
21
33.5309796
0
LINE
8
0
10
237.7272585
20
33.5309796
11
238.982875
21
15.5748267
0
LINE
8
0
10
238.982875
20
15.5748267
11
221.0267221
21
14.3192102
0
LINE
8
0
10
221.0267221
20
14.3192102
11
219.7711056
21
32.2753631
0
LINE
8
0
10
218.5852455
20
49.233952
11
236.5413984
21
50.4895685
0
LINE
8
0
10
236.5413984
20
50.4895685
11
237.7970149
21
32.5334156
0
LINE
8
0
10
237.7970149
20
32.5334156
11
219.840862
21
31.2777991
0
LINE
8
0
10
219.840862
20
31.2777991
11
218.5852455
21
49.233952
0
LINE
8
0
10
217.3993854
20
66.1925409
11
235.3555383
21
67.4481574
0
LINE
8
0
10
235.3555383
20
67.4481574
11
236.6111548
21
49.4920045
0
LINE
8
0
10
236.6111548
20
49.4920045
11
218.6550019
21
48.236388
0
LINE
8
0
10
218.6550019
20
48.236388
11
217.3993854
21
66.1925409
0
LINE
8
0
10
200.4749505
20
25.0931865
11
218.2533407
21
27.9090069
0
LINE
8
0
10
218.2533407
20
27.9090069
11
221.0691611
21
10.1306167
0
LINE
8
0
10
221.0691611
20
10.1306167
11
203.2907709
21
7.3147963
0
LINE
8
0
10
203.2907709
20
7.3147963
11
200.4749505
21
25.0931865
0
LINE
8
0
10
197.8155646
20
41.8838883
11
215.5939548
21
44.6997087
0
LINE
8
0
10
215.5939548
20
44.6997087
11
218.4097752
21
26.9213185
0
LINE
8
0
10
218.4097752
20
26.9213185
11
200.631385
21
24.1054981
0
LINE
8
0
10
200.631385
20
24.1054981
11
197.8155646
21
41.8838883
0
LINE
8
0
10
195.1561787
20
58.6745901
11
212.9345689
21
61.4904105
0
LINE
8
0
10
212.9345689
20
61.4904105
11
215.7503893
21
43.7120203
0
LINE
8
0
10
215.7503893
20
43.7120203
11
197.9719991
21
40.8961999
0
LINE
8
0
10
197.9719991
20
40.8961999
11
195.1561787
21
58.6745901
0
LINE
8
0
10
181.5798739
20
21.9400831
11
199.3064135
21
25.0657503
0
LINE
8
0
10
199.3064135
20
25.0657503
11
202.4320807
21
7.3392107
0
LINE
8
0
10
202.4320807
20
7.3392107
11
184.7055411
21
4.2135435
0
LINE
8
0
10
184.7055411
20
4.2135435
11
181.5798739
21
21.9400831
0
LINE
8
0
10
178.6278549
20
38.6818149
11
196.3543945
21
41.8074821
0
LINE
8
0
10
196.3543945
20
41.8074821
11
199.4800617
21
24.0809425
0
LINE
8
0
10
199.4800617
20
24.0809425
11
181.7535221
21
20.9552753
0
LINE
8
0
10
181.7535221
20
20.9552753
11
178.6278549
21
38.6818149
0
LINE
8
0
10
175.6758359
20
55.4235467
11
193.4023755
21
58.5492139
0
LINE
8
0
10
193.4023755
20
58.5492139
11
196.5280427
21
40.8226743
0
LINE
8
0
10
196.5280427
20
40.8226743
11
178.8015031
21
37.6970071
0
LINE
8
0
10
178.8015031
20
37.6970071
11
175.6758359
21
55.4235467
0
LINE
8
0
10
191.9464917
20
3.4594653
11
209.6730313
21
6.5851325
0
LINE
8
0
10
209.6730313
20
6.5851325
11
212.7986985
21
-11.1414071
0
LINE
8
0
10
212.7986985
20
-11.1414071
11
195.0721589
21
-14.2670743
0
LINE
8
0
10
195.0721589
20
-14.2670743
11
191.9464917
21
3.4594653
0
LINE
8
0
10
168.9029176
20
-7.5781085
11
184.4913748
21
1.4218915
0
LINE
8
0
10
184.4913748
20
1.4218915
11
193.4913748
21
-14.1665657
0
LINE
8
0
10
193.4913748
20
-14.1665657
11
177.9029176
21
-23.1665657
0
LINE
8
0
10
177.9029176
20
-23.1665657
11
168.9029176
21
-7.5781085
0
LINE
8
0
10
151.5822816
20
-27.4048354
11
162.414952
21
-13.0293962
0
LINE
8
0
10
162.414952
20
-13.0293962
11
176.7903912
21
-23.8620666
0
LINE
8
0
10
176.7903912
20
-23.8620666
11
165.9577208
21
-38.2375058
0
LINE
8
0
10
165.9577208
20
-38.2375058
11
151.5822816
21
-27.4048354
0
LINE
8
0
10
157.3048414
20
6.5103488
11
172.8932986
21
15.5103488
0
LINE
8
0
10
172.8932986
20
15.5103488
11
181.8932986
21
-0.0781084
0
LINE
8
0
10
181.8932986
20
-0.0781084
11
166.3048414
21
-9.0781084
0
LINE
8
0
10
166.3048414
20
-9.0781084
11
157.3048414
21
6.5103488
0
LINE
8
0
10
140.159076
20
-13.1164962
11
150.9917464
21
1.258943
0
LINE
8
0
10
150.9917464
20
1.258943
11
165.3671856
21
-9.5737274
0
LINE
8
0
10
165.3671856
20
-9.5737274
11
154.5345152
21
-23.9491666
0
LINE
8
0
10
154.5345152
20
-23.9491666
11
140.159076
21
-13.1164962
0
ENDSEC
0
EOF