0
SECTION
2
HEADER
9
$INSUNITS
70
4
0
ENDSEC
0
SECTION
2
TABLES
0
TABLE
2
LTYPE
0
LTYPE
72
65
70
64
2
CONTINUOUS
3
______
73
0
40
0
0
ENDTAB
0
TABLE
2
LAYER
0
ENDTAB
0
ENDSEC
0
SECTION
2
ENTITIES
0
LINE
8
0
10
-8.2720126
20
10.5892957
11
9.5528126
21
13.0944115
0
LINE
8
0
10
9.5528126
20
13.0944115
11
12.0579284
21
-4.7304137
0
LINE
8
0
10
12.0579284
20
-4.7304137
11
-5.7668968
21
-7.2355295
0
LINE
8
0
10
-5.7668968
20
-7.2355295
11
-8.2720126
21
10.5892957
0
LINE
8
0
10
-10.9163015
20
29.404389
11
6.9085237
21
31.9095048
0
LINE
8
0
10
6.9085237
20
31.9095048
11
9.4136395
21
14.0846796
0
LINE
8
0
10
9.4136395
20
14.0846796
11
-8.4111857
21
11.5795638
0
LINE
8
0
10
-8.4111857
20
11.5795638
11
-10.9163015
21
29.404389
0
LINE
8
0
10
-13.5605904
20
48.2194823
11
4.2642348
21
50.7245981
0
LINE
8
0
10
4.2642348
20
50.7245981
11
6.7693506
21
32.8997729
0
LINE
8
0
10
6.7693506
20
32.8997729
11
-11.0554746
21
30.3946571
0
LINE
8
0
10
-11.0554746
20
30.3946571
11
-13.5605904
21
48.2194823
0
LINE
8
0
10
10.594195
20
28.4182136
11
28.5914535
21
28.7323569
0
LINE
8
0
10
28.5914535
20
28.7323569
11
28.9055968
21
10.7350984
0
LINE
8
0
10
28.9055968
20
10.7350984
11
10.9083383
21
10.4209551
0
LINE
8
0
10
10.9083383
20
10.4209551
11
10.594195
21
28.4182136
0
LINE
8
0
10
10.2625993
20
47.4153198
11
28.2598578
21
47.7294631
0
LINE
8
0
10
28.2598578
20
47.7294631
11
28.5740011
21
29.7322046
0
LINE
8
0
10
28.5740011
20
29.7322046
11
10.5767426
21
29.4180613
0
LINE
8
0
10
10.5767426
20
29.4180613
11
10.2625993
21
47.4153198
0
LINE
8
0
10
9.9310036
20
66.412426
11
27.9282621
21
66.7265693
0
LINE
8
0
10
27.9282621
20
66.7265693
11
28.2424054
21
48.7293108
0
LINE
8
0
10
28.2424054
20
48.7293108
11
10.2451469
21
48.4151675
0
LINE
8
0
10
10.2451469
20
48.4151675
11
9.9310036
21
66.412426
0
LINE
8
0
10
31.3267719
20
33.5309796
11
49.2829248
21
32.2753631
0
LINE
8
0
10
49.2829248
20
32.2753631
11
48.0273083
21
14.3192102
0
LINE
8
0
10
48.0273083
20
14.3192102
11
30.0711554
21
15.5748267
0
LINE
8
0
10
30.0711554
20
15.5748267
11
31.3267719
21
33.5309796
0
LINE
8
0
10
32.6521449
20
52.4846966
11
50.6082978
21
51.2290801
0
LINE
8
0
10
50.6082978
20
51.2290801
11
49.3526813
21
33.2729272
0
LINE
8
0
10
49.3526813
20
33.2729272
11
31.3965284
21
34.5285437
0
LINE
8
0
10
31.3965284
20
34.5285437
11
32.6521449
21
52.4846966
0
LINE
8
0
10
33.9775179
20
71.4384136
11
51.9336708
21
70.1827971
0
LINE
8
0
10
51.9336708
20
70.1827971
11
50.6780543
21
52.2266442
0
LINE
8
0
10
50.6780543
20
52.2266442
11
32.7219014
21
53.4822607
0
LINE
8
0
10
32.7219014
20
53.4822607
11
33.9775179
21
71.4384136
0
LINE
8
0
10
50.8006897
20
27.9090069
11
68.5790799
21
25.0931865
0
LINE
8
0
10
68.5790799
20
25.0931865
11
65.7632595
21
7.3147963
0
LINE
8
0
10
65.7632595
20
7.3147963
11
47.9848693
21
10.1306167
0
LINE
8
0
10
47.9848693
20
10.1306167
11
50.8006897
21
27.9090069
0
LINE
8
0
10
53.7729445
20
46.6750854
11
71.5513347
21
43.859265
0
LINE
8
0
10
71.5513347
20
43.859265
11
68.7355143
21
26.0808748
0
LINE
8
0
10
68.7355143
20
26.0808748
11
50.9571241
21
28.8966952
0
LINE
8
0
10
50.9571241
20
28.8966952
11
53.7729445
21
46.6750854
0
LINE
8
0
10
56.7451993
20
65.4411639
11
74.5235895
21
62.6253435
0
LINE
8
0
10
74.5235895
20
62.6253435
11
71.7077691
21
44.8469533
0
LINE
8
0
10
71.7077691
20
44.8469533
11
53.9293789
21
47.6627737
0
LINE
8
0
10
53.9293789
20
47.6627737
11
56.7451993
21
65.4411639
0
LINE
8
0
10
69.7476169
20
25.0657503
11
87.4741565
21
21.9400831
0
LINE
8
0
10
87.4741565
20
21.9400831
11
84.3484893
21
4.2135435
0
LINE
8
0
10
84.3484893
20
4.2135435
11
66.6219497
21
7.3392107
0
LINE
8
0
10
66.6219497
20
7.3392107
11
69.7476169
21
25.0657503
0
LINE
8
0
10
73.0469323
20
43.7770976
11
90.7734719
21
40.6514304
0
LINE
8
0
10
90.7734719
20
40.6514304
11
87.6478047
21
22.9248908
0
LINE
8
0
10
87.6478047
20
22.9248908
11
69.9212651
21
26.050558
0
LINE
8
0
10
69.9212651
20
26.050558
11
73.0469323
21
43.7770976
0
LINE
8
0
10
76.3462477
20
62.4884449
11
94.0727873
21
59.3627777
0
LINE
8
0
10
94.0727873
20
59.3627777
11
90.9471201
21
41.6362381
0
LINE
8
0
10
90.9471201
20
41.6362381
11
73.2205805
21
44.7619053
0
LINE
8
0
10
73.2205805
20
44.7619053
11
76.3462477
21
62.4884449
0
LINE
8
0
10
59.3809991
20
6.5851325
11
77.1075387
21
3.4594653
0
LINE
8
0
10
77.1075387
20
3.4594653
11
73.9818715
21
-14.2670743
0
LINE
8
0
10
73.9818715
20
-14.2670743
11
56.2553319
21
-11.1414071
0
LINE
8
0
10
56.2553319
20
-11.1414071
11
59.3809991
21
6.5851325
0
LINE
8
0
10
84.5626556
20
1.4218915
11
100.1511128
21
-7.5781085
0
LINE
8
0
10
100.1511128
20
-7.5781085
11
91.1511128
21
-23.1665657
0
LINE
8
0
10
91.1511128
20
-23.1665657
11
75.5626556
21
-14.1665657
0
LINE
8
0
10
75.5626556
20
-14.1665657
11
84.5626556
21
1.4218915
0
LINE
8
0
10
106.6390784
20
-13.0293962
11
117.4717488
21
-27.4048354
0
LINE
8
0
10
117.4717488
20
-27.4048354
11
103.0963096
21
-38.2375058
0
LINE
8
0
10
103.0963096
20
-38.2375058
11
92.2636392
21
-23.8620666
0
LINE
8
0
10
92.2636392
20
-23.8620666
11
106.6390784
21
-13.0293962
0
LINE
8
0
10
96.6607318
20
16.3763742
11
112.249189
21
7.3763742
0
LINE
8
0
10
112.249189
20
7.3763742
11
103.249189
21
-8.212083
0
LINE
8
0
10
103.249189
20
-8.212083
11
87.6607318
21
0.787917
0
LINE
8
0
10
87.6607318
20
0.787917
11
96.6607318
21
16.3763742
0
LINE
8
0
10
118.8609195
20
1.8607581
11
129.6935899
21
-12.5146811
0
LINE
8
0
10
129.6935899
20
-12.5146811
11
115.3181507
21
-23.3473515
0
LINE
8
0
10
115.3181507
20
-23.3473515
11
104.4854803
21
-8.9719123
0
LINE
8
0
10
104.4854803
20
-8.9719123
11
118.8609195
21
1.8607581
0
LINE
8
0
10
258.9445254
20
13.0944115
11
276.7693506
21
10.5892957
0
LINE
8
0
10
276.7693506
20
10.5892957
11
274.2642348
21
-7.2355295
0
LINE
8
0
10
274.2642348
20
-7.2355295
11
256.4394096
21
-4.7304137
0
LINE
8
0
10
256.4394096
20
-4.7304137
11
258.9445254
21
13.0944115
0
LINE
8
0
10
261.5888143
20
31.9095048
11
279.4136395
21
29.404389
0
LINE
8
0
10
279.4136395
20
29.404389
11
276.9085237
21
11.5795638
0
LINE
8
0
10
276.9085237
20
11.5795638
11
259.0836985
21
14.0846796
0
LINE
8
0
10
259.0836985
20
14.0846796
11
261.5888143
21
31.9095048
0
LINE
8
0
10
264.2331032
20
50.7245981
11
282.0579284
21
48.2194823
0
LINE
8
0
10
282.0579284
20
48.2194823
11
279.5528126
21
30.3946571
0
LINE
8
0
10
279.5528126
20
30.3946571
11
261.7279874
21
32.8997729
0
LINE
8
0
10
261.7279874
20
32.8997729
11
264.2331032
21
50.7245981
0
LINE
8
0
10
239.9058845
20
28.7323569
11
257.903143
21
28.4182136
0
LINE
8
0
10
257.903143
20
28.4182136
11
257.5889997
21
10.4209551
0
LINE
8
0
10
257.5889997
20
10.4209551
11
239.5917412
21
10.7350984
0
LINE
8
0
10
239.5917412
20
10.7350984
11
239.9058845
21
28.7323569
0
LINE
8
0
10
240.2374802
20
47.7294631
11
258.2347387
21
47.4153198
0
LINE
8
0
10
258.2347387
20
47.4153198
11
257.9205954
21
29.4180613
0
LINE
8
0
10
257.9205954
20
29.4180613
11
239.9233369
21
29.7322046
0
LINE
8
0
10
239.9233369
20
29.7322046
11
240.2374802
21
47.7294631
0
LINE
8
0
10
240.5690759
20
66.7265693
11
258.5663344
21
66.412426
0
LINE
8
0
10
258.5663344
20
66.412426
11
258.2521911
21
48.4151675
0
LINE
8
0
10
258.2521911
20
48.4151675
11
240.2549326
21
48.7293108
0
LINE
8
0
10
240.2549326
20
48.7293108
11
240.5690759
21
66.7265693
0
LINE
8
0
10
219.2144132
20
32.2753631
11
237.1705661
21
33.5309796
0
LINE
8
0
10
237.1705661
20
33.5309796
11
238.4261826
21
15.5748267
0
LINE
8
0
10
238.4261826
20
15.5748267
11
220.4700297
21
14.3192102
0
LINE
8
0
10
220.4700297
20
14.3192102
11
219.2144132
21
32.2753631
0
LINE
8
0
10
217.8890402
20
51.2290801
11
235.8451931
21
52.4846966
0
LINE
8
0
10
235.8451931
20
52.4846966
11
237.1008096
21
34.5285437
0
LINE
8
0
10
237.1008096
20
34.5285437
11
219.1446567
21
33.2729272
0
LINE
8
0
10
219.1446567
20
33.2729272
11
217.8890402
21
51.2290801
0
LINE
8
0
10
216.5636672
20
70.1827971
11
234.5198201
21
71.4384136
0
LINE
8
0
10
234.5198201
20
71.4384136
11
235.7754366
21
53.4822607
0
LINE
8
0
10
235.7754366
20
53.4822607
11
217.8192837
21
52.2266442
0
LINE
8
0
10
217.8192837
20
52.2266442
11
216.5636672
21
70.1827971
0
LINE
8
0
10
199.9182581
20
25.0931865
11
217.6966483
21
27.9090069
0
LINE
8
0
10
217.6966483
20
27.9090069
11
220.5124687
21
10.1306167
0
LINE
8
0
10
220.5124687
20
10.1306167
11
202.7340785
21
7.3147963
0
LINE
8
0
10
202.7340785
20
7.3147963
11
199.9182581
21
25.0931865
0
LINE
8
0
10
196.9460033
20
43.859265
11
214.7243935
21
46.6750854
0
LINE
8
0
10
214.7243935
20
46.6750854
11
217.5402139
21
28.8966952
0
LINE
8
0
10
217.5402139
20
28.8966952
11
199.7618237
21
26.0808748
0
LINE
8
0
10
199.7618237
20
26.0808748
11
196.9460033
21
43.859265
0
LINE
8
0
10
193.9737485
20
62.6253435
11
211.7521387
21
65.4411639
0
LINE
8
0
10
211.7521387
20
65.4411639
11
214.5679591
21
47.6627737
0
LINE
8
0
10
214.5679591
20
47.6627737
11
196.7895689
21
44.8469533
0
LINE
8
0
10
196.7895689
20
44.8469533
11
193.9737485
21
62.6253435
0
LINE
8
0
10
181.0231815
20
21.9400831
11
198.7497211
21
25.0657503
0
LINE
8
0
10
198.7497211
20
25.0657503
11
201.8753883
21
7.3392107
0
LINE
8
0
10
201.8753883
20
7.3392107
11
184.1488487
21
4.2135435
0
LINE
8
0
10
184.1488487
20
4.2135435
11
181.0231815
21
21.9400831
0
LINE
8
0
10
177.7238661
20
40.6514304
11
195.4504057
21
43.7770976
0
LINE
8
0
10
195.4504057
20
43.7770976
11
198.5760729
21
26.050558
0
LINE
8
0
10
198.5760729
20
26.050558
11
180.8495333
21
22.9248908
0
LINE
8
0
10
180.8495333
20
22.9248908
11
177.7238661
21
40.6514304
0
LINE
8
0
10
174.4245507
20
59.3627777
11
192.1510903
21
62.4884449
0
LINE
8
0
10
192.1510903
20
62.4884449
11
195.2767575
21
44.7619053
0
LINE
8
0
10
195.2767575
20
44.7619053
11
177.5502179
21
41.6362381
0
LINE
8
0
10
177.5502179
20
41.6362381
11
174.4245507
21
59.3627777
0
LINE
8
0
10
191.3897993
20
3.4594653
11
209.1163389
21
6.5851325
0
LINE
8
0
10
209.1163389
20
6.5851325
11
212.2420061
21
-11.1414071
0
LINE
8
0
10
212.2420061
20
-11.1414071
11
194.5154665
21
-14.2670743
0
LINE
8
0
10
194.5154665
20
-14.2670743
11
191.3897993
21
3.4594653
0
LINE
8
0
10
168.3462252
20
-7.5781085
11
183.9346824
21
1.4218915
0
LINE
8
0
10
183.9346824
20
1.4218915
11
192.9346824
21
-14.1665657
0
LINE
8
0
10
192.9346824
20
-14.1665657
11
177.3462252
21
-23.1665657
0
LINE
8
0
10
177.3462252
20
-23.1665657
11
168.3462252
21
-7.5781085
0
LINE
8
0
10
151.0255892
20
-27.4048354
11
161.8582596
21
-13.0293962
0
LINE
8
0
10
161.8582596
20
-13.0293962
11
176.2336988
21
-23.8620666
0
LINE
8
0
10
176.2336988
20
-23.8620666
11
165.4010284
21
-38.2375058
0
LINE
8
0
10
165.4010284
20
-38.2375058
11
151.0255892
21
-27.4048354
0
LINE
8
0
10
156.248149
20
7.3763742
11
171.8366062
21
16.3763742
0
LINE
8
0
10
171.8366062
20
16.3763742
11
180.8366062
21
0.787917
0
LINE
8
0
10
180.8366062
20
0.787917
11
165.248149
21
-8.212083
0
LINE
8
0
10
165.248149
20
-8.212083
11
156.248149
21
7.3763742
0
LINE
8
0
10
138.8037481
20
-12.5146811
11
149.6364185
21
1.8607581
0
LINE
8
0
10
149.6364185
20
1.8607581
11
164.0118577
21
-8.9719123
0
LINE
8
0
10
164.0118577
20
-8.9719123
11
153.1791873
21
-23.3473515
0
LINE
8
0
10
153.1791873
20
-23.3473515
11
138.8037481
21
-12.5146811
0
ENDSEC
0
EOF