%TF.GenerationSoftware,KiCad,Pcbnew,9.0.2*%
%TF.CreationDate,2025-07-07T14:02:59-04:00*%
%TF.ProjectId,routed_banana_split,726f7574-6564-45f6-9261-6e616e615f73,0.0.1*%
%TF.SameCoordinates,Original*%
%TF.FileFunction,Paste,Bot*%
%TF.FilePolarity,Positive*%
%FSLAX46Y46*%
G04 Gerber Fmt 4.6, Leading zero omitted, Abs format (unit mm)*
G04 Created by KiCad (PCBNEW 9.0.2) date 2025-07-07 14:02:59*
%MOMM*%
%LPD*%
G01*
G04 APERTURE LIST*
G04 Aperture macros list*
%AMRotRect*
0 Rectangle, with rotation*
0 The origin of the aperture is its center*
0 $1 length*
0 $2 width*
0 $3 Rotation angle, in degrees counterclockwise*
0 Add horizontal line*
21,1,$1,$2,0,0,$3*%
G04 Aperture macros list end*
%ADD10RotRect,0.900000X1.200000X53.000000*%
%ADD11RotRect,0.900000X1.200000X351.000000*%
%ADD12RotRect,2.600000X2.600000X9.000000*%
%ADD13RotRect,0.900000X1.200000X350.000000*%
%ADD14RotRect,2.600000X2.600000X352.000000*%
%ADD15RotRect,2.600000X2.600000X356.000000*%
%ADD16RotRect,0.900000X1.200000X10.000000*%
%ADD17RotRect,0.900000X1.200000X330.000000*%
%ADD18RotRect,0.900000X1.200000X352.000000*%
%ADD19RotRect,0.900000X1.200000X359.000000*%
%ADD20RotRect,2.600000X2.600000X1.000000*%
%ADD21RotRect,0.900000X1.200000X1.000000*%
%ADD22RotRect,2.600000X2.600000X10.000000*%
%ADD23RotRect,2.600000X2.600000X4.000000*%
%ADD24RotRect,2.600000X2.600000X30.000000*%
%ADD25RotRect,2.600000X2.600000X350.000000*%
%ADD26RotRect,0.900000X1.200000X307.000000*%
%ADD27RotRect,2.600000X2.600000X330.000000*%
%ADD28RotRect,0.900000X1.200000X30.000000*%
%ADD29RotRect,2.600000X2.600000X359.000000*%
%ADD30RotRect,2.600000X2.600000X351.000000*%
%ADD31RotRect,0.900000X1.200000X4.000000*%
%ADD32RotRect,2.600000X2.600000X307.000000*%
%ADD33RotRect,0.900000X1.200000X356.000000*%
%ADD34RotRect,2.600000X2.600000X8.000000*%
%ADD35RotRect,0.900000X1.200000X8.000000*%
%ADD36RotRect,2.600000X2.600000X53.000000*%
%ADD37RotRect,0.900000X1.200000X9.000000*%
G04 APERTURE END LIST*
D10*
%TO.C,D38*%
X252186519Y-179960275D03*
X254172509Y-177324777D03*
%TD*%
D11*
%TO.C,D12*%
X146188888Y-103487020D03*
X149448260Y-104003254D03*
%TD*%
D12*
%TO.C,S31*%
X288947206Y-110232974D03*
X300699162Y-110599072D03*
%TD*%
D13*
%TO.C,D13*%
X159554879Y-139997873D03*
X162804745Y-140570911D03*
%TD*%
D14*
%TO.C,S21*%
X349746025Y-140722672D03*
X360877440Y-144508711D03*
%TD*%
D15*
%TO.C,S8*%
X123010929Y-102952357D03*
X134379329Y-105952686D03*
%TD*%
D16*
%TO.C,D34*%
X273297266Y-123829179D03*
X276547132Y-123256141D03*
%TD*%
%TO.C,D35*%
X270345247Y-107087447D03*
X273595113Y-106514409D03*
%TD*%
D17*
%TO.C,D19*%
X180526018Y-150289007D03*
X183383902Y-151939007D03*
%TD*%
D18*
%TO.C,D21*%
X349831265Y-151792263D03*
X353099149Y-152251535D03*
%TD*%
D19*
%TO.C,D26*%
X333160505Y-101398965D03*
X336460003Y-101456557D03*
%TD*%
D20*
%TO.C,S5*%
X101074862Y-107533996D03*
X112661498Y-109532085D03*
%TD*%
D21*
%TO.C,D5*%
X102890718Y-118453968D03*
X106190216Y-118396376D03*
%TD*%
D22*
%TO.C,S34*%
X269795506Y-113327713D03*
X281552061Y-113488653D03*
%TD*%
D23*
%TO.C,S27*%
X310694917Y-120367851D03*
X322370246Y-121756805D03*
%TD*%
D24*
%TO.C,S39*%
X248787837Y-143268529D03*
X259890430Y-139398785D03*
%TD*%
D25*
%TO.C,S15*%
X165760052Y-95448586D03*
X176752556Y-99620800D03*
%TD*%
D22*
%TO.C,S35*%
X266843487Y-96585982D03*
X278600042Y-96746922D03*
%TD*%
D26*
%TO.C,D18*%
X184881521Y-177324777D03*
X186867511Y-179960275D03*
%TD*%
D18*
%TO.C,D23*%
X354563150Y-118123149D03*
X357831034Y-118582421D03*
%TD*%
D16*
%TO.C,D36*%
X286615903Y-159051529D03*
X289865769Y-158478491D03*
%TD*%
D27*
%TO.C,S19*%
X184593727Y-139993529D03*
X193496320Y-147673785D03*
%TD*%
D22*
%TO.C,S36*%
X283114143Y-148550063D03*
X294870698Y-148711003D03*
%TD*%
D28*
%TO.C,D39*%
X255670128Y-151939007D03*
X258528012Y-150289007D03*
%TD*%
D29*
%TO.C,S25*%
X331430166Y-107419683D03*
X342940011Y-109820923D03*
%TD*%
D30*
%TO.C,S11*%
X143637467Y-109208329D03*
X154701111Y-113188061D03*
%TD*%
D27*
%TO.C,S17*%
X172995651Y-154081986D03*
X181898244Y-161762242D03*
%TD*%
D22*
%TO.C,S33*%
X272747525Y-130069445D03*
X284504080Y-130230385D03*
%TD*%
D31*
%TO.C,D29*%
X310708071Y-97260646D03*
X314000033Y-97030450D03*
%TD*%
D24*
%TO.C,S37*%
X260385913Y-157356986D03*
X271488506Y-153487242D03*
%TD*%
D14*
%TO.C,S23*%
X354477910Y-107053558D03*
X365609325Y-110839597D03*
%TD*%
D32*
%TO.C,S20*%
X204071837Y-155148781D03*
X209265802Y-165697015D03*
%TD*%
D33*
%TO.C,D9*%
X125053997Y-97030450D03*
X128345959Y-97260646D03*
%TD*%
D25*
%TO.C,S13*%
X159856014Y-128932049D03*
X170848518Y-133104263D03*
%TD*%
D10*
%TO.C,D40*%
X240763313Y-165671936D03*
X242749303Y-163036438D03*
%TD*%
D13*
%TO.C,D16*%
X149188261Y-158478491D03*
X152438127Y-159051529D03*
%TD*%
D21*
%TO.C,D6*%
X102594027Y-101456557D03*
X105893525Y-101398965D03*
%TD*%
D26*
%TO.C,D20*%
X196304727Y-163036438D03*
X198290717Y-165671936D03*
%TD*%
D33*
%TO.C,D8*%
X123868137Y-113989038D03*
X127160099Y-114219234D03*
%TD*%
%TO.C,D7*%
X122682277Y-130947627D03*
X125974239Y-131177823D03*
%TD*%
D19*
%TO.C,D24*%
X332567123Y-135393786D03*
X335866621Y-135451378D03*
%TD*%
D15*
%TO.C,S9*%
X124196789Y-85993768D03*
X135565189Y-88994097D03*
%TD*%
D23*
%TO.C,S28*%
X309509057Y-103409262D03*
X321184386Y-104798216D03*
%TD*%
D34*
%TO.C,S1*%
X82821750Y-141634256D03*
X94565527Y-142205396D03*
%TD*%
D13*
%TO.C,D14*%
X162506898Y-123256141D03*
X165756764Y-123829179D03*
%TD*%
D35*
%TO.C,D1*%
X85954881Y-152251535D03*
X89222765Y-151792263D03*
%TD*%
D17*
%TO.C,D17*%
X168927942Y-164377464D03*
X171785826Y-166027464D03*
%TD*%
D29*
%TO.C,S24*%
X331133476Y-124417094D03*
X342643321Y-126818334D03*
%TD*%
D28*
%TO.C,D37*%
X267268204Y-166027464D03*
X270126088Y-164377464D03*
%TD*%
D19*
%TO.C,D25*%
X332863814Y-118396376D03*
X336163312Y-118453968D03*
%TD*%
D36*
%TO.C,S38*%
X242463511Y-174668183D03*
X251171472Y-166767936D03*
%TD*%
D37*
%TO.C,D30*%
X294924542Y-137584657D03*
X298183914Y-137068423D03*
%TD*%
D29*
%TO.C,S26*%
X331726857Y-90422272D03*
X343236702Y-92823512D03*
%TD*%
D21*
%TO.C,D4*%
X103187409Y-135451378D03*
X106486907Y-135393786D03*
%TD*%
D13*
%TO.C,D15*%
X165458917Y-106514409D03*
X168708783Y-107087447D03*
%TD*%
D25*
%TO.C,S16*%
X149489396Y-147412667D03*
X160481900Y-151584881D03*
%TD*%
D31*
%TO.C,D27*%
X313079792Y-131177823D03*
X316371754Y-130947627D03*
%TD*%
D32*
%TO.C,S18*%
X192648631Y-169437120D03*
X197842596Y-179985354D03*
%TD*%
D15*
%TO.C,S7*%
X121825069Y-119910946D03*
X133193469Y-122911275D03*
%TD*%
D31*
%TO.C,D28*%
X311893932Y-114219234D03*
X315185894Y-113989038D03*
%TD*%
D14*
%TO.C,S22*%
X352111967Y-123888115D03*
X363243382Y-127674154D03*
%TD*%
D35*
%TO.C,D3*%
X81222996Y-118582421D03*
X84490880Y-118123149D03*
%TD*%
D30*
%TO.C,S10*%
X140978081Y-125999030D03*
X152041725Y-129978762D03*
%TD*%
D18*
%TO.C,D22*%
X352197208Y-134957706D03*
X355465092Y-135416978D03*
%TD*%
D12*
%TO.C,S32*%
X286287820Y-93442272D03*
X298039776Y-93808370D03*
%TD*%
D37*
%TO.C,D31*%
X292265156Y-120793955D03*
X295524528Y-120277721D03*
%TD*%
D11*
%TO.C,D11*%
X143529502Y-120277721D03*
X146788874Y-120793955D03*
%TD*%
D20*
%TO.C,S4*%
X101371553Y-124531407D03*
X112958189Y-126529496D03*
%TD*%
D34*
%TO.C,S3*%
X78089864Y-107965142D03*
X89833641Y-108536282D03*
%TD*%
D20*
%TO.C,S6*%
X100778171Y-90536585D03*
X112364807Y-92534674D03*
%TD*%
D34*
%TO.C,S2*%
X80455807Y-124799699D03*
X92199584Y-125370839D03*
%TD*%
D37*
%TO.C,D32*%
X289605770Y-104003254D03*
X292865142Y-103487020D03*
%TD*%
D35*
%TO.C,D2*%
X83588939Y-135416978D03*
X86856823Y-134957706D03*
%TD*%
D11*
%TO.C,D10*%
X140870116Y-137068423D03*
X144129488Y-137584657D03*
%TD*%
D30*
%TO.C,S12*%
X146296852Y-92417627D03*
X157360496Y-96397359D03*
%TD*%
D12*
%TO.C,S30*%
X291606592Y-127023675D03*
X303358548Y-127389773D03*
%TD*%
D25*
%TO.C,S14*%
X162808033Y-112190317D03*
X173800537Y-116362531D03*
%TD*%
D36*
%TO.C,S40*%
X231040306Y-160379844D03*
X239748267Y-152479597D03*
%TD*%
D16*
%TO.C,D33*%
X276249285Y-140570911D03*
X279499151Y-139997873D03*
%TD*%
D23*
%TO.C,S29*%
X308323197Y-86450673D03*
X319998526Y-87839627D03*
%TD*%
M02*
