%TF.GenerationSoftware,KiCad,Pcbnew,9.0.2*%
%TF.CreationDate,2025-07-07T14:02:59-04:00*%
%TF.ProjectId,routed_banana_split,726f7574-6564-45f6-9261-6e616e615f73,0.0.1*%
%TF.SameCoordinates,Original*%
%TF.FileFunction,Profile,NP*%
%FSLAX46Y46*%
G04 Gerber Fmt 4.6, Leading zero omitted, Abs format (unit mm)*
G04 Created by KiCad (PCBNEW 9.0.2) date 2025-07-07 14:02:59*
%MOMM*%
%LPD*%
G01*
G04 APERTURE LIST*
%TA.AperFunction,Profile*%
%ADD10C,0.150000*%
%TD*%
%TA.AperFunction,Profile*%
%ADD11C,0.050000*%
%TD*%
G04 APERTURE END LIST*
D10*
X98282950Y-156577903D02*
X81987119Y-158868133D01*
X91559021Y-86352759D02*
G75*
G02*
X93598656Y-85381985I3113079J-3912641D01*
G01*
X200891999Y-101448320D02*
X194649425Y-131883658D01*
X340771080Y-156577903D02*
X357066911Y-158868133D01*
X362714117Y-154612658D02*
X369414282Y-106938502D01*
X224480932Y-166941015D02*
G75*
G02*
X224393109Y-160809721I3905368J3122215D01*
G01*
X202402131Y-145057341D02*
G75*
G02*
X203693495Y-146255435I-2701831J-4207159D01*
G01*
X244441620Y-132049716D02*
G75*
G02*
X244404605Y-131883658I4860680J1170616D01*
G01*
X224480932Y-166941015D02*
X233087194Y-177705874D01*
X157259110Y-165023331D02*
G75*
G02*
X159140291Y-165654757I-618810J-4961569D01*
G01*
X322613910Y-141220966D02*
X338100475Y-155323437D01*
X81987119Y-158868133D02*
G75*
G02*
X76339907Y-154612659I-695869J4951343D01*
G01*
D11*
X185625839Y-164780000D02*
G75*
G02*
X182554161Y-164780000I-1535839J0D01*
G01*
X182554161Y-164780000D02*
G75*
G02*
X185625839Y-164780000I1535839J0D01*
G01*
D10*
X119572889Y-139470859D02*
X116440121Y-141220966D01*
X214573099Y-166941015D02*
X205966837Y-177705874D01*
X185009136Y-187345472D02*
X177072521Y-176499159D01*
X345455372Y-85381994D02*
G75*
G02*
X347494995Y-86352775I-1073472J-4883406D01*
G01*
X245278816Y-135525976D02*
G75*
G02*
X243119626Y-140903862I-4861016J-1170724D01*
G01*
X345455372Y-85381994D02*
X323413517Y-80536978D01*
X233983458Y-178576821D02*
G75*
G02*
X233087197Y-177705872I3009042J3993121D01*
G01*
D11*
X361441159Y-101330000D02*
G75*
G02*
X358390519Y-101330000I-1525320J0D01*
G01*
X358390519Y-101330000D02*
G75*
G02*
X361441159Y-101330000I1525320J0D01*
G01*
D10*
X194612410Y-132049716D02*
X193775215Y-135525976D01*
X243119606Y-140903831D02*
X236651899Y-145057341D01*
X238162032Y-101448320D02*
G75*
G02*
X241916630Y-95576174I4898068J1004620D01*
G01*
X235360529Y-146255431D02*
G75*
G02*
X236651899Y-145057341I3993171J-3009069D01*
G01*
X100953555Y-155323437D02*
G75*
G02*
X98282950Y-156577904I-3366455J3696837D01*
G01*
X115640513Y-80536977D02*
G75*
G02*
X117062718Y-80432584I1073387J-4883423D01*
G01*
X301846765Y-160492873D02*
X312693486Y-141369135D01*
X281794921Y-165023331D02*
X298116445Y-162987659D01*
X205070573Y-178576820D02*
X192053312Y-188386030D01*
D11*
X189018709Y-112080000D02*
G75*
G02*
X185921291Y-112080000I-1548709J0D01*
G01*
X185921291Y-112080000D02*
G75*
G02*
X189018709Y-112080000I1548709J0D01*
G01*
D10*
X139680542Y-82078919D02*
X197137398Y-95576187D01*
X321991312Y-80432574D02*
X300168137Y-81958599D01*
X93598658Y-85381994D02*
X115640513Y-80536978D01*
X299373489Y-82078919D02*
X241916633Y-95576187D01*
X233983458Y-178576820D02*
X247000718Y-188386030D01*
X299373488Y-82078918D02*
G75*
G02*
X300168137Y-81958601I1143412J-4867482D01*
G01*
D11*
X252954548Y-111970000D02*
G75*
G02*
X249857130Y-111970000I-1548709J0D01*
G01*
X249857130Y-111970000D02*
G75*
G02*
X252954548Y-111970000I1548709J0D01*
G01*
D10*
X279913743Y-165654762D02*
G75*
G02*
X281794923Y-165023348I2499957J-4330138D01*
G01*
X195934424Y-140903831D02*
X202402131Y-145057341D01*
X157259109Y-165023331D02*
X140937585Y-162987659D01*
X367576002Y-102329983D02*
X347495009Y-86352758D01*
X321991312Y-80432575D02*
G75*
G02*
X323413517Y-80536976I348788J-4987825D01*
G01*
X119572889Y-139470859D02*
G75*
G02*
X126360539Y-141369139I2438511J-4365041D01*
G01*
X116440121Y-141220966D02*
X100953555Y-155323437D01*
X175537421Y-175121652D02*
G75*
G02*
X177072521Y-176499159I-2500021J-4330148D01*
G01*
X312693485Y-141369135D02*
G75*
G02*
X319481125Y-139470888I4349115J-2466765D01*
G01*
D11*
X338324029Y-144790000D02*
G75*
G02*
X335287649Y-144790000I-1518190J0D01*
G01*
X335287649Y-144790000D02*
G75*
G02*
X338324029Y-144790000I1518190J0D01*
G01*
D10*
X263516609Y-175121652D02*
X279913743Y-165654762D01*
D11*
X103588190Y-144900000D02*
G75*
G02*
X100551810Y-144900000I-1518190J0D01*
G01*
X100551810Y-144900000D02*
G75*
G02*
X103588190Y-144900000I1518190J0D01*
G01*
D10*
X71478028Y-102329983D02*
X91559021Y-86352758D01*
X261981509Y-176499159D02*
G75*
G02*
X263516613Y-175121660I4035091J-2952641D01*
G01*
X254044894Y-187345472D02*
X261981509Y-176499159D01*
X203693501Y-146255431D02*
X214660937Y-160809709D01*
X301846766Y-160492874D02*
G75*
G02*
X298116447Y-162987677I-4349166J2466774D01*
G01*
X194649425Y-131883658D02*
G75*
G02*
X194612410Y-132049716I-4897725J1004558D01*
G01*
X205966837Y-177705874D02*
G75*
G02*
X205070568Y-178576814I-3905237J3122174D01*
G01*
X197137398Y-95576187D02*
G75*
G02*
X200892037Y-101448328I-1143398J-4867513D01*
G01*
X117062719Y-80432574D02*
X138885893Y-81958599D01*
X244441620Y-132049716D02*
X245278816Y-135525976D01*
D11*
X256321678Y-164670000D02*
G75*
G02*
X253250000Y-164670000I-1535839J0D01*
G01*
X253250000Y-164670000D02*
G75*
G02*
X256321678Y-164670000I1535839J0D01*
G01*
D10*
X214660938Y-160809709D02*
G75*
G02*
X214573114Y-166941027I-3993138J-3009091D01*
G01*
X367576002Y-102329983D02*
G75*
G02*
X369414234Y-106938495I-3113102J-3912617D01*
G01*
X175537421Y-175121652D02*
X159140288Y-165654762D01*
X254044894Y-187345472D02*
G75*
G02*
X247000718Y-188386030I-4035094J2952572D01*
G01*
X192053312Y-188386029D02*
G75*
G02*
X185009103Y-187345497I-3009112J3993129D01*
G01*
X69639748Y-106938502D02*
G75*
G02*
X71478030Y-102329985I4951342J695862D01*
G01*
X140937585Y-162987659D02*
G75*
G02*
X137207260Y-160492876I618815J4961559D01*
G01*
X138885893Y-81958600D02*
G75*
G02*
X139680541Y-82078921I-348793J-4987800D01*
G01*
X235360529Y-146255431D02*
X224393093Y-160809709D01*
D11*
X80485320Y-101440000D02*
G75*
G02*
X77434680Y-101440000I-1525320J0D01*
G01*
X77434680Y-101440000D02*
G75*
G02*
X80485320Y-101440000I1525320J0D01*
G01*
D10*
X238162032Y-101448320D02*
X244404605Y-131883658D01*
X76339914Y-154612658D02*
X69639748Y-106938502D01*
X137207265Y-160492873D02*
X126360545Y-141369135D01*
X195934424Y-140903831D02*
G75*
G02*
X193775237Y-135525981I2701776J4207131D01*
G01*
X319481141Y-139470859D02*
X322613910Y-141220966D01*
X362714116Y-154612658D02*
G75*
G02*
X357066914Y-158868112I-4951316J695858D01*
G01*
X340771080Y-156577904D02*
G75*
G02*
X338100465Y-155323449I695820J4951304D01*
G01*
M02*
