%TF.GenerationSoftware,KiCad,Pcbnew,9.0.2*%
%TF.CreationDate,2025-07-07T14:02:59-04:00*%
%TF.ProjectId,routed_banana_split,726f7574-6564-45f6-9261-6e616e615f73,0.0.1*%
%TF.SameCoordinates,Original*%
%TF.FileFunction,Copper,L2,Bot*%
%TF.FilePolarity,Positive*%
%FSLAX46Y46*%
G04 Gerber Fmt 4.6, Leading zero omitted, Abs format (unit mm)*
G04 Created by KiCad (PCBNEW 9.0.2) date 2025-07-07 14:02:59*
%MOMM*%
%LPD*%
G01*
G04 APERTURE LIST*
G04 Aperture macros list*
%AMRoundRect*
0 Rectangle with rounded corners*
0 $1 Rounding radius*
0 $2 $3 $4 $5 $6 $7 $8 $9 X,Y pos of 4 corners*
0 Add a 4 corners polygon primitive as box body*
4,1,4,$2,$3,$4,$5,$6,$7,$8,$9,$2,$3,0*
0 Add four circle primitives for the rounded corners*
1,1,$1+$1,$2,$3*
1,1,$1+$1,$4,$5*
1,1,$1+$1,$6,$7*
1,1,$1+$1,$8,$9*
0 Add four rect primitives between the rounded corners*
20,1,$1+$1,$2,$3,$4,$5,0*
20,1,$1+$1,$4,$5,$6,$7,0*
20,1,$1+$1,$6,$7,$8,$9,0*
20,1,$1+$1,$8,$9,$2,$3,0*%
%AMHorizOval*
0 Thick line with rounded ends*
0 $1 width*
0 $2 $3 position (X,Y) of the first rounded end (center of the circle)*
0 $4 $5 position (X,Y) of the second rounded end (center of the circle)*
0 Add line between two ends*
20,1,$1,$2,$3,$4,$5,0*
0 Add two circle primitives to create the rounded ends*
1,1,$1,$2,$3*
1,1,$1,$4,$5*%
%AMRotRect*
0 Rectangle, with rotation*
0 The origin of the aperture is its center*
0 $1 length*
0 $2 width*
0 $3 Rotation angle, in degrees counterclockwise*
0 Add horizontal line*
21,1,$1,$2,0,0,$3*%
G04 Aperture macros list end*
%TA.AperFunction,ComponentPad*%
%ADD10RotRect,1.778000X1.778000X53.000000*%
%TD*%
%TA.AperFunction,SMDPad,CuDef*%
%ADD11RotRect,0.900000X1.200000X53.000000*%
%TD*%
%TA.AperFunction,ComponentPad*%
%ADD12C,1.905000*%
%TD*%
%TA.AperFunction,ComponentPad*%
%ADD13C,1.752600*%
%TD*%
%TA.AperFunction,ComponentPad*%
%ADD14RotRect,1.778000X1.778000X351.000000*%
%TD*%
%TA.AperFunction,SMDPad,CuDef*%
%ADD15RotRect,0.900000X1.200000X351.000000*%
%TD*%
%TA.AperFunction,SMDPad,CuDef*%
%ADD16RotRect,2.600000X2.600000X9.000000*%
%TD*%
%TA.AperFunction,ComponentPad*%
%ADD17RotRect,1.778000X1.778000X350.000000*%
%TD*%
%TA.AperFunction,SMDPad,CuDef*%
%ADD18RotRect,0.900000X1.200000X350.000000*%
%TD*%
%TA.AperFunction,SMDPad,CuDef*%
%ADD19RotRect,2.600000X2.600000X352.000000*%
%TD*%
%TA.AperFunction,SMDPad,CuDef*%
%ADD20RotRect,2.600000X2.600000X356.000000*%
%TD*%
%TA.AperFunction,ComponentPad*%
%ADD21RotRect,1.778000X1.778000X10.000000*%
%TD*%
%TA.AperFunction,SMDPad,CuDef*%
%ADD22RotRect,0.900000X1.200000X10.000000*%
%TD*%
%TA.AperFunction,ComponentPad*%
%ADD23HorizOval,1.700000X0.000000X0.000000X0.000000X0.000000X0*%
%TD*%
%TA.AperFunction,ComponentPad*%
%ADD24C,1.700000*%
%TD*%
%TA.AperFunction,ComponentPad*%
%ADD25RotRect,1.778000X1.778000X330.000000*%
%TD*%
%TA.AperFunction,SMDPad,CuDef*%
%ADD26RotRect,0.900000X1.200000X330.000000*%
%TD*%
%TA.AperFunction,ComponentPad*%
%ADD27RotRect,1.778000X1.778000X352.000000*%
%TD*%
%TA.AperFunction,SMDPad,CuDef*%
%ADD28RotRect,0.900000X1.200000X352.000000*%
%TD*%
%TA.AperFunction,ComponentPad*%
%ADD29RotRect,1.778000X1.778000X359.000000*%
%TD*%
%TA.AperFunction,SMDPad,CuDef*%
%ADD30RotRect,0.900000X1.200000X359.000000*%
%TD*%
%TA.AperFunction,SMDPad,CuDef*%
%ADD31RotRect,2.600000X2.600000X1.000000*%
%TD*%
%TA.AperFunction,ComponentPad*%
%ADD32RotRect,1.778000X1.778000X1.000000*%
%TD*%
%TA.AperFunction,SMDPad,CuDef*%
%ADD33RotRect,0.900000X1.200000X1.000000*%
%TD*%
%TA.AperFunction,SMDPad,CuDef*%
%ADD34RotRect,2.600000X2.600000X10.000000*%
%TD*%
%TA.AperFunction,SMDPad,CuDef*%
%ADD35RotRect,2.600000X2.600000X4.000000*%
%TD*%
%TA.AperFunction,SMDPad,CuDef*%
%ADD36RotRect,2.600000X2.600000X30.000000*%
%TD*%
%TA.AperFunction,SMDPad,CuDef*%
%ADD37RotRect,2.600000X2.600000X350.000000*%
%TD*%
%TA.AperFunction,ComponentPad*%
%ADD38RotRect,1.778000X1.778000X307.000000*%
%TD*%
%TA.AperFunction,SMDPad,CuDef*%
%ADD39RotRect,0.900000X1.200000X307.000000*%
%TD*%
%TA.AperFunction,SMDPad,CuDef*%
%ADD40RotRect,2.600000X2.600000X330.000000*%
%TD*%
%TA.AperFunction,ComponentPad*%
%ADD41RotRect,1.778000X1.778000X30.000000*%
%TD*%
%TA.AperFunction,SMDPad,CuDef*%
%ADD42RotRect,0.900000X1.200000X30.000000*%
%TD*%
%TA.AperFunction,SMDPad,CuDef*%
%ADD43RotRect,2.600000X2.600000X359.000000*%
%TD*%
%TA.AperFunction,SMDPad,CuDef*%
%ADD44RotRect,2.600000X2.600000X351.000000*%
%TD*%
%TA.AperFunction,ComponentPad*%
%ADD45HorizOval,1.700000X0.000000X0.000000X0.000000X0.000000X0*%
%TD*%
%TA.AperFunction,ComponentPad*%
%ADD46RotRect,1.778000X1.778000X4.000000*%
%TD*%
%TA.AperFunction,SMDPad,CuDef*%
%ADD47RotRect,0.900000X1.200000X4.000000*%
%TD*%
%TA.AperFunction,SMDPad,CuDef*%
%ADD48RotRect,2.600000X2.600000X307.000000*%
%TD*%
%TA.AperFunction,ComponentPad*%
%ADD49RotRect,1.778000X1.778000X356.000000*%
%TD*%
%TA.AperFunction,SMDPad,CuDef*%
%ADD50RotRect,0.900000X1.200000X356.000000*%
%TD*%
%TA.AperFunction,SMDPad,CuDef*%
%ADD51RotRect,2.600000X2.600000X8.000000*%
%TD*%
%TA.AperFunction,ComponentPad*%
%ADD52RotRect,1.778000X1.778000X8.000000*%
%TD*%
%TA.AperFunction,SMDPad,CuDef*%
%ADD53RotRect,0.900000X1.200000X8.000000*%
%TD*%
%TA.AperFunction,SMDPad,CuDef*%
%ADD54RotRect,2.600000X2.600000X53.000000*%
%TD*%
%TA.AperFunction,ComponentPad*%
%ADD55RotRect,1.778000X1.778000X9.000000*%
%TD*%
%TA.AperFunction,SMDPad,CuDef*%
%ADD56RotRect,0.900000X1.200000X9.000000*%
%TD*%
%TA.AperFunction,ComponentPad*%
%ADD57RoundRect,0.240000X-0.256232X-0.683499X0.454904X-0.570866X0.256232X0.683499X-0.454904X0.570866X0*%
%TD*%
%TA.AperFunction,ComponentPad*%
%ADD58HorizOval,1.200000X-0.043019X0.271614X0.043019X-0.271614X0*%
%TD*%
%TA.AperFunction,ComponentPad*%
%ADD59RoundRect,0.240000X-0.454904X-0.570866X0.256232X-0.683499X0.454904X0.570866X-0.256232X0.683499X0*%
%TD*%
%TA.AperFunction,ComponentPad*%
%ADD60HorizOval,1.200000X-0.043019X-0.271614X0.043019X0.271614X0*%
%TD*%
%TA.AperFunction,ViaPad*%
%ADD61C,0.800000*%
%TD*%
%TA.AperFunction,Conductor*%
%ADD62C,0.250000*%
%TD*%
G04 APERTURE END LIST*
D10*
%TO.P,D38,1*%
%TO.N,RP115*%
X250886599Y-181685327D03*
D11*
X252186519Y-179960275D03*
%TO.P,D38,2*%
%TO.N,mirror_out_thumb*%
X254172509Y-177324777D03*
D12*
X255472429Y-175599725D03*
%TD*%
D13*
%TO.P,MCU2,1*%
%TO.N,RP006*%
X241686576Y-102651019D03*
%TO.P,MCU2,2*%
%TO.N,RP008*%
X242214672Y-105135514D03*
%TO.P,MCU2,3*%
%TO.N,RGND*%
X242742767Y-107620009D03*
%TO.P,MCU2,4*%
X243270863Y-110104504D03*
%TO.P,MCU2,5*%
%TO.N,RP017*%
X243798959Y-112588999D03*
%TO.P,MCU2,6*%
%TO.N,RP020*%
X244327053Y-115073494D03*
%TO.P,MCU2,7*%
%TO.N,RP022*%
X244855150Y-117557989D03*
%TO.P,MCU2,8*%
%TO.N,RP024*%
X245383246Y-120042483D03*
%TO.P,MCU2,9*%
%TO.N,RP100*%
X245911342Y-122526978D03*
%TO.P,MCU2,10*%
%TO.N,RP011*%
X246439437Y-125011473D03*
%TO.P,MCU2,11*%
%TO.N,RP104*%
X246967533Y-127495968D03*
%TO.P,MCU2,12*%
%TO.N,RP106*%
X247495629Y-129980463D03*
%TO.P,MCU2,13*%
%TO.N,RP009*%
X262402598Y-126811889D03*
%TO.P,MCU2,14*%
%TO.N,RP010*%
X261874502Y-124327394D03*
%TO.P,MCU2,15*%
%TO.N,RP111*%
X261346407Y-121842899D03*
%TO.P,MCU2,16*%
%TO.N,RP113*%
X260818311Y-119358404D03*
%TO.P,MCU2,17*%
%TO.N,RP115*%
X260290215Y-116873909D03*
%TO.P,MCU2,18*%
%TO.N,RP002*%
X259762121Y-114389414D03*
%TO.P,MCU2,19*%
%TO.N,RP029*%
X259234024Y-111904919D03*
%TO.P,MCU2,20*%
%TO.N,RP031*%
X258705928Y-109420425D03*
%TO.P,MCU2,21*%
%TO.N,RVCC*%
X258177832Y-106935930D03*
%TO.P,MCU2,22*%
%TO.N,RRST*%
X257649737Y-104451435D03*
%TO.P,MCU2,23*%
%TO.N,RGND*%
X257121641Y-101966940D03*
%TO.P,MCU2,24*%
%TO.N,RRAW*%
X256593545Y-99482445D03*
%TO.P,MCU2,31*%
%TO.N,RP101*%
X248923932Y-124483378D03*
%TO.P,MCU2,32*%
%TO.N,RP102*%
X251408427Y-123955282D03*
%TO.P,MCU2,33*%
%TO.N,RP107*%
X253892922Y-123427186D03*
%TD*%
D14*
%TO.P,D12,1*%
%TO.N,P002*%
X144055481Y-103149122D03*
D15*
X146188888Y-103487020D03*
%TO.P,D12,2*%
%TO.N,index_top*%
X149448260Y-104003254D03*
D12*
X151581667Y-104341152D03*
%TD*%
D16*
%TO.P,S31,1*%
%TO.N,RP011*%
X288947206Y-110232974D03*
%TO.P,S31,2*%
%TO.N,mirror_index_home*%
X300699162Y-110599072D03*
%TD*%
D17*
%TO.P,D13,1*%
%TO.N,P031*%
X157427692Y-139622792D03*
D18*
X159554879Y-139997873D03*
%TO.P,D13,2*%
%TO.N,indexfar_bottom*%
X162804745Y-140570911D03*
D12*
X164931932Y-140945992D03*
%TD*%
D19*
%TO.P,S21,1*%
%TO.N,RP022*%
X349746025Y-140722672D03*
%TO.P,S21,2*%
%TO.N,mirror_pinky_bottom*%
X360877440Y-144508711D03*
%TD*%
D20*
%TO.P,S8,1*%
%TO.N,P100*%
X123010929Y-102952357D03*
%TO.P,S8,2*%
%TO.N,middle_home*%
X134379329Y-105952686D03*
%TD*%
D21*
%TO.P,D34,1*%
%TO.N,RP029*%
X271170079Y-124204260D03*
D22*
X273297266Y-123829179D03*
%TO.P,D34,2*%
%TO.N,mirror_indexfar_home*%
X276547132Y-123256141D03*
D12*
X278674319Y-122881060D03*
%TD*%
D21*
%TO.P,D35,1*%
%TO.N,RP002*%
X268218060Y-107462528D03*
D22*
X270345247Y-107087447D03*
%TO.P,D35,2*%
%TO.N,mirror_indexfar_top*%
X273595113Y-106514409D03*
D12*
X275722300Y-106139328D03*
%TD*%
D23*
%TO.P,DISP2,1*%
%TO.N,RP017*%
X250606762Y-132457544D03*
%TO.P,DISP2,2*%
%TO.N,RP020*%
X253091257Y-131929449D03*
%TO.P,DISP2,3*%
%TO.N,RVCC*%
X255575752Y-131401353D03*
%TO.P,DISP2,4*%
%TO.N,RGND*%
X258060247Y-130873257D03*
D24*
%TO.P,DISP2,5*%
%TO.N,RP006*%
X260544742Y-130345162D03*
%TD*%
D25*
%TO.P,D19,1*%
%TO.N,P115*%
X178655403Y-149209007D03*
D26*
X180526018Y-150289007D03*
%TO.P,D19,2*%
%TO.N,in_default*%
X183383902Y-151939007D03*
D12*
X185254517Y-153019007D03*
%TD*%
D27*
%TO.P,D21,1*%
%TO.N,RP031*%
X347692286Y-151491648D03*
D28*
X349831265Y-151792263D03*
%TO.P,D21,2*%
%TO.N,mirror_pinky_bottom*%
X353099149Y-152251535D03*
D12*
X355238128Y-152552150D03*
%TD*%
D29*
%TO.P,D26,1*%
%TO.N,RP002*%
X331000834Y-101361267D03*
D30*
X333160505Y-101398965D03*
%TO.P,D26,2*%
%TO.N,mirror_ring_top*%
X336460003Y-101456557D03*
D12*
X338619674Y-101494255D03*
%TD*%
D31*
%TO.P,S5,1*%
%TO.N,P024*%
X101074862Y-107533996D03*
%TO.P,S5,2*%
%TO.N,ring_home*%
X112661498Y-109532085D03*
%TD*%
D32*
%TO.P,D5,1*%
%TO.N,P029*%
X100731047Y-118491666D03*
D33*
X102890718Y-118453968D03*
%TO.P,D5,2*%
%TO.N,ring_home*%
X106190216Y-118396376D03*
D12*
X108349887Y-118358678D03*
%TD*%
D34*
%TO.P,S34,1*%
%TO.N,RP104*%
X269795506Y-113327713D03*
%TO.P,S34,2*%
%TO.N,mirror_indexfar_home*%
X281552061Y-113488653D03*
%TD*%
D35*
%TO.P,S27,1*%
%TO.N,RP100*%
X310694917Y-120367851D03*
%TO.P,S27,2*%
%TO.N,mirror_middle_bottom*%
X322370246Y-121756805D03*
%TD*%
D36*
%TO.P,S39,1*%
%TO.N,RP011*%
X248787837Y-143268529D03*
%TO.P,S39,2*%
%TO.N,mirror_in_default*%
X259890430Y-139398785D03*
%TD*%
D37*
%TO.P,S15,1*%
%TO.N,P104*%
X165760052Y-95448586D03*
%TO.P,S15,2*%
%TO.N,indexfar_top*%
X176752556Y-99620800D03*
%TD*%
D34*
%TO.P,S35,1*%
%TO.N,RP104*%
X266843487Y-96585982D03*
%TO.P,S35,2*%
%TO.N,mirror_indexfar_top*%
X278600042Y-96746922D03*
%TD*%
D38*
%TO.P,D18,1*%
%TO.N,P115*%
X183581601Y-175599725D03*
D39*
X184881521Y-177324777D03*
%TO.P,D18,2*%
%TO.N,out_thumb*%
X186867511Y-179960275D03*
D12*
X188167431Y-181685327D03*
%TD*%
D27*
%TO.P,D23,1*%
%TO.N,RP002*%
X352424171Y-117822534D03*
D28*
X354563150Y-118123149D03*
%TO.P,D23,2*%
%TO.N,mirror_pinky_top*%
X357831034Y-118582421D03*
D12*
X359970013Y-118883036D03*
%TD*%
D21*
%TO.P,D36,1*%
%TO.N,RP115*%
X284488716Y-159426610D03*
D22*
X286615903Y-159051529D03*
%TO.P,D36,2*%
%TO.N,mirror_in_thumb*%
X289865769Y-158478491D03*
D12*
X291992956Y-158103410D03*
%TD*%
D40*
%TO.P,S19,1*%
%TO.N,P011*%
X184593727Y-139993529D03*
%TO.P,S19,2*%
%TO.N,in_default*%
X193496320Y-147673785D03*
%TD*%
D34*
%TO.P,S36,1*%
%TO.N,RP022*%
X283114143Y-148550063D03*
%TO.P,S36,2*%
%TO.N,mirror_in_thumb*%
X294870698Y-148711003D03*
%TD*%
D41*
%TO.P,D39,1*%
%TO.N,RP115*%
X253799513Y-153019007D03*
D42*
X255670128Y-151939007D03*
%TO.P,D39,2*%
%TO.N,mirror_in_default*%
X258528012Y-150289007D03*
D12*
X260398627Y-149209007D03*
%TD*%
D43*
%TO.P,S25,1*%
%TO.N,RP024*%
X331430166Y-107419683D03*
%TO.P,S25,2*%
%TO.N,mirror_ring_home*%
X342940011Y-109820923D03*
%TD*%
D44*
%TO.P,S11,1*%
%TO.N,P011*%
X143637467Y-109208329D03*
%TO.P,S11,2*%
%TO.N,index_home*%
X154701111Y-113188061D03*
%TD*%
D40*
%TO.P,S17,1*%
%TO.N,P024*%
X172995651Y-154081986D03*
%TO.P,S17,2*%
%TO.N,home_thumb*%
X181898244Y-161762242D03*
%TD*%
D45*
%TO.P,DISP1,1*%
%TO.N,P017*%
X178509288Y-130345162D03*
%TO.P,DISP1,2*%
%TO.N,P020*%
X180993783Y-130873257D03*
%TO.P,DISP1,3*%
%TO.N,VCC*%
X183478278Y-131401353D03*
%TO.P,DISP1,4*%
%TO.N,GND*%
X185962773Y-131929449D03*
D24*
%TO.P,DISP1,5*%
%TO.N,P006*%
X188447268Y-132457544D03*
%TD*%
D34*
%TO.P,S33,1*%
%TO.N,RP104*%
X272747525Y-130069445D03*
%TO.P,S33,2*%
%TO.N,mirror_indexfar_bottom*%
X284504080Y-130230385D03*
%TD*%
D46*
%TO.P,D29,1*%
%TO.N,RP002*%
X308553333Y-97411320D03*
D47*
X310708071Y-97260646D03*
%TO.P,D29,2*%
%TO.N,mirror_middle_top*%
X314000033Y-97030450D03*
D12*
X316154771Y-96879776D03*
%TD*%
D36*
%TO.P,S37,1*%
%TO.N,RP024*%
X260385913Y-157356986D03*
%TO.P,S37,2*%
%TO.N,mirror_home_thumb*%
X271488506Y-153487242D03*
%TD*%
D19*
%TO.P,S23,1*%
%TO.N,RP022*%
X354477910Y-107053558D03*
%TO.P,S23,2*%
%TO.N,mirror_pinky_top*%
X365609325Y-110839597D03*
%TD*%
D48*
%TO.P,S20,1*%
%TO.N,P104*%
X204071837Y-155148781D03*
%TO.P,S20,2*%
%TO.N,out_default*%
X209265802Y-165697015D03*
%TD*%
D49*
%TO.P,D9,1*%
%TO.N,P002*%
X122899259Y-96879776D03*
D50*
X125053997Y-97030450D03*
%TO.P,D9,2*%
%TO.N,middle_top*%
X128345959Y-97260646D03*
D12*
X130500697Y-97411320D03*
%TD*%
D37*
%TO.P,S13,1*%
%TO.N,P104*%
X159856014Y-128932049D03*
%TO.P,S13,2*%
%TO.N,indexfar_bottom*%
X170848518Y-133104263D03*
%TD*%
D10*
%TO.P,D40,1*%
%TO.N,RP115*%
X239463393Y-167396988D03*
D11*
X240763313Y-165671936D03*
%TO.P,D40,2*%
%TO.N,mirror_out_default*%
X242749303Y-163036438D03*
D12*
X244049223Y-161311386D03*
%TD*%
D17*
%TO.P,D16,1*%
%TO.N,P115*%
X147061074Y-158103410D03*
D18*
X149188261Y-158478491D03*
%TO.P,D16,2*%
%TO.N,in_thumb*%
X152438127Y-159051529D03*
D12*
X154565314Y-159426610D03*
%TD*%
D32*
%TO.P,D6,1*%
%TO.N,P002*%
X100434356Y-101494255D03*
D33*
X102594027Y-101456557D03*
%TO.P,D6,2*%
%TO.N,ring_top*%
X105893525Y-101398965D03*
D12*
X108053196Y-101361267D03*
%TD*%
D38*
%TO.P,D20,1*%
%TO.N,P115*%
X195004807Y-161311386D03*
D39*
X196304727Y-163036438D03*
%TO.P,D20,2*%
%TO.N,out_default*%
X198290717Y-165671936D03*
D12*
X199590637Y-167396988D03*
%TD*%
D49*
%TO.P,D8,1*%
%TO.N,P029*%
X121713399Y-113838364D03*
D50*
X123868137Y-113989038D03*
%TO.P,D8,2*%
%TO.N,middle_home*%
X127160099Y-114219234D03*
D12*
X129314837Y-114369908D03*
%TD*%
D49*
%TO.P,D7,1*%
%TO.N,P031*%
X120527539Y-130796953D03*
D50*
X122682277Y-130947627D03*
%TO.P,D7,2*%
%TO.N,middle_bottom*%
X125974239Y-131177823D03*
D12*
X128128977Y-131328497D03*
%TD*%
D29*
%TO.P,D24,1*%
%TO.N,RP031*%
X330407452Y-135356088D03*
D30*
X332567123Y-135393786D03*
%TO.P,D24,2*%
%TO.N,mirror_ring_bottom*%
X335866621Y-135451378D03*
D12*
X338026292Y-135489076D03*
%TD*%
D20*
%TO.P,S9,1*%
%TO.N,P100*%
X124196789Y-85993768D03*
%TO.P,S9,2*%
%TO.N,middle_top*%
X135565189Y-88994097D03*
%TD*%
D35*
%TO.P,S28,1*%
%TO.N,RP100*%
X309509057Y-103409262D03*
%TO.P,S28,2*%
%TO.N,mirror_middle_home*%
X321184386Y-104798216D03*
%TD*%
D51*
%TO.P,S1,1*%
%TO.N,P022*%
X82821750Y-141634256D03*
%TO.P,S1,2*%
%TO.N,pinky_bottom*%
X94565527Y-142205396D03*
%TD*%
D17*
%TO.P,D14,1*%
%TO.N,P029*%
X160379711Y-122881060D03*
D18*
X162506898Y-123256141D03*
%TO.P,D14,2*%
%TO.N,indexfar_home*%
X165756764Y-123829179D03*
D12*
X167883951Y-124204260D03*
%TD*%
D52*
%TO.P,D1,1*%
%TO.N,P031*%
X83815902Y-152552150D03*
D53*
X85954881Y-152251535D03*
%TO.P,D1,2*%
%TO.N,pinky_bottom*%
X89222765Y-151792263D03*
D12*
X91361744Y-151491648D03*
%TD*%
D25*
%TO.P,D17,1*%
%TO.N,P115*%
X167057327Y-163297464D03*
D26*
X168927942Y-164377464D03*
%TO.P,D17,2*%
%TO.N,home_thumb*%
X171785826Y-166027464D03*
D12*
X173656441Y-167107464D03*
%TD*%
D43*
%TO.P,S24,1*%
%TO.N,RP024*%
X331133476Y-124417094D03*
%TO.P,S24,2*%
%TO.N,mirror_ring_bottom*%
X342643321Y-126818334D03*
%TD*%
D41*
%TO.P,D37,1*%
%TO.N,RP115*%
X265397589Y-167107464D03*
D42*
X267268204Y-166027464D03*
%TO.P,D37,2*%
%TO.N,mirror_home_thumb*%
X270126088Y-164377464D03*
D12*
X271996703Y-163297464D03*
%TD*%
D29*
%TO.P,D25,1*%
%TO.N,RP029*%
X330704143Y-118358678D03*
D30*
X332863814Y-118396376D03*
%TO.P,D25,2*%
%TO.N,mirror_ring_home*%
X336163312Y-118453968D03*
D12*
X338322983Y-118491666D03*
%TD*%
D54*
%TO.P,S38,1*%
%TO.N,RP100*%
X242463511Y-174668183D03*
%TO.P,S38,2*%
%TO.N,mirror_out_thumb*%
X251171472Y-166767936D03*
%TD*%
D13*
%TO.P,MCU1,1*%
%TO.N,P006*%
X182460486Y-99482445D03*
%TO.P,MCU1,2*%
%TO.N,P008*%
X181932390Y-101966940D03*
%TO.P,MCU1,3*%
%TO.N,GND*%
X181404294Y-104451435D03*
%TO.P,MCU1,4*%
X180876199Y-106935930D03*
%TO.P,MCU1,5*%
%TO.N,P017*%
X180348103Y-109420425D03*
%TO.P,MCU1,6*%
%TO.N,P020*%
X179820007Y-111904919D03*
%TO.P,MCU1,7*%
%TO.N,P022*%
X179291910Y-114389414D03*
%TO.P,MCU1,8*%
%TO.N,P024*%
X178763816Y-116873909D03*
%TO.P,MCU1,9*%
%TO.N,P100*%
X178235720Y-119358404D03*
%TO.P,MCU1,10*%
%TO.N,P011*%
X177707624Y-121842899D03*
%TO.P,MCU1,11*%
%TO.N,P104*%
X177179529Y-124327394D03*
%TO.P,MCU1,12*%
%TO.N,P106*%
X176651433Y-126811889D03*
%TO.P,MCU1,13*%
%TO.N,P009*%
X191558402Y-129980463D03*
%TO.P,MCU1,14*%
%TO.N,P010*%
X192086498Y-127495968D03*
%TO.P,MCU1,15*%
%TO.N,P111*%
X192614594Y-125011473D03*
%TO.P,MCU1,16*%
%TO.N,P113*%
X193142689Y-122526978D03*
%TO.P,MCU1,17*%
%TO.N,P115*%
X193670785Y-120042483D03*
%TO.P,MCU1,18*%
%TO.N,P002*%
X194198881Y-117557989D03*
%TO.P,MCU1,19*%
%TO.N,P029*%
X194726978Y-115073494D03*
%TO.P,MCU1,20*%
%TO.N,P031*%
X195255072Y-112588999D03*
%TO.P,MCU1,21*%
%TO.N,VCC*%
X195783168Y-110104504D03*
%TO.P,MCU1,22*%
%TO.N,RST*%
X196311264Y-107620009D03*
%TO.P,MCU1,23*%
%TO.N,GND*%
X196839359Y-105135514D03*
%TO.P,MCU1,24*%
%TO.N,RAW*%
X197367455Y-102651019D03*
%TO.P,MCU1,31*%
%TO.N,P101*%
X180192119Y-122370995D03*
%TO.P,MCU1,32*%
%TO.N,P102*%
X182676614Y-122899090D03*
%TO.P,MCU1,33*%
%TO.N,P107*%
X185161109Y-123427186D03*
%TD*%
D55*
%TO.P,D30,1*%
%TO.N,RP031*%
X292791135Y-137922555D03*
D56*
X294924542Y-137584657D03*
%TO.P,D30,2*%
%TO.N,mirror_index_bottom*%
X298183914Y-137068423D03*
D12*
X300317321Y-136730525D03*
%TD*%
D43*
%TO.P,S26,1*%
%TO.N,RP024*%
X331726857Y-90422272D03*
%TO.P,S26,2*%
%TO.N,mirror_ring_top*%
X343236702Y-92823512D03*
%TD*%
D32*
%TO.P,D4,1*%
%TO.N,P031*%
X101027738Y-135489076D03*
D33*
X103187409Y-135451378D03*
%TO.P,D4,2*%
%TO.N,ring_bottom*%
X106486907Y-135393786D03*
D12*
X108646578Y-135356088D03*
%TD*%
D17*
%TO.P,D15,1*%
%TO.N,P002*%
X163331730Y-106139328D03*
D18*
X165458917Y-106514409D03*
%TO.P,D15,2*%
%TO.N,indexfar_top*%
X168708783Y-107087447D03*
D12*
X170835970Y-107462528D03*
%TD*%
D37*
%TO.P,S16,1*%
%TO.N,P022*%
X149489396Y-147412667D03*
%TO.P,S16,2*%
%TO.N,in_thumb*%
X160481900Y-151584881D03*
%TD*%
D46*
%TO.P,D27,1*%
%TO.N,RP031*%
X310925054Y-131328497D03*
D47*
X313079792Y-131177823D03*
%TO.P,D27,2*%
%TO.N,mirror_middle_bottom*%
X316371754Y-130947627D03*
D12*
X318526492Y-130796953D03*
%TD*%
D48*
%TO.P,S18,1*%
%TO.N,P100*%
X192648631Y-169437120D03*
%TO.P,S18,2*%
%TO.N,out_thumb*%
X197842596Y-179985354D03*
%TD*%
D20*
%TO.P,S7,1*%
%TO.N,P100*%
X121825069Y-119910946D03*
%TO.P,S7,2*%
%TO.N,middle_bottom*%
X133193469Y-122911275D03*
%TD*%
D46*
%TO.P,D28,1*%
%TO.N,RP029*%
X309739194Y-114369908D03*
D47*
X311893932Y-114219234D03*
%TO.P,D28,2*%
%TO.N,mirror_middle_home*%
X315185894Y-113989038D03*
D12*
X317340632Y-113838364D03*
%TD*%
D19*
%TO.P,S22,1*%
%TO.N,RP022*%
X352111967Y-123888115D03*
%TO.P,S22,2*%
%TO.N,mirror_pinky_home*%
X363243382Y-127674154D03*
%TD*%
D52*
%TO.P,D3,1*%
%TO.N,P002*%
X79084017Y-118883036D03*
D53*
X81222996Y-118582421D03*
%TO.P,D3,2*%
%TO.N,pinky_top*%
X84490880Y-118123149D03*
D12*
X86629859Y-117822534D03*
%TD*%
D44*
%TO.P,S10,1*%
%TO.N,P011*%
X140978081Y-125999030D03*
%TO.P,S10,2*%
%TO.N,index_bottom*%
X152041725Y-129978762D03*
%TD*%
D27*
%TO.P,D22,1*%
%TO.N,RP029*%
X350058229Y-134657091D03*
D28*
X352197208Y-134957706D03*
%TO.P,D22,2*%
%TO.N,mirror_pinky_home*%
X355465092Y-135416978D03*
D12*
X357604071Y-135717593D03*
%TD*%
D16*
%TO.P,S32,1*%
%TO.N,RP011*%
X286287820Y-93442272D03*
%TO.P,S32,2*%
%TO.N,mirror_index_top*%
X298039776Y-93808370D03*
%TD*%
D55*
%TO.P,D31,1*%
%TO.N,RP029*%
X290131749Y-121131853D03*
D56*
X292265156Y-120793955D03*
%TO.P,D31,2*%
%TO.N,mirror_index_home*%
X295524528Y-120277721D03*
D12*
X297657935Y-119939823D03*
%TD*%
D14*
%TO.P,D11,1*%
%TO.N,P029*%
X141396095Y-119939823D03*
D15*
X143529502Y-120277721D03*
%TO.P,D11,2*%
%TO.N,index_home*%
X146788874Y-120793955D03*
D12*
X148922281Y-121131853D03*
%TD*%
D31*
%TO.P,S4,1*%
%TO.N,P024*%
X101371553Y-124531407D03*
%TO.P,S4,2*%
%TO.N,ring_bottom*%
X112958189Y-126529496D03*
%TD*%
D51*
%TO.P,S3,1*%
%TO.N,P022*%
X78089864Y-107965142D03*
%TO.P,S3,2*%
%TO.N,pinky_top*%
X89833641Y-108536282D03*
%TD*%
D31*
%TO.P,S6,1*%
%TO.N,P024*%
X100778171Y-90536585D03*
%TO.P,S6,2*%
%TO.N,ring_top*%
X112364807Y-92534674D03*
%TD*%
D51*
%TO.P,S2,1*%
%TO.N,P022*%
X80455807Y-124799699D03*
%TO.P,S2,2*%
%TO.N,pinky_home*%
X92199584Y-125370839D03*
%TD*%
D55*
%TO.P,D32,1*%
%TO.N,RP002*%
X287472363Y-104341152D03*
D56*
X289605770Y-104003254D03*
%TO.P,D32,2*%
%TO.N,mirror_index_top*%
X292865142Y-103487020D03*
D12*
X294998549Y-103149122D03*
%TD*%
D52*
%TO.P,D2,1*%
%TO.N,P029*%
X81449960Y-135717593D03*
D53*
X83588939Y-135416978D03*
%TO.P,D2,2*%
%TO.N,pinky_home*%
X86856823Y-134957706D03*
D12*
X88995802Y-134657091D03*
%TD*%
D14*
%TO.P,D10,1*%
%TO.N,P031*%
X138736709Y-136730525D03*
D15*
X140870116Y-137068423D03*
%TO.P,D10,2*%
%TO.N,index_bottom*%
X144129488Y-137584657D03*
D12*
X146262895Y-137922555D03*
%TD*%
D44*
%TO.P,S12,1*%
%TO.N,P011*%
X146296852Y-92417627D03*
%TO.P,S12,2*%
%TO.N,index_top*%
X157360496Y-96397359D03*
%TD*%
D16*
%TO.P,S30,1*%
%TO.N,RP011*%
X291606592Y-127023675D03*
%TO.P,S30,2*%
%TO.N,mirror_index_bottom*%
X303358548Y-127389773D03*
%TD*%
D37*
%TO.P,S14,1*%
%TO.N,P104*%
X162808033Y-112190317D03*
%TO.P,S14,2*%
%TO.N,indexfar_home*%
X173800537Y-116362531D03*
%TD*%
D54*
%TO.P,S40,1*%
%TO.N,RP104*%
X231040306Y-160379844D03*
%TO.P,S40,2*%
%TO.N,mirror_out_default*%
X239748267Y-152479597D03*
%TD*%
D21*
%TO.P,D33,1*%
%TO.N,RP031*%
X274122098Y-140945992D03*
D22*
X276249285Y-140570911D03*
%TO.P,D33,2*%
%TO.N,mirror_indexfar_bottom*%
X279499151Y-139997873D03*
D12*
X281626338Y-139622792D03*
%TD*%
D35*
%TO.P,S29,1*%
%TO.N,RP100*%
X308323197Y-86450673D03*
%TO.P,S29,2*%
%TO.N,mirror_middle_top*%
X319998526Y-87839627D03*
%TD*%
D57*
%TO.P,JST2,1*%
%TO.N,RGND*%
X300892997Y-143625356D03*
D58*
%TO.P,JST2,2*%
%TO.N,RRAW*%
X298917621Y-143938224D03*
%TD*%
D59*
%TO.P,JST1,1*%
%TO.N,GND*%
X140136409Y-143938224D03*
D60*
%TO.P,JST1,2*%
%TO.N,RAW*%
X138161033Y-143625356D03*
%TD*%
D61*
%TO.N,indexfar_bottom*%
X161660000Y-141260000D03*
%TO.N,P031*%
X189179340Y-136019340D03*
X192260000Y-115590000D03*
%TO.N,P029*%
X191280000Y-133840000D03*
X189590000Y-134910000D03*
%TO.N,RP115*%
X265590000Y-135100000D03*
X263310000Y-145290000D03*
X267380000Y-132500000D03*
X263851668Y-143213224D03*
%TO.N,RAW*%
X172820000Y-96320000D03*
X167520000Y-107930000D03*
X153470000Y-138810000D03*
X167370000Y-128130000D03*
X165856673Y-129383327D03*
X153220000Y-140480000D03*
%TO.N,GND*%
X184603914Y-108730000D03*
X180900000Y-138640000D03*
X188776428Y-125926428D03*
X186480000Y-135670000D03*
X183153914Y-108250000D03*
X187950000Y-123910000D03*
X186210000Y-133610000D03*
X179640000Y-140350000D03*
%TO.N,RST*%
X193340000Y-101840000D03*
X192490000Y-105710000D03*
%TO.N,P006*%
X183890000Y-121400000D03*
X187704081Y-128024081D03*
%TO.N,RGND*%
X249300000Y-107990000D03*
X256150000Y-104210000D03*
X250640000Y-106980000D03*
%TD*%
D62*
%TO.N,P022*%
X78089864Y-117655458D02*
X77753944Y-117991378D01*
X82821750Y-141634256D02*
X85286006Y-139170000D01*
X134730665Y-83829251D02*
X106847695Y-83829251D01*
X141829414Y-90928000D02*
X134730665Y-83829251D01*
X150869026Y-89700949D02*
X148194036Y-89700949D01*
X111880000Y-139680000D02*
X115210000Y-136350000D01*
X78089864Y-107965142D02*
X78089864Y-117655458D01*
X148226729Y-146150000D02*
X149489396Y-147412667D01*
X176571427Y-96435807D02*
X171063620Y-90928000D01*
X85286006Y-139170000D02*
X94565863Y-139170000D01*
X99129681Y-89920000D02*
X96135006Y-89920000D01*
X171063620Y-90928000D02*
X152096077Y-90928000D01*
X95075863Y-139680000D02*
X111880000Y-139680000D01*
X115210000Y-136350000D02*
X126240000Y-136350000D01*
X178415610Y-113513114D02*
X178415610Y-102892710D01*
X147886136Y-89702267D02*
X144707568Y-89702267D01*
X152096077Y-90928000D02*
X150869026Y-89700949D01*
X77753944Y-117991378D02*
X77753944Y-122097836D01*
X94565863Y-139170000D02*
X95075863Y-139680000D01*
X101788851Y-88888095D02*
X99366023Y-88888095D01*
X77753944Y-122097836D02*
X80455807Y-124799699D01*
X148194036Y-89700949D02*
X148039427Y-89855558D01*
X148039427Y-89855558D02*
X147886136Y-89702267D01*
X99129681Y-89124437D02*
X99129681Y-89920000D01*
X136040000Y-146150000D02*
X148226729Y-146150000D01*
X179937549Y-97870829D02*
X178502527Y-96435807D01*
X106847695Y-83829251D02*
X101788851Y-88888095D01*
X80119887Y-134825935D02*
X80119887Y-138932393D01*
X178502527Y-96435807D02*
X176571427Y-96435807D01*
X144707568Y-89702267D02*
X143581492Y-90828343D01*
X178415610Y-102892710D02*
X179937549Y-101370771D01*
X126240000Y-136350000D02*
X136040000Y-146150000D01*
X80119887Y-138932393D02*
X82821750Y-141634256D01*
X99366023Y-88888095D02*
X99129681Y-89124437D01*
X80455807Y-124799699D02*
X80455807Y-134490015D01*
X143581492Y-90828343D02*
X143581492Y-90928000D01*
X80455807Y-134490015D02*
X80119887Y-134825935D01*
X179291910Y-114389414D02*
X178415610Y-113513114D01*
X96135006Y-89920000D02*
X78089864Y-107965142D01*
X143581492Y-90928000D02*
X141829414Y-90928000D01*
X179937549Y-101370771D02*
X179937549Y-97870829D01*
%TO.N,pinky_bottom*%
X94565527Y-142205396D02*
X94565527Y-148287866D01*
X89222765Y-151792263D02*
X91061129Y-151792263D01*
X91061129Y-151792263D02*
X91361744Y-151491648D01*
X94565527Y-148287866D02*
X91361744Y-151491649D01*
%TO.N,pinky_home*%
X88695187Y-134957706D02*
X88995802Y-134657091D01*
X92199584Y-131453310D02*
X88995802Y-134657092D01*
X92199584Y-125370839D02*
X92199584Y-131453310D01*
X86856823Y-134957706D02*
X88695187Y-134957706D01*
%TO.N,pinky_top*%
X89833641Y-108536282D02*
X89833641Y-114618753D01*
X89833641Y-114618753D02*
X86629859Y-117822535D01*
X86329244Y-118123149D02*
X86629859Y-117822534D01*
X84490880Y-118123149D02*
X86329244Y-118123149D01*
%TO.N,P024*%
X170876810Y-91379000D02*
X151909267Y-91379000D01*
X99203976Y-100485871D02*
X99203976Y-105663110D01*
X114606679Y-135899000D02*
X126426810Y-135899000D01*
X107034505Y-84280251D02*
X100778171Y-90536585D01*
X106253558Y-127363718D02*
X108906623Y-124710653D01*
X177887516Y-102782994D02*
X179486549Y-101183961D01*
X178763816Y-116873909D02*
X177887516Y-115997609D01*
X99500667Y-117483282D02*
X99500667Y-122660521D01*
X150682216Y-90151949D02*
X148380846Y-90151949D01*
X136108484Y-145580674D02*
X158860674Y-145580674D01*
X100778171Y-90536585D02*
X100778171Y-98911676D01*
X114606679Y-125117348D02*
X114606679Y-135899000D01*
X147699326Y-90153267D02*
X144894378Y-90153267D01*
X101074862Y-107533996D02*
X101074862Y-115909087D01*
X144032492Y-91015153D02*
X144032492Y-91379000D01*
X99203976Y-105663110D02*
X101074862Y-107533996D01*
X148039427Y-90493368D02*
X147699326Y-90153267D01*
X126426810Y-135899000D02*
X136108484Y-145580674D01*
X101371553Y-124531407D02*
X104203864Y-127363718D01*
X101074862Y-115909087D02*
X99500667Y-117483282D01*
X144032492Y-91379000D02*
X141642604Y-91379000D01*
X104203864Y-127363718D02*
X106253558Y-127363718D01*
X114199984Y-124710653D02*
X114606679Y-125117348D01*
X179486549Y-101183961D02*
X179486549Y-98057639D01*
X178315717Y-96886807D02*
X176384617Y-96886807D01*
X134543855Y-84280251D02*
X107034505Y-84280251D01*
X141642604Y-91379000D02*
X134543855Y-84280251D01*
X99500667Y-122660521D02*
X101371553Y-124531407D01*
X158860674Y-145580674D02*
X167361986Y-154081986D01*
X176384617Y-96886807D02*
X170876810Y-91379000D01*
X167361986Y-154081986D02*
X172995651Y-154081986D01*
X179486549Y-98057639D02*
X178315717Y-96886807D01*
X100778171Y-98911676D02*
X99203976Y-100485871D01*
X148380846Y-90151949D02*
X148039427Y-90493368D01*
X108906623Y-124710653D02*
X114199984Y-124710653D01*
X144894378Y-90153267D02*
X144032492Y-91015153D01*
X151909267Y-91379000D02*
X150682216Y-90151949D01*
X177887516Y-115997609D02*
X177887516Y-102782994D01*
%TO.N,ring_bottom*%
X112958189Y-126529496D02*
X112958189Y-131044477D01*
X112958189Y-131044477D02*
X108646578Y-135356088D01*
X106486907Y-135393786D02*
X108608880Y-135393786D01*
X108608880Y-135393786D02*
X108646578Y-135356088D01*
%TO.N,ring_home*%
X108312189Y-118396376D02*
X108349887Y-118358678D01*
X106190216Y-118396376D02*
X108312189Y-118396376D01*
X112661498Y-114047067D02*
X108349887Y-118358678D01*
X112661498Y-109532085D02*
X112661498Y-114047067D01*
%TO.N,ring_top*%
X108053196Y-101361267D02*
X105931223Y-101361267D01*
X112364807Y-92534674D02*
X112364807Y-97049656D01*
X112364807Y-97049656D02*
X108053196Y-101361267D01*
X105931223Y-101361267D02*
X105893525Y-101398965D01*
%TO.N,P100*%
X178235720Y-119358404D02*
X177359420Y-118482104D01*
X145081188Y-90604267D02*
X144483492Y-91201963D01*
X177359420Y-102673280D02*
X179035549Y-100997151D01*
X144483492Y-91830000D02*
X141455794Y-91830000D01*
X121380000Y-96164331D02*
X121380000Y-101321428D01*
X136655794Y-87030000D02*
X133215588Y-87030000D01*
X133325620Y-142160000D02*
X140630000Y-142160000D01*
X151722457Y-91830000D02*
X150495406Y-90602949D01*
X159047484Y-145129674D02*
X165677810Y-151760000D01*
X140630000Y-142160000D02*
X143599674Y-145129674D01*
X133075232Y-86889644D02*
X131521102Y-86889644D01*
X131380746Y-87030000D02*
X129309097Y-87030000D01*
X121380000Y-101321428D02*
X123010929Y-102952357D01*
X128240876Y-88098221D02*
X126686746Y-88098221D01*
X176197807Y-97337807D02*
X170690000Y-91830000D01*
X129309097Y-87030000D02*
X128240876Y-88098221D01*
X115150000Y-135448000D02*
X126613620Y-135448000D01*
X126613620Y-135448000D02*
X133325620Y-142160000D01*
X124196789Y-93347542D02*
X121380000Y-96164331D01*
X123010929Y-110306130D02*
X120438551Y-112878508D01*
X123010929Y-102952357D02*
X123010929Y-110306130D01*
X121825069Y-119910946D02*
X115150000Y-126586015D01*
X148039427Y-91131178D02*
X147512516Y-90604267D01*
X125233021Y-87030000D02*
X124196789Y-85993768D01*
X179035549Y-98244449D02*
X178128907Y-97337807D01*
X133215588Y-87030000D02*
X133075232Y-86889644D01*
X177359420Y-118482104D02*
X177359420Y-102673280D01*
X120438551Y-112878508D02*
X120438551Y-118524428D01*
X144483492Y-91201963D02*
X144483492Y-91830000D01*
X115150000Y-126586015D02*
X115150000Y-135448000D01*
X174971511Y-151760000D02*
X192648631Y-169437120D01*
X178128907Y-97337807D02*
X176197807Y-97337807D01*
X150495406Y-90602949D02*
X148567656Y-90602949D01*
X148567656Y-90602949D02*
X148039427Y-91131178D01*
X120438551Y-118524428D02*
X121825069Y-119910946D01*
X170690000Y-91830000D02*
X151722457Y-91830000D01*
X131521102Y-86889644D02*
X131380746Y-87030000D01*
X179035549Y-100997151D02*
X179035549Y-98244449D01*
X165677810Y-151760000D02*
X174971511Y-151760000D01*
X126686746Y-88098221D02*
X125618525Y-87030000D01*
X124196789Y-85993768D02*
X124196789Y-93347542D01*
X147512516Y-90604267D02*
X145081188Y-90604267D01*
X143599674Y-145129674D02*
X159047484Y-145129674D01*
X125618525Y-87030000D02*
X125233021Y-87030000D01*
X141455794Y-91830000D02*
X136655794Y-87030000D01*
%TO.N,middle_bottom*%
X125974239Y-131177823D02*
X127978303Y-131177823D01*
X133193469Y-122911275D02*
X133193469Y-126264005D01*
X127978303Y-131177823D02*
X128128977Y-131328497D01*
X133193469Y-126264005D02*
X128128977Y-131328497D01*
%TO.N,middle_home*%
X134379329Y-105952686D02*
X134379329Y-109305416D01*
X134379329Y-109305416D02*
X129314837Y-114369908D01*
X127160099Y-114219234D02*
X129164163Y-114219234D01*
X129164163Y-114219234D02*
X129314837Y-114369908D01*
%TO.N,middle_top*%
X135565189Y-92346828D02*
X130500697Y-97411320D01*
X135565189Y-88994097D02*
X135565189Y-92346828D01*
X128345959Y-97260646D02*
X130350023Y-97260646D01*
X130350023Y-97260646D02*
X130500697Y-97411320D01*
%TO.N,P011*%
X147655531Y-92152884D02*
X147655531Y-92740000D01*
X151535647Y-92281000D02*
X151464647Y-92210000D01*
X146296852Y-96553012D02*
X142712356Y-100137508D01*
X159234294Y-144678674D02*
X165864620Y-151309000D01*
X151407531Y-92210000D02*
X151407531Y-92152884D01*
X140816810Y-141709000D02*
X143786484Y-144678674D01*
X143637467Y-109208329D02*
X143637467Y-113343714D01*
X133512430Y-141709000D02*
X140816810Y-141709000D01*
X175890000Y-120025275D02*
X175890000Y-103420000D01*
X142712356Y-108283218D02*
X143637467Y-109208329D01*
X175890000Y-103420000D02*
X177857207Y-101452793D01*
X171040000Y-151309000D02*
X171040000Y-150950601D01*
X140978081Y-125999030D02*
X132680000Y-134297111D01*
X176010997Y-97788807D02*
X170503190Y-92281000D01*
X151464647Y-92210000D02*
X151407531Y-92210000D01*
X170503190Y-92281000D02*
X151535647Y-92281000D01*
X177857207Y-101452793D02*
X177942097Y-101452793D01*
X132680000Y-140876570D02*
X133512430Y-141709000D01*
X140052970Y-116928211D02*
X140052970Y-125073919D01*
X177942097Y-97788807D02*
X176010997Y-97788807D01*
X171040000Y-150950601D02*
X181997072Y-139993529D01*
X148754466Y-91053949D02*
X147655531Y-92152884D01*
X150308596Y-91053949D02*
X148754466Y-91053949D01*
X146296852Y-92417627D02*
X146296852Y-96553012D01*
X146619225Y-92740000D02*
X146296852Y-92417627D01*
X181997072Y-139993529D02*
X184593727Y-139993529D01*
X151407531Y-92152884D02*
X150308596Y-91053949D01*
X147655531Y-92740000D02*
X146619225Y-92740000D01*
X143786484Y-144678674D02*
X159234294Y-144678674D01*
X142712356Y-100137508D02*
X142712356Y-108283218D01*
X178584549Y-100810341D02*
X178584549Y-98431259D01*
X143637467Y-113343714D02*
X140052970Y-116928211D01*
X177707624Y-121842899D02*
X175890000Y-120025275D01*
X165864620Y-151309000D02*
X171040000Y-151309000D01*
X178584549Y-98431259D02*
X177942097Y-97788807D01*
X132680000Y-134297111D02*
X132680000Y-140876570D01*
X140052970Y-125073919D02*
X140978081Y-125999030D01*
X177942097Y-101452793D02*
X178584549Y-100810341D01*
%TO.N,index_bottom*%
X145924997Y-137584657D02*
X146262895Y-137922555D01*
X152041725Y-129978762D02*
X152041725Y-132143725D01*
X152041725Y-132143725D02*
X146262895Y-137922555D01*
X144129488Y-137584657D02*
X145924997Y-137584657D01*
%TO.N,index_home*%
X154701111Y-115353023D02*
X148922281Y-121131853D01*
X148584383Y-120793955D02*
X148922281Y-121131853D01*
X146788874Y-120793955D02*
X148584383Y-120793955D01*
X154701111Y-113188061D02*
X154701111Y-115353023D01*
%TO.N,index_top*%
X149448260Y-104003254D02*
X151243769Y-104003254D01*
X157360496Y-98562323D02*
X151581667Y-104341152D01*
X157360496Y-96397359D02*
X157360496Y-98562323D01*
X151243769Y-104003254D02*
X151581667Y-104341152D01*
%TO.N,P104*%
X165760052Y-95448586D02*
X165760052Y-101498986D01*
X170589000Y-150831000D02*
X170589000Y-150763791D01*
X182169783Y-133246727D02*
X204071837Y-155148781D01*
X170589000Y-150763791D02*
X181810262Y-139542529D01*
X159856014Y-128932049D02*
X159856014Y-136124727D01*
X181810262Y-139542529D02*
X181877471Y-139542529D01*
X162808033Y-118240718D02*
X159023846Y-122024905D01*
X182169783Y-129317648D02*
X182169783Y-133246727D01*
X162808033Y-112190317D02*
X162808033Y-118240718D01*
X163678097Y-139923133D02*
X163678097Y-140391752D01*
X163678097Y-140391752D02*
X163653430Y-140416419D01*
X159023846Y-128099881D02*
X159856014Y-128932049D01*
X163330849Y-139575885D02*
X163678097Y-139923133D01*
X181877471Y-139542529D02*
X183528304Y-137891696D01*
X165760052Y-101498986D02*
X161975865Y-105283173D01*
X177179529Y-124327394D02*
X182169783Y-129317648D01*
X170562000Y-150858000D02*
X170589000Y-150831000D01*
X161975865Y-111358149D02*
X162808033Y-112190317D01*
X186814752Y-137891696D02*
X204071837Y-155148781D01*
X163653430Y-140416419D02*
X163653430Y-148051430D01*
X159856014Y-136124727D02*
X163307172Y-139575885D01*
X161975865Y-105283173D02*
X161975865Y-111358149D01*
X159023846Y-122024905D02*
X159023846Y-128099881D01*
X183528304Y-137891696D02*
X186814752Y-137891696D01*
X166460000Y-150858000D02*
X170562000Y-150858000D01*
X163653430Y-148051430D02*
X166460000Y-150858000D01*
X163307172Y-139575885D02*
X163330849Y-139575885D01*
%TO.N,indexfar_bottom*%
X162349089Y-140570911D02*
X161660000Y-141260000D01*
X170848518Y-135029404D02*
X164931930Y-140945992D01*
X163008086Y-140367570D02*
X163202430Y-140367570D01*
X163202430Y-140367570D02*
X163202430Y-140945992D01*
X162804745Y-140570911D02*
X162349089Y-140570911D01*
X162804745Y-140570911D02*
X163008086Y-140367570D01*
X170848518Y-133104263D02*
X170848518Y-135029404D01*
%TO.N,indexfar_home*%
X165756764Y-123829179D02*
X167508869Y-123829179D01*
X173800537Y-118287672D02*
X167883949Y-124204260D01*
X167508869Y-123829179D02*
X167883950Y-124204260D01*
X173800537Y-116362531D02*
X173800537Y-118287672D01*
%TO.N,indexfar_top*%
X168708783Y-107087447D02*
X170460888Y-107087447D01*
X176752556Y-99620800D02*
X176752556Y-101545940D01*
X170460888Y-107087447D02*
X170835969Y-107462528D01*
X176752556Y-101545940D02*
X170835968Y-107462528D01*
%TO.N,in_thumb*%
X160481900Y-151584881D02*
X160481900Y-153510022D01*
X154190232Y-159051529D02*
X154565313Y-159426610D01*
X152438127Y-159051529D02*
X154190232Y-159051529D01*
X160481900Y-153510022D02*
X154565312Y-159426610D01*
%TO.N,home_thumb*%
X171785826Y-166027464D02*
X172576441Y-166027464D01*
X181898244Y-161762242D02*
X176553022Y-167107464D01*
X176553022Y-167107464D02*
X173656441Y-167107464D01*
X172576441Y-166027464D02*
X173656441Y-167107464D01*
%TO.N,out_thumb*%
X186867511Y-180385407D02*
X188167431Y-181685327D01*
X196142623Y-181685327D02*
X188167431Y-181685327D01*
X186867511Y-179960275D02*
X186867511Y-180385407D01*
X197842596Y-179985354D02*
X196142623Y-181685327D01*
%TO.N,in_default*%
X193496320Y-147673785D02*
X188151098Y-153019007D01*
X184174517Y-151939007D02*
X185254517Y-153019007D01*
X183383902Y-151939007D02*
X184174517Y-151939007D01*
X188151098Y-153019007D02*
X185254517Y-153019007D01*
%TO.N,out_default*%
X198290717Y-166097068D02*
X199590637Y-167396988D01*
X209265802Y-165697015D02*
X207565829Y-167396988D01*
X198290717Y-165671936D02*
X198290717Y-166097068D01*
X207565829Y-167396988D02*
X199590637Y-167396988D01*
%TO.N,RP022*%
X314250000Y-138010000D02*
X306154635Y-146105365D01*
X306158680Y-84922678D02*
X306795202Y-84286156D01*
X309851192Y-84286156D02*
X310043301Y-84478264D01*
X354477910Y-101004082D02*
X354477910Y-107053558D01*
X306795202Y-84286156D02*
X309851192Y-84286156D01*
X349513353Y-140490000D02*
X326560000Y-140490000D01*
X293294763Y-85229000D02*
X306158680Y-85229000D01*
X284698536Y-90726912D02*
X287796851Y-90726912D01*
X348728156Y-133765435D02*
X348728156Y-139704803D01*
X283572460Y-91852988D02*
X284698536Y-90726912D01*
X254038245Y-98296135D02*
X260245108Y-92089272D01*
X327171395Y-85229000D02*
X327182395Y-85240000D01*
X310626344Y-83895221D02*
X312554094Y-83895221D01*
X354477910Y-107053558D02*
X354477910Y-113547066D01*
X254038245Y-115471755D02*
X254038245Y-98296135D01*
X260245108Y-92089272D02*
X283572460Y-92089272D01*
X348728156Y-139704803D02*
X349746025Y-140722672D01*
X312554094Y-83895221D02*
X313887873Y-85229000D01*
X251952011Y-117557989D02*
X254038245Y-115471755D01*
X351094098Y-116930878D02*
X351094098Y-122870246D01*
X283572460Y-92089272D02*
X283572460Y-91852988D01*
X354477910Y-113547066D02*
X351094098Y-116930878D01*
X352111967Y-130381624D02*
X348728156Y-133765435D01*
X324080000Y-138010000D02*
X314250000Y-138010000D01*
X285558841Y-146105365D02*
X283114143Y-148550063D01*
X338713828Y-85240000D02*
X354477910Y-101004082D01*
X349746025Y-140722672D02*
X349513353Y-140490000D01*
X306158680Y-85229000D02*
X306158680Y-84922678D01*
X306154635Y-146105365D02*
X285558841Y-146105365D01*
X287796851Y-90726912D02*
X293294763Y-85229000D01*
X351094098Y-122870246D02*
X352111967Y-123888115D01*
X352111967Y-123888115D02*
X352111967Y-130381624D01*
X327182395Y-85240000D02*
X338713828Y-85240000D01*
X326560000Y-140490000D02*
X324080000Y-138010000D01*
X310043301Y-84478264D02*
X310626344Y-83895221D01*
X313887873Y-85229000D02*
X327171395Y-85229000D01*
X244855150Y-117557989D02*
X251952011Y-117557989D01*
%TO.N,mirror_pinky_bottom*%
X360877440Y-146912837D02*
X355238128Y-152552149D01*
X360877440Y-144508711D02*
X360877440Y-146912837D01*
X353099149Y-152251535D02*
X354937513Y-152251535D01*
X354937513Y-152251535D02*
X355238128Y-152552150D01*
%TO.N,mirror_pinky_home*%
X357604071Y-135717593D02*
X355765707Y-135717593D01*
X355765707Y-135717593D02*
X355465092Y-135416978D01*
X363243382Y-130078281D02*
X357604071Y-135717592D01*
X363243382Y-127674154D02*
X363243382Y-130078281D01*
%TO.N,mirror_pinky_top*%
X365609325Y-110839597D02*
X365609325Y-113243723D01*
X365609325Y-113243723D02*
X359970013Y-118883035D01*
X359669398Y-118582421D02*
X359970013Y-118883036D01*
X357831034Y-118582421D02*
X359669398Y-118582421D01*
%TO.N,RP024*%
X327205096Y-124417094D02*
X305967825Y-145654365D01*
X309664382Y-84737156D02*
X310036714Y-85109488D01*
X331430166Y-113369834D02*
X329473763Y-115326237D01*
X306609680Y-85680000D02*
X306609680Y-85109488D01*
X245383246Y-120042483D02*
X250132807Y-120042483D01*
X329473763Y-122757381D02*
X331133476Y-124417094D01*
X310036714Y-85122661D02*
X310813154Y-84346221D01*
X310036714Y-85109488D02*
X310036714Y-85122661D01*
X254489245Y-115686045D02*
X254489245Y-98482945D01*
X326984585Y-85680000D02*
X331726857Y-90422272D01*
X312367284Y-84346221D02*
X313466219Y-85445156D01*
X306609680Y-85109488D02*
X306982012Y-84737156D01*
X329770454Y-100352883D02*
X329770454Y-105759971D01*
X310813154Y-84346221D02*
X312367284Y-84346221D01*
X331726857Y-98396480D02*
X329770454Y-100352883D01*
X260385913Y-155902654D02*
X260385913Y-157356986D01*
X313466219Y-85445156D02*
X313466219Y-85680000D01*
X287836978Y-91324595D02*
X293481573Y-85680000D01*
X329473763Y-115326237D02*
X329473763Y-122757381D01*
X284023460Y-92039798D02*
X284885346Y-91177912D01*
X313466219Y-85680000D02*
X326984585Y-85680000D01*
X284885346Y-91177912D02*
X287690294Y-91177912D01*
X287690294Y-91177912D02*
X287836978Y-91324595D01*
X254489245Y-98482945D02*
X260431918Y-92540272D01*
X260431918Y-92540272D02*
X284023460Y-92540272D01*
X331430166Y-107419683D02*
X331430166Y-113369834D01*
X284023460Y-92540272D02*
X284023460Y-92039798D01*
X331133476Y-124417094D02*
X327205096Y-124417094D01*
X270634202Y-145654365D02*
X260385913Y-155902654D01*
X305967825Y-145654365D02*
X270634202Y-145654365D01*
X331726857Y-90422272D02*
X331726857Y-98396480D01*
X293481573Y-85680000D02*
X306609680Y-85680000D01*
X329770454Y-105759971D02*
X331430166Y-107419683D01*
X306982012Y-84737156D02*
X309664382Y-84737156D01*
X250132807Y-120042483D02*
X254489245Y-115686045D01*
%TO.N,mirror_ring_bottom*%
X335904319Y-135489076D02*
X335866621Y-135451378D01*
X338026292Y-135489076D02*
X335904319Y-135489076D01*
X342643321Y-126818334D02*
X342643321Y-130872047D01*
X342643321Y-130872047D02*
X338026292Y-135489076D01*
%TO.N,mirror_ring_home*%
X342940011Y-113874638D02*
X338322983Y-118491666D01*
X342940011Y-109820923D02*
X342940011Y-113874638D01*
X336201010Y-118491666D02*
X336163312Y-118453968D01*
X338322983Y-118491666D02*
X336201010Y-118491666D01*
%TO.N,mirror_ring_top*%
X336460003Y-101456557D02*
X338581976Y-101456557D01*
X338581976Y-101456557D02*
X338619674Y-101494255D01*
X343236702Y-96877227D02*
X338619674Y-101494255D01*
X343236702Y-92823512D02*
X343236702Y-96877227D01*
%TO.N,RP100*%
X284474460Y-92991272D02*
X284474460Y-92226608D01*
X309965198Y-132603345D02*
X310694917Y-132603345D01*
X307278485Y-93516670D02*
X307278485Y-101178690D01*
X307278485Y-101178690D02*
X309509057Y-103409262D01*
X258284080Y-156865920D02*
X244973348Y-170176652D01*
X310694917Y-140289463D02*
X305781015Y-145203365D01*
X308323197Y-86450673D02*
X308323197Y-92471958D01*
X309920000Y-130053649D02*
X309965198Y-130053649D01*
X310117288Y-125950367D02*
X310117288Y-126966765D01*
X309965198Y-130053649D02*
X309650206Y-130368641D01*
X293668383Y-86131000D02*
X306796490Y-86131000D01*
X258284080Y-156746119D02*
X258284080Y-156865920D01*
X308323197Y-92471958D02*
X307278485Y-93516670D01*
X260618728Y-92991272D02*
X284474460Y-92991272D01*
X248286122Y-122526978D02*
X254940245Y-115872855D01*
X309920000Y-127164053D02*
X309920000Y-130053649D01*
X307412524Y-85540000D02*
X308323197Y-86450673D01*
X309920000Y-121142768D02*
X309920000Y-125753079D01*
X309509057Y-109430547D02*
X308464346Y-110475258D01*
X310117288Y-126966765D02*
X309920000Y-127164053D01*
X259775046Y-155255153D02*
X258284080Y-156746119D01*
X242463511Y-172686489D02*
X242463511Y-174668183D01*
X259894847Y-155255153D02*
X259775046Y-155255153D01*
X242558455Y-172591545D02*
X242463511Y-172686489D01*
X309920000Y-125753079D02*
X310117288Y-125950367D01*
X244973348Y-170176652D02*
X243657390Y-170176652D01*
X243657390Y-170176652D02*
X242558455Y-171275587D01*
X254940245Y-115872855D02*
X254940245Y-98669755D01*
X309650206Y-130368641D02*
X309650206Y-132288353D01*
X309509057Y-103409262D02*
X309509057Y-109430547D01*
X310694917Y-120367851D02*
X309920000Y-121142768D01*
X307060680Y-85540000D02*
X307412524Y-85540000D01*
X245911342Y-122526978D02*
X248286122Y-122526978D01*
X269946635Y-145203365D02*
X259894847Y-155255153D01*
X310694917Y-132603345D02*
X310694917Y-140289463D01*
X309650206Y-132288353D02*
X309965198Y-132603345D01*
X308464346Y-110475258D02*
X308464346Y-118137280D01*
X254940245Y-98669755D02*
X260618728Y-92991272D01*
X287836978Y-91962405D02*
X293668383Y-86131000D01*
X307060680Y-85866810D02*
X307060680Y-85540000D01*
X285072156Y-91628912D02*
X287503484Y-91628912D01*
X305781015Y-145203365D02*
X269946635Y-145203365D01*
X284474460Y-92226608D02*
X285072156Y-91628912D01*
X242558455Y-171275587D02*
X242558455Y-172591545D01*
X308464346Y-118137280D02*
X310694917Y-120367851D01*
X287503484Y-91628912D02*
X287836978Y-91962405D01*
X306796490Y-86131000D02*
X307060680Y-85866810D01*
%TO.N,mirror_middle_bottom*%
X322370246Y-121756805D02*
X322370246Y-126953199D01*
X316371754Y-130947627D02*
X318375818Y-130947627D01*
X322370246Y-126953199D02*
X318526492Y-130796953D01*
X318375818Y-130947627D02*
X318526492Y-130796953D01*
%TO.N,mirror_middle_home*%
X315185894Y-113989038D02*
X317189958Y-113989038D01*
X321184386Y-109994610D02*
X317340632Y-113838364D01*
X317189958Y-113989038D02*
X317340632Y-113838364D01*
X321184386Y-104798216D02*
X321184386Y-109994610D01*
%TO.N,mirror_middle_top*%
X316004097Y-97030450D02*
X316154771Y-96879776D01*
X319998526Y-87839627D02*
X319998526Y-93036021D01*
X314000033Y-97030450D02*
X316004097Y-97030450D01*
X319998526Y-93036021D02*
X316154771Y-96879776D01*
%TO.N,RP011*%
X288788624Y-124205707D02*
X291606592Y-127023675D01*
X246439437Y-125011473D02*
X255391245Y-116059665D01*
X288947206Y-110232974D02*
X288947206Y-120099252D01*
X291606592Y-134723408D02*
X281750000Y-144580000D01*
X288788624Y-120257834D02*
X288788624Y-124205707D01*
X269497635Y-144752365D02*
X258840000Y-155410000D01*
X255391245Y-98946717D02*
X260895690Y-93442272D01*
X286287820Y-100135362D02*
X286129238Y-100293944D01*
X248609030Y-143447336D02*
X248787837Y-143268529D01*
X288947206Y-120099252D02*
X288788624Y-120257834D01*
X291606592Y-127023675D02*
X291606592Y-134723408D01*
X253976951Y-155410000D02*
X248609030Y-150042079D01*
X286129238Y-100293944D02*
X286129238Y-107415006D01*
X248609030Y-150042079D02*
X248609030Y-143447336D01*
X286287820Y-93442272D02*
X286287820Y-100135362D01*
X281750000Y-144580000D02*
X281750000Y-144752365D01*
X281750000Y-144752365D02*
X269497635Y-144752365D01*
X286129238Y-107415006D02*
X288947206Y-110232974D01*
X258840000Y-155410000D02*
X253976951Y-155410000D01*
X255391245Y-116059665D02*
X255391245Y-98946717D01*
X260895690Y-93442272D02*
X286287820Y-93442272D01*
%TO.N,mirror_index_bottom*%
X298183914Y-137068423D02*
X299979423Y-137068423D01*
X299979423Y-137068423D02*
X300317321Y-136730525D01*
X303358548Y-127389772D02*
X303358548Y-133689298D01*
X303358548Y-133689298D02*
X300317321Y-136730525D01*
%TO.N,mirror_index_home*%
X300699162Y-110599071D02*
X300699162Y-116898596D01*
X297320037Y-120277721D02*
X297657935Y-119939823D01*
X295524528Y-120277721D02*
X297320037Y-120277721D01*
X300699162Y-116898596D02*
X297657935Y-119939823D01*
%TO.N,mirror_index_top*%
X298039776Y-100107895D02*
X294998549Y-103149122D01*
X294660651Y-103487020D02*
X294998549Y-103149122D01*
X298039776Y-93808369D02*
X298039776Y-100107895D01*
X292865142Y-103487020D02*
X294660651Y-103487020D01*
%TO.N,RP104*%
X269795506Y-113327713D02*
X270290000Y-113822207D01*
X266843487Y-96585982D02*
X266979284Y-96721779D01*
X272747525Y-130069445D02*
X264890555Y-130069445D01*
X246967533Y-127495968D02*
X246091233Y-128372268D01*
X231040306Y-157082192D02*
X231040306Y-160379844D01*
X269814214Y-127136134D02*
X272747525Y-130069445D01*
X270290000Y-122872319D02*
X269814214Y-123348105D01*
X248367469Y-139755029D02*
X231040306Y-157082192D01*
X266979284Y-96721779D02*
X266979284Y-106489284D01*
X270290000Y-113822207D02*
X270290000Y-122872319D01*
X255204971Y-139755029D02*
X248367469Y-139755029D01*
X246091233Y-142031265D02*
X231040306Y-157082192D01*
X266979284Y-106489284D02*
X266862195Y-106606373D01*
X264890555Y-130069445D02*
X255204971Y-139755029D01*
X266862195Y-110394402D02*
X269795506Y-113327713D01*
X246091233Y-128372268D02*
X246091233Y-142031265D01*
X269814214Y-123348105D02*
X269814214Y-127136134D01*
X266862195Y-106606373D02*
X266862195Y-110394402D01*
%TO.N,mirror_indexfar_bottom*%
X284504080Y-130230385D02*
X284504080Y-136745048D01*
X281251256Y-139997873D02*
X281626337Y-139622792D01*
X279499151Y-139997873D02*
X281251256Y-139997873D01*
X284504080Y-136745048D02*
X281626336Y-139622792D01*
%TO.N,mirror_indexfar_home*%
X276547132Y-123256141D02*
X278299237Y-123256141D01*
X281552061Y-113488653D02*
X281552061Y-120003316D01*
X281552061Y-120003316D02*
X278674317Y-122881060D01*
X278299237Y-123256141D02*
X278674318Y-122881060D01*
%TO.N,mirror_indexfar_top*%
X278600042Y-103261584D02*
X275722298Y-106139328D01*
X278600042Y-96746922D02*
X278600042Y-103261584D01*
X275347218Y-106514409D02*
X275722299Y-106139328D01*
X273595113Y-106514409D02*
X275347218Y-106514409D01*
%TO.N,mirror_in_thumb*%
X294870698Y-148711003D02*
X294870698Y-155225666D01*
X291617874Y-158478491D02*
X291992955Y-158103410D01*
X289865769Y-158478491D02*
X291617874Y-158478491D01*
X294870698Y-155225666D02*
X291992954Y-158103410D01*
%TO.N,mirror_home_thumb*%
X270916703Y-164377464D02*
X271996703Y-163297464D01*
X272440172Y-162853995D02*
X271996703Y-163297464D01*
X270126088Y-164377464D02*
X270916703Y-164377464D01*
X271488506Y-153487242D02*
X272440172Y-154438908D01*
X272440172Y-154438908D02*
X272440172Y-162853995D01*
%TO.N,mirror_out_thumb*%
X254172509Y-176899645D02*
X255472429Y-175599725D01*
X254172509Y-177324777D02*
X254172509Y-176899645D01*
X255472429Y-171068893D02*
X255472429Y-175599725D01*
X251171472Y-166767936D02*
X255472429Y-171068893D01*
%TO.N,mirror_in_default*%
X259608012Y-149209007D02*
X258528012Y-150289007D01*
X260842096Y-148765538D02*
X260398627Y-149209007D01*
X260398627Y-149209007D02*
X259608012Y-149209007D01*
X260842096Y-140350451D02*
X260842096Y-148765538D01*
X259890430Y-139398785D02*
X260842096Y-140350451D01*
%TO.N,mirror_out_default*%
X242749303Y-163036438D02*
X242749303Y-162611306D01*
X242749303Y-162611306D02*
X244049223Y-161311386D01*
X244049223Y-156780553D02*
X244049223Y-161311386D01*
X239748267Y-152479597D02*
X244049223Y-156780553D01*
%TO.N,P031*%
X138736709Y-136730525D02*
X140532218Y-136730525D01*
X194873085Y-120540492D02*
X194873085Y-119544474D01*
X122531603Y-130796953D02*
X122682277Y-130947627D01*
X193780766Y-118840183D02*
X192260000Y-117319417D01*
X194471053Y-120942524D02*
X194873085Y-120540492D01*
X192260000Y-117319417D02*
X192260000Y-115590000D01*
X103149711Y-135489076D02*
X103187409Y-135451378D01*
X101027738Y-135489076D02*
X103149711Y-135489076D01*
X83815902Y-152552150D02*
X85654266Y-152552150D01*
X194873085Y-119544474D02*
X194168794Y-118840183D01*
X190204646Y-136019340D02*
X194471053Y-131752933D01*
X85654266Y-152552150D02*
X85954881Y-152251535D01*
X194471053Y-131752933D02*
X194471053Y-120942524D01*
X194168794Y-118840183D02*
X193780766Y-118840183D01*
X189179340Y-136019340D02*
X190204646Y-136019340D01*
X120527539Y-130796953D02*
X122531603Y-130796953D01*
X140532218Y-136730525D02*
X140870116Y-137068423D01*
X157427693Y-139622792D02*
X159179798Y-139622792D01*
X159179798Y-139622792D02*
X159554879Y-139997873D01*
%TO.N,P029*%
X189590000Y-134910000D02*
X190210000Y-134910000D01*
X102890718Y-118453968D02*
X100768745Y-118453968D01*
X143191604Y-119939823D02*
X143529502Y-120277721D01*
X81449960Y-135717593D02*
X83288324Y-135717593D01*
X121864073Y-113989038D02*
X121713399Y-113838364D01*
X162131817Y-122881060D02*
X162506898Y-123256141D01*
X123868137Y-113989038D02*
X121864073Y-113989038D01*
X83288324Y-135717593D02*
X83588939Y-135416978D01*
X190210000Y-134910000D02*
X191280000Y-133840000D01*
X100768745Y-118453968D02*
X100731047Y-118491666D01*
X160379712Y-122881060D02*
X162131817Y-122881060D01*
X141396095Y-119939823D02*
X143191604Y-119939823D01*
%TO.N,P002*%
X80922381Y-118883036D02*
X81222996Y-118582421D01*
X145850990Y-103149122D02*
X146188888Y-103487020D01*
X122899259Y-96879776D02*
X124903323Y-96879776D01*
X144055481Y-103149122D02*
X145850990Y-103149122D01*
X163331731Y-106139328D02*
X165083836Y-106139328D01*
X102594027Y-101456557D02*
X100472054Y-101456557D01*
X100472054Y-101456557D02*
X100434356Y-101494255D01*
X124903323Y-96879776D02*
X125053997Y-97030450D01*
X79084017Y-118883036D02*
X80922381Y-118883036D01*
X165083836Y-106139328D02*
X165458917Y-106514409D01*
%TO.N,P115*%
X149188261Y-158478491D02*
X147436156Y-158478491D01*
X178655403Y-149209007D02*
X179446018Y-149209007D01*
X168927942Y-164377464D02*
X168137327Y-164377464D01*
X147436156Y-158478491D02*
X147061075Y-158103410D01*
X196304727Y-163036438D02*
X196304727Y-162611306D01*
X168137327Y-164377464D02*
X167057327Y-163297464D01*
X184881521Y-177324777D02*
X184881521Y-176899645D01*
X196304727Y-162611306D02*
X195004807Y-161311386D01*
X184881521Y-176899645D02*
X183581601Y-175599725D01*
X179446018Y-149209007D02*
X180526018Y-150289007D01*
%TO.N,RP031*%
X349530650Y-151491648D02*
X349831265Y-151792263D01*
X274122099Y-140945992D02*
X275874204Y-140945992D01*
X347692286Y-151491648D02*
X349530650Y-151491648D01*
X310925054Y-131328497D02*
X312929118Y-131328497D01*
X292791135Y-137922555D02*
X294586644Y-137922555D01*
X312929118Y-131328497D02*
X313079792Y-131177823D01*
X275874204Y-140945992D02*
X276249285Y-140570911D01*
X332529425Y-135356088D02*
X332567123Y-135393786D01*
X330407452Y-135356088D02*
X332529425Y-135356088D01*
X294586644Y-137922555D02*
X294924542Y-137584657D01*
%TO.N,RP029*%
X330741841Y-118396376D02*
X330704143Y-118358678D01*
X309739194Y-114369908D02*
X311743258Y-114369908D01*
X350358844Y-134957706D02*
X350058229Y-134657091D01*
X311743258Y-114369908D02*
X311893932Y-114219234D01*
X352197208Y-134957706D02*
X350358844Y-134957706D01*
X291927258Y-121131853D02*
X292265156Y-120793955D01*
X271170080Y-124204260D02*
X272922185Y-124204260D01*
X272922185Y-124204260D02*
X273297266Y-123829179D01*
X332863814Y-118396376D02*
X330741841Y-118396376D01*
X290131749Y-121131853D02*
X291927258Y-121131853D01*
%TO.N,RP002*%
X289267872Y-104341152D02*
X289605770Y-104003254D01*
X333122807Y-101361267D02*
X333160505Y-101398965D01*
X354262535Y-117822534D02*
X354563150Y-118123149D01*
X308553333Y-97411320D02*
X310557397Y-97411320D01*
X270345247Y-107087447D02*
X268593142Y-107087447D01*
X331000834Y-101361267D02*
X333122807Y-101361267D01*
X287472363Y-104341152D02*
X289267872Y-104341152D01*
X268593142Y-107087447D02*
X268218061Y-107462528D01*
X352424171Y-117822534D02*
X354262535Y-117822534D01*
X310557397Y-97411320D02*
X310708071Y-97260646D01*
%TO.N,RP115*%
X263150000Y-145130000D02*
X263310000Y-145290000D01*
X263851668Y-144338332D02*
X263150000Y-145040000D01*
X239463393Y-167396988D02*
X239463393Y-166971856D01*
X265590000Y-134290000D02*
X265590000Y-135100000D01*
X255670128Y-151939007D02*
X254879513Y-151939007D01*
X266188204Y-167107464D02*
X267268204Y-166027464D01*
X263150000Y-145040000D02*
X263150000Y-145130000D01*
X254879513Y-151939007D02*
X253799513Y-153019007D01*
X252186519Y-179960275D02*
X252186519Y-180385407D01*
X267380000Y-132500000D02*
X265590000Y-134290000D01*
X284488717Y-159426610D02*
X286240822Y-159426610D01*
X239463393Y-166971856D02*
X240763313Y-165671936D01*
X252186519Y-180385407D02*
X250886599Y-181685327D01*
X263851668Y-143213224D02*
X263851668Y-144338332D01*
X286240822Y-159426610D02*
X286615903Y-159051529D01*
X265397589Y-167107464D02*
X266188204Y-167107464D01*
%TO.N,RAW*%
X172590000Y-96490000D02*
X172760000Y-96320000D01*
X170042591Y-104277409D02*
X170042591Y-99037409D01*
X166116673Y-129383327D02*
X167370000Y-128130000D01*
X153220000Y-139060000D02*
X153470000Y-138810000D01*
X170042591Y-99037409D02*
X172590000Y-96490000D01*
X153220000Y-140480000D02*
X153220000Y-139060000D01*
X172760000Y-96320000D02*
X172820000Y-96320000D01*
X165856673Y-129383327D02*
X166116673Y-129383327D01*
X167520000Y-106800000D02*
X170042591Y-104277409D01*
X167520000Y-107930000D02*
X167520000Y-106800000D01*
%TO.N,GND*%
X186480000Y-133880000D02*
X186210000Y-133610000D01*
X188776428Y-125926428D02*
X188776428Y-124736428D01*
X186480000Y-135670000D02*
X186480000Y-133880000D01*
X179640000Y-140350000D02*
X179640000Y-139900000D01*
X183633914Y-108730000D02*
X183153914Y-108250000D01*
X188776428Y-124736428D02*
X187950000Y-123910000D01*
X184603914Y-108730000D02*
X183633914Y-108730000D01*
X179640000Y-139900000D02*
X180900000Y-138640000D01*
X196839359Y-105135514D02*
X193244873Y-108730000D01*
X193244873Y-108730000D02*
X184603914Y-108730000D01*
%TO.N,RST*%
X193340000Y-101840000D02*
X193340000Y-104860000D01*
X193340000Y-104860000D02*
X192490000Y-105710000D01*
%TO.N,P006*%
X187704081Y-128024081D02*
X183890000Y-124210000D01*
X183890000Y-124210000D02*
X183890000Y-121400000D01*
%TO.N,RGND*%
X250310000Y-106980000D02*
X250640000Y-106980000D01*
X256150000Y-104210000D02*
X256150000Y-102938581D01*
X249300000Y-107990000D02*
X250310000Y-106980000D01*
X256150000Y-102938581D02*
X257121641Y-101966940D01*
%TD*%
M02*
