%TF.GenerationSoftware,KiCad,Pcbnew,9.0.2*%
%TF.CreationDate,2025-07-07T14:02:59-04:00*%
%TF.ProjectId,routed_banana_split,726f7574-6564-45f6-9261-6e616e615f73,0.0.1*%
%TF.SameCoordinates,Original*%
%TF.FileFunction,Legend,Bot*%
%TF.FilePolarity,Positive*%
%FSLAX46Y46*%
G04 Gerber Fmt 4.6, Leading zero omitted, Abs format (unit mm)*
G04 Created by KiCad (PCBNEW 9.0.2) date 2025-07-07 14:02:59*
%MOMM*%
%LPD*%
G01*
G04 APERTURE LIST*
%ADD10C,0.150000*%
%ADD11C,0.100000*%
%ADD12C,0.381000*%
%ADD13C,0.120000*%
%ADD14C,1.752600*%
G04 APERTURE END LIST*
D10*
X244415386Y-101623511D02*
X244340860Y-101639352D01*
X244340860Y-101639352D02*
X244274255Y-101692456D01*
X244274255Y-101692456D02*
X244244913Y-101737639D01*
X244244913Y-101737639D02*
X244223491Y-101820085D01*
X244223491Y-101820085D02*
X244217910Y-101977057D01*
X244217910Y-101977057D02*
X244257512Y-102163370D01*
X244257512Y-102163370D02*
X244326456Y-102304501D01*
X244326456Y-102304501D02*
X244379560Y-102371106D01*
X244379560Y-102371106D02*
X244424743Y-102400448D01*
X244424743Y-102400448D02*
X244507189Y-102421870D01*
X244507189Y-102421870D02*
X244581715Y-102406029D01*
X244581715Y-102406029D02*
X244648320Y-102352926D01*
X244648320Y-102352926D02*
X244677662Y-102307743D01*
X244677662Y-102307743D02*
X244699084Y-102225297D01*
X244699084Y-102225297D02*
X244704665Y-102068325D01*
X244704665Y-102068325D02*
X244665063Y-101882011D01*
X244665063Y-101882011D02*
X244596118Y-101740881D01*
X244596118Y-101740881D02*
X244543015Y-101674276D01*
X244543015Y-101674276D02*
X244497831Y-101644933D01*
X244497831Y-101644933D02*
X244415386Y-101623511D01*
X243670130Y-101781920D02*
X243595604Y-101797761D01*
X243595604Y-101797761D02*
X243528999Y-101850865D01*
X243528999Y-101850865D02*
X243499657Y-101896048D01*
X243499657Y-101896048D02*
X243478235Y-101978494D01*
X243478235Y-101978494D02*
X243472654Y-102135466D01*
X243472654Y-102135466D02*
X243512256Y-102321779D01*
X243512256Y-102321779D02*
X243581201Y-102462910D01*
X243581201Y-102462910D02*
X243634305Y-102529515D01*
X243634305Y-102529515D02*
X243679488Y-102558857D01*
X243679488Y-102558857D02*
X243761934Y-102580279D01*
X243761934Y-102580279D02*
X243836459Y-102564438D01*
X243836459Y-102564438D02*
X243903064Y-102511335D01*
X243903064Y-102511335D02*
X243932407Y-102466151D01*
X243932407Y-102466151D02*
X243953829Y-102383706D01*
X243953829Y-102383706D02*
X243959410Y-102226734D01*
X243959410Y-102226734D02*
X243919807Y-102040420D01*
X243919807Y-102040420D02*
X243850863Y-101899290D01*
X243850863Y-101899290D02*
X243797759Y-101832684D01*
X243797759Y-101832684D02*
X243752576Y-101803342D01*
X243752576Y-101803342D02*
X243670130Y-101781920D01*
X242738561Y-101979931D02*
X242887612Y-101948250D01*
X242887612Y-101948250D02*
X242970058Y-101969672D01*
X242970058Y-101969672D02*
X243015241Y-101999014D01*
X243015241Y-101999014D02*
X243113528Y-102094961D01*
X243113528Y-102094961D02*
X243182472Y-102236092D01*
X243182472Y-102236092D02*
X243245836Y-102534194D01*
X243245836Y-102534194D02*
X243224414Y-102616640D01*
X243224414Y-102616640D02*
X243195072Y-102661823D01*
X243195072Y-102661823D02*
X243128467Y-102714927D01*
X243128467Y-102714927D02*
X242979415Y-102746609D01*
X242979415Y-102746609D02*
X242896969Y-102725187D01*
X242896969Y-102725187D02*
X242851786Y-102695844D01*
X242851786Y-102695844D02*
X242798683Y-102629239D01*
X242798683Y-102629239D02*
X242759080Y-102442926D01*
X242759080Y-102442926D02*
X242780502Y-102360480D01*
X242780502Y-102360480D02*
X242809845Y-102315296D01*
X242809845Y-102315296D02*
X242876450Y-102262193D01*
X242876450Y-102262193D02*
X243025501Y-102230511D01*
X243025501Y-102230511D02*
X243107947Y-102251933D01*
X243107947Y-102251933D02*
X243153130Y-102281275D01*
X243153130Y-102281275D02*
X243206234Y-102347880D01*
X257360148Y-109258995D02*
X257285622Y-109274836D01*
X257285622Y-109274836D02*
X257219017Y-109327940D01*
X257219017Y-109327940D02*
X257189675Y-109373123D01*
X257189675Y-109373123D02*
X257168253Y-109455569D01*
X257168253Y-109455569D02*
X257162672Y-109612541D01*
X257162672Y-109612541D02*
X257202274Y-109798854D01*
X257202274Y-109798854D02*
X257271218Y-109939985D01*
X257271218Y-109939985D02*
X257324322Y-110006590D01*
X257324322Y-110006590D02*
X257369505Y-110035932D01*
X257369505Y-110035932D02*
X257451951Y-110057354D01*
X257451951Y-110057354D02*
X257526477Y-110041513D01*
X257526477Y-110041513D02*
X257593082Y-109988410D01*
X257593082Y-109988410D02*
X257622424Y-109943227D01*
X257622424Y-109943227D02*
X257643846Y-109860781D01*
X257643846Y-109860781D02*
X257649427Y-109703809D01*
X257649427Y-109703809D02*
X257609825Y-109517495D01*
X257609825Y-109517495D02*
X257540880Y-109376365D01*
X257540880Y-109376365D02*
X257487777Y-109309760D01*
X257487777Y-109309760D02*
X257442593Y-109280417D01*
X257442593Y-109280417D02*
X257360148Y-109258995D01*
X256838469Y-109369882D02*
X256354053Y-109472847D01*
X256354053Y-109472847D02*
X256678256Y-109715506D01*
X256678256Y-109715506D02*
X256566467Y-109739268D01*
X256566467Y-109739268D02*
X256499862Y-109792371D01*
X256499862Y-109792371D02*
X256470520Y-109837555D01*
X256470520Y-109837555D02*
X256449098Y-109920001D01*
X256449098Y-109920001D02*
X256488700Y-110106314D01*
X256488700Y-110106314D02*
X256541804Y-110172919D01*
X256541804Y-110172919D02*
X256586987Y-110202262D01*
X256586987Y-110202262D02*
X256669433Y-110223684D01*
X256669433Y-110223684D02*
X256893010Y-110176161D01*
X256893010Y-110176161D02*
X256959615Y-110123057D01*
X256959615Y-110123057D02*
X256988957Y-110077874D01*
X255775126Y-110413774D02*
X256222280Y-110318729D01*
X255998703Y-110366252D02*
X255832374Y-109583734D01*
X255832374Y-109583734D02*
X255930661Y-109679681D01*
X255930661Y-109679681D02*
X256021027Y-109738366D01*
X256021027Y-109738366D02*
X256103473Y-109759788D01*
X258849924Y-117550442D02*
X259297078Y-117455396D01*
X259073501Y-117502919D02*
X258907172Y-116720401D01*
X258907172Y-116720401D02*
X259005459Y-116816348D01*
X259005459Y-116816348D02*
X259095825Y-116875033D01*
X259095825Y-116875033D02*
X259178271Y-116896455D01*
X258104669Y-117708850D02*
X258551822Y-117613805D01*
X258328246Y-117661328D02*
X258161916Y-116878810D01*
X258161916Y-116878810D02*
X258260203Y-116974757D01*
X258260203Y-116974757D02*
X258350569Y-117033442D01*
X258350569Y-117033442D02*
X258433015Y-117054864D01*
X257230347Y-117076821D02*
X257602974Y-116997616D01*
X257602974Y-116997616D02*
X257719442Y-117362324D01*
X257719442Y-117362324D02*
X257674258Y-117332981D01*
X257674258Y-117332981D02*
X257591813Y-117311559D01*
X257591813Y-117311559D02*
X257405499Y-117351162D01*
X257405499Y-117351162D02*
X257338894Y-117404265D01*
X257338894Y-117404265D02*
X257309551Y-117449449D01*
X257309551Y-117449449D02*
X257288129Y-117531895D01*
X257288129Y-117531895D02*
X257327732Y-117718208D01*
X257327732Y-117718208D02*
X257380835Y-117784813D01*
X257380835Y-117784813D02*
X257426018Y-117814156D01*
X257426018Y-117814156D02*
X257508464Y-117835578D01*
X257508464Y-117835578D02*
X257694778Y-117795975D01*
X257694778Y-117795975D02*
X257761383Y-117742872D01*
X257761383Y-117742872D02*
X257790726Y-117697689D01*
X247590197Y-116559822D02*
X247515671Y-116575663D01*
X247515671Y-116575663D02*
X247449066Y-116628767D01*
X247449066Y-116628767D02*
X247419724Y-116673950D01*
X247419724Y-116673950D02*
X247398302Y-116756396D01*
X247398302Y-116756396D02*
X247392721Y-116913368D01*
X247392721Y-116913368D02*
X247432323Y-117099681D01*
X247432323Y-117099681D02*
X247501267Y-117240812D01*
X247501267Y-117240812D02*
X247554371Y-117307417D01*
X247554371Y-117307417D02*
X247599554Y-117336759D01*
X247599554Y-117336759D02*
X247682000Y-117358181D01*
X247682000Y-117358181D02*
X247756526Y-117342340D01*
X247756526Y-117342340D02*
X247823131Y-117289237D01*
X247823131Y-117289237D02*
X247852473Y-117244054D01*
X247852473Y-117244054D02*
X247873895Y-117161608D01*
X247873895Y-117161608D02*
X247879476Y-117004636D01*
X247879476Y-117004636D02*
X247839874Y-116818322D01*
X247839874Y-116818322D02*
X247770929Y-116677192D01*
X247770929Y-116677192D02*
X247717826Y-116610587D01*
X247717826Y-116610587D02*
X247672642Y-116581244D01*
X247672642Y-116581244D02*
X247590197Y-116559822D01*
X247047096Y-116753155D02*
X247001912Y-116723812D01*
X247001912Y-116723812D02*
X246919466Y-116702390D01*
X246919466Y-116702390D02*
X246733153Y-116741993D01*
X246733153Y-116741993D02*
X246666548Y-116795096D01*
X246666548Y-116795096D02*
X246637205Y-116840279D01*
X246637205Y-116840279D02*
X246615783Y-116922725D01*
X246615783Y-116922725D02*
X246631624Y-116997251D01*
X246631624Y-116997251D02*
X246692648Y-117101119D01*
X246692648Y-117101119D02*
X247234847Y-117453227D01*
X247234847Y-117453227D02*
X246750431Y-117556192D01*
X246301840Y-116911564D02*
X246256657Y-116882221D01*
X246256657Y-116882221D02*
X246174211Y-116860799D01*
X246174211Y-116860799D02*
X245987897Y-116900402D01*
X245987897Y-116900402D02*
X245921292Y-116953505D01*
X245921292Y-116953505D02*
X245891950Y-116998688D01*
X245891950Y-116998688D02*
X245870528Y-117081134D01*
X245870528Y-117081134D02*
X245886369Y-117155660D01*
X245886369Y-117155660D02*
X245947393Y-117259528D01*
X245947393Y-117259528D02*
X246489591Y-117611636D01*
X246489591Y-117611636D02*
X246005175Y-117714601D01*
X256165987Y-105137204D02*
X256347622Y-104709133D01*
X256613141Y-105042158D02*
X256446811Y-104259640D01*
X256446811Y-104259640D02*
X256148709Y-104323004D01*
X256148709Y-104323004D02*
X256082104Y-104376107D01*
X256082104Y-104376107D02*
X256052762Y-104421291D01*
X256052762Y-104421291D02*
X256031340Y-104503737D01*
X256031340Y-104503737D02*
X256055101Y-104615525D01*
X256055101Y-104615525D02*
X256108205Y-104682130D01*
X256108205Y-104682130D02*
X256153388Y-104711472D01*
X256153388Y-104711472D02*
X256235834Y-104732894D01*
X256235834Y-104732894D02*
X256533936Y-104669531D01*
X255859965Y-105163304D02*
X255756097Y-105224329D01*
X255756097Y-105224329D02*
X255569783Y-105263931D01*
X255569783Y-105263931D02*
X255487337Y-105242509D01*
X255487337Y-105242509D02*
X255442154Y-105213167D01*
X255442154Y-105213167D02*
X255389050Y-105146561D01*
X255389050Y-105146561D02*
X255373209Y-105072036D01*
X255373209Y-105072036D02*
X255394631Y-104989590D01*
X255394631Y-104989590D02*
X255423974Y-104944407D01*
X255423974Y-104944407D02*
X255490579Y-104891303D01*
X255490579Y-104891303D02*
X255631709Y-104822359D01*
X255631709Y-104822359D02*
X255698314Y-104769255D01*
X255698314Y-104769255D02*
X255727657Y-104724072D01*
X255727657Y-104724072D02*
X255749079Y-104641626D01*
X255749079Y-104641626D02*
X255733238Y-104567100D01*
X255733238Y-104567100D02*
X255680134Y-104500495D01*
X255680134Y-104500495D02*
X255634951Y-104471153D01*
X255634951Y-104471153D02*
X255552505Y-104449731D01*
X255552505Y-104449731D02*
X255366191Y-104489333D01*
X255366191Y-104489333D02*
X255262323Y-104550357D01*
X255030826Y-104560617D02*
X254583673Y-104655663D01*
X254973579Y-105390658D02*
X254807249Y-104608140D01*
X247070418Y-114114453D02*
X246995892Y-114130294D01*
X246995892Y-114130294D02*
X246929287Y-114183398D01*
X246929287Y-114183398D02*
X246899945Y-114228581D01*
X246899945Y-114228581D02*
X246878523Y-114311027D01*
X246878523Y-114311027D02*
X246872942Y-114467999D01*
X246872942Y-114467999D02*
X246912544Y-114654312D01*
X246912544Y-114654312D02*
X246981488Y-114795443D01*
X246981488Y-114795443D02*
X247034592Y-114862048D01*
X247034592Y-114862048D02*
X247079775Y-114891390D01*
X247079775Y-114891390D02*
X247162221Y-114912812D01*
X247162221Y-114912812D02*
X247236747Y-114896971D01*
X247236747Y-114896971D02*
X247303352Y-114843868D01*
X247303352Y-114843868D02*
X247332694Y-114798685D01*
X247332694Y-114798685D02*
X247354116Y-114716239D01*
X247354116Y-114716239D02*
X247359697Y-114559267D01*
X247359697Y-114559267D02*
X247320095Y-114372953D01*
X247320095Y-114372953D02*
X247251150Y-114231823D01*
X247251150Y-114231823D02*
X247198047Y-114165218D01*
X247198047Y-114165218D02*
X247152863Y-114135875D01*
X247152863Y-114135875D02*
X247070418Y-114114453D01*
X246527317Y-114307786D02*
X246482133Y-114278443D01*
X246482133Y-114278443D02*
X246399687Y-114257021D01*
X246399687Y-114257021D02*
X246213374Y-114296624D01*
X246213374Y-114296624D02*
X246146769Y-114349727D01*
X246146769Y-114349727D02*
X246117426Y-114394910D01*
X246117426Y-114394910D02*
X246096004Y-114477356D01*
X246096004Y-114477356D02*
X246111845Y-114551882D01*
X246111845Y-114551882D02*
X246172869Y-114655750D01*
X246172869Y-114655750D02*
X246715068Y-115007858D01*
X246715068Y-115007858D02*
X246230652Y-115110823D01*
X245579906Y-114431271D02*
X245505381Y-114447112D01*
X245505381Y-114447112D02*
X245438776Y-114500216D01*
X245438776Y-114500216D02*
X245409433Y-114545399D01*
X245409433Y-114545399D02*
X245388012Y-114627845D01*
X245388012Y-114627845D02*
X245382431Y-114784816D01*
X245382431Y-114784816D02*
X245422033Y-114971130D01*
X245422033Y-114971130D02*
X245490977Y-115112261D01*
X245490977Y-115112261D02*
X245544081Y-115178866D01*
X245544081Y-115178866D02*
X245589264Y-115208208D01*
X245589264Y-115208208D02*
X245671710Y-115229630D01*
X245671710Y-115229630D02*
X245746236Y-115213789D01*
X245746236Y-115213789D02*
X245812841Y-115160686D01*
X245812841Y-115160686D02*
X245842183Y-115115502D01*
X245842183Y-115115502D02*
X245863605Y-115033056D01*
X245863605Y-115033056D02*
X245869186Y-114876085D01*
X245869186Y-114876085D02*
X245829584Y-114689771D01*
X245829584Y-114689771D02*
X245760639Y-114548641D01*
X245760639Y-114548641D02*
X245707536Y-114482035D01*
X245707536Y-114482035D02*
X245662352Y-114452693D01*
X245662352Y-114452693D02*
X245579906Y-114431271D01*
X244928927Y-104039533D02*
X244854401Y-104055374D01*
X244854401Y-104055374D02*
X244787796Y-104108478D01*
X244787796Y-104108478D02*
X244758454Y-104153661D01*
X244758454Y-104153661D02*
X244737032Y-104236107D01*
X244737032Y-104236107D02*
X244731451Y-104393079D01*
X244731451Y-104393079D02*
X244771053Y-104579392D01*
X244771053Y-104579392D02*
X244839997Y-104720523D01*
X244839997Y-104720523D02*
X244893101Y-104787128D01*
X244893101Y-104787128D02*
X244938284Y-104816470D01*
X244938284Y-104816470D02*
X245020730Y-104837892D01*
X245020730Y-104837892D02*
X245095256Y-104822051D01*
X245095256Y-104822051D02*
X245161861Y-104768948D01*
X245161861Y-104768948D02*
X245191203Y-104723765D01*
X245191203Y-104723765D02*
X245212625Y-104641319D01*
X245212625Y-104641319D02*
X245218206Y-104484347D01*
X245218206Y-104484347D02*
X245178604Y-104298033D01*
X245178604Y-104298033D02*
X245109659Y-104156903D01*
X245109659Y-104156903D02*
X245056556Y-104090298D01*
X245056556Y-104090298D02*
X245011372Y-104060955D01*
X245011372Y-104060955D02*
X244928927Y-104039533D01*
X244183671Y-104197942D02*
X244109145Y-104213783D01*
X244109145Y-104213783D02*
X244042540Y-104266887D01*
X244042540Y-104266887D02*
X244013198Y-104312070D01*
X244013198Y-104312070D02*
X243991776Y-104394516D01*
X243991776Y-104394516D02*
X243986195Y-104551488D01*
X243986195Y-104551488D02*
X244025797Y-104737801D01*
X244025797Y-104737801D02*
X244094742Y-104878932D01*
X244094742Y-104878932D02*
X244147846Y-104945537D01*
X244147846Y-104945537D02*
X244193029Y-104974879D01*
X244193029Y-104974879D02*
X244275475Y-104996301D01*
X244275475Y-104996301D02*
X244350000Y-104980460D01*
X244350000Y-104980460D02*
X244416605Y-104927357D01*
X244416605Y-104927357D02*
X244445948Y-104882173D01*
X244445948Y-104882173D02*
X244467370Y-104799728D01*
X244467370Y-104799728D02*
X244472951Y-104642756D01*
X244472951Y-104642756D02*
X244433348Y-104456442D01*
X244433348Y-104456442D02*
X244364404Y-104315312D01*
X244364404Y-104315312D02*
X244311300Y-104248706D01*
X244311300Y-104248706D02*
X244266117Y-104219364D01*
X244266117Y-104219364D02*
X244183671Y-104197942D01*
X243546962Y-104683796D02*
X243613567Y-104630692D01*
X243613567Y-104630692D02*
X243642910Y-104585509D01*
X243642910Y-104585509D02*
X243664331Y-104503063D01*
X243664331Y-104503063D02*
X243656411Y-104465800D01*
X243656411Y-104465800D02*
X243603307Y-104399195D01*
X243603307Y-104399195D02*
X243558124Y-104369853D01*
X243558124Y-104369853D02*
X243475678Y-104348431D01*
X243475678Y-104348431D02*
X243326627Y-104380113D01*
X243326627Y-104380113D02*
X243260022Y-104433216D01*
X243260022Y-104433216D02*
X243230680Y-104478399D01*
X243230680Y-104478399D02*
X243209258Y-104560845D01*
X243209258Y-104560845D02*
X243217178Y-104598108D01*
X243217178Y-104598108D02*
X243270282Y-104664713D01*
X243270282Y-104664713D02*
X243315465Y-104694056D01*
X243315465Y-104694056D02*
X243397911Y-104715477D01*
X243397911Y-104715477D02*
X243546962Y-104683796D01*
X243546962Y-104683796D02*
X243629408Y-104705218D01*
X243629408Y-104705218D02*
X243674591Y-104734560D01*
X243674591Y-104734560D02*
X243727695Y-104801165D01*
X243727695Y-104801165D02*
X243759377Y-104950216D01*
X243759377Y-104950216D02*
X243737955Y-105032662D01*
X243737955Y-105032662D02*
X243708613Y-105077845D01*
X243708613Y-105077845D02*
X243642008Y-105130949D01*
X243642008Y-105130949D02*
X243492956Y-105162631D01*
X243492956Y-105162631D02*
X243410510Y-105141209D01*
X243410510Y-105141209D02*
X243365327Y-105111866D01*
X243365327Y-105111866D02*
X243312224Y-105045261D01*
X243312224Y-105045261D02*
X243280542Y-104896210D01*
X243280542Y-104896210D02*
X243301964Y-104813764D01*
X243301964Y-104813764D02*
X243331306Y-104768581D01*
X243331306Y-104768581D02*
X243397911Y-104715477D01*
X245895804Y-109138017D02*
X245962409Y-109084914D01*
X245962409Y-109084914D02*
X246074197Y-109061152D01*
X246074197Y-109061152D02*
X246193906Y-109074654D01*
X246193906Y-109074654D02*
X246284272Y-109133338D01*
X246284272Y-109133338D02*
X246337376Y-109199944D01*
X246337376Y-109199944D02*
X246406320Y-109341074D01*
X246406320Y-109341074D02*
X246430082Y-109452862D01*
X246430082Y-109452862D02*
X246424501Y-109609834D01*
X246424501Y-109609834D02*
X246403079Y-109692280D01*
X246403079Y-109692280D02*
X246344394Y-109782646D01*
X246344394Y-109782646D02*
X246240526Y-109843670D01*
X246240526Y-109843670D02*
X246166001Y-109859511D01*
X246166001Y-109859511D02*
X246046292Y-109846010D01*
X246046292Y-109846010D02*
X246001109Y-109816668D01*
X246001109Y-109816668D02*
X245945666Y-109555828D01*
X245945666Y-109555828D02*
X246094717Y-109524146D01*
X245681585Y-109962477D02*
X245515256Y-109179959D01*
X245515256Y-109179959D02*
X245234432Y-110057523D01*
X245234432Y-110057523D02*
X245068102Y-109275004D01*
X244861804Y-110136727D02*
X244695475Y-109354209D01*
X244695475Y-109354209D02*
X244509161Y-109393811D01*
X244509161Y-109393811D02*
X244405293Y-109454835D01*
X244405293Y-109454835D02*
X244346609Y-109545202D01*
X244346609Y-109545202D02*
X244325187Y-109627648D01*
X244325187Y-109627648D02*
X244319606Y-109784619D01*
X244319606Y-109784619D02*
X244343367Y-109896407D01*
X244343367Y-109896407D02*
X244412312Y-110037538D01*
X244412312Y-110037538D02*
X244465415Y-110104143D01*
X244465415Y-110104143D02*
X244555782Y-110162828D01*
X244555782Y-110162828D02*
X244675490Y-110176329D01*
X244675490Y-110176329D02*
X244861804Y-110136727D01*
X259378019Y-120034937D02*
X259825173Y-119939891D01*
X259601596Y-119987414D02*
X259435267Y-119204896D01*
X259435267Y-119204896D02*
X259533554Y-119300843D01*
X259533554Y-119300843D02*
X259623920Y-119359528D01*
X259623920Y-119359528D02*
X259706366Y-119380950D01*
X258632764Y-120193345D02*
X259079917Y-120098300D01*
X258856341Y-120145823D02*
X258690011Y-119363305D01*
X258690011Y-119363305D02*
X258788298Y-119459252D01*
X258788298Y-119459252D02*
X258878664Y-119517937D01*
X258878664Y-119517937D02*
X258961110Y-119539359D01*
X258205595Y-119466271D02*
X257721179Y-119569236D01*
X257721179Y-119569236D02*
X258045382Y-119811895D01*
X258045382Y-119811895D02*
X257933594Y-119835657D01*
X257933594Y-119835657D02*
X257866989Y-119888760D01*
X257866989Y-119888760D02*
X257837646Y-119933944D01*
X257837646Y-119933944D02*
X257816224Y-120016390D01*
X257816224Y-120016390D02*
X257855827Y-120202703D01*
X257855827Y-120202703D02*
X257908930Y-120269308D01*
X257908930Y-120269308D02*
X257954113Y-120298651D01*
X257954113Y-120298651D02*
X258036559Y-120320073D01*
X258036559Y-120320073D02*
X258260136Y-120272550D01*
X258260136Y-120272550D02*
X258326741Y-120219446D01*
X258326741Y-120219446D02*
X258356083Y-120174263D01*
X258416339Y-114227985D02*
X258341813Y-114243826D01*
X258341813Y-114243826D02*
X258275208Y-114296930D01*
X258275208Y-114296930D02*
X258245866Y-114342113D01*
X258245866Y-114342113D02*
X258224444Y-114424559D01*
X258224444Y-114424559D02*
X258218863Y-114581531D01*
X258218863Y-114581531D02*
X258258465Y-114767844D01*
X258258465Y-114767844D02*
X258327409Y-114908975D01*
X258327409Y-114908975D02*
X258380513Y-114975580D01*
X258380513Y-114975580D02*
X258425696Y-115004922D01*
X258425696Y-115004922D02*
X258508142Y-115026344D01*
X258508142Y-115026344D02*
X258582668Y-115010503D01*
X258582668Y-115010503D02*
X258649273Y-114957400D01*
X258649273Y-114957400D02*
X258678615Y-114912217D01*
X258678615Y-114912217D02*
X258700037Y-114829771D01*
X258700037Y-114829771D02*
X258705618Y-114672799D01*
X258705618Y-114672799D02*
X258666016Y-114486485D01*
X258666016Y-114486485D02*
X258597071Y-114345355D01*
X258597071Y-114345355D02*
X258543968Y-114278750D01*
X258543968Y-114278750D02*
X258498784Y-114249407D01*
X258498784Y-114249407D02*
X258416339Y-114227985D01*
X257671083Y-114386394D02*
X257596557Y-114402235D01*
X257596557Y-114402235D02*
X257529952Y-114455339D01*
X257529952Y-114455339D02*
X257500610Y-114500522D01*
X257500610Y-114500522D02*
X257479188Y-114582968D01*
X257479188Y-114582968D02*
X257473607Y-114739940D01*
X257473607Y-114739940D02*
X257513209Y-114926253D01*
X257513209Y-114926253D02*
X257582154Y-115067384D01*
X257582154Y-115067384D02*
X257635258Y-115133989D01*
X257635258Y-115133989D02*
X257680441Y-115163331D01*
X257680441Y-115163331D02*
X257762887Y-115184753D01*
X257762887Y-115184753D02*
X257837412Y-115168912D01*
X257837412Y-115168912D02*
X257904017Y-115115809D01*
X257904017Y-115115809D02*
X257933360Y-115070625D01*
X257933360Y-115070625D02*
X257954782Y-114988180D01*
X257954782Y-114988180D02*
X257960363Y-114831208D01*
X257960363Y-114831208D02*
X257920760Y-114644894D01*
X257920760Y-114644894D02*
X257851816Y-114503764D01*
X257851816Y-114503764D02*
X257798712Y-114437158D01*
X257798712Y-114437158D02*
X257753529Y-114407816D01*
X257753529Y-114407816D02*
X257671083Y-114386394D01*
X257127982Y-114579727D02*
X257082799Y-114550384D01*
X257082799Y-114550384D02*
X257000353Y-114528962D01*
X257000353Y-114528962D02*
X256814039Y-114568565D01*
X256814039Y-114568565D02*
X256747434Y-114621668D01*
X256747434Y-114621668D02*
X256718092Y-114666851D01*
X256718092Y-114666851D02*
X256696670Y-114749297D01*
X256696670Y-114749297D02*
X256712511Y-114823823D01*
X256712511Y-114823823D02*
X256773535Y-114927691D01*
X256773535Y-114927691D02*
X257315733Y-115279799D01*
X257315733Y-115279799D02*
X256831317Y-115382764D01*
X245367708Y-106653523D02*
X245434313Y-106600420D01*
X245434313Y-106600420D02*
X245546101Y-106576658D01*
X245546101Y-106576658D02*
X245665810Y-106590160D01*
X245665810Y-106590160D02*
X245756176Y-106648844D01*
X245756176Y-106648844D02*
X245809280Y-106715450D01*
X245809280Y-106715450D02*
X245878224Y-106856580D01*
X245878224Y-106856580D02*
X245901986Y-106968368D01*
X245901986Y-106968368D02*
X245896405Y-107125340D01*
X245896405Y-107125340D02*
X245874983Y-107207786D01*
X245874983Y-107207786D02*
X245816298Y-107298152D01*
X245816298Y-107298152D02*
X245712430Y-107359176D01*
X245712430Y-107359176D02*
X245637905Y-107375017D01*
X245637905Y-107375017D02*
X245518196Y-107361516D01*
X245518196Y-107361516D02*
X245473013Y-107332174D01*
X245473013Y-107332174D02*
X245417570Y-107071334D01*
X245417570Y-107071334D02*
X245566621Y-107039652D01*
X245153489Y-107477983D02*
X244987160Y-106695465D01*
X244987160Y-106695465D02*
X244706336Y-107573029D01*
X244706336Y-107573029D02*
X244540006Y-106790510D01*
X244333708Y-107652233D02*
X244167379Y-106869715D01*
X244167379Y-106869715D02*
X243981065Y-106909317D01*
X243981065Y-106909317D02*
X243877197Y-106970341D01*
X243877197Y-106970341D02*
X243818513Y-107060708D01*
X243818513Y-107060708D02*
X243797091Y-107143154D01*
X243797091Y-107143154D02*
X243791510Y-107300125D01*
X243791510Y-107300125D02*
X243815271Y-107411913D01*
X243815271Y-107411913D02*
X243884216Y-107553044D01*
X243884216Y-107553044D02*
X243937319Y-107619649D01*
X243937319Y-107619649D02*
X244027686Y-107678334D01*
X244027686Y-107678334D02*
X244147394Y-107691835D01*
X244147394Y-107691835D02*
X244333708Y-107652233D01*
X260528722Y-124165964D02*
X260454196Y-124181805D01*
X260454196Y-124181805D02*
X260387591Y-124234909D01*
X260387591Y-124234909D02*
X260358249Y-124280092D01*
X260358249Y-124280092D02*
X260336827Y-124362538D01*
X260336827Y-124362538D02*
X260331246Y-124519510D01*
X260331246Y-124519510D02*
X260370848Y-124705823D01*
X260370848Y-124705823D02*
X260439792Y-124846954D01*
X260439792Y-124846954D02*
X260492896Y-124913559D01*
X260492896Y-124913559D02*
X260538079Y-124942901D01*
X260538079Y-124942901D02*
X260620525Y-124964323D01*
X260620525Y-124964323D02*
X260695051Y-124948482D01*
X260695051Y-124948482D02*
X260761656Y-124895379D01*
X260761656Y-124895379D02*
X260790998Y-124850196D01*
X260790998Y-124850196D02*
X260812420Y-124767750D01*
X260812420Y-124767750D02*
X260818001Y-124610778D01*
X260818001Y-124610778D02*
X260778399Y-124424464D01*
X260778399Y-124424464D02*
X260709454Y-124283334D01*
X260709454Y-124283334D02*
X260656351Y-124216729D01*
X260656351Y-124216729D02*
X260611167Y-124187386D01*
X260611167Y-124187386D02*
X260528722Y-124165964D01*
X259688956Y-125162334D02*
X260136109Y-125067289D01*
X259912533Y-125114812D02*
X259746203Y-124332294D01*
X259746203Y-124332294D02*
X259844490Y-124428241D01*
X259844490Y-124428241D02*
X259934856Y-124486926D01*
X259934856Y-124486926D02*
X260017302Y-124508348D01*
X259038210Y-124482782D02*
X258963685Y-124498623D01*
X258963685Y-124498623D02*
X258897080Y-124551727D01*
X258897080Y-124551727D02*
X258867737Y-124596910D01*
X258867737Y-124596910D02*
X258846316Y-124679356D01*
X258846316Y-124679356D02*
X258840735Y-124836327D01*
X258840735Y-124836327D02*
X258880337Y-125022641D01*
X258880337Y-125022641D02*
X258949281Y-125163772D01*
X258949281Y-125163772D02*
X259002385Y-125230377D01*
X259002385Y-125230377D02*
X259047568Y-125259719D01*
X259047568Y-125259719D02*
X259130014Y-125281141D01*
X259130014Y-125281141D02*
X259204540Y-125265300D01*
X259204540Y-125265300D02*
X259271145Y-125212197D01*
X259271145Y-125212197D02*
X259300487Y-125167013D01*
X259300487Y-125167013D02*
X259321909Y-125084567D01*
X259321909Y-125084567D02*
X259327490Y-124927596D01*
X259327490Y-124927596D02*
X259287888Y-124741282D01*
X259287888Y-124741282D02*
X259218943Y-124600152D01*
X259218943Y-124600152D02*
X259165840Y-124533546D01*
X259165840Y-124533546D02*
X259120656Y-124504204D01*
X259120656Y-124504204D02*
X259038210Y-124482782D01*
X248112055Y-119014973D02*
X248037529Y-119030814D01*
X248037529Y-119030814D02*
X247970924Y-119083918D01*
X247970924Y-119083918D02*
X247941582Y-119129101D01*
X247941582Y-119129101D02*
X247920160Y-119211547D01*
X247920160Y-119211547D02*
X247914579Y-119368519D01*
X247914579Y-119368519D02*
X247954181Y-119554832D01*
X247954181Y-119554832D02*
X248023125Y-119695963D01*
X248023125Y-119695963D02*
X248076229Y-119762568D01*
X248076229Y-119762568D02*
X248121412Y-119791910D01*
X248121412Y-119791910D02*
X248203858Y-119813332D01*
X248203858Y-119813332D02*
X248278384Y-119797491D01*
X248278384Y-119797491D02*
X248344989Y-119744388D01*
X248344989Y-119744388D02*
X248374331Y-119699205D01*
X248374331Y-119699205D02*
X248395753Y-119616759D01*
X248395753Y-119616759D02*
X248401334Y-119459787D01*
X248401334Y-119459787D02*
X248361732Y-119273473D01*
X248361732Y-119273473D02*
X248292787Y-119132343D01*
X248292787Y-119132343D02*
X248239684Y-119065738D01*
X248239684Y-119065738D02*
X248194500Y-119036395D01*
X248194500Y-119036395D02*
X248112055Y-119014973D01*
X247568954Y-119208306D02*
X247523770Y-119178963D01*
X247523770Y-119178963D02*
X247441324Y-119157541D01*
X247441324Y-119157541D02*
X247255011Y-119197144D01*
X247255011Y-119197144D02*
X247188406Y-119250247D01*
X247188406Y-119250247D02*
X247159063Y-119295430D01*
X247159063Y-119295430D02*
X247137641Y-119377876D01*
X247137641Y-119377876D02*
X247153482Y-119452402D01*
X247153482Y-119452402D02*
X247214506Y-119556270D01*
X247214506Y-119556270D02*
X247756705Y-119908378D01*
X247756705Y-119908378D02*
X247272289Y-120011343D01*
X246490673Y-119632233D02*
X246601559Y-120153912D01*
X246613623Y-119294528D02*
X246918743Y-119813868D01*
X246918743Y-119813868D02*
X246434328Y-119916834D01*
X259906115Y-122519431D02*
X260353269Y-122424385D01*
X260129692Y-122471908D02*
X259963363Y-121689390D01*
X259963363Y-121689390D02*
X260061650Y-121785337D01*
X260061650Y-121785337D02*
X260152016Y-121844022D01*
X260152016Y-121844022D02*
X260234462Y-121865444D01*
X259160860Y-122677839D02*
X259608013Y-122582794D01*
X259384437Y-122630317D02*
X259218107Y-121847799D01*
X259218107Y-121847799D02*
X259316394Y-121943746D01*
X259316394Y-121943746D02*
X259406760Y-122002431D01*
X259406760Y-122002431D02*
X259489206Y-122023853D01*
X258415604Y-122836248D02*
X258862758Y-122741203D01*
X258639181Y-122788726D02*
X258472852Y-122006208D01*
X258472852Y-122006208D02*
X258571139Y-122102155D01*
X258571139Y-122102155D02*
X258661505Y-122160840D01*
X258661505Y-122160840D02*
X258743951Y-122182262D01*
X249601832Y-127306420D02*
X250048986Y-127211374D01*
X249825409Y-127258897D02*
X249659080Y-126476379D01*
X249659080Y-126476379D02*
X249757367Y-126572326D01*
X249757367Y-126572326D02*
X249847733Y-126631011D01*
X249847733Y-126631011D02*
X249930179Y-126652433D01*
X248951087Y-126626867D02*
X248876561Y-126642708D01*
X248876561Y-126642708D02*
X248809956Y-126695812D01*
X248809956Y-126695812D02*
X248780614Y-126740995D01*
X248780614Y-126740995D02*
X248759192Y-126823441D01*
X248759192Y-126823441D02*
X248753611Y-126980413D01*
X248753611Y-126980413D02*
X248793213Y-127166726D01*
X248793213Y-127166726D02*
X248862158Y-127307857D01*
X248862158Y-127307857D02*
X248915262Y-127374462D01*
X248915262Y-127374462D02*
X248960445Y-127403804D01*
X248960445Y-127403804D02*
X249042891Y-127425226D01*
X249042891Y-127425226D02*
X249117416Y-127409385D01*
X249117416Y-127409385D02*
X249184021Y-127356282D01*
X249184021Y-127356282D02*
X249213364Y-127311098D01*
X249213364Y-127311098D02*
X249234786Y-127228653D01*
X249234786Y-127228653D02*
X249240367Y-127071681D01*
X249240367Y-127071681D02*
X249200764Y-126885367D01*
X249200764Y-126885367D02*
X249131820Y-126744237D01*
X249131820Y-126744237D02*
X249078716Y-126677631D01*
X249078716Y-126677631D02*
X249033533Y-126648289D01*
X249033533Y-126648289D02*
X248951087Y-126626867D01*
X248074961Y-127085718D02*
X248185847Y-127607397D01*
X248197911Y-126748013D02*
X248503031Y-127267353D01*
X248503031Y-127267353D02*
X248018616Y-127370319D01*
X257888243Y-111743490D02*
X257813717Y-111759331D01*
X257813717Y-111759331D02*
X257747112Y-111812435D01*
X257747112Y-111812435D02*
X257717770Y-111857618D01*
X257717770Y-111857618D02*
X257696348Y-111940064D01*
X257696348Y-111940064D02*
X257690767Y-112097036D01*
X257690767Y-112097036D02*
X257730369Y-112283349D01*
X257730369Y-112283349D02*
X257799313Y-112424480D01*
X257799313Y-112424480D02*
X257852417Y-112491085D01*
X257852417Y-112491085D02*
X257897600Y-112520427D01*
X257897600Y-112520427D02*
X257980046Y-112541849D01*
X257980046Y-112541849D02*
X258054572Y-112526008D01*
X258054572Y-112526008D02*
X258121177Y-112472905D01*
X258121177Y-112472905D02*
X258150519Y-112427722D01*
X258150519Y-112427722D02*
X258171941Y-112345276D01*
X258171941Y-112345276D02*
X258177522Y-112188304D01*
X258177522Y-112188304D02*
X258137920Y-112001990D01*
X258137920Y-112001990D02*
X258068975Y-111860860D01*
X258068975Y-111860860D02*
X258015872Y-111794255D01*
X258015872Y-111794255D02*
X257970688Y-111764912D01*
X257970688Y-111764912D02*
X257888243Y-111743490D01*
X257345142Y-111936823D02*
X257299958Y-111907480D01*
X257299958Y-111907480D02*
X257217512Y-111886058D01*
X257217512Y-111886058D02*
X257031199Y-111925661D01*
X257031199Y-111925661D02*
X256964594Y-111978764D01*
X256964594Y-111978764D02*
X256935251Y-112023947D01*
X256935251Y-112023947D02*
X256913829Y-112106393D01*
X256913829Y-112106393D02*
X256929670Y-112180919D01*
X256929670Y-112180919D02*
X256990694Y-112284787D01*
X256990694Y-112284787D02*
X257532893Y-112636895D01*
X257532893Y-112636895D02*
X257048477Y-112739860D01*
X256675849Y-112819065D02*
X256526798Y-112850747D01*
X256526798Y-112850747D02*
X256444352Y-112829325D01*
X256444352Y-112829325D02*
X256399169Y-112799983D01*
X256399169Y-112799983D02*
X256300882Y-112704035D01*
X256300882Y-112704035D02*
X256231937Y-112562905D01*
X256231937Y-112562905D02*
X256168574Y-112264802D01*
X256168574Y-112264802D02*
X256189996Y-112182356D01*
X256189996Y-112182356D02*
X256219338Y-112137173D01*
X256219338Y-112137173D02*
X256285943Y-112084070D01*
X256285943Y-112084070D02*
X256434994Y-112052388D01*
X256434994Y-112052388D02*
X256517440Y-112073810D01*
X256517440Y-112073810D02*
X256562623Y-112103152D01*
X256562623Y-112103152D02*
X256615727Y-112169757D01*
X256615727Y-112169757D02*
X256655329Y-112356071D01*
X256655329Y-112356071D02*
X256633907Y-112438517D01*
X256633907Y-112438517D02*
X256604565Y-112483700D01*
X256604565Y-112483700D02*
X256537960Y-112536804D01*
X256537960Y-112536804D02*
X256388909Y-112568486D01*
X256388909Y-112568486D02*
X256306463Y-112547064D01*
X256306463Y-112547064D02*
X256261280Y-112517721D01*
X256261280Y-112517721D02*
X256208176Y-112451116D01*
X248545640Y-122337430D02*
X248992794Y-122242384D01*
X248769217Y-122289907D02*
X248602888Y-121507389D01*
X248602888Y-121507389D02*
X248701175Y-121603336D01*
X248701175Y-121603336D02*
X248791541Y-121662021D01*
X248791541Y-121662021D02*
X248873987Y-121683443D01*
X247894895Y-121657877D02*
X247820369Y-121673718D01*
X247820369Y-121673718D02*
X247753764Y-121726822D01*
X247753764Y-121726822D02*
X247724422Y-121772005D01*
X247724422Y-121772005D02*
X247703000Y-121854451D01*
X247703000Y-121854451D02*
X247697419Y-122011423D01*
X247697419Y-122011423D02*
X247737021Y-122197736D01*
X247737021Y-122197736D02*
X247805966Y-122338867D01*
X247805966Y-122338867D02*
X247859070Y-122405472D01*
X247859070Y-122405472D02*
X247904253Y-122434814D01*
X247904253Y-122434814D02*
X247986699Y-122456236D01*
X247986699Y-122456236D02*
X248061224Y-122440395D01*
X248061224Y-122440395D02*
X248127829Y-122387292D01*
X248127829Y-122387292D02*
X248157172Y-122342108D01*
X248157172Y-122342108D02*
X248178594Y-122259663D01*
X248178594Y-122259663D02*
X248184175Y-122102691D01*
X248184175Y-122102691D02*
X248144572Y-121916377D01*
X248144572Y-121916377D02*
X248075628Y-121775247D01*
X248075628Y-121775247D02*
X248022524Y-121708641D01*
X248022524Y-121708641D02*
X247977341Y-121679299D01*
X247977341Y-121679299D02*
X247894895Y-121657877D01*
X247149639Y-121816286D02*
X247075114Y-121832127D01*
X247075114Y-121832127D02*
X247008509Y-121885231D01*
X247008509Y-121885231D02*
X246979166Y-121930414D01*
X246979166Y-121930414D02*
X246957745Y-122012860D01*
X246957745Y-122012860D02*
X246952164Y-122169831D01*
X246952164Y-122169831D02*
X246991766Y-122356145D01*
X246991766Y-122356145D02*
X247060710Y-122497276D01*
X247060710Y-122497276D02*
X247113814Y-122563881D01*
X247113814Y-122563881D02*
X247158997Y-122593223D01*
X247158997Y-122593223D02*
X247241443Y-122614645D01*
X247241443Y-122614645D02*
X247315969Y-122598804D01*
X247315969Y-122598804D02*
X247382574Y-122545701D01*
X247382574Y-122545701D02*
X247411916Y-122500517D01*
X247411916Y-122500517D02*
X247433338Y-122418071D01*
X247433338Y-122418071D02*
X247438919Y-122261100D01*
X247438919Y-122261100D02*
X247399317Y-122074786D01*
X247399317Y-122074786D02*
X247330372Y-121933656D01*
X247330372Y-121933656D02*
X247277269Y-121867050D01*
X247277269Y-121867050D02*
X247232085Y-121837708D01*
X247232085Y-121837708D02*
X247149639Y-121816286D01*
X255516746Y-101899533D02*
X255583351Y-101846430D01*
X255583351Y-101846430D02*
X255695139Y-101822668D01*
X255695139Y-101822668D02*
X255814848Y-101836170D01*
X255814848Y-101836170D02*
X255905214Y-101894854D01*
X255905214Y-101894854D02*
X255958318Y-101961460D01*
X255958318Y-101961460D02*
X256027262Y-102102590D01*
X256027262Y-102102590D02*
X256051024Y-102214378D01*
X256051024Y-102214378D02*
X256045443Y-102371350D01*
X256045443Y-102371350D02*
X256024021Y-102453796D01*
X256024021Y-102453796D02*
X255965336Y-102544162D01*
X255965336Y-102544162D02*
X255861468Y-102605186D01*
X255861468Y-102605186D02*
X255786943Y-102621027D01*
X255786943Y-102621027D02*
X255667234Y-102607526D01*
X255667234Y-102607526D02*
X255622051Y-102578184D01*
X255622051Y-102578184D02*
X255566608Y-102317344D01*
X255566608Y-102317344D02*
X255715659Y-102285662D01*
X255302527Y-102723993D02*
X255136198Y-101941475D01*
X255136198Y-101941475D02*
X254855374Y-102819039D01*
X254855374Y-102819039D02*
X254689044Y-102036520D01*
X254482746Y-102898243D02*
X254316417Y-102115725D01*
X254316417Y-102115725D02*
X254130103Y-102155327D01*
X254130103Y-102155327D02*
X254026235Y-102216351D01*
X254026235Y-102216351D02*
X253967551Y-102306718D01*
X253967551Y-102306718D02*
X253946129Y-102389164D01*
X253946129Y-102389164D02*
X253940548Y-102546135D01*
X253940548Y-102546135D02*
X253964309Y-102657923D01*
X253964309Y-102657923D02*
X254033254Y-102799054D01*
X254033254Y-102799054D02*
X254086357Y-102865659D01*
X254086357Y-102865659D02*
X254176724Y-102924344D01*
X254176724Y-102924344D02*
X254296432Y-102937845D01*
X254296432Y-102937845D02*
X254482746Y-102898243D01*
X257092891Y-106719057D02*
X256998381Y-107557018D01*
X256998381Y-107557018D02*
X256571212Y-106829943D01*
X256013708Y-107688424D02*
X256058892Y-107717767D01*
X256058892Y-107717767D02*
X256178600Y-107731268D01*
X256178600Y-107731268D02*
X256253126Y-107715427D01*
X256253126Y-107715427D02*
X256356994Y-107654403D01*
X256356994Y-107654403D02*
X256415678Y-107564037D01*
X256415678Y-107564037D02*
X256437100Y-107481591D01*
X256437100Y-107481591D02*
X256442681Y-107324619D01*
X256442681Y-107324619D02*
X256418920Y-107212831D01*
X256418920Y-107212831D02*
X256349975Y-107071700D01*
X256349975Y-107071700D02*
X256296872Y-107005095D01*
X256296872Y-107005095D02*
X256206505Y-106946411D01*
X256206505Y-106946411D02*
X256086796Y-106932909D01*
X256086796Y-106932909D02*
X256012271Y-106948750D01*
X256012271Y-106948750D02*
X255908403Y-107009774D01*
X255908403Y-107009774D02*
X255879061Y-107054957D01*
X255231190Y-107854754D02*
X255276373Y-107884096D01*
X255276373Y-107884096D02*
X255396082Y-107897597D01*
X255396082Y-107897597D02*
X255470608Y-107881757D01*
X255470608Y-107881757D02*
X255574476Y-107820732D01*
X255574476Y-107820732D02*
X255633160Y-107730366D01*
X255633160Y-107730366D02*
X255654582Y-107647920D01*
X255654582Y-107647920D02*
X255660163Y-107490949D01*
X255660163Y-107490949D02*
X255636402Y-107379160D01*
X255636402Y-107379160D02*
X255567457Y-107238030D01*
X255567457Y-107238030D02*
X255514354Y-107171425D01*
X255514354Y-107171425D02*
X255423987Y-107112740D01*
X255423987Y-107112740D02*
X255304278Y-107099239D01*
X255304278Y-107099239D02*
X255229753Y-107115079D01*
X255229753Y-107115079D02*
X255125885Y-107176104D01*
X255125885Y-107176104D02*
X255096543Y-107221287D01*
X246529846Y-111571270D02*
X246455320Y-111587111D01*
X246455320Y-111587111D02*
X246388715Y-111640215D01*
X246388715Y-111640215D02*
X246359373Y-111685398D01*
X246359373Y-111685398D02*
X246337951Y-111767844D01*
X246337951Y-111767844D02*
X246332370Y-111924816D01*
X246332370Y-111924816D02*
X246371972Y-112111129D01*
X246371972Y-112111129D02*
X246440916Y-112252260D01*
X246440916Y-112252260D02*
X246494020Y-112318865D01*
X246494020Y-112318865D02*
X246539203Y-112348207D01*
X246539203Y-112348207D02*
X246621649Y-112369629D01*
X246621649Y-112369629D02*
X246696175Y-112353788D01*
X246696175Y-112353788D02*
X246762780Y-112300685D01*
X246762780Y-112300685D02*
X246792122Y-112255502D01*
X246792122Y-112255502D02*
X246813544Y-112173056D01*
X246813544Y-112173056D02*
X246819125Y-112016084D01*
X246819125Y-112016084D02*
X246779523Y-111829770D01*
X246779523Y-111829770D02*
X246710578Y-111688640D01*
X246710578Y-111688640D02*
X246657475Y-111622035D01*
X246657475Y-111622035D02*
X246612291Y-111592692D01*
X246612291Y-111592692D02*
X246529846Y-111571270D01*
X245690080Y-112567640D02*
X246137233Y-112472595D01*
X245913657Y-112520118D02*
X245747327Y-111737600D01*
X245747327Y-111737600D02*
X245845614Y-111833547D01*
X245845614Y-111833547D02*
X245935980Y-111892232D01*
X245935980Y-111892232D02*
X246018426Y-111913654D01*
X245262911Y-111840566D02*
X244741232Y-111951452D01*
X244741232Y-111951452D02*
X245242927Y-112662686D01*
X255109797Y-100168214D02*
X255291432Y-99740143D01*
X255556950Y-100073169D02*
X255390621Y-99290651D01*
X255390621Y-99290651D02*
X255092519Y-99354014D01*
X255092519Y-99354014D02*
X255025914Y-99407118D01*
X255025914Y-99407118D02*
X254996571Y-99452301D01*
X254996571Y-99452301D02*
X254975149Y-99534747D01*
X254975149Y-99534747D02*
X254998911Y-99646536D01*
X254998911Y-99646536D02*
X255052014Y-99713141D01*
X255052014Y-99713141D02*
X255097198Y-99742483D01*
X255097198Y-99742483D02*
X255179644Y-99763905D01*
X255179644Y-99763905D02*
X255477746Y-99700541D01*
X254764172Y-100008001D02*
X254391545Y-100087206D01*
X254886220Y-100215737D02*
X254459052Y-99488662D01*
X254459052Y-99488662D02*
X254364542Y-100326623D01*
X254011899Y-99583707D02*
X253991914Y-100405828D01*
X253991914Y-100405828D02*
X253724057Y-99878568D01*
X253724057Y-99878568D02*
X253693812Y-100469191D01*
X253693812Y-100469191D02*
X253341169Y-99726275D01*
X194091299Y-111894147D02*
X194016774Y-111878306D01*
X194016774Y-111878306D02*
X193934328Y-111899728D01*
X193934328Y-111899728D02*
X193889145Y-111929070D01*
X193889145Y-111929070D02*
X193836041Y-111995675D01*
X193836041Y-111995675D02*
X193767096Y-112136806D01*
X193767096Y-112136806D02*
X193727494Y-112323120D01*
X193727494Y-112323120D02*
X193733075Y-112480091D01*
X193733075Y-112480091D02*
X193754497Y-112562537D01*
X193754497Y-112562537D02*
X193783839Y-112607720D01*
X193783839Y-112607720D02*
X193850444Y-112660824D01*
X193850444Y-112660824D02*
X193924970Y-112676665D01*
X193924970Y-112676665D02*
X194007416Y-112655243D01*
X194007416Y-112655243D02*
X194052599Y-112625901D01*
X194052599Y-112625901D02*
X194105703Y-112559296D01*
X194105703Y-112559296D02*
X194174647Y-112418165D01*
X194174647Y-112418165D02*
X194214250Y-112231851D01*
X194214250Y-112231851D02*
X194208669Y-112074880D01*
X194208669Y-112074880D02*
X194187247Y-111992434D01*
X194187247Y-111992434D02*
X194157904Y-111947251D01*
X194157904Y-111947251D02*
X194091299Y-111894147D01*
X193569620Y-111783261D02*
X193085204Y-111680295D01*
X193085204Y-111680295D02*
X193282680Y-112033840D01*
X193282680Y-112033840D02*
X193170892Y-112010079D01*
X193170892Y-112010079D02*
X193088446Y-112031501D01*
X193088446Y-112031501D02*
X193043263Y-112060843D01*
X193043263Y-112060843D02*
X192990159Y-112127448D01*
X192990159Y-112127448D02*
X192950557Y-112313762D01*
X192950557Y-112313762D02*
X192971979Y-112396208D01*
X192971979Y-112396208D02*
X193001321Y-112441391D01*
X193001321Y-112441391D02*
X193067926Y-112494495D01*
X193067926Y-112494495D02*
X193291503Y-112542017D01*
X193291503Y-112542017D02*
X193373949Y-112520596D01*
X193373949Y-112520596D02*
X193419132Y-112491253D01*
X192173620Y-112304404D02*
X192620773Y-112399449D01*
X192397196Y-112351927D02*
X192563526Y-111569409D01*
X192563526Y-111569409D02*
X192614290Y-111697038D01*
X192614290Y-111697038D02*
X192672974Y-111787404D01*
X192672974Y-111787404D02*
X192739579Y-111840508D01*
X179663177Y-125225700D02*
X180110330Y-125320745D01*
X179886753Y-125273223D02*
X180053083Y-124490705D01*
X180053083Y-124490705D02*
X180103847Y-124618334D01*
X180103847Y-124618334D02*
X180162531Y-124708700D01*
X180162531Y-124708700D02*
X180229137Y-124761804D01*
X179345090Y-124340216D02*
X179270564Y-124324375D01*
X179270564Y-124324375D02*
X179188118Y-124345797D01*
X179188118Y-124345797D02*
X179142935Y-124375139D01*
X179142935Y-124375139D02*
X179089831Y-124441744D01*
X179089831Y-124441744D02*
X179020887Y-124582875D01*
X179020887Y-124582875D02*
X178981285Y-124769189D01*
X178981285Y-124769189D02*
X178986866Y-124926160D01*
X178986866Y-124926160D02*
X179008288Y-125008606D01*
X179008288Y-125008606D02*
X179037630Y-125053790D01*
X179037630Y-125053790D02*
X179104235Y-125106893D01*
X179104235Y-125106893D02*
X179178760Y-125122734D01*
X179178760Y-125122734D02*
X179261206Y-125101312D01*
X179261206Y-125101312D02*
X179306390Y-125071970D01*
X179306390Y-125071970D02*
X179359493Y-125005365D01*
X179359493Y-125005365D02*
X179428438Y-124864234D01*
X179428438Y-124864234D02*
X179468040Y-124677920D01*
X179468040Y-124677920D02*
X179462459Y-124520949D01*
X179462459Y-124520949D02*
X179441037Y-124438503D01*
X179441037Y-124438503D02*
X179411695Y-124393320D01*
X179411695Y-124393320D02*
X179345090Y-124340216D01*
X178358077Y-124403044D02*
X178247191Y-124924723D01*
X178607755Y-124144544D02*
X178675262Y-124743088D01*
X178675262Y-124743088D02*
X178190846Y-124640122D01*
X195400631Y-104421165D02*
X195483077Y-104399744D01*
X195483077Y-104399744D02*
X195594865Y-104423505D01*
X195594865Y-104423505D02*
X195698733Y-104484529D01*
X195698733Y-104484529D02*
X195757417Y-104574895D01*
X195757417Y-104574895D02*
X195778839Y-104657341D01*
X195778839Y-104657341D02*
X195784420Y-104814313D01*
X195784420Y-104814313D02*
X195760659Y-104926101D01*
X195760659Y-104926101D02*
X195691714Y-105067232D01*
X195691714Y-105067232D02*
X195638611Y-105133837D01*
X195638611Y-105133837D02*
X195548244Y-105192522D01*
X195548244Y-105192522D02*
X195428536Y-105206023D01*
X195428536Y-105206023D02*
X195354010Y-105190182D01*
X195354010Y-105190182D02*
X195250142Y-105129158D01*
X195250142Y-105129158D02*
X195220800Y-105083975D01*
X195220800Y-105083975D02*
X195276243Y-104823135D01*
X195276243Y-104823135D02*
X195425294Y-104854817D01*
X194869594Y-105087216D02*
X195035923Y-104304698D01*
X195035923Y-104304698D02*
X194422441Y-104992171D01*
X194422441Y-104992171D02*
X194588770Y-104209653D01*
X194049813Y-104912967D02*
X194216143Y-104130448D01*
X194216143Y-104130448D02*
X194029829Y-104090846D01*
X194029829Y-104090846D02*
X193910120Y-104104348D01*
X193910120Y-104104348D02*
X193819754Y-104163032D01*
X193819754Y-104163032D02*
X193766650Y-104229637D01*
X193766650Y-104229637D02*
X193697706Y-104370768D01*
X193697706Y-104370768D02*
X193673944Y-104482556D01*
X193673944Y-104482556D02*
X193679525Y-104639528D01*
X193679525Y-104639528D02*
X193700947Y-104721974D01*
X193700947Y-104721974D02*
X193759632Y-104812340D01*
X193759632Y-104812340D02*
X193863500Y-104873364D01*
X193863500Y-104873364D02*
X194049813Y-104912967D01*
X183256840Y-109601436D02*
X183182315Y-109585595D01*
X183182315Y-109585595D02*
X183099869Y-109607017D01*
X183099869Y-109607017D02*
X183054686Y-109636359D01*
X183054686Y-109636359D02*
X183001582Y-109702964D01*
X183001582Y-109702964D02*
X182932637Y-109844095D01*
X182932637Y-109844095D02*
X182893035Y-110030409D01*
X182893035Y-110030409D02*
X182898616Y-110187380D01*
X182898616Y-110187380D02*
X182920038Y-110269826D01*
X182920038Y-110269826D02*
X182949380Y-110315009D01*
X182949380Y-110315009D02*
X183015985Y-110368113D01*
X183015985Y-110368113D02*
X183090511Y-110383954D01*
X183090511Y-110383954D02*
X183172957Y-110362532D01*
X183172957Y-110362532D02*
X183218140Y-110333190D01*
X183218140Y-110333190D02*
X183271244Y-110266585D01*
X183271244Y-110266585D02*
X183340188Y-110125454D01*
X183340188Y-110125454D02*
X183379791Y-109939140D01*
X183379791Y-109939140D02*
X183374210Y-109782169D01*
X183374210Y-109782169D02*
X183352788Y-109699723D01*
X183352788Y-109699723D02*
X183323445Y-109654540D01*
X183323445Y-109654540D02*
X183256840Y-109601436D01*
X182084416Y-110170102D02*
X182531569Y-110265147D01*
X182307993Y-110217625D02*
X182474322Y-109435107D01*
X182474322Y-109435107D02*
X182525086Y-109562736D01*
X182525086Y-109562736D02*
X182583771Y-109653102D01*
X182583771Y-109653102D02*
X182650376Y-109706206D01*
X181989906Y-109332141D02*
X181468227Y-109221254D01*
X181468227Y-109221254D02*
X181637263Y-110075057D01*
X190922724Y-126801117D02*
X190848199Y-126785276D01*
X190848199Y-126785276D02*
X190765753Y-126806698D01*
X190765753Y-126806698D02*
X190720570Y-126836040D01*
X190720570Y-126836040D02*
X190667466Y-126902645D01*
X190667466Y-126902645D02*
X190598521Y-127043776D01*
X190598521Y-127043776D02*
X190558919Y-127230090D01*
X190558919Y-127230090D02*
X190564500Y-127387061D01*
X190564500Y-127387061D02*
X190585922Y-127469507D01*
X190585922Y-127469507D02*
X190615264Y-127514690D01*
X190615264Y-127514690D02*
X190681869Y-127567794D01*
X190681869Y-127567794D02*
X190756395Y-127583635D01*
X190756395Y-127583635D02*
X190838841Y-127562213D01*
X190838841Y-127562213D02*
X190884024Y-127532871D01*
X190884024Y-127532871D02*
X190937128Y-127466266D01*
X190937128Y-127466266D02*
X191006072Y-127325135D01*
X191006072Y-127325135D02*
X191045675Y-127138821D01*
X191045675Y-127138821D02*
X191040094Y-126981850D01*
X191040094Y-126981850D02*
X191018672Y-126899404D01*
X191018672Y-126899404D02*
X190989329Y-126854221D01*
X190989329Y-126854221D02*
X190922724Y-126801117D01*
X189750300Y-127369783D02*
X190197453Y-127464828D01*
X189973877Y-127417306D02*
X190140206Y-126634788D01*
X190140206Y-126634788D02*
X190190970Y-126762417D01*
X190190970Y-126762417D02*
X190249655Y-126852783D01*
X190249655Y-126852783D02*
X190316260Y-126905887D01*
X189432213Y-126484299D02*
X189357688Y-126468458D01*
X189357688Y-126468458D02*
X189275242Y-126489880D01*
X189275242Y-126489880D02*
X189230059Y-126519222D01*
X189230059Y-126519222D02*
X189176955Y-126585827D01*
X189176955Y-126585827D02*
X189108010Y-126726958D01*
X189108010Y-126726958D02*
X189068408Y-126913272D01*
X189068408Y-126913272D02*
X189073989Y-127070243D01*
X189073989Y-127070243D02*
X189095411Y-127152689D01*
X189095411Y-127152689D02*
X189124753Y-127197873D01*
X189124753Y-127197873D02*
X189191358Y-127250976D01*
X189191358Y-127250976D02*
X189265884Y-127266817D01*
X189265884Y-127266817D02*
X189348330Y-127245395D01*
X189348330Y-127245395D02*
X189393513Y-127216053D01*
X189393513Y-127216053D02*
X189446617Y-127149448D01*
X189446617Y-127149448D02*
X189515561Y-127008317D01*
X189515561Y-127008317D02*
X189555164Y-126822003D01*
X189555164Y-126822003D02*
X189549583Y-126665032D01*
X189549583Y-126665032D02*
X189528161Y-126582586D01*
X189528161Y-126582586D02*
X189498818Y-126537403D01*
X189498818Y-126537403D02*
X189432213Y-126484299D01*
X182196491Y-114589988D02*
X182121966Y-114574147D01*
X182121966Y-114574147D02*
X182039520Y-114595569D01*
X182039520Y-114595569D02*
X181994337Y-114624911D01*
X181994337Y-114624911D02*
X181941233Y-114691516D01*
X181941233Y-114691516D02*
X181872288Y-114832647D01*
X181872288Y-114832647D02*
X181832686Y-115018961D01*
X181832686Y-115018961D02*
X181838267Y-115175932D01*
X181838267Y-115175932D02*
X181859689Y-115258378D01*
X181859689Y-115258378D02*
X181889031Y-115303561D01*
X181889031Y-115303561D02*
X181955636Y-115356665D01*
X181955636Y-115356665D02*
X182030162Y-115372506D01*
X182030162Y-115372506D02*
X182112608Y-115351084D01*
X182112608Y-115351084D02*
X182157791Y-115321742D01*
X182157791Y-115321742D02*
X182210895Y-115255137D01*
X182210895Y-115255137D02*
X182279839Y-115114006D01*
X182279839Y-115114006D02*
X182319442Y-114927692D01*
X182319442Y-114927692D02*
X182313861Y-114770721D01*
X182313861Y-114770721D02*
X182292439Y-114688275D01*
X182292439Y-114688275D02*
X182263096Y-114643092D01*
X182263096Y-114643092D02*
X182196491Y-114589988D01*
X181621709Y-114545707D02*
X181592366Y-114500524D01*
X181592366Y-114500524D02*
X181525761Y-114447420D01*
X181525761Y-114447420D02*
X181339448Y-114407818D01*
X181339448Y-114407818D02*
X181257002Y-114429240D01*
X181257002Y-114429240D02*
X181211818Y-114458582D01*
X181211818Y-114458582D02*
X181158715Y-114525187D01*
X181158715Y-114525187D02*
X181142874Y-114599712D01*
X181142874Y-114599712D02*
X181156375Y-114719421D01*
X181156375Y-114719421D02*
X181508483Y-115261620D01*
X181508483Y-115261620D02*
X181024067Y-115158654D01*
X180876453Y-114387298D02*
X180847111Y-114342115D01*
X180847111Y-114342115D02*
X180780506Y-114289011D01*
X180780506Y-114289011D02*
X180594192Y-114249409D01*
X180594192Y-114249409D02*
X180511746Y-114270831D01*
X180511746Y-114270831D02*
X180466563Y-114300173D01*
X180466563Y-114300173D02*
X180413459Y-114366778D01*
X180413459Y-114366778D02*
X180397618Y-114441304D01*
X180397618Y-114441304D02*
X180411120Y-114561012D01*
X180411120Y-114561012D02*
X180763228Y-115103211D01*
X180763228Y-115103211D02*
X180278812Y-115000245D01*
X180719369Y-120256709D02*
X181166522Y-120351754D01*
X180942945Y-120304232D02*
X181109275Y-119521714D01*
X181109275Y-119521714D02*
X181160039Y-119649343D01*
X181160039Y-119649343D02*
X181218723Y-119739709D01*
X181218723Y-119739709D02*
X181285329Y-119792813D01*
X180401282Y-119371225D02*
X180326756Y-119355384D01*
X180326756Y-119355384D02*
X180244310Y-119376806D01*
X180244310Y-119376806D02*
X180199127Y-119406148D01*
X180199127Y-119406148D02*
X180146023Y-119472753D01*
X180146023Y-119472753D02*
X180077079Y-119613884D01*
X180077079Y-119613884D02*
X180037477Y-119800198D01*
X180037477Y-119800198D02*
X180043058Y-119957169D01*
X180043058Y-119957169D02*
X180064480Y-120039615D01*
X180064480Y-120039615D02*
X180093822Y-120084799D01*
X180093822Y-120084799D02*
X180160427Y-120137902D01*
X180160427Y-120137902D02*
X180234952Y-120153743D01*
X180234952Y-120153743D02*
X180317398Y-120132321D01*
X180317398Y-120132321D02*
X180362582Y-120102979D01*
X180362582Y-120102979D02*
X180415685Y-120036374D01*
X180415685Y-120036374D02*
X180484630Y-119895243D01*
X180484630Y-119895243D02*
X180524232Y-119708929D01*
X180524232Y-119708929D02*
X180518651Y-119551958D01*
X180518651Y-119551958D02*
X180497229Y-119469512D01*
X180497229Y-119469512D02*
X180467887Y-119424329D01*
X180467887Y-119424329D02*
X180401282Y-119371225D01*
X179656026Y-119212816D02*
X179581501Y-119196975D01*
X179581501Y-119196975D02*
X179499055Y-119218397D01*
X179499055Y-119218397D02*
X179453872Y-119247739D01*
X179453872Y-119247739D02*
X179400768Y-119314344D01*
X179400768Y-119314344D02*
X179331823Y-119455475D01*
X179331823Y-119455475D02*
X179292221Y-119641789D01*
X179292221Y-119641789D02*
X179297802Y-119798760D01*
X179297802Y-119798760D02*
X179319224Y-119881206D01*
X179319224Y-119881206D02*
X179348566Y-119926390D01*
X179348566Y-119926390D02*
X179415171Y-119979493D01*
X179415171Y-119979493D02*
X179489697Y-119995334D01*
X179489697Y-119995334D02*
X179572143Y-119973912D01*
X179572143Y-119973912D02*
X179617326Y-119944570D01*
X179617326Y-119944570D02*
X179670430Y-119877965D01*
X179670430Y-119877965D02*
X179739374Y-119736834D01*
X179739374Y-119736834D02*
X179778977Y-119550520D01*
X179778977Y-119550520D02*
X179773396Y-119393549D01*
X179773396Y-119393549D02*
X179751974Y-119311103D01*
X179751974Y-119311103D02*
X179722631Y-119265920D01*
X179722631Y-119265920D02*
X179656026Y-119212816D01*
X185371302Y-99653674D02*
X185296777Y-99637833D01*
X185296777Y-99637833D02*
X185214331Y-99659255D01*
X185214331Y-99659255D02*
X185169148Y-99688597D01*
X185169148Y-99688597D02*
X185116044Y-99755202D01*
X185116044Y-99755202D02*
X185047099Y-99896333D01*
X185047099Y-99896333D02*
X185007497Y-100082647D01*
X185007497Y-100082647D02*
X185013078Y-100239618D01*
X185013078Y-100239618D02*
X185034500Y-100322064D01*
X185034500Y-100322064D02*
X185063842Y-100367247D01*
X185063842Y-100367247D02*
X185130447Y-100420351D01*
X185130447Y-100420351D02*
X185204973Y-100436192D01*
X185204973Y-100436192D02*
X185287419Y-100414770D01*
X185287419Y-100414770D02*
X185332602Y-100385428D01*
X185332602Y-100385428D02*
X185385706Y-100318823D01*
X185385706Y-100318823D02*
X185454650Y-100177692D01*
X185454650Y-100177692D02*
X185494253Y-99991378D01*
X185494253Y-99991378D02*
X185488672Y-99834407D01*
X185488672Y-99834407D02*
X185467250Y-99751961D01*
X185467250Y-99751961D02*
X185437907Y-99706778D01*
X185437907Y-99706778D02*
X185371302Y-99653674D01*
X184626047Y-99495265D02*
X184551521Y-99479424D01*
X184551521Y-99479424D02*
X184469075Y-99500846D01*
X184469075Y-99500846D02*
X184423892Y-99530188D01*
X184423892Y-99530188D02*
X184370788Y-99596793D01*
X184370788Y-99596793D02*
X184301844Y-99737924D01*
X184301844Y-99737924D02*
X184262242Y-99924238D01*
X184262242Y-99924238D02*
X184267823Y-100081209D01*
X184267823Y-100081209D02*
X184289245Y-100163655D01*
X184289245Y-100163655D02*
X184318587Y-100208839D01*
X184318587Y-100208839D02*
X184385192Y-100261942D01*
X184385192Y-100261942D02*
X184459717Y-100277783D01*
X184459717Y-100277783D02*
X184542163Y-100256361D01*
X184542163Y-100256361D02*
X184587347Y-100227019D01*
X184587347Y-100227019D02*
X184640450Y-100160414D01*
X184640450Y-100160414D02*
X184709395Y-100019283D01*
X184709395Y-100019283D02*
X184748997Y-99832969D01*
X184748997Y-99832969D02*
X184743416Y-99675998D01*
X184743416Y-99675998D02*
X184721994Y-99593552D01*
X184721994Y-99593552D02*
X184692652Y-99548369D01*
X184692652Y-99548369D02*
X184626047Y-99495265D01*
X183694477Y-99297254D02*
X183843529Y-99328936D01*
X183843529Y-99328936D02*
X183910134Y-99382039D01*
X183910134Y-99382039D02*
X183939476Y-99427222D01*
X183939476Y-99427222D02*
X183990240Y-99554852D01*
X183990240Y-99554852D02*
X183995821Y-99711823D01*
X183995821Y-99711823D02*
X183932458Y-100009925D01*
X183932458Y-100009925D02*
X183879354Y-100076530D01*
X183879354Y-100076530D02*
X183834171Y-100105873D01*
X183834171Y-100105873D02*
X183751725Y-100127295D01*
X183751725Y-100127295D02*
X183602674Y-100095613D01*
X183602674Y-100095613D02*
X183536069Y-100042509D01*
X183536069Y-100042509D02*
X183506726Y-99997326D01*
X183506726Y-99997326D02*
X183485304Y-99914880D01*
X183485304Y-99914880D02*
X183524907Y-99728566D01*
X183524907Y-99728566D02*
X183578010Y-99661961D01*
X183578010Y-99661961D02*
X183623193Y-99632619D01*
X183623193Y-99632619D02*
X183705639Y-99611197D01*
X183705639Y-99611197D02*
X183854690Y-99642879D01*
X183854690Y-99642879D02*
X183921296Y-99695982D01*
X183921296Y-99695982D02*
X183950638Y-99741165D01*
X183950638Y-99741165D02*
X183972060Y-99823611D01*
X195733056Y-102674005D02*
X196073100Y-102356821D01*
X196180209Y-102769051D02*
X196346539Y-101986532D01*
X196346539Y-101986532D02*
X196048437Y-101923169D01*
X196048437Y-101923169D02*
X195965991Y-101944591D01*
X195965991Y-101944591D02*
X195920807Y-101973933D01*
X195920807Y-101973933D02*
X195867704Y-102040538D01*
X195867704Y-102040538D02*
X195843942Y-102152326D01*
X195843942Y-102152326D02*
X195865364Y-102234772D01*
X195865364Y-102234772D02*
X195894707Y-102279956D01*
X195894707Y-102279956D02*
X195961312Y-102333059D01*
X195961312Y-102333059D02*
X196259414Y-102396423D01*
X195482477Y-102387065D02*
X195109849Y-102307861D01*
X195509480Y-102626483D02*
X195414970Y-101788521D01*
X195414970Y-101788521D02*
X194987801Y-102515596D01*
X194967817Y-101693476D02*
X194615173Y-102436392D01*
X194615173Y-102436392D02*
X194584929Y-101845769D01*
X194584929Y-101845769D02*
X194317071Y-102373028D01*
X194317071Y-102373028D02*
X194297087Y-101550908D01*
X193563203Y-114378642D02*
X193488678Y-114362801D01*
X193488678Y-114362801D02*
X193406232Y-114384223D01*
X193406232Y-114384223D02*
X193361049Y-114413565D01*
X193361049Y-114413565D02*
X193307945Y-114480170D01*
X193307945Y-114480170D02*
X193239000Y-114621301D01*
X193239000Y-114621301D02*
X193199398Y-114807615D01*
X193199398Y-114807615D02*
X193204979Y-114964586D01*
X193204979Y-114964586D02*
X193226401Y-115047032D01*
X193226401Y-115047032D02*
X193255743Y-115092215D01*
X193255743Y-115092215D02*
X193322348Y-115145319D01*
X193322348Y-115145319D02*
X193396874Y-115161160D01*
X193396874Y-115161160D02*
X193479320Y-115139738D01*
X193479320Y-115139738D02*
X193524503Y-115110396D01*
X193524503Y-115110396D02*
X193577607Y-115043791D01*
X193577607Y-115043791D02*
X193646551Y-114902660D01*
X193646551Y-114902660D02*
X193686154Y-114716346D01*
X193686154Y-114716346D02*
X193680573Y-114559375D01*
X193680573Y-114559375D02*
X193659151Y-114476929D01*
X193659151Y-114476929D02*
X193629808Y-114431746D01*
X193629808Y-114431746D02*
X193563203Y-114378642D01*
X192988421Y-114334361D02*
X192959078Y-114289178D01*
X192959078Y-114289178D02*
X192892473Y-114236074D01*
X192892473Y-114236074D02*
X192706160Y-114196472D01*
X192706160Y-114196472D02*
X192623714Y-114217894D01*
X192623714Y-114217894D02*
X192578530Y-114247236D01*
X192578530Y-114247236D02*
X192525427Y-114313841D01*
X192525427Y-114313841D02*
X192509586Y-114388366D01*
X192509586Y-114388366D02*
X192523087Y-114508075D01*
X192523087Y-114508075D02*
X192875195Y-115050274D01*
X192875195Y-115050274D02*
X192390779Y-114947308D01*
X192018151Y-114868103D02*
X191869100Y-114836422D01*
X191869100Y-114836422D02*
X191802495Y-114783318D01*
X191802495Y-114783318D02*
X191773153Y-114738135D01*
X191773153Y-114738135D02*
X191722389Y-114610506D01*
X191722389Y-114610506D02*
X191716808Y-114453534D01*
X191716808Y-114453534D02*
X191780171Y-114155432D01*
X191780171Y-114155432D02*
X191833275Y-114088827D01*
X191833275Y-114088827D02*
X191878458Y-114059485D01*
X191878458Y-114059485D02*
X191960904Y-114038063D01*
X191960904Y-114038063D02*
X192109955Y-114069744D01*
X192109955Y-114069744D02*
X192176560Y-114122848D01*
X192176560Y-114122848D02*
X192205902Y-114168031D01*
X192205902Y-114168031D02*
X192227324Y-114250477D01*
X192227324Y-114250477D02*
X192187722Y-114436791D01*
X192187722Y-114436791D02*
X192134618Y-114503396D01*
X192134618Y-114503396D02*
X192089435Y-114532739D01*
X192089435Y-114532739D02*
X192006989Y-114554160D01*
X192006989Y-114554160D02*
X191857938Y-114522479D01*
X191857938Y-114522479D02*
X191791333Y-114469375D01*
X191791333Y-114469375D02*
X191761991Y-114424192D01*
X191761991Y-114424192D02*
X191740569Y-114341746D01*
X184857760Y-102069699D02*
X184783235Y-102053858D01*
X184783235Y-102053858D02*
X184700789Y-102075280D01*
X184700789Y-102075280D02*
X184655606Y-102104622D01*
X184655606Y-102104622D02*
X184602502Y-102171227D01*
X184602502Y-102171227D02*
X184533557Y-102312358D01*
X184533557Y-102312358D02*
X184493955Y-102498672D01*
X184493955Y-102498672D02*
X184499536Y-102655643D01*
X184499536Y-102655643D02*
X184520958Y-102738089D01*
X184520958Y-102738089D02*
X184550300Y-102783272D01*
X184550300Y-102783272D02*
X184616905Y-102836376D01*
X184616905Y-102836376D02*
X184691431Y-102852217D01*
X184691431Y-102852217D02*
X184773877Y-102830795D01*
X184773877Y-102830795D02*
X184819060Y-102801453D01*
X184819060Y-102801453D02*
X184872164Y-102734848D01*
X184872164Y-102734848D02*
X184941108Y-102593717D01*
X184941108Y-102593717D02*
X184980711Y-102407403D01*
X184980711Y-102407403D02*
X184975130Y-102250432D01*
X184975130Y-102250432D02*
X184953708Y-102167986D01*
X184953708Y-102167986D02*
X184924365Y-102122803D01*
X184924365Y-102122803D02*
X184857760Y-102069699D01*
X184112505Y-101911290D02*
X184037979Y-101895449D01*
X184037979Y-101895449D02*
X183955533Y-101916871D01*
X183955533Y-101916871D02*
X183910350Y-101946213D01*
X183910350Y-101946213D02*
X183857246Y-102012818D01*
X183857246Y-102012818D02*
X183788302Y-102153949D01*
X183788302Y-102153949D02*
X183748700Y-102340263D01*
X183748700Y-102340263D02*
X183754281Y-102497234D01*
X183754281Y-102497234D02*
X183775703Y-102579680D01*
X183775703Y-102579680D02*
X183805045Y-102624864D01*
X183805045Y-102624864D02*
X183871650Y-102677967D01*
X183871650Y-102677967D02*
X183946175Y-102693808D01*
X183946175Y-102693808D02*
X184028621Y-102672386D01*
X184028621Y-102672386D02*
X184073805Y-102643044D01*
X184073805Y-102643044D02*
X184126908Y-102576439D01*
X184126908Y-102576439D02*
X184195853Y-102435308D01*
X184195853Y-102435308D02*
X184235455Y-102248994D01*
X184235455Y-102248994D02*
X184229874Y-102092023D01*
X184229874Y-102092023D02*
X184208452Y-102009577D01*
X184208452Y-102009577D02*
X184179110Y-101964394D01*
X184179110Y-101964394D02*
X184112505Y-101911290D01*
X183333228Y-102096166D02*
X183415674Y-102074745D01*
X183415674Y-102074745D02*
X183460857Y-102045402D01*
X183460857Y-102045402D02*
X183513961Y-101978797D01*
X183513961Y-101978797D02*
X183521881Y-101941534D01*
X183521881Y-101941534D02*
X183500459Y-101859088D01*
X183500459Y-101859088D02*
X183471117Y-101813905D01*
X183471117Y-101813905D02*
X183404512Y-101760801D01*
X183404512Y-101760801D02*
X183255461Y-101729120D01*
X183255461Y-101729120D02*
X183173015Y-101750542D01*
X183173015Y-101750542D02*
X183127832Y-101779884D01*
X183127832Y-101779884D02*
X183074728Y-101846489D01*
X183074728Y-101846489D02*
X183066808Y-101883752D01*
X183066808Y-101883752D02*
X183088230Y-101966198D01*
X183088230Y-101966198D02*
X183117572Y-102011381D01*
X183117572Y-102011381D02*
X183184177Y-102064485D01*
X183184177Y-102064485D02*
X183333228Y-102096166D01*
X183333228Y-102096166D02*
X183399833Y-102149270D01*
X183399833Y-102149270D02*
X183429175Y-102194453D01*
X183429175Y-102194453D02*
X183450597Y-102276899D01*
X183450597Y-102276899D02*
X183418916Y-102425950D01*
X183418916Y-102425950D02*
X183365812Y-102492555D01*
X183365812Y-102492555D02*
X183320629Y-102521898D01*
X183320629Y-102521898D02*
X183238183Y-102543320D01*
X183238183Y-102543320D02*
X183089132Y-102511638D01*
X183089132Y-102511638D02*
X183022527Y-102458534D01*
X183022527Y-102458534D02*
X182993184Y-102413351D01*
X182993184Y-102413351D02*
X182971762Y-102330905D01*
X182971762Y-102330905D02*
X183003444Y-102181854D01*
X183003444Y-102181854D02*
X183056548Y-102115249D01*
X183056548Y-102115249D02*
X183101731Y-102085906D01*
X183101731Y-102085906D02*
X183184177Y-102064485D01*
X184195402Y-104636165D02*
X184277848Y-104614744D01*
X184277848Y-104614744D02*
X184389636Y-104638505D01*
X184389636Y-104638505D02*
X184493504Y-104699529D01*
X184493504Y-104699529D02*
X184552188Y-104789895D01*
X184552188Y-104789895D02*
X184573610Y-104872341D01*
X184573610Y-104872341D02*
X184579191Y-105029313D01*
X184579191Y-105029313D02*
X184555430Y-105141101D01*
X184555430Y-105141101D02*
X184486485Y-105282232D01*
X184486485Y-105282232D02*
X184433382Y-105348837D01*
X184433382Y-105348837D02*
X184343015Y-105407522D01*
X184343015Y-105407522D02*
X184223307Y-105421023D01*
X184223307Y-105421023D02*
X184148781Y-105405182D01*
X184148781Y-105405182D02*
X184044913Y-105344158D01*
X184044913Y-105344158D02*
X184015571Y-105298975D01*
X184015571Y-105298975D02*
X184071014Y-105038135D01*
X184071014Y-105038135D02*
X184220065Y-105069817D01*
X183664365Y-105302216D02*
X183830694Y-104519698D01*
X183830694Y-104519698D02*
X183217212Y-105207171D01*
X183217212Y-105207171D02*
X183383541Y-104424653D01*
X182844584Y-105127967D02*
X183010914Y-104345448D01*
X183010914Y-104345448D02*
X182824600Y-104305846D01*
X182824600Y-104305846D02*
X182704891Y-104319348D01*
X182704891Y-104319348D02*
X182614525Y-104378032D01*
X182614525Y-104378032D02*
X182561421Y-104444637D01*
X182561421Y-104444637D02*
X182492477Y-104585768D01*
X182492477Y-104585768D02*
X182468715Y-104697556D01*
X182468715Y-104697556D02*
X182474296Y-104854528D01*
X182474296Y-104854528D02*
X182495718Y-104936974D01*
X182495718Y-104936974D02*
X182554403Y-105027340D01*
X182554403Y-105027340D02*
X182658271Y-105088364D01*
X182658271Y-105088364D02*
X182844584Y-105127967D01*
X191551748Y-122559202D02*
X191998901Y-122654247D01*
X191775324Y-122606725D02*
X191941654Y-121824207D01*
X191941654Y-121824207D02*
X191992418Y-121951836D01*
X191992418Y-121951836D02*
X192051102Y-122042202D01*
X192051102Y-122042202D02*
X192117708Y-122095306D01*
X190806492Y-122400793D02*
X191253645Y-122495838D01*
X191030069Y-122448316D02*
X191196398Y-121665798D01*
X191196398Y-121665798D02*
X191247162Y-121793427D01*
X191247162Y-121793427D02*
X191305847Y-121883793D01*
X191305847Y-121883793D02*
X191372452Y-121936897D01*
X190711982Y-121562832D02*
X190227566Y-121459866D01*
X190227566Y-121459866D02*
X190425042Y-121813411D01*
X190425042Y-121813411D02*
X190313253Y-121789650D01*
X190313253Y-121789650D02*
X190230807Y-121811072D01*
X190230807Y-121811072D02*
X190185624Y-121840414D01*
X190185624Y-121840414D02*
X190132521Y-121907019D01*
X190132521Y-121907019D02*
X190092918Y-122093333D01*
X190092918Y-122093333D02*
X190114340Y-122175779D01*
X190114340Y-122175779D02*
X190143683Y-122220962D01*
X190143683Y-122220962D02*
X190210288Y-122274066D01*
X190210288Y-122274066D02*
X190433864Y-122321588D01*
X190433864Y-122321588D02*
X190516310Y-122300167D01*
X190516310Y-122300167D02*
X190561493Y-122270824D01*
X182716270Y-112144619D02*
X182641745Y-112128778D01*
X182641745Y-112128778D02*
X182559299Y-112150200D01*
X182559299Y-112150200D02*
X182514116Y-112179542D01*
X182514116Y-112179542D02*
X182461012Y-112246147D01*
X182461012Y-112246147D02*
X182392067Y-112387278D01*
X182392067Y-112387278D02*
X182352465Y-112573592D01*
X182352465Y-112573592D02*
X182358046Y-112730563D01*
X182358046Y-112730563D02*
X182379468Y-112813009D01*
X182379468Y-112813009D02*
X182408810Y-112858192D01*
X182408810Y-112858192D02*
X182475415Y-112911296D01*
X182475415Y-112911296D02*
X182549941Y-112927137D01*
X182549941Y-112927137D02*
X182632387Y-112905715D01*
X182632387Y-112905715D02*
X182677570Y-112876373D01*
X182677570Y-112876373D02*
X182730674Y-112809768D01*
X182730674Y-112809768D02*
X182799618Y-112668637D01*
X182799618Y-112668637D02*
X182839221Y-112482323D01*
X182839221Y-112482323D02*
X182833640Y-112325352D01*
X182833640Y-112325352D02*
X182812218Y-112242906D01*
X182812218Y-112242906D02*
X182782875Y-112197723D01*
X182782875Y-112197723D02*
X182716270Y-112144619D01*
X182141488Y-112100338D02*
X182112145Y-112055155D01*
X182112145Y-112055155D02*
X182045540Y-112002051D01*
X182045540Y-112002051D02*
X181859227Y-111962449D01*
X181859227Y-111962449D02*
X181776781Y-111983871D01*
X181776781Y-111983871D02*
X181731597Y-112013213D01*
X181731597Y-112013213D02*
X181678494Y-112079818D01*
X181678494Y-112079818D02*
X181662653Y-112154343D01*
X181662653Y-112154343D02*
X181676154Y-112274052D01*
X181676154Y-112274052D02*
X182028262Y-112816251D01*
X182028262Y-112816251D02*
X181543846Y-112713285D01*
X181225759Y-111827801D02*
X181151234Y-111811960D01*
X181151234Y-111811960D02*
X181068788Y-111833382D01*
X181068788Y-111833382D02*
X181023605Y-111862724D01*
X181023605Y-111862724D02*
X180970501Y-111929329D01*
X180970501Y-111929329D02*
X180901556Y-112070460D01*
X180901556Y-112070460D02*
X180861954Y-112256774D01*
X180861954Y-112256774D02*
X180867535Y-112413745D01*
X180867535Y-112413745D02*
X180888957Y-112496191D01*
X180888957Y-112496191D02*
X180918299Y-112541375D01*
X180918299Y-112541375D02*
X180984904Y-112594478D01*
X180984904Y-112594478D02*
X181059430Y-112610319D01*
X181059430Y-112610319D02*
X181141876Y-112588897D01*
X181141876Y-112588897D02*
X181187059Y-112559555D01*
X181187059Y-112559555D02*
X181240163Y-112492950D01*
X181240163Y-112492950D02*
X181309107Y-112351819D01*
X181309107Y-112351819D02*
X181348710Y-112165505D01*
X181348710Y-112165505D02*
X181343129Y-112008534D01*
X181343129Y-112008534D02*
X181321707Y-111926088D01*
X181321707Y-111926088D02*
X181292364Y-111880905D01*
X181292364Y-111880905D02*
X181225759Y-111827801D01*
X191023652Y-125043697D02*
X191470805Y-125138742D01*
X191247228Y-125091220D02*
X191413558Y-124308702D01*
X191413558Y-124308702D02*
X191464322Y-124436331D01*
X191464322Y-124436331D02*
X191523006Y-124526697D01*
X191523006Y-124526697D02*
X191589612Y-124579801D01*
X190278396Y-124885288D02*
X190725549Y-124980333D01*
X190501973Y-124932811D02*
X190668302Y-124150293D01*
X190668302Y-124150293D02*
X190719066Y-124277922D01*
X190719066Y-124277922D02*
X190777751Y-124368288D01*
X190777751Y-124368288D02*
X190844356Y-124421392D01*
X189533141Y-124726879D02*
X189980294Y-124821924D01*
X189756717Y-124774402D02*
X189923047Y-123991884D01*
X189923047Y-123991884D02*
X189973811Y-124119513D01*
X189973811Y-124119513D02*
X190032495Y-124209879D01*
X190032495Y-124209879D02*
X190099100Y-124262983D01*
X192079844Y-120074707D02*
X192526997Y-120169752D01*
X192303420Y-120122230D02*
X192469750Y-119339712D01*
X192469750Y-119339712D02*
X192520514Y-119467341D01*
X192520514Y-119467341D02*
X192579198Y-119557707D01*
X192579198Y-119557707D02*
X192645804Y-119610811D01*
X191334588Y-119916298D02*
X191781741Y-120011343D01*
X191558165Y-119963821D02*
X191724494Y-119181303D01*
X191724494Y-119181303D02*
X191775258Y-119308932D01*
X191775258Y-119308932D02*
X191833943Y-119399298D01*
X191833943Y-119399298D02*
X191900548Y-119452402D01*
X190792925Y-118983291D02*
X191165552Y-119062496D01*
X191165552Y-119062496D02*
X191123611Y-119443044D01*
X191123611Y-119443044D02*
X191094268Y-119397861D01*
X191094268Y-119397861D02*
X191027663Y-119344757D01*
X191027663Y-119344757D02*
X190841349Y-119305155D01*
X190841349Y-119305155D02*
X190758903Y-119326577D01*
X190758903Y-119326577D02*
X190713720Y-119355919D01*
X190713720Y-119355919D02*
X190660617Y-119422524D01*
X190660617Y-119422524D02*
X190621014Y-119608838D01*
X190621014Y-119608838D02*
X190642436Y-119691284D01*
X190642436Y-119691284D02*
X190671779Y-119736467D01*
X190671779Y-119736467D02*
X190738384Y-119789571D01*
X190738384Y-119789571D02*
X190924697Y-119829173D01*
X190924697Y-119829173D02*
X191007143Y-119807751D01*
X191007143Y-119807751D02*
X191052327Y-119778409D01*
X194676864Y-107642995D02*
X195016907Y-107325810D01*
X195124017Y-107738040D02*
X195290346Y-106955522D01*
X195290346Y-106955522D02*
X194992244Y-106892158D01*
X194992244Y-106892158D02*
X194909798Y-106913580D01*
X194909798Y-106913580D02*
X194864615Y-106942923D01*
X194864615Y-106942923D02*
X194811511Y-107009528D01*
X194811511Y-107009528D02*
X194787750Y-107121316D01*
X194787750Y-107121316D02*
X194809172Y-107203762D01*
X194809172Y-107203762D02*
X194838514Y-107248945D01*
X194838514Y-107248945D02*
X194905119Y-107302049D01*
X194905119Y-107302049D02*
X195203221Y-107365412D01*
X194386682Y-107542368D02*
X194266973Y-107555870D01*
X194266973Y-107555870D02*
X194080659Y-107516268D01*
X194080659Y-107516268D02*
X194014054Y-107463164D01*
X194014054Y-107463164D02*
X193984712Y-107417981D01*
X193984712Y-107417981D02*
X193963290Y-107335535D01*
X193963290Y-107335535D02*
X193979131Y-107261009D01*
X193979131Y-107261009D02*
X194032235Y-107194404D01*
X194032235Y-107194404D02*
X194077418Y-107165062D01*
X194077418Y-107165062D02*
X194159864Y-107143640D01*
X194159864Y-107143640D02*
X194316835Y-107138059D01*
X194316835Y-107138059D02*
X194399281Y-107116637D01*
X194399281Y-107116637D02*
X194444465Y-107087295D01*
X194444465Y-107087295D02*
X194497568Y-107020690D01*
X194497568Y-107020690D02*
X194513409Y-106946164D01*
X194513409Y-106946164D02*
X194491987Y-106863718D01*
X194491987Y-106863718D02*
X194462645Y-106818535D01*
X194462645Y-106818535D02*
X194396040Y-106765431D01*
X194396040Y-106765431D02*
X194209726Y-106725829D01*
X194209726Y-106725829D02*
X194090017Y-106739331D01*
X193874361Y-106654545D02*
X193427208Y-106559500D01*
X193484455Y-107389540D02*
X193650784Y-106607022D01*
X183667306Y-107120660D02*
X183749752Y-107099239D01*
X183749752Y-107099239D02*
X183861540Y-107123000D01*
X183861540Y-107123000D02*
X183965408Y-107184024D01*
X183965408Y-107184024D02*
X184024092Y-107274390D01*
X184024092Y-107274390D02*
X184045514Y-107356836D01*
X184045514Y-107356836D02*
X184051095Y-107513808D01*
X184051095Y-107513808D02*
X184027334Y-107625596D01*
X184027334Y-107625596D02*
X183958389Y-107766727D01*
X183958389Y-107766727D02*
X183905286Y-107833332D01*
X183905286Y-107833332D02*
X183814919Y-107892017D01*
X183814919Y-107892017D02*
X183695211Y-107905518D01*
X183695211Y-107905518D02*
X183620685Y-107889677D01*
X183620685Y-107889677D02*
X183516817Y-107828653D01*
X183516817Y-107828653D02*
X183487475Y-107783470D01*
X183487475Y-107783470D02*
X183542918Y-107522630D01*
X183542918Y-107522630D02*
X183691969Y-107554312D01*
X183136269Y-107786711D02*
X183302598Y-107004193D01*
X183302598Y-107004193D02*
X182689116Y-107691666D01*
X182689116Y-107691666D02*
X182855445Y-106909148D01*
X182316488Y-107612462D02*
X182482818Y-106829943D01*
X182482818Y-106829943D02*
X182296504Y-106790341D01*
X182296504Y-106790341D02*
X182176795Y-106803843D01*
X182176795Y-106803843D02*
X182086429Y-106862527D01*
X182086429Y-106862527D02*
X182033325Y-106929132D01*
X182033325Y-106929132D02*
X181964381Y-107070263D01*
X181964381Y-107070263D02*
X181940619Y-107182051D01*
X181940619Y-107182051D02*
X181946200Y-107339023D01*
X181946200Y-107339023D02*
X181967622Y-107421469D01*
X181967622Y-107421469D02*
X182026307Y-107511835D01*
X182026307Y-107511835D02*
X182130175Y-107572859D01*
X182130175Y-107572859D02*
X182316488Y-107612462D01*
X193035107Y-116863137D02*
X192960582Y-116847296D01*
X192960582Y-116847296D02*
X192878136Y-116868718D01*
X192878136Y-116868718D02*
X192832953Y-116898060D01*
X192832953Y-116898060D02*
X192779849Y-116964665D01*
X192779849Y-116964665D02*
X192710904Y-117105796D01*
X192710904Y-117105796D02*
X192671302Y-117292110D01*
X192671302Y-117292110D02*
X192676883Y-117449081D01*
X192676883Y-117449081D02*
X192698305Y-117531527D01*
X192698305Y-117531527D02*
X192727647Y-117576710D01*
X192727647Y-117576710D02*
X192794252Y-117629814D01*
X192794252Y-117629814D02*
X192868778Y-117645655D01*
X192868778Y-117645655D02*
X192951224Y-117624233D01*
X192951224Y-117624233D02*
X192996407Y-117594891D01*
X192996407Y-117594891D02*
X193049511Y-117528286D01*
X193049511Y-117528286D02*
X193118455Y-117387155D01*
X193118455Y-117387155D02*
X193158058Y-117200841D01*
X193158058Y-117200841D02*
X193152477Y-117043870D01*
X193152477Y-117043870D02*
X193131055Y-116961424D01*
X193131055Y-116961424D02*
X193101712Y-116916241D01*
X193101712Y-116916241D02*
X193035107Y-116863137D01*
X192289852Y-116704728D02*
X192215326Y-116688887D01*
X192215326Y-116688887D02*
X192132880Y-116710309D01*
X192132880Y-116710309D02*
X192087697Y-116739651D01*
X192087697Y-116739651D02*
X192034593Y-116806256D01*
X192034593Y-116806256D02*
X191965649Y-116947387D01*
X191965649Y-116947387D02*
X191926047Y-117133701D01*
X191926047Y-117133701D02*
X191931628Y-117290672D01*
X191931628Y-117290672D02*
X191953050Y-117373118D01*
X191953050Y-117373118D02*
X191982392Y-117418302D01*
X191982392Y-117418302D02*
X192048997Y-117471405D01*
X192048997Y-117471405D02*
X192123522Y-117487246D01*
X192123522Y-117487246D02*
X192205968Y-117465824D01*
X192205968Y-117465824D02*
X192251152Y-117436482D01*
X192251152Y-117436482D02*
X192304255Y-117369877D01*
X192304255Y-117369877D02*
X192373200Y-117228746D01*
X192373200Y-117228746D02*
X192412802Y-117042432D01*
X192412802Y-117042432D02*
X192407221Y-116885461D01*
X192407221Y-116885461D02*
X192385799Y-116803015D01*
X192385799Y-116803015D02*
X192356457Y-116757832D01*
X192356457Y-116757832D02*
X192289852Y-116704728D01*
X191715069Y-116660447D02*
X191685727Y-116615264D01*
X191685727Y-116615264D02*
X191619122Y-116562160D01*
X191619122Y-116562160D02*
X191432808Y-116522558D01*
X191432808Y-116522558D02*
X191350362Y-116543980D01*
X191350362Y-116543980D02*
X191305179Y-116573322D01*
X191305179Y-116573322D02*
X191252075Y-116639927D01*
X191252075Y-116639927D02*
X191236234Y-116714453D01*
X191236234Y-116714453D02*
X191249736Y-116834161D01*
X191249736Y-116834161D02*
X191601844Y-117376360D01*
X191601844Y-117376360D02*
X191117428Y-117273394D01*
X181674632Y-117045139D02*
X181600107Y-117029298D01*
X181600107Y-117029298D02*
X181517661Y-117050720D01*
X181517661Y-117050720D02*
X181472478Y-117080062D01*
X181472478Y-117080062D02*
X181419374Y-117146667D01*
X181419374Y-117146667D02*
X181350429Y-117287798D01*
X181350429Y-117287798D02*
X181310827Y-117474112D01*
X181310827Y-117474112D02*
X181316408Y-117631083D01*
X181316408Y-117631083D02*
X181337830Y-117713529D01*
X181337830Y-117713529D02*
X181367172Y-117758712D01*
X181367172Y-117758712D02*
X181433777Y-117811816D01*
X181433777Y-117811816D02*
X181508303Y-117827657D01*
X181508303Y-117827657D02*
X181590749Y-117806235D01*
X181590749Y-117806235D02*
X181635932Y-117776893D01*
X181635932Y-117776893D02*
X181689036Y-117710288D01*
X181689036Y-117710288D02*
X181757980Y-117569157D01*
X181757980Y-117569157D02*
X181797583Y-117382843D01*
X181797583Y-117382843D02*
X181792002Y-117225872D01*
X181792002Y-117225872D02*
X181770580Y-117143426D01*
X181770580Y-117143426D02*
X181741237Y-117098243D01*
X181741237Y-117098243D02*
X181674632Y-117045139D01*
X181099850Y-117000858D02*
X181070507Y-116955675D01*
X181070507Y-116955675D02*
X181003902Y-116902571D01*
X181003902Y-116902571D02*
X180817589Y-116862969D01*
X180817589Y-116862969D02*
X180735143Y-116884391D01*
X180735143Y-116884391D02*
X180689959Y-116913733D01*
X180689959Y-116913733D02*
X180636856Y-116980338D01*
X180636856Y-116980338D02*
X180621015Y-117054863D01*
X180621015Y-117054863D02*
X180634516Y-117174572D01*
X180634516Y-117174572D02*
X180986624Y-117716771D01*
X180986624Y-117716771D02*
X180502208Y-117613805D01*
X179942364Y-116949558D02*
X179831478Y-117471237D01*
X180192042Y-116691058D02*
X180259549Y-117289602D01*
X180259549Y-117289602D02*
X179775133Y-117186636D01*
X194880234Y-109465095D02*
X194453065Y-110192170D01*
X194453065Y-110192170D02*
X194358555Y-109354209D01*
X193500074Y-109911713D02*
X193529417Y-109956896D01*
X193529417Y-109956896D02*
X193633284Y-110017920D01*
X193633284Y-110017920D02*
X193707810Y-110033761D01*
X193707810Y-110033761D02*
X193827519Y-110020260D01*
X193827519Y-110020260D02*
X193917885Y-109961575D01*
X193917885Y-109961575D02*
X193970989Y-109894970D01*
X193970989Y-109894970D02*
X194039933Y-109753839D01*
X194039933Y-109753839D02*
X194063695Y-109642051D01*
X194063695Y-109642051D02*
X194058114Y-109485080D01*
X194058114Y-109485080D02*
X194036692Y-109402634D01*
X194036692Y-109402634D02*
X193978007Y-109312267D01*
X193978007Y-109312267D02*
X193874139Y-109251243D01*
X193874139Y-109251243D02*
X193799614Y-109235402D01*
X193799614Y-109235402D02*
X193679905Y-109248904D01*
X193679905Y-109248904D02*
X193634722Y-109278246D01*
X192717556Y-109745384D02*
X192746899Y-109790567D01*
X192746899Y-109790567D02*
X192850766Y-109851591D01*
X192850766Y-109851591D02*
X192925292Y-109867432D01*
X192925292Y-109867432D02*
X193045001Y-109853930D01*
X193045001Y-109853930D02*
X193135367Y-109795246D01*
X193135367Y-109795246D02*
X193188471Y-109728641D01*
X193188471Y-109728641D02*
X193257415Y-109587510D01*
X193257415Y-109587510D02*
X193281177Y-109475722D01*
X193281177Y-109475722D02*
X193275596Y-109318750D01*
X193275596Y-109318750D02*
X193254174Y-109236304D01*
X193254174Y-109236304D02*
X193195489Y-109145938D01*
X193195489Y-109145938D02*
X193091621Y-109084914D01*
X193091621Y-109084914D02*
X193017096Y-109069073D01*
X193017096Y-109069073D02*
X192897387Y-109082574D01*
X192897387Y-109082574D02*
X192852204Y-109111917D01*
D11*
%TO.C,D38*%
X252728153Y-179241503D02*
X252968879Y-178922048D01*
X252968879Y-178922048D02*
X252529629Y-178591050D01*
X252968879Y-178922048D02*
X253010514Y-178202141D01*
X252968879Y-178922048D02*
X253408128Y-179253047D01*
X253010514Y-178202141D02*
X253649422Y-178683593D01*
X253329968Y-178442867D02*
X253630875Y-178043549D01*
X253649422Y-178683593D02*
X252968879Y-178922048D01*
D12*
%TO.C,MCU2*%
X239652185Y-99188325D02*
X246517429Y-131486758D01*
X246517429Y-131486758D02*
X263908893Y-127790089D01*
X257043649Y-95491655D02*
X239652185Y-99188325D01*
X263908893Y-127790089D02*
X257043649Y-95491655D01*
D11*
%TO.C,D12*%
X147077808Y-103627811D02*
X147472883Y-103690385D01*
X147472883Y-103690385D02*
X147386844Y-104233614D01*
X147472883Y-103690385D02*
X147558922Y-103147156D01*
X147472883Y-103690385D02*
X148128070Y-103389170D01*
X148002922Y-104179321D02*
X147472883Y-103690385D01*
X148065496Y-103784246D02*
X148559340Y-103862463D01*
X148128070Y-103389170D02*
X148002922Y-104179321D01*
%TO.C,D13*%
X160441206Y-140154156D02*
X160835129Y-140223615D01*
X160835129Y-140223615D02*
X160739623Y-140765259D01*
X160835129Y-140223615D02*
X160930636Y-139681971D01*
X160835129Y-140223615D02*
X161495473Y-139933881D01*
X161356555Y-140721727D02*
X160835129Y-140223615D01*
X161426014Y-140327804D02*
X161918418Y-140414628D01*
X161495473Y-139933881D02*
X161356555Y-140721727D01*
%TO.C,D34*%
X274183593Y-123672896D02*
X274577516Y-123603437D01*
X274577516Y-123603437D02*
X274482010Y-123061793D01*
X274577516Y-123603437D02*
X274673023Y-124145081D01*
X274577516Y-123603437D02*
X275098942Y-123105325D01*
X275098942Y-123105325D02*
X275237860Y-123893171D01*
X275168401Y-123499248D02*
X275660805Y-123412424D01*
X275237860Y-123893171D02*
X274577516Y-123603437D01*
%TO.C,D35*%
X271231574Y-106931164D02*
X271625497Y-106861705D01*
X271625497Y-106861705D02*
X271529991Y-106320061D01*
X271625497Y-106861705D02*
X271721004Y-107403349D01*
X271625497Y-106861705D02*
X272146923Y-106363593D01*
X272146923Y-106363593D02*
X272285841Y-107151439D01*
X272216382Y-106757516D02*
X272708786Y-106670692D01*
X272285841Y-107151439D02*
X271625497Y-106861705D01*
%TO.C,D19*%
X181305441Y-150739007D02*
X181651851Y-150939007D01*
X181651851Y-150939007D02*
X181376851Y-151415321D01*
X181651851Y-150939007D02*
X181926851Y-150462693D01*
X181651851Y-150939007D02*
X182371466Y-150892597D01*
X181971466Y-151585417D02*
X181651851Y-150939007D01*
X182171466Y-151239007D02*
X182604479Y-151489007D01*
X182371466Y-150892597D02*
X181971466Y-151585417D01*
%TO.C,D21*%
X350722506Y-151917519D02*
X351118613Y-151973188D01*
X351118613Y-151973188D02*
X351042068Y-152517836D01*
X351118613Y-151973188D02*
X351195158Y-151428541D01*
X351118613Y-151973188D02*
X351768443Y-151660585D01*
X351657105Y-152452800D02*
X351118613Y-151973188D01*
X351712774Y-152056692D02*
X352207908Y-152126279D01*
X351768443Y-151660585D02*
X351657105Y-152452800D01*
%TO.C,D26*%
X334060368Y-101414672D02*
X334460307Y-101421653D01*
X334460307Y-101421653D02*
X334450708Y-101971569D01*
X334460307Y-101421653D02*
X334469906Y-100871736D01*
X334460307Y-101421653D02*
X335067197Y-101032185D01*
X335053235Y-101832063D02*
X334460307Y-101421653D01*
X335060216Y-101432124D02*
X335560140Y-101440850D01*
X335067197Y-101032185D02*
X335053235Y-101832063D01*
%TO.C,D5*%
X103790581Y-118438261D02*
X104190520Y-118431280D01*
X104190520Y-118431280D02*
X104180921Y-117881364D01*
X104190520Y-118431280D02*
X104200119Y-118981197D01*
X104190520Y-118431280D02*
X104783448Y-118020870D01*
X104783448Y-118020870D02*
X104797410Y-118820748D01*
X104790429Y-118420809D02*
X105290353Y-118412083D01*
X104797410Y-118820748D02*
X104190520Y-118431280D01*
%TO.C,D18*%
X185423155Y-178043549D02*
X185663881Y-178363004D01*
X185663881Y-178363004D02*
X185224631Y-178694002D01*
X185663881Y-178363004D02*
X186103130Y-178032005D01*
X185663881Y-178363004D02*
X186344424Y-178601459D01*
X185705516Y-179082911D02*
X185663881Y-178363004D01*
X186024970Y-178842185D02*
X186325877Y-179241503D01*
X186344424Y-178601459D02*
X185705516Y-179082911D01*
%TO.C,D23*%
X355454391Y-118248405D02*
X355850498Y-118304074D01*
X355850498Y-118304074D02*
X355773953Y-118848722D01*
X355850498Y-118304074D02*
X355927043Y-117759427D01*
X355850498Y-118304074D02*
X356500328Y-117991471D01*
X356388990Y-118783686D02*
X355850498Y-118304074D01*
X356444659Y-118387578D02*
X356939793Y-118457165D01*
X356500328Y-117991471D02*
X356388990Y-118783686D01*
%TO.C,D36*%
X287502230Y-158895246D02*
X287896153Y-158825787D01*
X287896153Y-158825787D02*
X287800647Y-158284143D01*
X287896153Y-158825787D02*
X287991660Y-159367431D01*
X287896153Y-158825787D02*
X288417579Y-158327675D01*
X288417579Y-158327675D02*
X288556497Y-159115521D01*
X288487038Y-158721598D02*
X288979442Y-158634774D01*
X288556497Y-159115521D02*
X287896153Y-158825787D01*
%TO.C,D39*%
X256449551Y-151489007D02*
X256795961Y-151289007D01*
X256795961Y-151289007D02*
X256520961Y-150812693D01*
X256795961Y-151289007D02*
X257070961Y-151765321D01*
X256795961Y-151289007D02*
X257115576Y-150642597D01*
X257115576Y-150642597D02*
X257515576Y-151335417D01*
X257315576Y-150989007D02*
X257748589Y-150739007D01*
X257515576Y-151335417D02*
X256795961Y-151289007D01*
%TO.C,D29*%
X311605879Y-97197865D02*
X312004905Y-97169963D01*
X312004905Y-97169963D02*
X311966539Y-96621303D01*
X312004905Y-97169963D02*
X312043271Y-97718623D01*
X312004905Y-97169963D02*
X312575540Y-96729083D01*
X312575540Y-96729083D02*
X312631346Y-97527135D01*
X312603443Y-97128109D02*
X313102225Y-97093231D01*
X312631346Y-97527135D02*
X312004905Y-97169963D01*
%TO.C,D9*%
X125951805Y-97093231D02*
X126350831Y-97121133D01*
X126350831Y-97121133D02*
X126312465Y-97669793D01*
X126350831Y-97121133D02*
X126389197Y-96572473D01*
X126350831Y-97121133D02*
X126977272Y-96763961D01*
X126921466Y-97562013D02*
X126350831Y-97121133D01*
X126949369Y-97162987D02*
X127448151Y-97197865D01*
X126977272Y-96763961D02*
X126921466Y-97562013D01*
%TO.C,D40*%
X241304947Y-164953164D02*
X241545673Y-164633709D01*
X241545673Y-164633709D02*
X241106423Y-164302711D01*
X241545673Y-164633709D02*
X241587308Y-163913802D01*
X241545673Y-164633709D02*
X241984922Y-164964708D01*
X241587308Y-163913802D02*
X242226216Y-164395254D01*
X241906762Y-164154528D02*
X242207669Y-163755210D01*
X242226216Y-164395254D02*
X241545673Y-164633709D01*
%TO.C,D16*%
X150074588Y-158634774D02*
X150468511Y-158704233D01*
X150468511Y-158704233D02*
X150373005Y-159245877D01*
X150468511Y-158704233D02*
X150564018Y-158162589D01*
X150468511Y-158704233D02*
X151128855Y-158414499D01*
X150989937Y-159202345D02*
X150468511Y-158704233D01*
X151059396Y-158808422D02*
X151551800Y-158895246D01*
X151128855Y-158414499D02*
X150989937Y-159202345D01*
%TO.C,D6*%
X103493890Y-101440850D02*
X103893829Y-101433869D01*
X103893829Y-101433869D02*
X103884230Y-100883953D01*
X103893829Y-101433869D02*
X103903428Y-101983786D01*
X103893829Y-101433869D02*
X104486757Y-101023459D01*
X104486757Y-101023459D02*
X104500719Y-101823337D01*
X104493738Y-101423398D02*
X104993662Y-101414672D01*
X104500719Y-101823337D02*
X103893829Y-101433869D01*
%TO.C,D20*%
X196846361Y-163755210D02*
X197087087Y-164074665D01*
X197087087Y-164074665D02*
X196647837Y-164405663D01*
X197087087Y-164074665D02*
X197526336Y-163743666D01*
X197087087Y-164074665D02*
X197767630Y-164313120D01*
X197128722Y-164794572D02*
X197087087Y-164074665D01*
X197448176Y-164553846D02*
X197749083Y-164953164D01*
X197767630Y-164313120D02*
X197128722Y-164794572D01*
%TO.C,D8*%
X124765945Y-114051819D02*
X125164971Y-114079721D01*
X125164971Y-114079721D02*
X125126605Y-114628381D01*
X125164971Y-114079721D02*
X125203337Y-113531061D01*
X125164971Y-114079721D02*
X125791412Y-113722549D01*
X125735606Y-114520601D02*
X125164971Y-114079721D01*
X125763509Y-114121575D02*
X126262291Y-114156453D01*
X125791412Y-113722549D02*
X125735606Y-114520601D01*
%TO.C,D7*%
X123580085Y-131010408D02*
X123979111Y-131038310D01*
X123979111Y-131038310D02*
X123940745Y-131586970D01*
X123979111Y-131038310D02*
X124017477Y-130489650D01*
X123979111Y-131038310D02*
X124605552Y-130681138D01*
X124549746Y-131479190D02*
X123979111Y-131038310D01*
X124577649Y-131080164D02*
X125076431Y-131115042D01*
X124605552Y-130681138D02*
X124549746Y-131479190D01*
%TO.C,D24*%
X333466986Y-135409493D02*
X333866925Y-135416474D01*
X333866925Y-135416474D02*
X333857326Y-135966390D01*
X333866925Y-135416474D02*
X333876524Y-134866557D01*
X333866925Y-135416474D02*
X334473815Y-135027006D01*
X334459853Y-135826884D02*
X333866925Y-135416474D01*
X334466834Y-135426945D02*
X334966758Y-135435671D01*
X334473815Y-135027006D02*
X334459853Y-135826884D01*
%TO.C,D14*%
X163393225Y-123412424D02*
X163787148Y-123481883D01*
X163787148Y-123481883D02*
X163691642Y-124023527D01*
X163787148Y-123481883D02*
X163882655Y-122940239D01*
X163787148Y-123481883D02*
X164447492Y-123192149D01*
X164308574Y-123979995D02*
X163787148Y-123481883D01*
X164378033Y-123586072D02*
X164870437Y-123672896D01*
X164447492Y-123192149D02*
X164308574Y-123979995D01*
%TO.C,D1*%
X86846122Y-152126279D02*
X87242229Y-152070610D01*
X87242229Y-152070610D02*
X87165684Y-151525962D01*
X87242229Y-152070610D02*
X87318774Y-152615257D01*
X87242229Y-152070610D02*
X87780721Y-151590998D01*
X87780721Y-151590998D02*
X87892059Y-152383213D01*
X87836390Y-151987106D02*
X88331524Y-151917519D01*
X87892059Y-152383213D02*
X87242229Y-152070610D01*
%TO.C,D17*%
X169707365Y-164827464D02*
X170053775Y-165027464D01*
X170053775Y-165027464D02*
X169778775Y-165503778D01*
X170053775Y-165027464D02*
X170328775Y-164551150D01*
X170053775Y-165027464D02*
X170773390Y-164981054D01*
X170373390Y-165673874D02*
X170053775Y-165027464D01*
X170573390Y-165327464D02*
X171006403Y-165577464D01*
X170773390Y-164981054D02*
X170373390Y-165673874D01*
%TO.C,D37*%
X268047627Y-165577464D02*
X268394037Y-165377464D01*
X268394037Y-165377464D02*
X268119037Y-164901150D01*
X268394037Y-165377464D02*
X268669037Y-165853778D01*
X268394037Y-165377464D02*
X268713652Y-164731054D01*
X268713652Y-164731054D02*
X269113652Y-165423874D01*
X268913652Y-165077464D02*
X269346665Y-164827464D01*
X269113652Y-165423874D02*
X268394037Y-165377464D01*
%TO.C,D25*%
X333763677Y-118412083D02*
X334163616Y-118419064D01*
X334163616Y-118419064D02*
X334154017Y-118968980D01*
X334163616Y-118419064D02*
X334173215Y-117869147D01*
X334163616Y-118419064D02*
X334770506Y-118029596D01*
X334756544Y-118829474D02*
X334163616Y-118419064D01*
X334763525Y-118429535D02*
X335263449Y-118438261D01*
X334770506Y-118029596D02*
X334756544Y-118829474D01*
D12*
%TO.C,MCU1*%
X175145138Y-127790089D02*
X192536602Y-131486758D01*
X182010382Y-95491655D02*
X175145138Y-127790089D01*
X192536602Y-131486758D02*
X199401846Y-99188325D01*
X199401846Y-99188325D02*
X182010382Y-95491655D01*
D11*
%TO.C,D30*%
X295813462Y-137443866D02*
X296208537Y-137381292D01*
X296208537Y-137381292D02*
X296122498Y-136838063D01*
X296208537Y-137381292D02*
X296294576Y-137924521D01*
X296208537Y-137381292D02*
X296738576Y-136892356D01*
X296738576Y-136892356D02*
X296863724Y-137682507D01*
X296801150Y-137287431D02*
X297294994Y-137209214D01*
X296863724Y-137682507D02*
X296208537Y-137381292D01*
%TO.C,D4*%
X104087272Y-135435671D02*
X104487211Y-135428690D01*
X104487211Y-135428690D02*
X104477612Y-134878774D01*
X104487211Y-135428690D02*
X104496810Y-135978607D01*
X104487211Y-135428690D02*
X105080139Y-135018280D01*
X105080139Y-135018280D02*
X105094101Y-135818158D01*
X105087120Y-135418219D02*
X105587044Y-135409493D01*
X105094101Y-135818158D02*
X104487211Y-135428690D01*
%TO.C,D15*%
X166345244Y-106670692D02*
X166739167Y-106740151D01*
X166739167Y-106740151D02*
X166643661Y-107281795D01*
X166739167Y-106740151D02*
X166834674Y-106198507D01*
X166739167Y-106740151D02*
X167399511Y-106450417D01*
X167260593Y-107238263D02*
X166739167Y-106740151D01*
X167330052Y-106844340D02*
X167822456Y-106931164D01*
X167399511Y-106450417D02*
X167260593Y-107238263D01*
%TO.C,D27*%
X313977600Y-131115042D02*
X314376626Y-131087140D01*
X314376626Y-131087140D02*
X314338260Y-130538480D01*
X314376626Y-131087140D02*
X314414992Y-131635800D01*
X314376626Y-131087140D02*
X314947261Y-130646260D01*
X314947261Y-130646260D02*
X315003067Y-131444312D01*
X314975164Y-131045286D02*
X315473946Y-131010408D01*
X315003067Y-131444312D02*
X314376626Y-131087140D01*
%TO.C,D28*%
X312791740Y-114156453D02*
X313190766Y-114128551D01*
X313190766Y-114128551D02*
X313152400Y-113579891D01*
X313190766Y-114128551D02*
X313229132Y-114677211D01*
X313190766Y-114128551D02*
X313761401Y-113687671D01*
X313761401Y-113687671D02*
X313817207Y-114485723D01*
X313789304Y-114086697D02*
X314288086Y-114051819D01*
X313817207Y-114485723D02*
X313190766Y-114128551D01*
%TO.C,D3*%
X82114237Y-118457165D02*
X82510344Y-118401496D01*
X82510344Y-118401496D02*
X82433799Y-117856848D01*
X82510344Y-118401496D02*
X82586889Y-118946143D01*
X82510344Y-118401496D02*
X83048836Y-117921884D01*
X83048836Y-117921884D02*
X83160174Y-118714099D01*
X83104505Y-118317992D02*
X83599639Y-118248405D01*
X83160174Y-118714099D02*
X82510344Y-118401496D01*
%TO.C,D22*%
X353088449Y-135082962D02*
X353484556Y-135138631D01*
X353484556Y-135138631D02*
X353408011Y-135683279D01*
X353484556Y-135138631D02*
X353561101Y-134593984D01*
X353484556Y-135138631D02*
X354134386Y-134826028D01*
X354023048Y-135618243D02*
X353484556Y-135138631D01*
X354078717Y-135222135D02*
X354573851Y-135291722D01*
X354134386Y-134826028D02*
X354023048Y-135618243D01*
%TO.C,D31*%
X293154076Y-120653164D02*
X293549151Y-120590590D01*
X293549151Y-120590590D02*
X293463112Y-120047361D01*
X293549151Y-120590590D02*
X293635190Y-121133819D01*
X293549151Y-120590590D02*
X294079190Y-120101654D01*
X294079190Y-120101654D02*
X294204338Y-120891805D01*
X294141764Y-120496729D02*
X294635608Y-120418512D01*
X294204338Y-120891805D02*
X293549151Y-120590590D01*
%TO.C,D11*%
X144418422Y-120418512D02*
X144813497Y-120481086D01*
X144813497Y-120481086D02*
X144727458Y-121024315D01*
X144813497Y-120481086D02*
X144899536Y-119937857D01*
X144813497Y-120481086D02*
X145468684Y-120179871D01*
X145343536Y-120970022D02*
X144813497Y-120481086D01*
X145406110Y-120574947D02*
X145899954Y-120653164D01*
X145468684Y-120179871D02*
X145343536Y-120970022D01*
%TO.C,D32*%
X290494690Y-103862463D02*
X290889765Y-103799889D01*
X290889765Y-103799889D02*
X290803726Y-103256660D01*
X290889765Y-103799889D02*
X290975804Y-104343118D01*
X290889765Y-103799889D02*
X291419804Y-103310953D01*
X291419804Y-103310953D02*
X291544952Y-104101104D01*
X291482378Y-103706028D02*
X291976222Y-103627811D01*
X291544952Y-104101104D02*
X290889765Y-103799889D01*
%TO.C,D2*%
X84480180Y-135291722D02*
X84876287Y-135236053D01*
X84876287Y-135236053D02*
X84799742Y-134691405D01*
X84876287Y-135236053D02*
X84952832Y-135780700D01*
X84876287Y-135236053D02*
X85414779Y-134756441D01*
X85414779Y-134756441D02*
X85526117Y-135548656D01*
X85470448Y-135152549D02*
X85965582Y-135082962D01*
X85526117Y-135548656D02*
X84876287Y-135236053D01*
%TO.C,D10*%
X141759036Y-137209214D02*
X142154111Y-137271788D01*
X142154111Y-137271788D02*
X142068072Y-137815017D01*
X142154111Y-137271788D02*
X142240150Y-136728559D01*
X142154111Y-137271788D02*
X142809298Y-136970573D01*
X142684150Y-137760724D02*
X142154111Y-137271788D01*
X142746724Y-137365649D02*
X143240568Y-137443866D01*
X142809298Y-136970573D02*
X142684150Y-137760724D01*
%TO.C,D33*%
X277135612Y-140414628D02*
X277529535Y-140345169D01*
X277529535Y-140345169D02*
X277434029Y-139803525D01*
X277529535Y-140345169D02*
X277625042Y-140886813D01*
X277529535Y-140345169D02*
X278050961Y-139847057D01*
X278050961Y-139847057D02*
X278189879Y-140634903D01*
X278120420Y-140240980D02*
X278612824Y-140154156D01*
X278189879Y-140634903D02*
X277529535Y-140345169D01*
D13*
%TO.C,JST2*%
X296654588Y-142818453D02*
X296811023Y-143806143D01*
X297642277Y-142662020D02*
X296654588Y-142818453D01*
X297877906Y-150542177D02*
X297721471Y-149554489D01*
X298786579Y-150398258D02*
X297877906Y-150542177D01*
D11*
X299581394Y-151325335D02*
X300569080Y-151168901D01*
X299997018Y-150753274D02*
X300153453Y-151740962D01*
D13*
X301790568Y-142004995D02*
X302699241Y-141861076D01*
D11*
X302544457Y-150856032D02*
X301556768Y-151012466D01*
D13*
X302699241Y-141861076D02*
X302855675Y-142848764D01*
X303013885Y-149728718D02*
X303922560Y-149584798D01*
X303922560Y-149584798D02*
X303766124Y-148597110D01*
%TO.C,JST1*%
X135131470Y-149584798D02*
X135287906Y-148597110D01*
X136040145Y-149728718D02*
X135131470Y-149584798D01*
X136354789Y-141861076D02*
X136198355Y-142848764D01*
D11*
X136509573Y-150856032D02*
X137497262Y-151012466D01*
X137081635Y-150440405D02*
X136925200Y-151428093D01*
D13*
X137342477Y-142017510D02*
X136354789Y-141861076D01*
D11*
X139472636Y-151325335D02*
X138484950Y-151168901D01*
D13*
X140267451Y-150398258D02*
X141176124Y-150542177D01*
X141176124Y-150542177D02*
X141332559Y-149554489D01*
X141490768Y-142674535D02*
X142399442Y-142818453D01*
X142399442Y-142818453D02*
X142243007Y-143806143D01*
%TD*%
D14*
%TO.C,MCU2*%
X241686576Y-102651019D03*
X242214672Y-105135514D03*
X242742767Y-107620009D03*
X243270863Y-110104504D03*
X243798959Y-112588999D03*
X244327053Y-115073494D03*
X244855150Y-117557989D03*
X245383246Y-120042483D03*
X245911342Y-122526978D03*
X246439437Y-125011473D03*
X246967533Y-127495968D03*
X247495629Y-129980463D03*
X262402598Y-126811889D03*
X261874502Y-124327394D03*
X261346407Y-121842899D03*
X260818311Y-119358404D03*
X260290215Y-116873909D03*
X259762121Y-114389414D03*
X259234024Y-111904919D03*
X258705928Y-109420425D03*
X258177832Y-106935930D03*
X257649737Y-104451435D03*
X257121641Y-101966940D03*
X256593545Y-99482445D03*
X248923932Y-124483378D03*
X251408427Y-123955282D03*
X253892922Y-123427186D03*
%TD*%
%TO.C,MCU1*%
X182460486Y-99482445D03*
X181932390Y-101966940D03*
X181404294Y-104451435D03*
X180876199Y-106935930D03*
X180348103Y-109420425D03*
X179820007Y-111904919D03*
X179291910Y-114389414D03*
X178763816Y-116873909D03*
X178235720Y-119358404D03*
X177707624Y-121842899D03*
X177179529Y-124327394D03*
X176651433Y-126811889D03*
X191558402Y-129980463D03*
X192086498Y-127495968D03*
X192614594Y-125011473D03*
X193142689Y-122526978D03*
X193670785Y-120042483D03*
X194198881Y-117557989D03*
X194726978Y-115073494D03*
X195255072Y-112588999D03*
X195783168Y-110104504D03*
X196311264Y-107620009D03*
X196839359Y-105135514D03*
X197367455Y-102651019D03*
X180192119Y-122370995D03*
X182676614Y-122899090D03*
X185161109Y-123427186D03*
%TD*%
M02*
