M48
; DRILL file {KiCad 9.0.2} date 2025-07-07T14:03:04-0400
; FORMAT={-:-/ absolute / metric / decimal}
; #@! TF.CreationDate,2025-07-07T14:03:04-04:00
; #@! TF.GenerationSoftware,Kicad,Pcbnew,9.0.2
; #@! TF.FileFunction,NonPlated,1,2,NPTH
FMAT,2
METRIC
; #@! TA.AperFunction,NonPlated,NPTH,ComponentDrill
T1C1.702
; #@! TA.AperFunction,NonPlated,NPTH,ComponentDrill
T2C3.000
; #@! TA.AperFunction,NonPlated,NPTH,ComponentDrill
T3C3.429
%
G90
G05
T1
X76.715Y-114.167
X79.081Y-131.001
X81.446Y-147.836
X87.608Y-112.636
X89.973Y-129.471
X92.339Y-146.305
X98.657Y-96.525
X98.954Y-113.522
X99.251Y-130.519
X109.656Y-96.333
X109.952Y-113.33
X110.249Y-130.327
X119.19Y-125.691
X120.376Y-108.733
X121.562Y-91.774
X130.164Y-126.459
X131.35Y-109.5
X132.535Y-92.541
X137.85Y-131.528
X140.509Y-114.737
X143.168Y-97.946
X146.265Y-152.886
X148.714Y-133.248
X151.374Y-116.458
X154.033Y-99.667
X156.632Y-134.405
X157.098Y-154.796
X159.584Y-117.664
X162.536Y-100.922
X167.464Y-136.315
X168.094Y-158.122
X170.417Y-119.574
X173.369Y-102.832
X177.62Y-163.622
X179.692Y-144.034
X186.558Y-171.241
X189.218Y-149.534
X193.178Y-180.026
X197.981Y-156.953
X204.601Y-165.738
X234.453Y-165.738
X241.073Y-156.953
X245.876Y-180.026
X249.836Y-149.534
X252.496Y-171.241
X259.362Y-144.034
X261.434Y-163.622
X265.685Y-102.832
X268.638Y-119.574
X270.96Y-158.122
X271.59Y-136.315
X276.518Y-100.922
X279.47Y-117.664
X281.956Y-154.796
X282.422Y-134.405
X285.021Y-99.667
X287.68Y-116.458
X290.34Y-133.248
X292.789Y-152.886
X295.886Y-97.946
X298.545Y-114.737
X301.204Y-131.528
X306.519Y-92.541
X307.705Y-109.5
X308.89Y-126.459
X317.492Y-91.774
X318.678Y-108.733
X319.864Y-125.691
X328.805Y-130.327
X329.102Y-113.33
X329.398Y-96.333
X339.803Y-130.519
X340.1Y-113.522
X340.397Y-96.525
X346.715Y-146.305
X349.081Y-129.471
X351.446Y-112.636
X357.608Y-147.836
X359.973Y-131.001
X362.339Y-114.167
T2
X81.333Y-107.509
X83.699Y-124.344
X86.065Y-141.178
X86.591Y-108.992
X88.956Y-125.827
X91.322Y-142.661
X104.053Y-90.479
X104.349Y-107.477
X104.646Y-124.474
X109.09Y-92.592
X109.387Y-109.589
X109.684Y-126.587
X125.092Y-120.139
X126.278Y-103.181
X127.464Y-86.222
X129.926Y-122.683
X131.112Y-105.724
X132.298Y-88.766
X144.213Y-126.511
X146.872Y-109.721
X148.807Y-129.466
X149.532Y-92.93
X151.466Y-112.676
X152.715Y-147.981
X154.126Y-95.885
X157.257Y-151.016
X163.081Y-129.501
X166.033Y-112.759
X167.623Y-132.536
X168.985Y-96.017
X170.575Y-115.794
X173.527Y-99.052
X175.832Y-155.719
X179.062Y-160.125
X187.43Y-141.631
X190.66Y-146.036
X194.62Y-172.053
X195.872Y-177.37
X206.043Y-157.764
X207.295Y-163.081
X233.011Y-157.764
X237.777Y-155.095
X244.434Y-172.053
X249.201Y-169.383
X251.624Y-141.631
X257.054Y-141.036
X263.222Y-155.719
X268.652Y-155.125
X270.069Y-96.017
X273.021Y-112.759
X275.375Y-97.316
X275.973Y-129.501
X278.327Y-114.057
X281.279Y-130.799
X286.339Y-147.981
X289.522Y-92.93
X291.645Y-149.28
X292.182Y-109.721
X294.805Y-94.321
X294.841Y-126.511
X297.464Y-111.111
X300.124Y-127.902
X311.59Y-86.222
X312.776Y-103.181
X313.962Y-120.139
X316.732Y-88.068
X317.917Y-105.027
X319.103Y-121.985
X334.408Y-124.474
X334.705Y-107.477
X335.001Y-90.479
X339.369Y-126.761
X339.666Y-109.764
X339.962Y-92.766
X352.989Y-141.178
X355.355Y-124.344
X357.634Y-144.053
X357.721Y-107.509
X360.0Y-127.218
X362.366Y-110.384
T3
X82.161Y-113.401
X84.527Y-130.236
X86.893Y-147.071
X104.157Y-96.429
X104.453Y-113.426
X104.75Y-130.423
X124.677Y-126.075
X125.863Y-109.116
X127.049Y-92.158
X143.282Y-132.388
X145.941Y-115.597
X148.601Y-98.807
X151.681Y-153.841
X162.048Y-135.36
X165.0Y-118.619
X167.952Y-101.877
X172.857Y-160.872
X184.455Y-146.784
X189.868Y-175.633
X201.291Y-161.345
X237.763Y-161.345
X249.186Y-175.633
X254.599Y-146.784
X266.197Y-160.872
X271.102Y-101.877
X274.054Y-118.619
X277.006Y-135.36
X287.373Y-153.841
X290.453Y-98.807
X293.113Y-115.597
X295.772Y-132.388
X312.005Y-92.158
X313.191Y-109.116
X314.377Y-126.075
X334.304Y-130.423
X334.601Y-113.426
X334.898Y-96.429
X352.161Y-147.071
X354.527Y-130.236
X356.893Y-113.401
M30
