%TF.GenerationSoftware,KiCad,Pcbnew,9.0.2*%
%TF.CreationDate,2025-07-07T14:02:59-04:00*%
%TF.ProjectId,routed_banana_split,726f7574-6564-45f6-9261-6e616e615f73,0.0.1*%
%TF.SameCoordinates,Original*%
%TF.FileFunction,Paste,Top*%
%TF.FilePolarity,Positive*%
%FSLAX46Y46*%
G04 Gerber Fmt 4.6, Leading zero omitted, Abs format (unit mm)*
G04 Created by KiCad (PCBNEW 9.0.2) date 2025-07-07 14:02:59*
%MOMM*%
%LPD*%
G01*
G04 APERTURE LIST*
G04 Aperture macros list*
%AMRotRect*
0 Rectangle, with rotation*
0 The origin of the aperture is its center*
0 $1 length*
0 $2 width*
0 $3 Rotation angle, in degrees counterclockwise*
0 Add horizontal line*
21,1,$1,$2,0,0,$3*%
G04 Aperture macros list end*
%ADD10RotRect,1.800000X1.100000X7.000000*%
%ADD11RotRect,0.900000X1.200000X53.000000*%
%ADD12RotRect,0.900000X1.200000X351.000000*%
%ADD13RotRect,0.900000X1.200000X350.000000*%
%ADD14RotRect,0.900000X1.200000X10.000000*%
%ADD15RotRect,1.800000X1.100000X353.000000*%
%ADD16RotRect,0.900000X1.200000X330.000000*%
%ADD17RotRect,0.900000X1.200000X352.000000*%
%ADD18RotRect,0.900000X1.200000X359.000000*%
%ADD19RotRect,0.900000X1.200000X1.000000*%
%ADD20RotRect,0.900000X1.200000X307.000000*%
%ADD21RotRect,0.900000X1.200000X30.000000*%
%ADD22RotRect,0.900000X1.200000X4.000000*%
%ADD23RotRect,0.900000X1.200000X356.000000*%
%ADD24RotRect,0.900000X1.200000X8.000000*%
%ADD25RotRect,0.900000X1.200000X9.000000*%
G04 APERTURE END LIST*
D10*
%TO.C,B1*%
X84791520Y-97250786D03*
X90945306Y-96495196D03*
X85242436Y-100923206D03*
X91396222Y-100167616D03*
%TD*%
D11*
%TO.C,D38*%
X252186519Y-179960275D03*
X254172509Y-177324777D03*
%TD*%
D12*
%TO.C,D12*%
X146188888Y-103487020D03*
X149448260Y-104003254D03*
%TD*%
D13*
%TO.C,D13*%
X159554879Y-139997873D03*
X162804745Y-140570911D03*
%TD*%
D14*
%TO.C,D34*%
X273297266Y-123829179D03*
X276547132Y-123256141D03*
%TD*%
%TO.C,D35*%
X270345247Y-107087447D03*
X273595113Y-106514409D03*
%TD*%
D15*
%TO.C,B2*%
X348108724Y-96495196D03*
X354262510Y-97250786D03*
X347657808Y-100167616D03*
X353811594Y-100923206D03*
%TD*%
D16*
%TO.C,D19*%
X180526018Y-150289007D03*
X183383902Y-151939007D03*
%TD*%
D17*
%TO.C,D21*%
X349831265Y-151792263D03*
X353099149Y-152251535D03*
%TD*%
D18*
%TO.C,D26*%
X333160505Y-101398965D03*
X336460003Y-101456557D03*
%TD*%
D19*
%TO.C,D5*%
X102890718Y-118453968D03*
X106190216Y-118396376D03*
%TD*%
D20*
%TO.C,D18*%
X184881521Y-177324777D03*
X186867511Y-179960275D03*
%TD*%
D17*
%TO.C,D23*%
X354563150Y-118123149D03*
X357831034Y-118582421D03*
%TD*%
D14*
%TO.C,D36*%
X286615903Y-159051529D03*
X289865769Y-158478491D03*
%TD*%
D21*
%TO.C,D39*%
X255670128Y-151939007D03*
X258528012Y-150289007D03*
%TD*%
D22*
%TO.C,D29*%
X310708071Y-97260646D03*
X314000033Y-97030450D03*
%TD*%
D23*
%TO.C,D9*%
X125053997Y-97030450D03*
X128345959Y-97260646D03*
%TD*%
D11*
%TO.C,D40*%
X240763313Y-165671936D03*
X242749303Y-163036438D03*
%TD*%
D13*
%TO.C,D16*%
X149188261Y-158478491D03*
X152438127Y-159051529D03*
%TD*%
D19*
%TO.C,D6*%
X102594027Y-101456557D03*
X105893525Y-101398965D03*
%TD*%
D20*
%TO.C,D20*%
X196304727Y-163036438D03*
X198290717Y-165671936D03*
%TD*%
D23*
%TO.C,D8*%
X123868137Y-113989038D03*
X127160099Y-114219234D03*
%TD*%
%TO.C,D7*%
X122682277Y-130947627D03*
X125974239Y-131177823D03*
%TD*%
D18*
%TO.C,D24*%
X332567123Y-135393786D03*
X335866621Y-135451378D03*
%TD*%
D13*
%TO.C,D14*%
X162506898Y-123256141D03*
X165756764Y-123829179D03*
%TD*%
D24*
%TO.C,D1*%
X85954881Y-152251535D03*
X89222765Y-151792263D03*
%TD*%
D16*
%TO.C,D17*%
X168927942Y-164377464D03*
X171785826Y-166027464D03*
%TD*%
D21*
%TO.C,D37*%
X267268204Y-166027464D03*
X270126088Y-164377464D03*
%TD*%
D18*
%TO.C,D25*%
X332863814Y-118396376D03*
X336163312Y-118453968D03*
%TD*%
D25*
%TO.C,D30*%
X294924542Y-137584657D03*
X298183914Y-137068423D03*
%TD*%
D19*
%TO.C,D4*%
X103187409Y-135451378D03*
X106486907Y-135393786D03*
%TD*%
D13*
%TO.C,D15*%
X165458917Y-106514409D03*
X168708783Y-107087447D03*
%TD*%
D22*
%TO.C,D27*%
X313079792Y-131177823D03*
X316371754Y-130947627D03*
%TD*%
%TO.C,D28*%
X311893932Y-114219234D03*
X315185894Y-113989038D03*
%TD*%
D24*
%TO.C,D3*%
X81222996Y-118582421D03*
X84490880Y-118123149D03*
%TD*%
D17*
%TO.C,D22*%
X352197208Y-134957706D03*
X355465092Y-135416978D03*
%TD*%
D25*
%TO.C,D31*%
X292265156Y-120793955D03*
X295524528Y-120277721D03*
%TD*%
D12*
%TO.C,D11*%
X143529502Y-120277721D03*
X146788874Y-120793955D03*
%TD*%
D25*
%TO.C,D32*%
X289605770Y-104003254D03*
X292865142Y-103487020D03*
%TD*%
D24*
%TO.C,D2*%
X83588939Y-135416978D03*
X86856823Y-134957706D03*
%TD*%
D12*
%TO.C,D10*%
X140870116Y-137068423D03*
X144129488Y-137584657D03*
%TD*%
D14*
%TO.C,D33*%
X276249285Y-140570911D03*
X279499151Y-139997873D03*
%TD*%
M02*
