M48
; DRILL file {KiCad 9.0.2} date 2025-07-07T14:03:04-0400
; FORMAT={-:-/ absolute / metric / decimal}
; #@! TF.CreationDate,2025-07-07T14:03:04-04:00
; #@! TF.GenerationSoftware,Kicad,Pcbnew,9.0.2
; #@! TF.FileFunction,Plated,1,2,PTH
FMAT,2
METRIC
; #@! TA.AperFunction,Plated,PTH,ViaDrill
T1C0.400
; #@! TA.AperFunction,Plated,PTH,ComponentDrill
T2C0.750
; #@! TA.AperFunction,Plated,PTH,ComponentDrill
T3C0.991
; #@! TA.AperFunction,Plated,PTH,ComponentDrill
T4C1.000
; #@! TA.AperFunction,Plated,PTH,ComponentDrill
T5C1.092
%
G90
G05
T1
X153.22Y-140.48
X153.47Y-138.81
X161.66Y-141.26
X165.857Y-129.383
X167.37Y-128.13
X167.52Y-107.93
X172.82Y-96.32
X179.64Y-140.35
X180.9Y-138.64
X183.154Y-108.25
X183.89Y-121.4
X184.604Y-108.73
X186.21Y-133.61
X186.48Y-135.67
X187.704Y-128.024
X187.95Y-123.91
X188.776Y-125.926
X189.179Y-136.019
X189.59Y-134.91
X191.28Y-133.84
X192.26Y-115.59
X192.49Y-105.71
X193.34Y-101.84
X249.3Y-107.99
X250.64Y-106.98
X256.15Y-104.21
X263.31Y-145.29
X263.852Y-143.213
X265.59Y-135.1
X267.38Y-132.5
T2
X138.161Y-143.625
X140.136Y-143.938
X298.918Y-143.938
X300.893Y-143.625
T3
X79.084Y-118.883
X81.45Y-135.718
X83.816Y-152.552
X86.63Y-117.823
X88.996Y-134.657
X91.362Y-151.492
X100.434Y-101.494
X100.731Y-118.492
X101.028Y-135.489
X108.053Y-101.361
X108.35Y-118.359
X108.647Y-135.356
X120.528Y-130.797
X121.713Y-113.838
X122.899Y-96.88
X128.129Y-131.328
X129.315Y-114.37
X130.501Y-97.411
X138.737Y-136.731
X141.396Y-119.94
X144.055Y-103.149
X146.263Y-137.923
X147.061Y-158.103
X148.922Y-121.132
X151.582Y-104.341
X154.565Y-159.427
X157.428Y-139.623
X160.38Y-122.881
X163.332Y-106.139
X164.932Y-140.946
X167.057Y-163.297
X167.884Y-124.204
X170.836Y-107.463
X173.656Y-167.107
X178.655Y-149.209
X183.582Y-175.6
X185.255Y-153.019
X188.167Y-181.685
X195.005Y-161.311
X199.591Y-167.397
X239.463Y-167.397
X244.049Y-161.311
X250.887Y-181.685
X253.8Y-153.019
X255.472Y-175.6
X260.399Y-149.209
X265.398Y-167.107
X268.218Y-107.463
X271.17Y-124.204
X271.997Y-163.297
X274.122Y-140.946
X275.722Y-106.139
X278.674Y-122.881
X281.626Y-139.623
X284.489Y-159.427
X287.472Y-104.341
X290.132Y-121.132
X291.993Y-158.103
X292.791Y-137.923
X294.999Y-103.149
X297.658Y-119.94
X300.317Y-136.731
X308.553Y-97.411
X309.739Y-114.37
X310.925Y-131.328
X316.155Y-96.88
X317.341Y-113.838
X318.526Y-130.797
X330.407Y-135.356
X330.704Y-118.359
X331.001Y-101.361
X338.026Y-135.489
X338.323Y-118.492
X338.62Y-101.494
X347.692Y-151.492
X350.058Y-134.657
X352.424Y-117.823
X355.238Y-152.552
X357.604Y-135.718
X359.97Y-118.883
T4
X178.509Y-130.345
X180.994Y-130.873
X183.478Y-131.401
X185.963Y-131.929
X188.447Y-132.458
X250.607Y-132.458
X253.091Y-131.929
X255.576Y-131.401
X258.06Y-130.873
X260.545Y-130.345
T5
X176.651Y-126.812
X177.18Y-124.327
X177.708Y-121.843
X178.236Y-119.358
X178.764Y-116.874
X179.292Y-114.389
X179.82Y-111.905
X180.192Y-122.371
X180.348Y-109.42
X180.876Y-106.936
X181.404Y-104.451
X181.932Y-101.967
X182.46Y-99.482
X182.677Y-122.899
X185.161Y-123.427
X191.558Y-129.98
X192.086Y-127.496
X192.615Y-125.011
X193.143Y-122.527
X193.671Y-120.042
X194.199Y-117.558
X194.727Y-115.073
X195.255Y-112.589
X195.783Y-110.105
X196.311Y-107.62
X196.839Y-105.136
X197.367Y-102.651
X241.687Y-102.651
X242.215Y-105.136
X242.743Y-107.62
X243.271Y-110.105
X243.799Y-112.589
X244.327Y-115.073
X244.855Y-117.558
X245.383Y-120.042
X245.911Y-122.527
X246.439Y-125.011
X246.968Y-127.496
X247.496Y-129.98
X248.924Y-124.483
X251.408Y-123.955
X253.893Y-123.427
X256.594Y-99.482
X257.122Y-101.967
X257.65Y-104.451
X258.178Y-106.936
X258.706Y-109.42
X259.234Y-111.905
X259.762Y-114.389
X260.29Y-116.874
X260.818Y-119.358
X261.346Y-121.843
X261.875Y-124.327
X262.403Y-126.812
M30
