%TF.GenerationSoftware,KiCad,Pcbnew,9.0.2*%
%TF.CreationDate,2025-07-07T14:03:04-04:00*%
%TF.ProjectId,routed_banana_split,726f7574-6564-45f6-9261-6e616e615f73,0.0.1*%
%TF.SameCoordinates,Original*%
%TF.FileFunction,Drillmap*%
%TF.FilePolarity,Positive*%
%FSLAX45Y45*%
G04 Gerber Fmt 4.5, Leading zero omitted, Abs format (unit mm)*
G04 Created by KiCad (PCBNEW 9.0.2) date 2025-07-07 14:03:04*
%MOMM*%
%LPD*%
G01*
G04 APERTURE LIST*
%ADD10C,0.150000*%
%ADD11C,0.050000*%
%ADD12C,0.200000*%
%ADD13C,0.170180*%
%ADD14C,0.300000*%
%ADD15C,0.342900*%
G04 APERTURE END LIST*
D10*
X9828295Y-15657790D02*
X8198712Y-15886813D01*
X9155902Y-8635276D02*
G75*
G02*
X9359866Y-8538199I311308J-391264D01*
G01*
X20089200Y-10144832D02*
X19464943Y-13188366D01*
X34077108Y-15657790D02*
X35706691Y-15886813D01*
X36271412Y-15461266D02*
X36941428Y-10693850D01*
X22448093Y-16694101D02*
G75*
G02*
X22439311Y-16080972I390537J312222D01*
G01*
X20240213Y-14505734D02*
G75*
G02*
X20369350Y-14625543I-270183J-420716D01*
G01*
X24444162Y-13204972D02*
G75*
G02*
X24440460Y-13188366I486068J117062D01*
G01*
X22448093Y-16694101D02*
X23308719Y-17770587D01*
X15725911Y-16502333D02*
G75*
G02*
X15914029Y-16565476I-61881J-496157D01*
G01*
X32261391Y-14122097D02*
X33810048Y-15532344D01*
X8198712Y-15886813D02*
G75*
G02*
X7633991Y-15461266I-69587J495134D01*
G01*
D11*
X18562584Y-16478000D02*
G75*
G02*
X18255416Y-16478000I-153584J0D01*
G01*
X18255416Y-16478000D02*
G75*
G02*
X18562584Y-16478000I153584J0D01*
G01*
D10*
X11957289Y-13947086D02*
X11644012Y-14122097D01*
X21457310Y-16694101D02*
X20596684Y-17770587D01*
X18500914Y-18734547D02*
X17707252Y-17649916D01*
X34545537Y-8538199D02*
G75*
G02*
X34749500Y-8635278I-107347J-488341D01*
G01*
X24527882Y-13552598D02*
G75*
G02*
X24311963Y-14090386I-486102J-117072D01*
G01*
X34545537Y-8538199D02*
X32341352Y-8053698D01*
X23398346Y-17857682D02*
G75*
G02*
X23308720Y-17770587I300904J399312D01*
G01*
D11*
X36144116Y-10133000D02*
G75*
G02*
X35839052Y-10133000I-152532J0D01*
G01*
X35839052Y-10133000D02*
G75*
G02*
X36144116Y-10133000I152532J0D01*
G01*
D10*
X19461241Y-13204972D02*
X19377522Y-13552598D01*
X24311961Y-14090383D02*
X23665190Y-14505734D01*
X23816203Y-10144832D02*
G75*
G02*
X24191663Y-9557617I489807J100462D01*
G01*
X23536053Y-14625543D02*
G75*
G02*
X23665190Y-14505734I399317J-300907D01*
G01*
X10095356Y-15532344D02*
G75*
G02*
X9828295Y-15657790I-336646J369684D01*
G01*
X11564051Y-8053698D02*
G75*
G02*
X11706272Y-8043258I107339J-488342D01*
G01*
X30184676Y-16049287D02*
X31269349Y-14136913D01*
X28179492Y-16502333D02*
X29811644Y-16298766D01*
X20507057Y-17857682D02*
X19205331Y-18838603D01*
D11*
X18901871Y-11208000D02*
G75*
G02*
X18592129Y-11208000I-154871J0D01*
G01*
X18592129Y-11208000D02*
G75*
G02*
X18901871Y-11208000I154871J0D01*
G01*
D10*
X13968054Y-8207892D02*
X19713740Y-9557619D01*
X32199131Y-8043257D02*
X30016814Y-8195860D01*
X9359866Y-8538199D02*
X11564051Y-8053698D01*
X29937349Y-8207892D02*
X24191663Y-9557619D01*
X23398346Y-17857682D02*
X24700072Y-18838603D01*
X29937349Y-8207892D02*
G75*
G02*
X30016814Y-8195860I114341J-486748D01*
G01*
D11*
X25295455Y-11197000D02*
G75*
G02*
X24985713Y-11197000I-154871J0D01*
G01*
X24985713Y-11197000D02*
G75*
G02*
X25295455Y-11197000I154871J0D01*
G01*
D10*
X27991374Y-16565476D02*
G75*
G02*
X28179492Y-16502335I249996J-433014D01*
G01*
X19593442Y-14090383D02*
X20240213Y-14505734D01*
X15725911Y-16502333D02*
X14093758Y-16298766D01*
X36757600Y-10232998D02*
X34749501Y-8635276D01*
X32199131Y-8043257D02*
G75*
G02*
X32341352Y-8053698I34879J-498783D01*
G01*
X11957289Y-13947086D02*
G75*
G02*
X12636054Y-14136914I243851J-436504D01*
G01*
X11644012Y-14122097D02*
X10095356Y-15532344D01*
X17553742Y-17512165D02*
G75*
G02*
X17707252Y-17649916I-250002J-433015D01*
G01*
X31269348Y-14136913D02*
G75*
G02*
X31948112Y-13947089I434912J-246677D01*
G01*
D11*
X33832403Y-14479000D02*
G75*
G02*
X33528765Y-14479000I-151819J0D01*
G01*
X33528765Y-14479000D02*
G75*
G02*
X33832403Y-14479000I151819J0D01*
G01*
D10*
X26351661Y-17512165D02*
X27991374Y-16565476D01*
D11*
X10358819Y-14490000D02*
G75*
G02*
X10055181Y-14490000I-151819J0D01*
G01*
X10055181Y-14490000D02*
G75*
G02*
X10358819Y-14490000I151819J0D01*
G01*
D10*
X7147803Y-10232998D02*
X9155902Y-8635276D01*
X26198151Y-17649916D02*
G75*
G02*
X26351661Y-17512166I403509J-295264D01*
G01*
X25404489Y-18734547D02*
X26198151Y-17649916D01*
X20369350Y-14625543D02*
X21466094Y-16080971D01*
X30184677Y-16049287D02*
G75*
G02*
X29811645Y-16298768I-434917J246677D01*
G01*
X19464943Y-13188366D02*
G75*
G02*
X19461241Y-13204972I-489773J100456D01*
G01*
X20596684Y-17770587D02*
G75*
G02*
X20507057Y-17857681I-390524J312217D01*
G01*
X19713740Y-9557619D02*
G75*
G02*
X20089204Y-10144833I-114340J-486751D01*
G01*
X11706272Y-8043257D02*
X13888589Y-8195860D01*
X24444162Y-13204972D02*
X24527882Y-13552598D01*
D11*
X25632168Y-16467000D02*
G75*
G02*
X25325000Y-16467000I-153584J0D01*
G01*
X25325000Y-16467000D02*
G75*
G02*
X25632168Y-16467000I153584J0D01*
G01*
D10*
X21466094Y-16080971D02*
G75*
G02*
X21457311Y-16694103I-399314J-300909D01*
G01*
X36757600Y-10232998D02*
G75*
G02*
X36941423Y-10693850I-311310J-391262D01*
G01*
X17553742Y-17512165D02*
X15914029Y-16565476D01*
X25404489Y-18734547D02*
G75*
G02*
X24700072Y-18838603I-403509J295257D01*
G01*
X19205331Y-18838603D02*
G75*
G02*
X18500910Y-18734550I-300911J399313D01*
G01*
X6963975Y-10693850D02*
G75*
G02*
X7147803Y-10232999I495134J69586D01*
G01*
X14093758Y-16298766D02*
G75*
G02*
X13720726Y-16049288I61882J496156D01*
G01*
X13888589Y-8195860D02*
G75*
G02*
X13968054Y-8207892I-34879J-498780D01*
G01*
X23536053Y-14625543D02*
X22439309Y-16080971D01*
D11*
X8048532Y-10144000D02*
G75*
G02*
X7743468Y-10144000I-152532J0D01*
G01*
X7743468Y-10144000D02*
G75*
G02*
X8048532Y-10144000I152532J0D01*
G01*
D10*
X23816203Y-10144832D02*
X24440460Y-13188366D01*
X7633991Y-15461266D02*
X6963975Y-10693850D01*
X13720726Y-16049287D02*
X12636054Y-14136913D01*
X19593442Y-14090383D02*
G75*
G02*
X19377524Y-13552598I270178J420713D01*
G01*
X31948114Y-13947086D02*
X32261391Y-14122097D01*
X36271412Y-15461266D02*
G75*
G02*
X35706691Y-15886811I-495132J69586D01*
G01*
X34077108Y-15657790D02*
G75*
G02*
X33810047Y-15532345I69582J495130D01*
G01*
D12*
D13*
X7586370Y-11331600D02*
X7756550Y-11501780D01*
X7756550Y-11331600D02*
X7586370Y-11501780D01*
X7822964Y-13015055D02*
X7993144Y-13185235D01*
X7993144Y-13015055D02*
X7822964Y-13185235D01*
X8059558Y-14698511D02*
X8229738Y-14868691D01*
X8229738Y-14698511D02*
X8059558Y-14868691D01*
X8675665Y-11178509D02*
X8845845Y-11348689D01*
X8845845Y-11178509D02*
X8675665Y-11348689D01*
X8912259Y-12861965D02*
X9082439Y-13032145D01*
X9082439Y-12861965D02*
X8912259Y-13032145D01*
X9148853Y-14545421D02*
X9319033Y-14715601D01*
X9319033Y-14545421D02*
X9148853Y-14715601D01*
X9780645Y-9567361D02*
X9950825Y-9737541D01*
X9950825Y-9567361D02*
X9780645Y-9737541D01*
X9810314Y-11267102D02*
X9980494Y-11437282D01*
X9980494Y-11267102D02*
X9810314Y-11437282D01*
X9839983Y-12966843D02*
X10010163Y-13137023D01*
X10010163Y-12966843D02*
X9839983Y-13137023D01*
X10880478Y-9548163D02*
X11050658Y-9718343D01*
X11050658Y-9548163D02*
X10880478Y-9718343D01*
X10910147Y-11247904D02*
X11080327Y-11418084D01*
X11080327Y-11247904D02*
X10910147Y-11418084D01*
X10939816Y-12947646D02*
X11109996Y-13117826D01*
X11109996Y-12947646D02*
X10939816Y-13117826D01*
X11833954Y-12484034D02*
X12004134Y-12654214D01*
X12004134Y-12484034D02*
X11833954Y-12654214D01*
X11952540Y-10788176D02*
X12122720Y-10958356D01*
X12122720Y-10788176D02*
X11952540Y-10958356D01*
X12071126Y-9092317D02*
X12241306Y-9262497D01*
X12241306Y-9092317D02*
X12071126Y-9262497D01*
X12931274Y-12560767D02*
X13101454Y-12730947D01*
X13101454Y-12560767D02*
X12931274Y-12730947D01*
X13049860Y-10864908D02*
X13220040Y-11035088D01*
X13220040Y-10864908D02*
X13049860Y-11035088D01*
X13168446Y-9169049D02*
X13338626Y-9339229D01*
X13338626Y-9169049D02*
X13168446Y-9339229D01*
X13699879Y-13067681D02*
X13870059Y-13237861D01*
X13870059Y-13067681D02*
X13699879Y-13237861D01*
X13965817Y-11388611D02*
X14135997Y-11558791D01*
X14135997Y-11388611D02*
X13965817Y-11558791D01*
X14231756Y-9709541D02*
X14401936Y-9879721D01*
X14401936Y-9709541D02*
X14231756Y-9879721D01*
X14541409Y-15203501D02*
X14711589Y-15373681D01*
X14711589Y-15203501D02*
X14541409Y-15373681D01*
X14786336Y-13239759D02*
X14956516Y-13409939D01*
X14956516Y-13239759D02*
X14786336Y-13409939D01*
X15052275Y-11560689D02*
X15222455Y-11730869D01*
X15222455Y-11560689D02*
X15052275Y-11730869D01*
X15318213Y-9881619D02*
X15488393Y-10051799D01*
X15488393Y-9881619D02*
X15318213Y-10051799D01*
X15578071Y-13355439D02*
X15748251Y-13525619D01*
X15748251Y-13355439D02*
X15578071Y-13525619D01*
X15624698Y-15394514D02*
X15794878Y-15564694D01*
X15794878Y-15394514D02*
X15624698Y-15564694D01*
X15873273Y-11681266D02*
X16043453Y-11851446D01*
X16043453Y-11681266D02*
X15873273Y-11851446D01*
X16168475Y-10007093D02*
X16338655Y-10177273D01*
X16338655Y-10007093D02*
X16168475Y-10177273D01*
X16661360Y-13546452D02*
X16831540Y-13716632D01*
X16831540Y-13546452D02*
X16661360Y-13716632D01*
X16724284Y-15727144D02*
X16894464Y-15897324D01*
X16894464Y-15727144D02*
X16724284Y-15897324D01*
X16956562Y-11872279D02*
X17126742Y-12042459D01*
X17126742Y-11872279D02*
X16956562Y-12042459D01*
X17251763Y-10198106D02*
X17421943Y-10368286D01*
X17421943Y-10198106D02*
X17251763Y-10368286D01*
X17676912Y-16277144D02*
X17847092Y-16447324D01*
X17847092Y-16277144D02*
X17676912Y-16447324D01*
X17884092Y-14318298D02*
X18054272Y-14488478D01*
X18054272Y-14318298D02*
X17884092Y-14488478D01*
X18570681Y-17039006D02*
X18740861Y-17209186D01*
X18740861Y-17039006D02*
X18570681Y-17209186D01*
X18836720Y-14868298D02*
X19006900Y-15038478D01*
X19006900Y-14868298D02*
X18836720Y-15038478D01*
X19232678Y-17917505D02*
X19402858Y-18087685D01*
X19402858Y-17917505D02*
X19232678Y-18087685D01*
X19713002Y-15610172D02*
X19883182Y-15780352D01*
X19883182Y-15610172D02*
X19713002Y-15780352D01*
X20374998Y-16488671D02*
X20545178Y-16658851D01*
X20545178Y-16488671D02*
X20374998Y-16658851D01*
X23360225Y-16488671D02*
X23530405Y-16658851D01*
X23530405Y-16488671D02*
X23360225Y-16658851D01*
X24022221Y-15610172D02*
X24192401Y-15780352D01*
X24192401Y-15610172D02*
X24022221Y-15780352D01*
X24502545Y-17917505D02*
X24672725Y-18087685D01*
X24672725Y-17917505D02*
X24502545Y-18087685D01*
X24898503Y-14868298D02*
X25068683Y-15038478D01*
X25068683Y-14868298D02*
X24898503Y-15038478D01*
X25164542Y-17039006D02*
X25334722Y-17209186D01*
X25334722Y-17039006D02*
X25164542Y-17209186D01*
X25851131Y-14318298D02*
X26021311Y-14488478D01*
X26021311Y-14318298D02*
X25851131Y-14488478D01*
X26058311Y-16277144D02*
X26228491Y-16447324D01*
X26228491Y-16277144D02*
X26058311Y-16447324D01*
X26483460Y-10198106D02*
X26653640Y-10368286D01*
X26653640Y-10198106D02*
X26483460Y-10368286D01*
X26778661Y-11872279D02*
X26948841Y-12042459D01*
X26948841Y-11872279D02*
X26778661Y-12042459D01*
X27010939Y-15727144D02*
X27181119Y-15897324D01*
X27181119Y-15727144D02*
X27010939Y-15897324D01*
X27073863Y-13546452D02*
X27244043Y-13716632D01*
X27244043Y-13546452D02*
X27073863Y-13716632D01*
X27566748Y-10007093D02*
X27736928Y-10177273D01*
X27736928Y-10007093D02*
X27566748Y-10177273D01*
X27861950Y-11681266D02*
X28032130Y-11851446D01*
X28032130Y-11681266D02*
X27861950Y-11851446D01*
X28110525Y-15394514D02*
X28280705Y-15564694D01*
X28280705Y-15394514D02*
X28110525Y-15564694D01*
X28157152Y-13355439D02*
X28327332Y-13525619D01*
X28327332Y-13355439D02*
X28157152Y-13525619D01*
X28417010Y-9881619D02*
X28587190Y-10051799D01*
X28587190Y-9881619D02*
X28417010Y-10051799D01*
X28682948Y-11560689D02*
X28853128Y-11730869D01*
X28853128Y-11560689D02*
X28682948Y-11730869D01*
X28948887Y-13239759D02*
X29119067Y-13409939D01*
X29119067Y-13239759D02*
X28948887Y-13409939D01*
X29193814Y-15203501D02*
X29363994Y-15373681D01*
X29363994Y-15203501D02*
X29193814Y-15373681D01*
X29503467Y-9709541D02*
X29673647Y-9879721D01*
X29673647Y-9709541D02*
X29503467Y-9879721D01*
X29769406Y-11388611D02*
X29939586Y-11558791D01*
X29939586Y-11388611D02*
X29769406Y-11558791D01*
X30035344Y-13067681D02*
X30205524Y-13237861D01*
X30205524Y-13067681D02*
X30035344Y-13237861D01*
X30566777Y-9169049D02*
X30736957Y-9339229D01*
X30736957Y-9169049D02*
X30566777Y-9339229D01*
X30685363Y-10864908D02*
X30855543Y-11035088D01*
X30855543Y-10864908D02*
X30685363Y-11035088D01*
X30803949Y-12560767D02*
X30974129Y-12730947D01*
X30974129Y-12560767D02*
X30803949Y-12730947D01*
X31664097Y-9092317D02*
X31834277Y-9262497D01*
X31834277Y-9092317D02*
X31664097Y-9262497D01*
X31782683Y-10788176D02*
X31952863Y-10958356D01*
X31952863Y-10788176D02*
X31782683Y-10958356D01*
X31901269Y-12484034D02*
X32071449Y-12654214D01*
X32071449Y-12484034D02*
X31901269Y-12654214D01*
X32795407Y-12947646D02*
X32965587Y-13117826D01*
X32965587Y-12947646D02*
X32795407Y-13117826D01*
X32825076Y-11247904D02*
X32995256Y-11418084D01*
X32995256Y-11247904D02*
X32825076Y-11418084D01*
X32854745Y-9548163D02*
X33024925Y-9718343D01*
X33024925Y-9548163D02*
X32854745Y-9718343D01*
X33895240Y-12966843D02*
X34065420Y-13137023D01*
X34065420Y-12966843D02*
X33895240Y-13137023D01*
X33924909Y-11267102D02*
X34095089Y-11437282D01*
X34095089Y-11267102D02*
X33924909Y-11437282D01*
X33954578Y-9567361D02*
X34124758Y-9737541D01*
X34124758Y-9567361D02*
X33954578Y-9737541D01*
X34586370Y-14545421D02*
X34756550Y-14715601D01*
X34756550Y-14545421D02*
X34586370Y-14715601D01*
X34822964Y-12861965D02*
X34993144Y-13032145D01*
X34993144Y-12861965D02*
X34822964Y-13032145D01*
X35059558Y-11178509D02*
X35229738Y-11348689D01*
X35229738Y-11178509D02*
X35059558Y-11348689D01*
X35675665Y-14698511D02*
X35845845Y-14868691D01*
X35845845Y-14698511D02*
X35675665Y-14868691D01*
X35912259Y-13015055D02*
X36082439Y-13185235D01*
X36082439Y-13015055D02*
X35912259Y-13185235D01*
X36148853Y-11331600D02*
X36319033Y-11501780D01*
X36319033Y-11331600D02*
X36148853Y-11501780D01*
D14*
X8283299Y-10750935D02*
G75*
G02*
X7983299Y-10750935I-150000J0D01*
G01*
X7983299Y-10750935D02*
G75*
G02*
X8283299Y-10750935I150000J0D01*
G01*
X8519894Y-12434391D02*
G75*
G02*
X8219893Y-12434391I-150000J0D01*
G01*
X8219893Y-12434391D02*
G75*
G02*
X8519894Y-12434391I150000J0D01*
G01*
X8756488Y-14117846D02*
G75*
G02*
X8456488Y-14117846I-150000J0D01*
G01*
X8456488Y-14117846D02*
G75*
G02*
X8756488Y-14117846I150000J0D01*
G01*
X8809051Y-10899207D02*
G75*
G02*
X8509051Y-10899207I-150000J0D01*
G01*
X8509051Y-10899207D02*
G75*
G02*
X8809051Y-10899207I150000J0D01*
G01*
X9045646Y-12582663D02*
G75*
G02*
X8745646Y-12582663I-150000J0D01*
G01*
X8745646Y-12582663D02*
G75*
G02*
X9045646Y-12582663I150000J0D01*
G01*
X9282240Y-14266119D02*
G75*
G02*
X8982240Y-14266119I-150000J0D01*
G01*
X8982240Y-14266119D02*
G75*
G02*
X9282240Y-14266119I150000J0D01*
G01*
X10555267Y-9047943D02*
G75*
G02*
X10255267Y-9047943I-150000J0D01*
G01*
X10255267Y-9047943D02*
G75*
G02*
X10555267Y-9047943I150000J0D01*
G01*
X10584936Y-10747684D02*
G75*
G02*
X10284936Y-10747684I-150000J0D01*
G01*
X10284936Y-10747684D02*
G75*
G02*
X10584936Y-10747684I150000J0D01*
G01*
X10614605Y-12447425D02*
G75*
G02*
X10314605Y-12447425I-150000J0D01*
G01*
X10314605Y-12447425D02*
G75*
G02*
X10614605Y-12447425I150000J0D01*
G01*
X11059031Y-9259183D02*
G75*
G02*
X10759031Y-9259183I-150000J0D01*
G01*
X10759031Y-9259183D02*
G75*
G02*
X11059031Y-9259183I150000J0D01*
G01*
X11088700Y-10958924D02*
G75*
G02*
X10788700Y-10958924I-150000J0D01*
G01*
X10788700Y-10958924D02*
G75*
G02*
X11088700Y-10958924I150000J0D01*
G01*
X11118369Y-12658665D02*
G75*
G02*
X10818369Y-12658665I-150000J0D01*
G01*
X10818369Y-12658665D02*
G75*
G02*
X11118369Y-12658665I150000J0D01*
G01*
X12659209Y-12013940D02*
G75*
G02*
X12359209Y-12013940I-150000J0D01*
G01*
X12359209Y-12013940D02*
G75*
G02*
X12659209Y-12013940I150000J0D01*
G01*
X12777795Y-10318081D02*
G75*
G02*
X12477795Y-10318081I-150000J0D01*
G01*
X12477795Y-10318081D02*
G75*
G02*
X12777795Y-10318081I150000J0D01*
G01*
X12896381Y-8622222D02*
G75*
G02*
X12596381Y-8622222I-150000J0D01*
G01*
X12596381Y-8622222D02*
G75*
G02*
X12896381Y-8622222I150000J0D01*
G01*
X13142645Y-12268282D02*
G75*
G02*
X12842645Y-12268282I-150000J0D01*
G01*
X12842645Y-12268282D02*
G75*
G02*
X13142645Y-12268282I150000J0D01*
G01*
X13261231Y-10572423D02*
G75*
G02*
X12961231Y-10572423I-150000J0D01*
G01*
X12961231Y-10572423D02*
G75*
G02*
X13261231Y-10572423I150000J0D01*
G01*
X13379817Y-8876564D02*
G75*
G02*
X13079817Y-8876564I-150000J0D01*
G01*
X13079817Y-8876564D02*
G75*
G02*
X13379817Y-8876564I150000J0D01*
G01*
X14571276Y-12651135D02*
G75*
G02*
X14271276Y-12651135I-150000J0D01*
G01*
X14271276Y-12651135D02*
G75*
G02*
X14571276Y-12651135I150000J0D01*
G01*
X14837215Y-10972065D02*
G75*
G02*
X14537215Y-10972065I-150000J0D01*
G01*
X14537215Y-10972065D02*
G75*
G02*
X14837215Y-10972065I150000J0D01*
G01*
X15030705Y-12946644D02*
G75*
G02*
X14730705Y-12946644I-150000J0D01*
G01*
X14730705Y-12946644D02*
G75*
G02*
X15030705Y-12946644I150000J0D01*
G01*
X15103153Y-9292995D02*
G75*
G02*
X14803153Y-9292995I-150000J0D01*
G01*
X14803153Y-9292995D02*
G75*
G02*
X15103153Y-9292995I150000J0D01*
G01*
X15296643Y-11267574D02*
G75*
G02*
X14996643Y-11267574I-150000J0D01*
G01*
X14996643Y-11267574D02*
G75*
G02*
X15296643Y-11267574I150000J0D01*
G01*
X15421464Y-14798136D02*
G75*
G02*
X15121464Y-14798136I-150000J0D01*
G01*
X15121464Y-14798136D02*
G75*
G02*
X15421464Y-14798136I150000J0D01*
G01*
X15562582Y-9588504D02*
G75*
G02*
X15262582Y-9588504I-150000J0D01*
G01*
X15262582Y-9588504D02*
G75*
G02*
X15562582Y-9588504I150000J0D01*
G01*
X15875665Y-15101618D02*
G75*
G02*
X15575665Y-15101618I-150000J0D01*
G01*
X15575665Y-15101618D02*
G75*
G02*
X15875665Y-15101618I150000J0D01*
G01*
X16458126Y-12950075D02*
G75*
G02*
X16158126Y-12950075I-150000J0D01*
G01*
X16158126Y-12950075D02*
G75*
G02*
X16458126Y-12950075I150000J0D01*
G01*
X16753328Y-11275901D02*
G75*
G02*
X16453328Y-11275901I-150000J0D01*
G01*
X16453328Y-11275901D02*
G75*
G02*
X16753328Y-11275901I150000J0D01*
G01*
X16912327Y-13253556D02*
G75*
G02*
X16612327Y-13253556I-150000J0D01*
G01*
X16612327Y-13253556D02*
G75*
G02*
X16912327Y-13253556I150000J0D01*
G01*
X17048530Y-9601728D02*
G75*
G02*
X16748530Y-9601728I-150000J0D01*
G01*
X16748530Y-9601728D02*
G75*
G02*
X17048530Y-9601728I150000J0D01*
G01*
X17207529Y-11579383D02*
G75*
G02*
X16907529Y-11579383I-150000J0D01*
G01*
X16907529Y-11579383D02*
G75*
G02*
X17207529Y-11579383I150000J0D01*
G01*
X17502731Y-9905210D02*
G75*
G02*
X17202731Y-9905210I-150000J0D01*
G01*
X17202731Y-9905210D02*
G75*
G02*
X17502731Y-9905210I150000J0D01*
G01*
X17733188Y-15571949D02*
G75*
G02*
X17433188Y-15571949I-150000J0D01*
G01*
X17433188Y-15571949D02*
G75*
G02*
X17733188Y-15571949I150000J0D01*
G01*
X18056201Y-16012474D02*
G75*
G02*
X17756201Y-16012474I-150000J0D01*
G01*
X17756201Y-16012474D02*
G75*
G02*
X18056201Y-16012474I150000J0D01*
G01*
X18892996Y-14163103D02*
G75*
G02*
X18592996Y-14163103I-150000J0D01*
G01*
X18592996Y-14163103D02*
G75*
G02*
X18892996Y-14163103I150000J0D01*
G01*
X19216009Y-14603628D02*
G75*
G02*
X18916009Y-14603628I-150000J0D01*
G01*
X18916009Y-14603628D02*
G75*
G02*
X19216009Y-14603628I150000J0D01*
G01*
X19611958Y-17205265D02*
G75*
G02*
X19311958Y-17205265I-150000J0D01*
G01*
X19311958Y-17205265D02*
G75*
G02*
X19611958Y-17205265I150000J0D01*
G01*
X19737165Y-17736982D02*
G75*
G02*
X19437165Y-17736982I-150000J0D01*
G01*
X19437165Y-17736982D02*
G75*
G02*
X19737165Y-17736982I150000J0D01*
G01*
X20754278Y-15776431D02*
G75*
G02*
X20454278Y-15776431I-150000J0D01*
G01*
X20454278Y-15776431D02*
G75*
G02*
X20754278Y-15776431I150000J0D01*
G01*
X20879486Y-16308148D02*
G75*
G02*
X20579486Y-16308148I-150000J0D01*
G01*
X20579486Y-16308148D02*
G75*
G02*
X20879486Y-16308148I150000J0D01*
G01*
X23451125Y-15776431D02*
G75*
G02*
X23151125Y-15776431I-150000J0D01*
G01*
X23151125Y-15776431D02*
G75*
G02*
X23451125Y-15776431I150000J0D01*
G01*
X23927732Y-15509513D02*
G75*
G02*
X23627732Y-15509513I-150000J0D01*
G01*
X23627732Y-15509513D02*
G75*
G02*
X23927732Y-15509513I150000J0D01*
G01*
X24593445Y-17205265D02*
G75*
G02*
X24293445Y-17205265I-150000J0D01*
G01*
X24293445Y-17205265D02*
G75*
G02*
X24593445Y-17205265I150000J0D01*
G01*
X25070053Y-16938347D02*
G75*
G02*
X24770053Y-16938347I-150000J0D01*
G01*
X24770053Y-16938347D02*
G75*
G02*
X25070053Y-16938347I150000J0D01*
G01*
X25312407Y-14163103D02*
G75*
G02*
X25012407Y-14163103I-150000J0D01*
G01*
X25012407Y-14163103D02*
G75*
G02*
X25312407Y-14163103I150000J0D01*
G01*
X25855420Y-14103628D02*
G75*
G02*
X25555420Y-14103628I-150000J0D01*
G01*
X25555420Y-14103628D02*
G75*
G02*
X25855420Y-14103628I150000J0D01*
G01*
X26472215Y-15571949D02*
G75*
G02*
X26172215Y-15571949I-150000J0D01*
G01*
X26172215Y-15571949D02*
G75*
G02*
X26472215Y-15571949I150000J0D01*
G01*
X27015227Y-15512474D02*
G75*
G02*
X26715227Y-15512474I-150000J0D01*
G01*
X26715227Y-15512474D02*
G75*
G02*
X27015227Y-15512474I150000J0D01*
G01*
X27156873Y-9601728D02*
G75*
G02*
X26856873Y-9601728I-150000J0D01*
G01*
X26856873Y-9601728D02*
G75*
G02*
X27156873Y-9601728I150000J0D01*
G01*
X27452075Y-11275901D02*
G75*
G02*
X27152075Y-11275901I-150000J0D01*
G01*
X27152075Y-11275901D02*
G75*
G02*
X27452075Y-11275901I150000J0D01*
G01*
X27687480Y-9731562D02*
G75*
G02*
X27387480Y-9731562I-150000J0D01*
G01*
X27387480Y-9731562D02*
G75*
G02*
X27687480Y-9731562I150000J0D01*
G01*
X27747277Y-12950075D02*
G75*
G02*
X27447277Y-12950075I-150000J0D01*
G01*
X27447277Y-12950075D02*
G75*
G02*
X27747277Y-12950075I150000J0D01*
G01*
X27982682Y-11405735D02*
G75*
G02*
X27682682Y-11405735I-150000J0D01*
G01*
X27682682Y-11405735D02*
G75*
G02*
X27982682Y-11405735I150000J0D01*
G01*
X28277883Y-13079908D02*
G75*
G02*
X27977883Y-13079908I-150000J0D01*
G01*
X27977883Y-13079908D02*
G75*
G02*
X28277883Y-13079908I150000J0D01*
G01*
X28783939Y-14798136D02*
G75*
G02*
X28483939Y-14798136I-150000J0D01*
G01*
X28483939Y-14798136D02*
G75*
G02*
X28783939Y-14798136I150000J0D01*
G01*
X29102250Y-9292995D02*
G75*
G02*
X28802250Y-9292995I-150000J0D01*
G01*
X28802250Y-9292995D02*
G75*
G02*
X29102250Y-9292995I150000J0D01*
G01*
X29314545Y-14927970D02*
G75*
G02*
X29014545Y-14927970I-150000J0D01*
G01*
X29014545Y-14927970D02*
G75*
G02*
X29314545Y-14927970I150000J0D01*
G01*
X29368188Y-10972065D02*
G75*
G02*
X29068188Y-10972065I-150000J0D01*
G01*
X29068188Y-10972065D02*
G75*
G02*
X29368188Y-10972065I150000J0D01*
G01*
X29630510Y-9432069D02*
G75*
G02*
X29330510Y-9432069I-150000J0D01*
G01*
X29330510Y-9432069D02*
G75*
G02*
X29630510Y-9432069I150000J0D01*
G01*
X29634127Y-12651135D02*
G75*
G02*
X29334127Y-12651135I-150000J0D01*
G01*
X29334127Y-12651135D02*
G75*
G02*
X29634127Y-12651135I150000J0D01*
G01*
X29896448Y-11111139D02*
G75*
G02*
X29596448Y-11111139I-150000J0D01*
G01*
X29596448Y-11111139D02*
G75*
G02*
X29896448Y-11111139I150000J0D01*
G01*
X30162387Y-12790209D02*
G75*
G02*
X29862387Y-12790209I-150000J0D01*
G01*
X29862387Y-12790209D02*
G75*
G02*
X30162387Y-12790209I150000J0D01*
G01*
X31309022Y-8622222D02*
G75*
G02*
X31009022Y-8622222I-150000J0D01*
G01*
X31009022Y-8622222D02*
G75*
G02*
X31309022Y-8622222I150000J0D01*
G01*
X31427608Y-10318081D02*
G75*
G02*
X31127608Y-10318081I-150000J0D01*
G01*
X31127608Y-10318081D02*
G75*
G02*
X31427608Y-10318081I150000J0D01*
G01*
X31546194Y-12013940D02*
G75*
G02*
X31246194Y-12013940I-150000J0D01*
G01*
X31246194Y-12013940D02*
G75*
G02*
X31546194Y-12013940I150000J0D01*
G01*
X31823150Y-8806808D02*
G75*
G02*
X31523150Y-8806808I-150000J0D01*
G01*
X31523150Y-8806808D02*
G75*
G02*
X31823150Y-8806808I150000J0D01*
G01*
X31941736Y-10502667D02*
G75*
G02*
X31641736Y-10502667I-150000J0D01*
G01*
X31641736Y-10502667D02*
G75*
G02*
X31941736Y-10502667I150000J0D01*
G01*
X32060322Y-12198526D02*
G75*
G02*
X31760322Y-12198526I-150000J0D01*
G01*
X31760322Y-12198526D02*
G75*
G02*
X32060322Y-12198526I150000J0D01*
G01*
X33590798Y-12447425D02*
G75*
G02*
X33290798Y-12447425I-150000J0D01*
G01*
X33290798Y-12447425D02*
G75*
G02*
X33590798Y-12447425I150000J0D01*
G01*
X33620467Y-10747684D02*
G75*
G02*
X33320467Y-10747684I-150000J0D01*
G01*
X33320467Y-10747684D02*
G75*
G02*
X33620467Y-10747684I150000J0D01*
G01*
X33650136Y-9047943D02*
G75*
G02*
X33350136Y-9047943I-150000J0D01*
G01*
X33350136Y-9047943D02*
G75*
G02*
X33650136Y-9047943I150000J0D01*
G01*
X34086882Y-12676118D02*
G75*
G02*
X33786882Y-12676118I-150000J0D01*
G01*
X33786882Y-12676118D02*
G75*
G02*
X34086882Y-12676118I150000J0D01*
G01*
X34116551Y-10976377D02*
G75*
G02*
X33816551Y-10976377I-150000J0D01*
G01*
X33816551Y-10976377D02*
G75*
G02*
X34116551Y-10976377I150000J0D01*
G01*
X34146220Y-9276636D02*
G75*
G02*
X33846220Y-9276636I-150000J0D01*
G01*
X33846220Y-9276636D02*
G75*
G02*
X34146220Y-9276636I150000J0D01*
G01*
X35448915Y-14117846D02*
G75*
G02*
X35148915Y-14117846I-150000J0D01*
G01*
X35148915Y-14117846D02*
G75*
G02*
X35448915Y-14117846I150000J0D01*
G01*
X35685510Y-12434391D02*
G75*
G02*
X35385510Y-12434391I-150000J0D01*
G01*
X35385510Y-12434391D02*
G75*
G02*
X35685510Y-12434391I150000J0D01*
G01*
X35913431Y-14405292D02*
G75*
G02*
X35613431Y-14405292I-150000J0D01*
G01*
X35613431Y-14405292D02*
G75*
G02*
X35913431Y-14405292I150000J0D01*
G01*
X35922104Y-10750935D02*
G75*
G02*
X35622104Y-10750935I-150000J0D01*
G01*
X35622104Y-10750935D02*
G75*
G02*
X35922104Y-10750935I150000J0D01*
G01*
X36150025Y-12721836D02*
G75*
G02*
X35850025Y-12721836I-150000J0D01*
G01*
X35850025Y-12721836D02*
G75*
G02*
X36150025Y-12721836I150000J0D01*
G01*
X36386620Y-11038381D02*
G75*
G02*
X36086620Y-11038381I-150000J0D01*
G01*
X36086620Y-11038381D02*
G75*
G02*
X36386620Y-11038381I150000J0D01*
G01*
D15*
X8216107Y-11168695D02*
X8216107Y-11511594D01*
X8044657Y-11340144D02*
X8387557Y-11340144D01*
X8452702Y-12852150D02*
X8452702Y-13195050D01*
X8281251Y-13023600D02*
X8624152Y-13023600D01*
X8689296Y-14535606D02*
X8689296Y-14878506D01*
X8517846Y-14707056D02*
X8860746Y-14707056D01*
X10415651Y-9471402D02*
X10415651Y-9814302D01*
X10244201Y-9642852D02*
X10587101Y-9642852D01*
X10445321Y-11171143D02*
X10445321Y-11514043D01*
X10273871Y-11342593D02*
X10616771Y-11342593D01*
X10474990Y-12870884D02*
X10474990Y-13213784D01*
X10303540Y-13042334D02*
X10646440Y-13042334D01*
X12467704Y-12436040D02*
X12467704Y-12778940D01*
X12296254Y-12607490D02*
X12639154Y-12607490D01*
X12586290Y-10740182D02*
X12586290Y-11083082D01*
X12414840Y-10911632D02*
X12757740Y-10911632D01*
X12704876Y-9044323D02*
X12704876Y-9387223D01*
X12533426Y-9215773D02*
X12876326Y-9215773D01*
X14328197Y-13067360D02*
X14328197Y-13410260D01*
X14156747Y-13238810D02*
X14499647Y-13238810D01*
X14594136Y-11388290D02*
X14594136Y-11731190D01*
X14422686Y-11559740D02*
X14765586Y-11559740D01*
X14860075Y-9709220D02*
X14860075Y-10052120D01*
X14688625Y-9880670D02*
X15031525Y-9880670D01*
X15168143Y-15212647D02*
X15168143Y-15555547D01*
X14996693Y-15384097D02*
X15339593Y-15384097D01*
X16204805Y-13364585D02*
X16204805Y-13707485D01*
X16033355Y-13536035D02*
X16376255Y-13536035D01*
X16500007Y-11690412D02*
X16500007Y-12033312D01*
X16328557Y-11861862D02*
X16671457Y-11861862D01*
X16795209Y-10016239D02*
X16795209Y-10359139D01*
X16623759Y-10187689D02*
X16966659Y-10187689D01*
X17285688Y-15915784D02*
X17285688Y-16258684D01*
X17114238Y-16087234D02*
X17457138Y-16087234D01*
X18445496Y-14506938D02*
X18445496Y-14849838D01*
X18274046Y-14678388D02*
X18616946Y-14678388D01*
X18986769Y-17391895D02*
X18986769Y-17734795D01*
X18815319Y-17563345D02*
X19158219Y-17563345D01*
X20129090Y-15963061D02*
X20129090Y-16305961D01*
X19957640Y-16134511D02*
X20300540Y-16134511D01*
X23776313Y-15963061D02*
X23776313Y-16305961D01*
X23604863Y-16134511D02*
X23947763Y-16134511D01*
X24918634Y-17391895D02*
X24918634Y-17734795D01*
X24747184Y-17563345D02*
X25090084Y-17563345D01*
X25459907Y-14506938D02*
X25459907Y-14849838D01*
X25288457Y-14678388D02*
X25631357Y-14678388D01*
X26619715Y-15915784D02*
X26619715Y-16258684D01*
X26448265Y-16087234D02*
X26791165Y-16087234D01*
X27110194Y-10016239D02*
X27110194Y-10359139D01*
X26938744Y-10187689D02*
X27281644Y-10187689D01*
X27405396Y-11690412D02*
X27405396Y-12033312D01*
X27233946Y-11861862D02*
X27576846Y-11861862D01*
X27700598Y-13364585D02*
X27700598Y-13707485D01*
X27529148Y-13536035D02*
X27872048Y-13536035D01*
X28737259Y-15212647D02*
X28737259Y-15555547D01*
X28565809Y-15384097D02*
X28908709Y-15384097D01*
X29045328Y-9709220D02*
X29045328Y-10052120D01*
X28873878Y-9880670D02*
X29216778Y-9880670D01*
X29311267Y-11388290D02*
X29311267Y-11731190D01*
X29139817Y-11559740D02*
X29482717Y-11559740D01*
X29577206Y-13067360D02*
X29577206Y-13410260D01*
X29405756Y-13238810D02*
X29748656Y-13238810D01*
X31200527Y-9044323D02*
X31200527Y-9387223D01*
X31029077Y-9215773D02*
X31371977Y-9215773D01*
X31319113Y-10740182D02*
X31319113Y-11083082D01*
X31147663Y-10911632D02*
X31490563Y-10911632D01*
X31437699Y-12436040D02*
X31437699Y-12778940D01*
X31266249Y-12607490D02*
X31609149Y-12607490D01*
X33430413Y-12870884D02*
X33430413Y-13213784D01*
X33258963Y-13042334D02*
X33601864Y-13042334D01*
X33460082Y-11171143D02*
X33460082Y-11514043D01*
X33288632Y-11342593D02*
X33631533Y-11342593D01*
X33489752Y-9471402D02*
X33489752Y-9814302D01*
X33318302Y-9642852D02*
X33661202Y-9642852D01*
X35216107Y-14535606D02*
X35216107Y-14878506D01*
X35044657Y-14707056D02*
X35387557Y-14707056D01*
X35452702Y-12852150D02*
X35452702Y-13195050D01*
X35281252Y-13023600D02*
X35624152Y-13023600D01*
X35689296Y-11168695D02*
X35689296Y-11511594D01*
X35517846Y-11340144D02*
X35860746Y-11340144D01*
D12*
X7212386Y-19258272D02*
X7212386Y-19058272D01*
X7212386Y-19058272D02*
X7260005Y-19058272D01*
X7260005Y-19058272D02*
X7288576Y-19067796D01*
X7288576Y-19067796D02*
X7307624Y-19086844D01*
X7307624Y-19086844D02*
X7317148Y-19105891D01*
X7317148Y-19105891D02*
X7326671Y-19143986D01*
X7326671Y-19143986D02*
X7326671Y-19172558D01*
X7326671Y-19172558D02*
X7317148Y-19210653D01*
X7317148Y-19210653D02*
X7307624Y-19229701D01*
X7307624Y-19229701D02*
X7288576Y-19248748D01*
X7288576Y-19248748D02*
X7260005Y-19258272D01*
X7260005Y-19258272D02*
X7212386Y-19258272D01*
X7412386Y-19258272D02*
X7412386Y-19124939D01*
X7412386Y-19163034D02*
X7421909Y-19143986D01*
X7421909Y-19143986D02*
X7431433Y-19134463D01*
X7431433Y-19134463D02*
X7450481Y-19124939D01*
X7450481Y-19124939D02*
X7469529Y-19124939D01*
X7536195Y-19258272D02*
X7536195Y-19124939D01*
X7536195Y-19058272D02*
X7526671Y-19067796D01*
X7526671Y-19067796D02*
X7536195Y-19077320D01*
X7536195Y-19077320D02*
X7545719Y-19067796D01*
X7545719Y-19067796D02*
X7536195Y-19058272D01*
X7536195Y-19058272D02*
X7536195Y-19077320D01*
X7660005Y-19258272D02*
X7640957Y-19248748D01*
X7640957Y-19248748D02*
X7631433Y-19229701D01*
X7631433Y-19229701D02*
X7631433Y-19058272D01*
X7764767Y-19258272D02*
X7745719Y-19248748D01*
X7745719Y-19248748D02*
X7736195Y-19229701D01*
X7736195Y-19229701D02*
X7736195Y-19058272D01*
X7993338Y-19258272D02*
X7993338Y-19058272D01*
X7993338Y-19058272D02*
X8060005Y-19201129D01*
X8060005Y-19201129D02*
X8126671Y-19058272D01*
X8126671Y-19058272D02*
X8126671Y-19258272D01*
X8307624Y-19258272D02*
X8307624Y-19153510D01*
X8307624Y-19153510D02*
X8298100Y-19134463D01*
X8298100Y-19134463D02*
X8279052Y-19124939D01*
X8279052Y-19124939D02*
X8240957Y-19124939D01*
X8240957Y-19124939D02*
X8221909Y-19134463D01*
X8307624Y-19248748D02*
X8288576Y-19258272D01*
X8288576Y-19258272D02*
X8240957Y-19258272D01*
X8240957Y-19258272D02*
X8221909Y-19248748D01*
X8221909Y-19248748D02*
X8212386Y-19229701D01*
X8212386Y-19229701D02*
X8212386Y-19210653D01*
X8212386Y-19210653D02*
X8221909Y-19191605D01*
X8221909Y-19191605D02*
X8240957Y-19182082D01*
X8240957Y-19182082D02*
X8288576Y-19182082D01*
X8288576Y-19182082D02*
X8307624Y-19172558D01*
X8402862Y-19124939D02*
X8402862Y-19324939D01*
X8402862Y-19134463D02*
X8421910Y-19124939D01*
X8421910Y-19124939D02*
X8460005Y-19124939D01*
X8460005Y-19124939D02*
X8479052Y-19134463D01*
X8479052Y-19134463D02*
X8488576Y-19143986D01*
X8488576Y-19143986D02*
X8498100Y-19163034D01*
X8498100Y-19163034D02*
X8498100Y-19220177D01*
X8498100Y-19220177D02*
X8488576Y-19239224D01*
X8488576Y-19239224D02*
X8479052Y-19248748D01*
X8479052Y-19248748D02*
X8460005Y-19258272D01*
X8460005Y-19258272D02*
X8421910Y-19258272D01*
X8421910Y-19258272D02*
X8402862Y-19248748D01*
X8583814Y-19239224D02*
X8593338Y-19248748D01*
X8593338Y-19248748D02*
X8583814Y-19258272D01*
X8583814Y-19258272D02*
X8574291Y-19248748D01*
X8574291Y-19248748D02*
X8583814Y-19239224D01*
X8583814Y-19239224D02*
X8583814Y-19258272D01*
X8583814Y-19134463D02*
X8593338Y-19143986D01*
X8593338Y-19143986D02*
X8583814Y-19153510D01*
X8583814Y-19153510D02*
X8574291Y-19143986D01*
X8574291Y-19143986D02*
X8583814Y-19134463D01*
X8583814Y-19134463D02*
X8583814Y-19153510D01*
D13*
X6781429Y-19501698D02*
X6951609Y-19671878D01*
X6951609Y-19501698D02*
X6781429Y-19671878D01*
D12*
X7317148Y-19678272D02*
X7202862Y-19678272D01*
X7260005Y-19678272D02*
X7260005Y-19478272D01*
X7260005Y-19478272D02*
X7240957Y-19506844D01*
X7240957Y-19506844D02*
X7221909Y-19525891D01*
X7221909Y-19525891D02*
X7202862Y-19535415D01*
X7402862Y-19659224D02*
X7412386Y-19668748D01*
X7412386Y-19668748D02*
X7402862Y-19678272D01*
X7402862Y-19678272D02*
X7393338Y-19668748D01*
X7393338Y-19668748D02*
X7402862Y-19659224D01*
X7402862Y-19659224D02*
X7402862Y-19678272D01*
X7479052Y-19478272D02*
X7612386Y-19478272D01*
X7612386Y-19478272D02*
X7526671Y-19678272D01*
X7726671Y-19478272D02*
X7745719Y-19478272D01*
X7745719Y-19478272D02*
X7764767Y-19487796D01*
X7764767Y-19487796D02*
X7774290Y-19497320D01*
X7774290Y-19497320D02*
X7783814Y-19516367D01*
X7783814Y-19516367D02*
X7793338Y-19554463D01*
X7793338Y-19554463D02*
X7793338Y-19602082D01*
X7793338Y-19602082D02*
X7783814Y-19640177D01*
X7783814Y-19640177D02*
X7774290Y-19659224D01*
X7774290Y-19659224D02*
X7764767Y-19668748D01*
X7764767Y-19668748D02*
X7745719Y-19678272D01*
X7745719Y-19678272D02*
X7726671Y-19678272D01*
X7726671Y-19678272D02*
X7707624Y-19668748D01*
X7707624Y-19668748D02*
X7698100Y-19659224D01*
X7698100Y-19659224D02*
X7688576Y-19640177D01*
X7688576Y-19640177D02*
X7679052Y-19602082D01*
X7679052Y-19602082D02*
X7679052Y-19554463D01*
X7679052Y-19554463D02*
X7688576Y-19516367D01*
X7688576Y-19516367D02*
X7698100Y-19497320D01*
X7698100Y-19497320D02*
X7707624Y-19487796D01*
X7707624Y-19487796D02*
X7726671Y-19478272D01*
X7869529Y-19497320D02*
X7879052Y-19487796D01*
X7879052Y-19487796D02*
X7898100Y-19478272D01*
X7898100Y-19478272D02*
X7945719Y-19478272D01*
X7945719Y-19478272D02*
X7964767Y-19487796D01*
X7964767Y-19487796D02*
X7974290Y-19497320D01*
X7974290Y-19497320D02*
X7983814Y-19516367D01*
X7983814Y-19516367D02*
X7983814Y-19535415D01*
X7983814Y-19535415D02*
X7974290Y-19563986D01*
X7974290Y-19563986D02*
X7860005Y-19678272D01*
X7860005Y-19678272D02*
X7983814Y-19678272D01*
X8069529Y-19678272D02*
X8069529Y-19544939D01*
X8069529Y-19563986D02*
X8079052Y-19554463D01*
X8079052Y-19554463D02*
X8098100Y-19544939D01*
X8098100Y-19544939D02*
X8126671Y-19544939D01*
X8126671Y-19544939D02*
X8145719Y-19554463D01*
X8145719Y-19554463D02*
X8155243Y-19573510D01*
X8155243Y-19573510D02*
X8155243Y-19678272D01*
X8155243Y-19573510D02*
X8164767Y-19554463D01*
X8164767Y-19554463D02*
X8183814Y-19544939D01*
X8183814Y-19544939D02*
X8212386Y-19544939D01*
X8212386Y-19544939D02*
X8231433Y-19554463D01*
X8231433Y-19554463D02*
X8240957Y-19573510D01*
X8240957Y-19573510D02*
X8240957Y-19678272D01*
X8336195Y-19678272D02*
X8336195Y-19544939D01*
X8336195Y-19563986D02*
X8345719Y-19554463D01*
X8345719Y-19554463D02*
X8364767Y-19544939D01*
X8364767Y-19544939D02*
X8393338Y-19544939D01*
X8393338Y-19544939D02*
X8412386Y-19554463D01*
X8412386Y-19554463D02*
X8421910Y-19573510D01*
X8421910Y-19573510D02*
X8421910Y-19678272D01*
X8421910Y-19573510D02*
X8431433Y-19554463D01*
X8431433Y-19554463D02*
X8450481Y-19544939D01*
X8450481Y-19544939D02*
X8479052Y-19544939D01*
X8479052Y-19544939D02*
X8498100Y-19554463D01*
X8498100Y-19554463D02*
X8507624Y-19573510D01*
X8507624Y-19573510D02*
X8507624Y-19678272D01*
X8898100Y-19468748D02*
X8726672Y-19725891D01*
X9155243Y-19478272D02*
X9174291Y-19478272D01*
X9174291Y-19478272D02*
X9193338Y-19487796D01*
X9193338Y-19487796D02*
X9202862Y-19497320D01*
X9202862Y-19497320D02*
X9212386Y-19516367D01*
X9212386Y-19516367D02*
X9221910Y-19554463D01*
X9221910Y-19554463D02*
X9221910Y-19602082D01*
X9221910Y-19602082D02*
X9212386Y-19640177D01*
X9212386Y-19640177D02*
X9202862Y-19659224D01*
X9202862Y-19659224D02*
X9193338Y-19668748D01*
X9193338Y-19668748D02*
X9174291Y-19678272D01*
X9174291Y-19678272D02*
X9155243Y-19678272D01*
X9155243Y-19678272D02*
X9136195Y-19668748D01*
X9136195Y-19668748D02*
X9126672Y-19659224D01*
X9126672Y-19659224D02*
X9117148Y-19640177D01*
X9117148Y-19640177D02*
X9107624Y-19602082D01*
X9107624Y-19602082D02*
X9107624Y-19554463D01*
X9107624Y-19554463D02*
X9117148Y-19516367D01*
X9117148Y-19516367D02*
X9126672Y-19497320D01*
X9126672Y-19497320D02*
X9136195Y-19487796D01*
X9136195Y-19487796D02*
X9155243Y-19478272D01*
X9307624Y-19659224D02*
X9317148Y-19668748D01*
X9317148Y-19668748D02*
X9307624Y-19678272D01*
X9307624Y-19678272D02*
X9298100Y-19668748D01*
X9298100Y-19668748D02*
X9307624Y-19659224D01*
X9307624Y-19659224D02*
X9307624Y-19678272D01*
X9440957Y-19478272D02*
X9460005Y-19478272D01*
X9460005Y-19478272D02*
X9479053Y-19487796D01*
X9479053Y-19487796D02*
X9488576Y-19497320D01*
X9488576Y-19497320D02*
X9498100Y-19516367D01*
X9498100Y-19516367D02*
X9507624Y-19554463D01*
X9507624Y-19554463D02*
X9507624Y-19602082D01*
X9507624Y-19602082D02*
X9498100Y-19640177D01*
X9498100Y-19640177D02*
X9488576Y-19659224D01*
X9488576Y-19659224D02*
X9479053Y-19668748D01*
X9479053Y-19668748D02*
X9460005Y-19678272D01*
X9460005Y-19678272D02*
X9440957Y-19678272D01*
X9440957Y-19678272D02*
X9421910Y-19668748D01*
X9421910Y-19668748D02*
X9412386Y-19659224D01*
X9412386Y-19659224D02*
X9402862Y-19640177D01*
X9402862Y-19640177D02*
X9393338Y-19602082D01*
X9393338Y-19602082D02*
X9393338Y-19554463D01*
X9393338Y-19554463D02*
X9402862Y-19516367D01*
X9402862Y-19516367D02*
X9412386Y-19497320D01*
X9412386Y-19497320D02*
X9421910Y-19487796D01*
X9421910Y-19487796D02*
X9440957Y-19478272D01*
X9679053Y-19478272D02*
X9640957Y-19478272D01*
X9640957Y-19478272D02*
X9621910Y-19487796D01*
X9621910Y-19487796D02*
X9612386Y-19497320D01*
X9612386Y-19497320D02*
X9593338Y-19525891D01*
X9593338Y-19525891D02*
X9583815Y-19563986D01*
X9583815Y-19563986D02*
X9583815Y-19640177D01*
X9583815Y-19640177D02*
X9593338Y-19659224D01*
X9593338Y-19659224D02*
X9602862Y-19668748D01*
X9602862Y-19668748D02*
X9621910Y-19678272D01*
X9621910Y-19678272D02*
X9660005Y-19678272D01*
X9660005Y-19678272D02*
X9679053Y-19668748D01*
X9679053Y-19668748D02*
X9688576Y-19659224D01*
X9688576Y-19659224D02*
X9698100Y-19640177D01*
X9698100Y-19640177D02*
X9698100Y-19592558D01*
X9698100Y-19592558D02*
X9688576Y-19573510D01*
X9688576Y-19573510D02*
X9679053Y-19563986D01*
X9679053Y-19563986D02*
X9660005Y-19554463D01*
X9660005Y-19554463D02*
X9621910Y-19554463D01*
X9621910Y-19554463D02*
X9602862Y-19563986D01*
X9602862Y-19563986D02*
X9593338Y-19573510D01*
X9593338Y-19573510D02*
X9583815Y-19592558D01*
X9764767Y-19478272D02*
X9898100Y-19478272D01*
X9898100Y-19478272D02*
X9812386Y-19678272D01*
X10012386Y-19478272D02*
X10031434Y-19478272D01*
X10031434Y-19478272D02*
X10050481Y-19487796D01*
X10050481Y-19487796D02*
X10060005Y-19497320D01*
X10060005Y-19497320D02*
X10069529Y-19516367D01*
X10069529Y-19516367D02*
X10079053Y-19554463D01*
X10079053Y-19554463D02*
X10079053Y-19602082D01*
X10079053Y-19602082D02*
X10069529Y-19640177D01*
X10069529Y-19640177D02*
X10060005Y-19659224D01*
X10060005Y-19659224D02*
X10050481Y-19668748D01*
X10050481Y-19668748D02*
X10031434Y-19678272D01*
X10031434Y-19678272D02*
X10012386Y-19678272D01*
X10012386Y-19678272D02*
X9993338Y-19668748D01*
X9993338Y-19668748D02*
X9983815Y-19659224D01*
X9983815Y-19659224D02*
X9974291Y-19640177D01*
X9974291Y-19640177D02*
X9964767Y-19602082D01*
X9964767Y-19602082D02*
X9964767Y-19554463D01*
X9964767Y-19554463D02*
X9974291Y-19516367D01*
X9974291Y-19516367D02*
X9983815Y-19497320D01*
X9983815Y-19497320D02*
X9993338Y-19487796D01*
X9993338Y-19487796D02*
X10012386Y-19478272D01*
X10155243Y-19478272D02*
X10155243Y-19516367D01*
X10231434Y-19478272D02*
X10231434Y-19516367D01*
X10526672Y-19754463D02*
X10517148Y-19744939D01*
X10517148Y-19744939D02*
X10498100Y-19716367D01*
X10498100Y-19716367D02*
X10488577Y-19697320D01*
X10488577Y-19697320D02*
X10479053Y-19668748D01*
X10479053Y-19668748D02*
X10469529Y-19621129D01*
X10469529Y-19621129D02*
X10469529Y-19583034D01*
X10469529Y-19583034D02*
X10479053Y-19535415D01*
X10479053Y-19535415D02*
X10488577Y-19506844D01*
X10488577Y-19506844D02*
X10498100Y-19487796D01*
X10498100Y-19487796D02*
X10517148Y-19459224D01*
X10517148Y-19459224D02*
X10526672Y-19449701D01*
X10631434Y-19563986D02*
X10612386Y-19554463D01*
X10612386Y-19554463D02*
X10602862Y-19544939D01*
X10602862Y-19544939D02*
X10593338Y-19525891D01*
X10593338Y-19525891D02*
X10593338Y-19516367D01*
X10593338Y-19516367D02*
X10602862Y-19497320D01*
X10602862Y-19497320D02*
X10612386Y-19487796D01*
X10612386Y-19487796D02*
X10631434Y-19478272D01*
X10631434Y-19478272D02*
X10669529Y-19478272D01*
X10669529Y-19478272D02*
X10688577Y-19487796D01*
X10688577Y-19487796D02*
X10698100Y-19497320D01*
X10698100Y-19497320D02*
X10707624Y-19516367D01*
X10707624Y-19516367D02*
X10707624Y-19525891D01*
X10707624Y-19525891D02*
X10698100Y-19544939D01*
X10698100Y-19544939D02*
X10688577Y-19554463D01*
X10688577Y-19554463D02*
X10669529Y-19563986D01*
X10669529Y-19563986D02*
X10631434Y-19563986D01*
X10631434Y-19563986D02*
X10612386Y-19573510D01*
X10612386Y-19573510D02*
X10602862Y-19583034D01*
X10602862Y-19583034D02*
X10593338Y-19602082D01*
X10593338Y-19602082D02*
X10593338Y-19640177D01*
X10593338Y-19640177D02*
X10602862Y-19659224D01*
X10602862Y-19659224D02*
X10612386Y-19668748D01*
X10612386Y-19668748D02*
X10631434Y-19678272D01*
X10631434Y-19678272D02*
X10669529Y-19678272D01*
X10669529Y-19678272D02*
X10688577Y-19668748D01*
X10688577Y-19668748D02*
X10698100Y-19659224D01*
X10698100Y-19659224D02*
X10707624Y-19640177D01*
X10707624Y-19640177D02*
X10707624Y-19602082D01*
X10707624Y-19602082D02*
X10698100Y-19583034D01*
X10698100Y-19583034D02*
X10688577Y-19573510D01*
X10688577Y-19573510D02*
X10669529Y-19563986D01*
X10831434Y-19478272D02*
X10850481Y-19478272D01*
X10850481Y-19478272D02*
X10869529Y-19487796D01*
X10869529Y-19487796D02*
X10879053Y-19497320D01*
X10879053Y-19497320D02*
X10888577Y-19516367D01*
X10888577Y-19516367D02*
X10898100Y-19554463D01*
X10898100Y-19554463D02*
X10898100Y-19602082D01*
X10898100Y-19602082D02*
X10888577Y-19640177D01*
X10888577Y-19640177D02*
X10879053Y-19659224D01*
X10879053Y-19659224D02*
X10869529Y-19668748D01*
X10869529Y-19668748D02*
X10850481Y-19678272D01*
X10850481Y-19678272D02*
X10831434Y-19678272D01*
X10831434Y-19678272D02*
X10812386Y-19668748D01*
X10812386Y-19668748D02*
X10802862Y-19659224D01*
X10802862Y-19659224D02*
X10793338Y-19640177D01*
X10793338Y-19640177D02*
X10783815Y-19602082D01*
X10783815Y-19602082D02*
X10783815Y-19554463D01*
X10783815Y-19554463D02*
X10793338Y-19516367D01*
X10793338Y-19516367D02*
X10802862Y-19497320D01*
X10802862Y-19497320D02*
X10812386Y-19487796D01*
X10812386Y-19487796D02*
X10831434Y-19478272D01*
X11136196Y-19678272D02*
X11136196Y-19478272D01*
X11221910Y-19678272D02*
X11221910Y-19573510D01*
X11221910Y-19573510D02*
X11212386Y-19554463D01*
X11212386Y-19554463D02*
X11193338Y-19544939D01*
X11193338Y-19544939D02*
X11164767Y-19544939D01*
X11164767Y-19544939D02*
X11145719Y-19554463D01*
X11145719Y-19554463D02*
X11136196Y-19563986D01*
X11345719Y-19678272D02*
X11326672Y-19668748D01*
X11326672Y-19668748D02*
X11317148Y-19659224D01*
X11317148Y-19659224D02*
X11307624Y-19640177D01*
X11307624Y-19640177D02*
X11307624Y-19583034D01*
X11307624Y-19583034D02*
X11317148Y-19563986D01*
X11317148Y-19563986D02*
X11326672Y-19554463D01*
X11326672Y-19554463D02*
X11345719Y-19544939D01*
X11345719Y-19544939D02*
X11374291Y-19544939D01*
X11374291Y-19544939D02*
X11393338Y-19554463D01*
X11393338Y-19554463D02*
X11402862Y-19563986D01*
X11402862Y-19563986D02*
X11412386Y-19583034D01*
X11412386Y-19583034D02*
X11412386Y-19640177D01*
X11412386Y-19640177D02*
X11402862Y-19659224D01*
X11402862Y-19659224D02*
X11393338Y-19668748D01*
X11393338Y-19668748D02*
X11374291Y-19678272D01*
X11374291Y-19678272D02*
X11345719Y-19678272D01*
X11526672Y-19678272D02*
X11507624Y-19668748D01*
X11507624Y-19668748D02*
X11498100Y-19649701D01*
X11498100Y-19649701D02*
X11498100Y-19478272D01*
X11679053Y-19668748D02*
X11660005Y-19678272D01*
X11660005Y-19678272D02*
X11621910Y-19678272D01*
X11621910Y-19678272D02*
X11602862Y-19668748D01*
X11602862Y-19668748D02*
X11593338Y-19649701D01*
X11593338Y-19649701D02*
X11593338Y-19573510D01*
X11593338Y-19573510D02*
X11602862Y-19554463D01*
X11602862Y-19554463D02*
X11621910Y-19544939D01*
X11621910Y-19544939D02*
X11660005Y-19544939D01*
X11660005Y-19544939D02*
X11679053Y-19554463D01*
X11679053Y-19554463D02*
X11688577Y-19573510D01*
X11688577Y-19573510D02*
X11688577Y-19592558D01*
X11688577Y-19592558D02*
X11593338Y-19611605D01*
X11764767Y-19668748D02*
X11783815Y-19678272D01*
X11783815Y-19678272D02*
X11821910Y-19678272D01*
X11821910Y-19678272D02*
X11840958Y-19668748D01*
X11840958Y-19668748D02*
X11850481Y-19649701D01*
X11850481Y-19649701D02*
X11850481Y-19640177D01*
X11850481Y-19640177D02*
X11840958Y-19621129D01*
X11840958Y-19621129D02*
X11821910Y-19611605D01*
X11821910Y-19611605D02*
X11793338Y-19611605D01*
X11793338Y-19611605D02*
X11774291Y-19602082D01*
X11774291Y-19602082D02*
X11764767Y-19583034D01*
X11764767Y-19583034D02*
X11764767Y-19573510D01*
X11764767Y-19573510D02*
X11774291Y-19554463D01*
X11774291Y-19554463D02*
X11793338Y-19544939D01*
X11793338Y-19544939D02*
X11821910Y-19544939D01*
X11821910Y-19544939D02*
X11840958Y-19554463D01*
X11917148Y-19754463D02*
X11926672Y-19744939D01*
X11926672Y-19744939D02*
X11945719Y-19716367D01*
X11945719Y-19716367D02*
X11955243Y-19697320D01*
X11955243Y-19697320D02*
X11964767Y-19668748D01*
X11964767Y-19668748D02*
X11974291Y-19621129D01*
X11974291Y-19621129D02*
X11974291Y-19583034D01*
X11974291Y-19583034D02*
X11964767Y-19535415D01*
X11964767Y-19535415D02*
X11955243Y-19506844D01*
X11955243Y-19506844D02*
X11945719Y-19487796D01*
X11945719Y-19487796D02*
X11926672Y-19459224D01*
X11926672Y-19459224D02*
X11917148Y-19449701D01*
X12279053Y-19754463D02*
X12269529Y-19744939D01*
X12269529Y-19744939D02*
X12250481Y-19716367D01*
X12250481Y-19716367D02*
X12240958Y-19697320D01*
X12240958Y-19697320D02*
X12231434Y-19668748D01*
X12231434Y-19668748D02*
X12221910Y-19621129D01*
X12221910Y-19621129D02*
X12221910Y-19583034D01*
X12221910Y-19583034D02*
X12231434Y-19535415D01*
X12231434Y-19535415D02*
X12240958Y-19506844D01*
X12240958Y-19506844D02*
X12250481Y-19487796D01*
X12250481Y-19487796D02*
X12269529Y-19459224D01*
X12269529Y-19459224D02*
X12279053Y-19449701D01*
X12355243Y-19544939D02*
X12355243Y-19678272D01*
X12355243Y-19563986D02*
X12364767Y-19554463D01*
X12364767Y-19554463D02*
X12383815Y-19544939D01*
X12383815Y-19544939D02*
X12412386Y-19544939D01*
X12412386Y-19544939D02*
X12431434Y-19554463D01*
X12431434Y-19554463D02*
X12440958Y-19573510D01*
X12440958Y-19573510D02*
X12440958Y-19678272D01*
X12564767Y-19678272D02*
X12545719Y-19668748D01*
X12545719Y-19668748D02*
X12536196Y-19659224D01*
X12536196Y-19659224D02*
X12526672Y-19640177D01*
X12526672Y-19640177D02*
X12526672Y-19583034D01*
X12526672Y-19583034D02*
X12536196Y-19563986D01*
X12536196Y-19563986D02*
X12545719Y-19554463D01*
X12545719Y-19554463D02*
X12564767Y-19544939D01*
X12564767Y-19544939D02*
X12593339Y-19544939D01*
X12593339Y-19544939D02*
X12612386Y-19554463D01*
X12612386Y-19554463D02*
X12621910Y-19563986D01*
X12621910Y-19563986D02*
X12631434Y-19583034D01*
X12631434Y-19583034D02*
X12631434Y-19640177D01*
X12631434Y-19640177D02*
X12621910Y-19659224D01*
X12621910Y-19659224D02*
X12612386Y-19668748D01*
X12612386Y-19668748D02*
X12593339Y-19678272D01*
X12593339Y-19678272D02*
X12564767Y-19678272D01*
X12688577Y-19544939D02*
X12764767Y-19544939D01*
X12717148Y-19478272D02*
X12717148Y-19649701D01*
X12717148Y-19649701D02*
X12726672Y-19668748D01*
X12726672Y-19668748D02*
X12745719Y-19678272D01*
X12745719Y-19678272D02*
X12764767Y-19678272D01*
X12983815Y-19544939D02*
X12983815Y-19744939D01*
X12983815Y-19554463D02*
X13002862Y-19544939D01*
X13002862Y-19544939D02*
X13040958Y-19544939D01*
X13040958Y-19544939D02*
X13060005Y-19554463D01*
X13060005Y-19554463D02*
X13069529Y-19563986D01*
X13069529Y-19563986D02*
X13079053Y-19583034D01*
X13079053Y-19583034D02*
X13079053Y-19640177D01*
X13079053Y-19640177D02*
X13069529Y-19659224D01*
X13069529Y-19659224D02*
X13060005Y-19668748D01*
X13060005Y-19668748D02*
X13040958Y-19678272D01*
X13040958Y-19678272D02*
X13002862Y-19678272D01*
X13002862Y-19678272D02*
X12983815Y-19668748D01*
X13193339Y-19678272D02*
X13174291Y-19668748D01*
X13174291Y-19668748D02*
X13164767Y-19649701D01*
X13164767Y-19649701D02*
X13164767Y-19478272D01*
X13355243Y-19678272D02*
X13355243Y-19573510D01*
X13355243Y-19573510D02*
X13345720Y-19554463D01*
X13345720Y-19554463D02*
X13326672Y-19544939D01*
X13326672Y-19544939D02*
X13288577Y-19544939D01*
X13288577Y-19544939D02*
X13269529Y-19554463D01*
X13355243Y-19668748D02*
X13336196Y-19678272D01*
X13336196Y-19678272D02*
X13288577Y-19678272D01*
X13288577Y-19678272D02*
X13269529Y-19668748D01*
X13269529Y-19668748D02*
X13260005Y-19649701D01*
X13260005Y-19649701D02*
X13260005Y-19630653D01*
X13260005Y-19630653D02*
X13269529Y-19611605D01*
X13269529Y-19611605D02*
X13288577Y-19602082D01*
X13288577Y-19602082D02*
X13336196Y-19602082D01*
X13336196Y-19602082D02*
X13355243Y-19592558D01*
X13421910Y-19544939D02*
X13498100Y-19544939D01*
X13450481Y-19478272D02*
X13450481Y-19649701D01*
X13450481Y-19649701D02*
X13460005Y-19668748D01*
X13460005Y-19668748D02*
X13479053Y-19678272D01*
X13479053Y-19678272D02*
X13498100Y-19678272D01*
X13640958Y-19668748D02*
X13621910Y-19678272D01*
X13621910Y-19678272D02*
X13583815Y-19678272D01*
X13583815Y-19678272D02*
X13564767Y-19668748D01*
X13564767Y-19668748D02*
X13555243Y-19649701D01*
X13555243Y-19649701D02*
X13555243Y-19573510D01*
X13555243Y-19573510D02*
X13564767Y-19554463D01*
X13564767Y-19554463D02*
X13583815Y-19544939D01*
X13583815Y-19544939D02*
X13621910Y-19544939D01*
X13621910Y-19544939D02*
X13640958Y-19554463D01*
X13640958Y-19554463D02*
X13650481Y-19573510D01*
X13650481Y-19573510D02*
X13650481Y-19592558D01*
X13650481Y-19592558D02*
X13555243Y-19611605D01*
X13821910Y-19678272D02*
X13821910Y-19478272D01*
X13821910Y-19668748D02*
X13802862Y-19678272D01*
X13802862Y-19678272D02*
X13764767Y-19678272D01*
X13764767Y-19678272D02*
X13745720Y-19668748D01*
X13745720Y-19668748D02*
X13736196Y-19659224D01*
X13736196Y-19659224D02*
X13726672Y-19640177D01*
X13726672Y-19640177D02*
X13726672Y-19583034D01*
X13726672Y-19583034D02*
X13736196Y-19563986D01*
X13736196Y-19563986D02*
X13745720Y-19554463D01*
X13745720Y-19554463D02*
X13764767Y-19544939D01*
X13764767Y-19544939D02*
X13802862Y-19544939D01*
X13802862Y-19544939D02*
X13821910Y-19554463D01*
X13898101Y-19754463D02*
X13907624Y-19744939D01*
X13907624Y-19744939D02*
X13926672Y-19716367D01*
X13926672Y-19716367D02*
X13936196Y-19697320D01*
X13936196Y-19697320D02*
X13945720Y-19668748D01*
X13945720Y-19668748D02*
X13955243Y-19621129D01*
X13955243Y-19621129D02*
X13955243Y-19583034D01*
X13955243Y-19583034D02*
X13945720Y-19535415D01*
X13945720Y-19535415D02*
X13936196Y-19506844D01*
X13936196Y-19506844D02*
X13926672Y-19487796D01*
X13926672Y-19487796D02*
X13907624Y-19459224D01*
X13907624Y-19459224D02*
X13898101Y-19449701D01*
X6951609Y-19876968D02*
G75*
G02*
X6751609Y-19876968I-100000J0D01*
G01*
X6751609Y-19876968D02*
G75*
G02*
X6951609Y-19876968I100000J0D01*
G01*
X7193338Y-19768452D02*
X7317148Y-19768452D01*
X7317148Y-19768452D02*
X7250481Y-19844643D01*
X7250481Y-19844643D02*
X7279052Y-19844643D01*
X7279052Y-19844643D02*
X7298100Y-19854166D01*
X7298100Y-19854166D02*
X7307624Y-19863690D01*
X7307624Y-19863690D02*
X7317148Y-19882738D01*
X7317148Y-19882738D02*
X7317148Y-19930357D01*
X7317148Y-19930357D02*
X7307624Y-19949404D01*
X7307624Y-19949404D02*
X7298100Y-19958928D01*
X7298100Y-19958928D02*
X7279052Y-19968452D01*
X7279052Y-19968452D02*
X7221909Y-19968452D01*
X7221909Y-19968452D02*
X7202862Y-19958928D01*
X7202862Y-19958928D02*
X7193338Y-19949404D01*
X7402862Y-19949404D02*
X7412386Y-19958928D01*
X7412386Y-19958928D02*
X7402862Y-19968452D01*
X7402862Y-19968452D02*
X7393338Y-19958928D01*
X7393338Y-19958928D02*
X7402862Y-19949404D01*
X7402862Y-19949404D02*
X7402862Y-19968452D01*
X7536195Y-19768452D02*
X7555243Y-19768452D01*
X7555243Y-19768452D02*
X7574290Y-19777976D01*
X7574290Y-19777976D02*
X7583814Y-19787500D01*
X7583814Y-19787500D02*
X7593338Y-19806547D01*
X7593338Y-19806547D02*
X7602862Y-19844643D01*
X7602862Y-19844643D02*
X7602862Y-19892262D01*
X7602862Y-19892262D02*
X7593338Y-19930357D01*
X7593338Y-19930357D02*
X7583814Y-19949404D01*
X7583814Y-19949404D02*
X7574290Y-19958928D01*
X7574290Y-19958928D02*
X7555243Y-19968452D01*
X7555243Y-19968452D02*
X7536195Y-19968452D01*
X7536195Y-19968452D02*
X7517148Y-19958928D01*
X7517148Y-19958928D02*
X7507624Y-19949404D01*
X7507624Y-19949404D02*
X7498100Y-19930357D01*
X7498100Y-19930357D02*
X7488576Y-19892262D01*
X7488576Y-19892262D02*
X7488576Y-19844643D01*
X7488576Y-19844643D02*
X7498100Y-19806547D01*
X7498100Y-19806547D02*
X7507624Y-19787500D01*
X7507624Y-19787500D02*
X7517148Y-19777976D01*
X7517148Y-19777976D02*
X7536195Y-19768452D01*
X7726671Y-19768452D02*
X7745719Y-19768452D01*
X7745719Y-19768452D02*
X7764767Y-19777976D01*
X7764767Y-19777976D02*
X7774290Y-19787500D01*
X7774290Y-19787500D02*
X7783814Y-19806547D01*
X7783814Y-19806547D02*
X7793338Y-19844643D01*
X7793338Y-19844643D02*
X7793338Y-19892262D01*
X7793338Y-19892262D02*
X7783814Y-19930357D01*
X7783814Y-19930357D02*
X7774290Y-19949404D01*
X7774290Y-19949404D02*
X7764767Y-19958928D01*
X7764767Y-19958928D02*
X7745719Y-19968452D01*
X7745719Y-19968452D02*
X7726671Y-19968452D01*
X7726671Y-19968452D02*
X7707624Y-19958928D01*
X7707624Y-19958928D02*
X7698100Y-19949404D01*
X7698100Y-19949404D02*
X7688576Y-19930357D01*
X7688576Y-19930357D02*
X7679052Y-19892262D01*
X7679052Y-19892262D02*
X7679052Y-19844643D01*
X7679052Y-19844643D02*
X7688576Y-19806547D01*
X7688576Y-19806547D02*
X7698100Y-19787500D01*
X7698100Y-19787500D02*
X7707624Y-19777976D01*
X7707624Y-19777976D02*
X7726671Y-19768452D01*
X7917148Y-19768452D02*
X7936195Y-19768452D01*
X7936195Y-19768452D02*
X7955243Y-19777976D01*
X7955243Y-19777976D02*
X7964767Y-19787500D01*
X7964767Y-19787500D02*
X7974290Y-19806547D01*
X7974290Y-19806547D02*
X7983814Y-19844643D01*
X7983814Y-19844643D02*
X7983814Y-19892262D01*
X7983814Y-19892262D02*
X7974290Y-19930357D01*
X7974290Y-19930357D02*
X7964767Y-19949404D01*
X7964767Y-19949404D02*
X7955243Y-19958928D01*
X7955243Y-19958928D02*
X7936195Y-19968452D01*
X7936195Y-19968452D02*
X7917148Y-19968452D01*
X7917148Y-19968452D02*
X7898100Y-19958928D01*
X7898100Y-19958928D02*
X7888576Y-19949404D01*
X7888576Y-19949404D02*
X7879052Y-19930357D01*
X7879052Y-19930357D02*
X7869529Y-19892262D01*
X7869529Y-19892262D02*
X7869529Y-19844643D01*
X7869529Y-19844643D02*
X7879052Y-19806547D01*
X7879052Y-19806547D02*
X7888576Y-19787500D01*
X7888576Y-19787500D02*
X7898100Y-19777976D01*
X7898100Y-19777976D02*
X7917148Y-19768452D01*
X8069529Y-19968452D02*
X8069529Y-19835119D01*
X8069529Y-19854166D02*
X8079052Y-19844643D01*
X8079052Y-19844643D02*
X8098100Y-19835119D01*
X8098100Y-19835119D02*
X8126671Y-19835119D01*
X8126671Y-19835119D02*
X8145719Y-19844643D01*
X8145719Y-19844643D02*
X8155243Y-19863690D01*
X8155243Y-19863690D02*
X8155243Y-19968452D01*
X8155243Y-19863690D02*
X8164767Y-19844643D01*
X8164767Y-19844643D02*
X8183814Y-19835119D01*
X8183814Y-19835119D02*
X8212386Y-19835119D01*
X8212386Y-19835119D02*
X8231433Y-19844643D01*
X8231433Y-19844643D02*
X8240957Y-19863690D01*
X8240957Y-19863690D02*
X8240957Y-19968452D01*
X8336195Y-19968452D02*
X8336195Y-19835119D01*
X8336195Y-19854166D02*
X8345719Y-19844643D01*
X8345719Y-19844643D02*
X8364767Y-19835119D01*
X8364767Y-19835119D02*
X8393338Y-19835119D01*
X8393338Y-19835119D02*
X8412386Y-19844643D01*
X8412386Y-19844643D02*
X8421910Y-19863690D01*
X8421910Y-19863690D02*
X8421910Y-19968452D01*
X8421910Y-19863690D02*
X8431433Y-19844643D01*
X8431433Y-19844643D02*
X8450481Y-19835119D01*
X8450481Y-19835119D02*
X8479052Y-19835119D01*
X8479052Y-19835119D02*
X8498100Y-19844643D01*
X8498100Y-19844643D02*
X8507624Y-19863690D01*
X8507624Y-19863690D02*
X8507624Y-19968452D01*
X8898100Y-19758928D02*
X8726672Y-20016071D01*
X9155243Y-19768452D02*
X9174291Y-19768452D01*
X9174291Y-19768452D02*
X9193338Y-19777976D01*
X9193338Y-19777976D02*
X9202862Y-19787500D01*
X9202862Y-19787500D02*
X9212386Y-19806547D01*
X9212386Y-19806547D02*
X9221910Y-19844643D01*
X9221910Y-19844643D02*
X9221910Y-19892262D01*
X9221910Y-19892262D02*
X9212386Y-19930357D01*
X9212386Y-19930357D02*
X9202862Y-19949404D01*
X9202862Y-19949404D02*
X9193338Y-19958928D01*
X9193338Y-19958928D02*
X9174291Y-19968452D01*
X9174291Y-19968452D02*
X9155243Y-19968452D01*
X9155243Y-19968452D02*
X9136195Y-19958928D01*
X9136195Y-19958928D02*
X9126672Y-19949404D01*
X9126672Y-19949404D02*
X9117148Y-19930357D01*
X9117148Y-19930357D02*
X9107624Y-19892262D01*
X9107624Y-19892262D02*
X9107624Y-19844643D01*
X9107624Y-19844643D02*
X9117148Y-19806547D01*
X9117148Y-19806547D02*
X9126672Y-19787500D01*
X9126672Y-19787500D02*
X9136195Y-19777976D01*
X9136195Y-19777976D02*
X9155243Y-19768452D01*
X9307624Y-19949404D02*
X9317148Y-19958928D01*
X9317148Y-19958928D02*
X9307624Y-19968452D01*
X9307624Y-19968452D02*
X9298100Y-19958928D01*
X9298100Y-19958928D02*
X9307624Y-19949404D01*
X9307624Y-19949404D02*
X9307624Y-19968452D01*
X9507624Y-19968452D02*
X9393338Y-19968452D01*
X9450481Y-19968452D02*
X9450481Y-19768452D01*
X9450481Y-19768452D02*
X9431434Y-19797024D01*
X9431434Y-19797024D02*
X9412386Y-19816071D01*
X9412386Y-19816071D02*
X9393338Y-19825595D01*
X9698100Y-19968452D02*
X9583815Y-19968452D01*
X9640957Y-19968452D02*
X9640957Y-19768452D01*
X9640957Y-19768452D02*
X9621910Y-19797024D01*
X9621910Y-19797024D02*
X9602862Y-19816071D01*
X9602862Y-19816071D02*
X9583815Y-19825595D01*
X9812386Y-19854166D02*
X9793338Y-19844643D01*
X9793338Y-19844643D02*
X9783815Y-19835119D01*
X9783815Y-19835119D02*
X9774291Y-19816071D01*
X9774291Y-19816071D02*
X9774291Y-19806547D01*
X9774291Y-19806547D02*
X9783815Y-19787500D01*
X9783815Y-19787500D02*
X9793338Y-19777976D01*
X9793338Y-19777976D02*
X9812386Y-19768452D01*
X9812386Y-19768452D02*
X9850481Y-19768452D01*
X9850481Y-19768452D02*
X9869529Y-19777976D01*
X9869529Y-19777976D02*
X9879053Y-19787500D01*
X9879053Y-19787500D02*
X9888576Y-19806547D01*
X9888576Y-19806547D02*
X9888576Y-19816071D01*
X9888576Y-19816071D02*
X9879053Y-19835119D01*
X9879053Y-19835119D02*
X9869529Y-19844643D01*
X9869529Y-19844643D02*
X9850481Y-19854166D01*
X9850481Y-19854166D02*
X9812386Y-19854166D01*
X9812386Y-19854166D02*
X9793338Y-19863690D01*
X9793338Y-19863690D02*
X9783815Y-19873214D01*
X9783815Y-19873214D02*
X9774291Y-19892262D01*
X9774291Y-19892262D02*
X9774291Y-19930357D01*
X9774291Y-19930357D02*
X9783815Y-19949404D01*
X9783815Y-19949404D02*
X9793338Y-19958928D01*
X9793338Y-19958928D02*
X9812386Y-19968452D01*
X9812386Y-19968452D02*
X9850481Y-19968452D01*
X9850481Y-19968452D02*
X9869529Y-19958928D01*
X9869529Y-19958928D02*
X9879053Y-19949404D01*
X9879053Y-19949404D02*
X9888576Y-19930357D01*
X9888576Y-19930357D02*
X9888576Y-19892262D01*
X9888576Y-19892262D02*
X9879053Y-19873214D01*
X9879053Y-19873214D02*
X9869529Y-19863690D01*
X9869529Y-19863690D02*
X9850481Y-19854166D01*
X10079053Y-19968452D02*
X9964767Y-19968452D01*
X10021910Y-19968452D02*
X10021910Y-19768452D01*
X10021910Y-19768452D02*
X10002862Y-19797024D01*
X10002862Y-19797024D02*
X9983815Y-19816071D01*
X9983815Y-19816071D02*
X9964767Y-19825595D01*
X10155243Y-19768452D02*
X10155243Y-19806547D01*
X10231434Y-19768452D02*
X10231434Y-19806547D01*
X10526672Y-20044643D02*
X10517148Y-20035119D01*
X10517148Y-20035119D02*
X10498100Y-20006547D01*
X10498100Y-20006547D02*
X10488577Y-19987500D01*
X10488577Y-19987500D02*
X10479053Y-19958928D01*
X10479053Y-19958928D02*
X10469529Y-19911309D01*
X10469529Y-19911309D02*
X10469529Y-19873214D01*
X10469529Y-19873214D02*
X10479053Y-19825595D01*
X10479053Y-19825595D02*
X10488577Y-19797024D01*
X10488577Y-19797024D02*
X10498100Y-19777976D01*
X10498100Y-19777976D02*
X10517148Y-19749404D01*
X10517148Y-19749404D02*
X10526672Y-19739881D01*
X10631434Y-19854166D02*
X10612386Y-19844643D01*
X10612386Y-19844643D02*
X10602862Y-19835119D01*
X10602862Y-19835119D02*
X10593338Y-19816071D01*
X10593338Y-19816071D02*
X10593338Y-19806547D01*
X10593338Y-19806547D02*
X10602862Y-19787500D01*
X10602862Y-19787500D02*
X10612386Y-19777976D01*
X10612386Y-19777976D02*
X10631434Y-19768452D01*
X10631434Y-19768452D02*
X10669529Y-19768452D01*
X10669529Y-19768452D02*
X10688577Y-19777976D01*
X10688577Y-19777976D02*
X10698100Y-19787500D01*
X10698100Y-19787500D02*
X10707624Y-19806547D01*
X10707624Y-19806547D02*
X10707624Y-19816071D01*
X10707624Y-19816071D02*
X10698100Y-19835119D01*
X10698100Y-19835119D02*
X10688577Y-19844643D01*
X10688577Y-19844643D02*
X10669529Y-19854166D01*
X10669529Y-19854166D02*
X10631434Y-19854166D01*
X10631434Y-19854166D02*
X10612386Y-19863690D01*
X10612386Y-19863690D02*
X10602862Y-19873214D01*
X10602862Y-19873214D02*
X10593338Y-19892262D01*
X10593338Y-19892262D02*
X10593338Y-19930357D01*
X10593338Y-19930357D02*
X10602862Y-19949404D01*
X10602862Y-19949404D02*
X10612386Y-19958928D01*
X10612386Y-19958928D02*
X10631434Y-19968452D01*
X10631434Y-19968452D02*
X10669529Y-19968452D01*
X10669529Y-19968452D02*
X10688577Y-19958928D01*
X10688577Y-19958928D02*
X10698100Y-19949404D01*
X10698100Y-19949404D02*
X10707624Y-19930357D01*
X10707624Y-19930357D02*
X10707624Y-19892262D01*
X10707624Y-19892262D02*
X10698100Y-19873214D01*
X10698100Y-19873214D02*
X10688577Y-19863690D01*
X10688577Y-19863690D02*
X10669529Y-19854166D01*
X10831434Y-19768452D02*
X10850481Y-19768452D01*
X10850481Y-19768452D02*
X10869529Y-19777976D01*
X10869529Y-19777976D02*
X10879053Y-19787500D01*
X10879053Y-19787500D02*
X10888577Y-19806547D01*
X10888577Y-19806547D02*
X10898100Y-19844643D01*
X10898100Y-19844643D02*
X10898100Y-19892262D01*
X10898100Y-19892262D02*
X10888577Y-19930357D01*
X10888577Y-19930357D02*
X10879053Y-19949404D01*
X10879053Y-19949404D02*
X10869529Y-19958928D01*
X10869529Y-19958928D02*
X10850481Y-19968452D01*
X10850481Y-19968452D02*
X10831434Y-19968452D01*
X10831434Y-19968452D02*
X10812386Y-19958928D01*
X10812386Y-19958928D02*
X10802862Y-19949404D01*
X10802862Y-19949404D02*
X10793338Y-19930357D01*
X10793338Y-19930357D02*
X10783815Y-19892262D01*
X10783815Y-19892262D02*
X10783815Y-19844643D01*
X10783815Y-19844643D02*
X10793338Y-19806547D01*
X10793338Y-19806547D02*
X10802862Y-19787500D01*
X10802862Y-19787500D02*
X10812386Y-19777976D01*
X10812386Y-19777976D02*
X10831434Y-19768452D01*
X11136196Y-19968452D02*
X11136196Y-19768452D01*
X11221910Y-19968452D02*
X11221910Y-19863690D01*
X11221910Y-19863690D02*
X11212386Y-19844643D01*
X11212386Y-19844643D02*
X11193338Y-19835119D01*
X11193338Y-19835119D02*
X11164767Y-19835119D01*
X11164767Y-19835119D02*
X11145719Y-19844643D01*
X11145719Y-19844643D02*
X11136196Y-19854166D01*
X11345719Y-19968452D02*
X11326672Y-19958928D01*
X11326672Y-19958928D02*
X11317148Y-19949404D01*
X11317148Y-19949404D02*
X11307624Y-19930357D01*
X11307624Y-19930357D02*
X11307624Y-19873214D01*
X11307624Y-19873214D02*
X11317148Y-19854166D01*
X11317148Y-19854166D02*
X11326672Y-19844643D01*
X11326672Y-19844643D02*
X11345719Y-19835119D01*
X11345719Y-19835119D02*
X11374291Y-19835119D01*
X11374291Y-19835119D02*
X11393338Y-19844643D01*
X11393338Y-19844643D02*
X11402862Y-19854166D01*
X11402862Y-19854166D02*
X11412386Y-19873214D01*
X11412386Y-19873214D02*
X11412386Y-19930357D01*
X11412386Y-19930357D02*
X11402862Y-19949404D01*
X11402862Y-19949404D02*
X11393338Y-19958928D01*
X11393338Y-19958928D02*
X11374291Y-19968452D01*
X11374291Y-19968452D02*
X11345719Y-19968452D01*
X11526672Y-19968452D02*
X11507624Y-19958928D01*
X11507624Y-19958928D02*
X11498100Y-19939881D01*
X11498100Y-19939881D02*
X11498100Y-19768452D01*
X11679053Y-19958928D02*
X11660005Y-19968452D01*
X11660005Y-19968452D02*
X11621910Y-19968452D01*
X11621910Y-19968452D02*
X11602862Y-19958928D01*
X11602862Y-19958928D02*
X11593338Y-19939881D01*
X11593338Y-19939881D02*
X11593338Y-19863690D01*
X11593338Y-19863690D02*
X11602862Y-19844643D01*
X11602862Y-19844643D02*
X11621910Y-19835119D01*
X11621910Y-19835119D02*
X11660005Y-19835119D01*
X11660005Y-19835119D02*
X11679053Y-19844643D01*
X11679053Y-19844643D02*
X11688577Y-19863690D01*
X11688577Y-19863690D02*
X11688577Y-19882738D01*
X11688577Y-19882738D02*
X11593338Y-19901785D01*
X11764767Y-19958928D02*
X11783815Y-19968452D01*
X11783815Y-19968452D02*
X11821910Y-19968452D01*
X11821910Y-19968452D02*
X11840958Y-19958928D01*
X11840958Y-19958928D02*
X11850481Y-19939881D01*
X11850481Y-19939881D02*
X11850481Y-19930357D01*
X11850481Y-19930357D02*
X11840958Y-19911309D01*
X11840958Y-19911309D02*
X11821910Y-19901785D01*
X11821910Y-19901785D02*
X11793338Y-19901785D01*
X11793338Y-19901785D02*
X11774291Y-19892262D01*
X11774291Y-19892262D02*
X11764767Y-19873214D01*
X11764767Y-19873214D02*
X11764767Y-19863690D01*
X11764767Y-19863690D02*
X11774291Y-19844643D01*
X11774291Y-19844643D02*
X11793338Y-19835119D01*
X11793338Y-19835119D02*
X11821910Y-19835119D01*
X11821910Y-19835119D02*
X11840958Y-19844643D01*
X11917148Y-20044643D02*
X11926672Y-20035119D01*
X11926672Y-20035119D02*
X11945719Y-20006547D01*
X11945719Y-20006547D02*
X11955243Y-19987500D01*
X11955243Y-19987500D02*
X11964767Y-19958928D01*
X11964767Y-19958928D02*
X11974291Y-19911309D01*
X11974291Y-19911309D02*
X11974291Y-19873214D01*
X11974291Y-19873214D02*
X11964767Y-19825595D01*
X11964767Y-19825595D02*
X11955243Y-19797024D01*
X11955243Y-19797024D02*
X11945719Y-19777976D01*
X11945719Y-19777976D02*
X11926672Y-19749404D01*
X11926672Y-19749404D02*
X11917148Y-19739881D01*
X12279053Y-20044643D02*
X12269529Y-20035119D01*
X12269529Y-20035119D02*
X12250481Y-20006547D01*
X12250481Y-20006547D02*
X12240958Y-19987500D01*
X12240958Y-19987500D02*
X12231434Y-19958928D01*
X12231434Y-19958928D02*
X12221910Y-19911309D01*
X12221910Y-19911309D02*
X12221910Y-19873214D01*
X12221910Y-19873214D02*
X12231434Y-19825595D01*
X12231434Y-19825595D02*
X12240958Y-19797024D01*
X12240958Y-19797024D02*
X12250481Y-19777976D01*
X12250481Y-19777976D02*
X12269529Y-19749404D01*
X12269529Y-19749404D02*
X12279053Y-19739881D01*
X12355243Y-19835119D02*
X12355243Y-19968452D01*
X12355243Y-19854166D02*
X12364767Y-19844643D01*
X12364767Y-19844643D02*
X12383815Y-19835119D01*
X12383815Y-19835119D02*
X12412386Y-19835119D01*
X12412386Y-19835119D02*
X12431434Y-19844643D01*
X12431434Y-19844643D02*
X12440958Y-19863690D01*
X12440958Y-19863690D02*
X12440958Y-19968452D01*
X12564767Y-19968452D02*
X12545719Y-19958928D01*
X12545719Y-19958928D02*
X12536196Y-19949404D01*
X12536196Y-19949404D02*
X12526672Y-19930357D01*
X12526672Y-19930357D02*
X12526672Y-19873214D01*
X12526672Y-19873214D02*
X12536196Y-19854166D01*
X12536196Y-19854166D02*
X12545719Y-19844643D01*
X12545719Y-19844643D02*
X12564767Y-19835119D01*
X12564767Y-19835119D02*
X12593339Y-19835119D01*
X12593339Y-19835119D02*
X12612386Y-19844643D01*
X12612386Y-19844643D02*
X12621910Y-19854166D01*
X12621910Y-19854166D02*
X12631434Y-19873214D01*
X12631434Y-19873214D02*
X12631434Y-19930357D01*
X12631434Y-19930357D02*
X12621910Y-19949404D01*
X12621910Y-19949404D02*
X12612386Y-19958928D01*
X12612386Y-19958928D02*
X12593339Y-19968452D01*
X12593339Y-19968452D02*
X12564767Y-19968452D01*
X12688577Y-19835119D02*
X12764767Y-19835119D01*
X12717148Y-19768452D02*
X12717148Y-19939881D01*
X12717148Y-19939881D02*
X12726672Y-19958928D01*
X12726672Y-19958928D02*
X12745719Y-19968452D01*
X12745719Y-19968452D02*
X12764767Y-19968452D01*
X12983815Y-19835119D02*
X12983815Y-20035119D01*
X12983815Y-19844643D02*
X13002862Y-19835119D01*
X13002862Y-19835119D02*
X13040958Y-19835119D01*
X13040958Y-19835119D02*
X13060005Y-19844643D01*
X13060005Y-19844643D02*
X13069529Y-19854166D01*
X13069529Y-19854166D02*
X13079053Y-19873214D01*
X13079053Y-19873214D02*
X13079053Y-19930357D01*
X13079053Y-19930357D02*
X13069529Y-19949404D01*
X13069529Y-19949404D02*
X13060005Y-19958928D01*
X13060005Y-19958928D02*
X13040958Y-19968452D01*
X13040958Y-19968452D02*
X13002862Y-19968452D01*
X13002862Y-19968452D02*
X12983815Y-19958928D01*
X13193339Y-19968452D02*
X13174291Y-19958928D01*
X13174291Y-19958928D02*
X13164767Y-19939881D01*
X13164767Y-19939881D02*
X13164767Y-19768452D01*
X13355243Y-19968452D02*
X13355243Y-19863690D01*
X13355243Y-19863690D02*
X13345720Y-19844643D01*
X13345720Y-19844643D02*
X13326672Y-19835119D01*
X13326672Y-19835119D02*
X13288577Y-19835119D01*
X13288577Y-19835119D02*
X13269529Y-19844643D01*
X13355243Y-19958928D02*
X13336196Y-19968452D01*
X13336196Y-19968452D02*
X13288577Y-19968452D01*
X13288577Y-19968452D02*
X13269529Y-19958928D01*
X13269529Y-19958928D02*
X13260005Y-19939881D01*
X13260005Y-19939881D02*
X13260005Y-19920833D01*
X13260005Y-19920833D02*
X13269529Y-19901785D01*
X13269529Y-19901785D02*
X13288577Y-19892262D01*
X13288577Y-19892262D02*
X13336196Y-19892262D01*
X13336196Y-19892262D02*
X13355243Y-19882738D01*
X13421910Y-19835119D02*
X13498100Y-19835119D01*
X13450481Y-19768452D02*
X13450481Y-19939881D01*
X13450481Y-19939881D02*
X13460005Y-19958928D01*
X13460005Y-19958928D02*
X13479053Y-19968452D01*
X13479053Y-19968452D02*
X13498100Y-19968452D01*
X13640958Y-19958928D02*
X13621910Y-19968452D01*
X13621910Y-19968452D02*
X13583815Y-19968452D01*
X13583815Y-19968452D02*
X13564767Y-19958928D01*
X13564767Y-19958928D02*
X13555243Y-19939881D01*
X13555243Y-19939881D02*
X13555243Y-19863690D01*
X13555243Y-19863690D02*
X13564767Y-19844643D01*
X13564767Y-19844643D02*
X13583815Y-19835119D01*
X13583815Y-19835119D02*
X13621910Y-19835119D01*
X13621910Y-19835119D02*
X13640958Y-19844643D01*
X13640958Y-19844643D02*
X13650481Y-19863690D01*
X13650481Y-19863690D02*
X13650481Y-19882738D01*
X13650481Y-19882738D02*
X13555243Y-19901785D01*
X13821910Y-19968452D02*
X13821910Y-19768452D01*
X13821910Y-19958928D02*
X13802862Y-19968452D01*
X13802862Y-19968452D02*
X13764767Y-19968452D01*
X13764767Y-19968452D02*
X13745720Y-19958928D01*
X13745720Y-19958928D02*
X13736196Y-19949404D01*
X13736196Y-19949404D02*
X13726672Y-19930357D01*
X13726672Y-19930357D02*
X13726672Y-19873214D01*
X13726672Y-19873214D02*
X13736196Y-19854166D01*
X13736196Y-19854166D02*
X13745720Y-19844643D01*
X13745720Y-19844643D02*
X13764767Y-19835119D01*
X13764767Y-19835119D02*
X13802862Y-19835119D01*
X13802862Y-19835119D02*
X13821910Y-19844643D01*
X13898101Y-20044643D02*
X13907624Y-20035119D01*
X13907624Y-20035119D02*
X13926672Y-20006547D01*
X13926672Y-20006547D02*
X13936196Y-19987500D01*
X13936196Y-19987500D02*
X13945720Y-19958928D01*
X13945720Y-19958928D02*
X13955243Y-19911309D01*
X13955243Y-19911309D02*
X13955243Y-19873214D01*
X13955243Y-19873214D02*
X13945720Y-19825595D01*
X13945720Y-19825595D02*
X13936196Y-19797024D01*
X13936196Y-19797024D02*
X13926672Y-19777976D01*
X13926672Y-19777976D02*
X13907624Y-19749404D01*
X13907624Y-19749404D02*
X13898101Y-19739881D01*
X6851609Y-20096968D02*
X6851609Y-20296968D01*
X6751609Y-20196968D02*
X6951609Y-20196968D01*
X7193338Y-20088452D02*
X7317148Y-20088452D01*
X7317148Y-20088452D02*
X7250481Y-20164643D01*
X7250481Y-20164643D02*
X7279052Y-20164643D01*
X7279052Y-20164643D02*
X7298100Y-20174166D01*
X7298100Y-20174166D02*
X7307624Y-20183690D01*
X7307624Y-20183690D02*
X7317148Y-20202738D01*
X7317148Y-20202738D02*
X7317148Y-20250357D01*
X7317148Y-20250357D02*
X7307624Y-20269404D01*
X7307624Y-20269404D02*
X7298100Y-20278928D01*
X7298100Y-20278928D02*
X7279052Y-20288452D01*
X7279052Y-20288452D02*
X7221909Y-20288452D01*
X7221909Y-20288452D02*
X7202862Y-20278928D01*
X7202862Y-20278928D02*
X7193338Y-20269404D01*
X7402862Y-20269404D02*
X7412386Y-20278928D01*
X7412386Y-20278928D02*
X7402862Y-20288452D01*
X7402862Y-20288452D02*
X7393338Y-20278928D01*
X7393338Y-20278928D02*
X7402862Y-20269404D01*
X7402862Y-20269404D02*
X7402862Y-20288452D01*
X7583814Y-20155119D02*
X7583814Y-20288452D01*
X7536195Y-20078928D02*
X7488576Y-20221785D01*
X7488576Y-20221785D02*
X7612386Y-20221785D01*
X7679052Y-20107500D02*
X7688576Y-20097976D01*
X7688576Y-20097976D02*
X7707624Y-20088452D01*
X7707624Y-20088452D02*
X7755243Y-20088452D01*
X7755243Y-20088452D02*
X7774290Y-20097976D01*
X7774290Y-20097976D02*
X7783814Y-20107500D01*
X7783814Y-20107500D02*
X7793338Y-20126547D01*
X7793338Y-20126547D02*
X7793338Y-20145595D01*
X7793338Y-20145595D02*
X7783814Y-20174166D01*
X7783814Y-20174166D02*
X7669529Y-20288452D01*
X7669529Y-20288452D02*
X7793338Y-20288452D01*
X7888576Y-20288452D02*
X7926671Y-20288452D01*
X7926671Y-20288452D02*
X7945719Y-20278928D01*
X7945719Y-20278928D02*
X7955243Y-20269404D01*
X7955243Y-20269404D02*
X7974290Y-20240833D01*
X7974290Y-20240833D02*
X7983814Y-20202738D01*
X7983814Y-20202738D02*
X7983814Y-20126547D01*
X7983814Y-20126547D02*
X7974290Y-20107500D01*
X7974290Y-20107500D02*
X7964767Y-20097976D01*
X7964767Y-20097976D02*
X7945719Y-20088452D01*
X7945719Y-20088452D02*
X7907624Y-20088452D01*
X7907624Y-20088452D02*
X7888576Y-20097976D01*
X7888576Y-20097976D02*
X7879052Y-20107500D01*
X7879052Y-20107500D02*
X7869529Y-20126547D01*
X7869529Y-20126547D02*
X7869529Y-20174166D01*
X7869529Y-20174166D02*
X7879052Y-20193214D01*
X7879052Y-20193214D02*
X7888576Y-20202738D01*
X7888576Y-20202738D02*
X7907624Y-20212262D01*
X7907624Y-20212262D02*
X7945719Y-20212262D01*
X7945719Y-20212262D02*
X7964767Y-20202738D01*
X7964767Y-20202738D02*
X7974290Y-20193214D01*
X7974290Y-20193214D02*
X7983814Y-20174166D01*
X8069529Y-20288452D02*
X8069529Y-20155119D01*
X8069529Y-20174166D02*
X8079052Y-20164643D01*
X8079052Y-20164643D02*
X8098100Y-20155119D01*
X8098100Y-20155119D02*
X8126671Y-20155119D01*
X8126671Y-20155119D02*
X8145719Y-20164643D01*
X8145719Y-20164643D02*
X8155243Y-20183690D01*
X8155243Y-20183690D02*
X8155243Y-20288452D01*
X8155243Y-20183690D02*
X8164767Y-20164643D01*
X8164767Y-20164643D02*
X8183814Y-20155119D01*
X8183814Y-20155119D02*
X8212386Y-20155119D01*
X8212386Y-20155119D02*
X8231433Y-20164643D01*
X8231433Y-20164643D02*
X8240957Y-20183690D01*
X8240957Y-20183690D02*
X8240957Y-20288452D01*
X8336195Y-20288452D02*
X8336195Y-20155119D01*
X8336195Y-20174166D02*
X8345719Y-20164643D01*
X8345719Y-20164643D02*
X8364767Y-20155119D01*
X8364767Y-20155119D02*
X8393338Y-20155119D01*
X8393338Y-20155119D02*
X8412386Y-20164643D01*
X8412386Y-20164643D02*
X8421910Y-20183690D01*
X8421910Y-20183690D02*
X8421910Y-20288452D01*
X8421910Y-20183690D02*
X8431433Y-20164643D01*
X8431433Y-20164643D02*
X8450481Y-20155119D01*
X8450481Y-20155119D02*
X8479052Y-20155119D01*
X8479052Y-20155119D02*
X8498100Y-20164643D01*
X8498100Y-20164643D02*
X8507624Y-20183690D01*
X8507624Y-20183690D02*
X8507624Y-20288452D01*
X8898100Y-20078928D02*
X8726672Y-20336071D01*
X9155243Y-20088452D02*
X9174291Y-20088452D01*
X9174291Y-20088452D02*
X9193338Y-20097976D01*
X9193338Y-20097976D02*
X9202862Y-20107500D01*
X9202862Y-20107500D02*
X9212386Y-20126547D01*
X9212386Y-20126547D02*
X9221910Y-20164643D01*
X9221910Y-20164643D02*
X9221910Y-20212262D01*
X9221910Y-20212262D02*
X9212386Y-20250357D01*
X9212386Y-20250357D02*
X9202862Y-20269404D01*
X9202862Y-20269404D02*
X9193338Y-20278928D01*
X9193338Y-20278928D02*
X9174291Y-20288452D01*
X9174291Y-20288452D02*
X9155243Y-20288452D01*
X9155243Y-20288452D02*
X9136195Y-20278928D01*
X9136195Y-20278928D02*
X9126672Y-20269404D01*
X9126672Y-20269404D02*
X9117148Y-20250357D01*
X9117148Y-20250357D02*
X9107624Y-20212262D01*
X9107624Y-20212262D02*
X9107624Y-20164643D01*
X9107624Y-20164643D02*
X9117148Y-20126547D01*
X9117148Y-20126547D02*
X9126672Y-20107500D01*
X9126672Y-20107500D02*
X9136195Y-20097976D01*
X9136195Y-20097976D02*
X9155243Y-20088452D01*
X9307624Y-20269404D02*
X9317148Y-20278928D01*
X9317148Y-20278928D02*
X9307624Y-20288452D01*
X9307624Y-20288452D02*
X9298100Y-20278928D01*
X9298100Y-20278928D02*
X9307624Y-20269404D01*
X9307624Y-20269404D02*
X9307624Y-20288452D01*
X9507624Y-20288452D02*
X9393338Y-20288452D01*
X9450481Y-20288452D02*
X9450481Y-20088452D01*
X9450481Y-20088452D02*
X9431434Y-20117024D01*
X9431434Y-20117024D02*
X9412386Y-20136071D01*
X9412386Y-20136071D02*
X9393338Y-20145595D01*
X9574291Y-20088452D02*
X9698100Y-20088452D01*
X9698100Y-20088452D02*
X9631434Y-20164643D01*
X9631434Y-20164643D02*
X9660005Y-20164643D01*
X9660005Y-20164643D02*
X9679053Y-20174166D01*
X9679053Y-20174166D02*
X9688576Y-20183690D01*
X9688576Y-20183690D02*
X9698100Y-20202738D01*
X9698100Y-20202738D02*
X9698100Y-20250357D01*
X9698100Y-20250357D02*
X9688576Y-20269404D01*
X9688576Y-20269404D02*
X9679053Y-20278928D01*
X9679053Y-20278928D02*
X9660005Y-20288452D01*
X9660005Y-20288452D02*
X9602862Y-20288452D01*
X9602862Y-20288452D02*
X9583815Y-20278928D01*
X9583815Y-20278928D02*
X9574291Y-20269404D01*
X9879053Y-20088452D02*
X9783815Y-20088452D01*
X9783815Y-20088452D02*
X9774291Y-20183690D01*
X9774291Y-20183690D02*
X9783815Y-20174166D01*
X9783815Y-20174166D02*
X9802862Y-20164643D01*
X9802862Y-20164643D02*
X9850481Y-20164643D01*
X9850481Y-20164643D02*
X9869529Y-20174166D01*
X9869529Y-20174166D02*
X9879053Y-20183690D01*
X9879053Y-20183690D02*
X9888576Y-20202738D01*
X9888576Y-20202738D02*
X9888576Y-20250357D01*
X9888576Y-20250357D02*
X9879053Y-20269404D01*
X9879053Y-20269404D02*
X9869529Y-20278928D01*
X9869529Y-20278928D02*
X9850481Y-20288452D01*
X9850481Y-20288452D02*
X9802862Y-20288452D01*
X9802862Y-20288452D02*
X9783815Y-20278928D01*
X9783815Y-20278928D02*
X9774291Y-20269404D01*
X10012386Y-20088452D02*
X10031434Y-20088452D01*
X10031434Y-20088452D02*
X10050481Y-20097976D01*
X10050481Y-20097976D02*
X10060005Y-20107500D01*
X10060005Y-20107500D02*
X10069529Y-20126547D01*
X10069529Y-20126547D02*
X10079053Y-20164643D01*
X10079053Y-20164643D02*
X10079053Y-20212262D01*
X10079053Y-20212262D02*
X10069529Y-20250357D01*
X10069529Y-20250357D02*
X10060005Y-20269404D01*
X10060005Y-20269404D02*
X10050481Y-20278928D01*
X10050481Y-20278928D02*
X10031434Y-20288452D01*
X10031434Y-20288452D02*
X10012386Y-20288452D01*
X10012386Y-20288452D02*
X9993338Y-20278928D01*
X9993338Y-20278928D02*
X9983815Y-20269404D01*
X9983815Y-20269404D02*
X9974291Y-20250357D01*
X9974291Y-20250357D02*
X9964767Y-20212262D01*
X9964767Y-20212262D02*
X9964767Y-20164643D01*
X9964767Y-20164643D02*
X9974291Y-20126547D01*
X9974291Y-20126547D02*
X9983815Y-20107500D01*
X9983815Y-20107500D02*
X9993338Y-20097976D01*
X9993338Y-20097976D02*
X10012386Y-20088452D01*
X10155243Y-20088452D02*
X10155243Y-20126547D01*
X10231434Y-20088452D02*
X10231434Y-20126547D01*
X10526672Y-20364643D02*
X10517148Y-20355119D01*
X10517148Y-20355119D02*
X10498100Y-20326547D01*
X10498100Y-20326547D02*
X10488577Y-20307500D01*
X10488577Y-20307500D02*
X10479053Y-20278928D01*
X10479053Y-20278928D02*
X10469529Y-20231309D01*
X10469529Y-20231309D02*
X10469529Y-20193214D01*
X10469529Y-20193214D02*
X10479053Y-20145595D01*
X10479053Y-20145595D02*
X10488577Y-20117024D01*
X10488577Y-20117024D02*
X10498100Y-20097976D01*
X10498100Y-20097976D02*
X10517148Y-20069404D01*
X10517148Y-20069404D02*
X10526672Y-20059881D01*
X10688577Y-20155119D02*
X10688577Y-20288452D01*
X10640957Y-20078928D02*
X10593338Y-20221785D01*
X10593338Y-20221785D02*
X10717148Y-20221785D01*
X10831434Y-20088452D02*
X10850481Y-20088452D01*
X10850481Y-20088452D02*
X10869529Y-20097976D01*
X10869529Y-20097976D02*
X10879053Y-20107500D01*
X10879053Y-20107500D02*
X10888577Y-20126547D01*
X10888577Y-20126547D02*
X10898100Y-20164643D01*
X10898100Y-20164643D02*
X10898100Y-20212262D01*
X10898100Y-20212262D02*
X10888577Y-20250357D01*
X10888577Y-20250357D02*
X10879053Y-20269404D01*
X10879053Y-20269404D02*
X10869529Y-20278928D01*
X10869529Y-20278928D02*
X10850481Y-20288452D01*
X10850481Y-20288452D02*
X10831434Y-20288452D01*
X10831434Y-20288452D02*
X10812386Y-20278928D01*
X10812386Y-20278928D02*
X10802862Y-20269404D01*
X10802862Y-20269404D02*
X10793338Y-20250357D01*
X10793338Y-20250357D02*
X10783815Y-20212262D01*
X10783815Y-20212262D02*
X10783815Y-20164643D01*
X10783815Y-20164643D02*
X10793338Y-20126547D01*
X10793338Y-20126547D02*
X10802862Y-20107500D01*
X10802862Y-20107500D02*
X10812386Y-20097976D01*
X10812386Y-20097976D02*
X10831434Y-20088452D01*
X11136196Y-20288452D02*
X11136196Y-20088452D01*
X11221910Y-20288452D02*
X11221910Y-20183690D01*
X11221910Y-20183690D02*
X11212386Y-20164643D01*
X11212386Y-20164643D02*
X11193338Y-20155119D01*
X11193338Y-20155119D02*
X11164767Y-20155119D01*
X11164767Y-20155119D02*
X11145719Y-20164643D01*
X11145719Y-20164643D02*
X11136196Y-20174166D01*
X11345719Y-20288452D02*
X11326672Y-20278928D01*
X11326672Y-20278928D02*
X11317148Y-20269404D01*
X11317148Y-20269404D02*
X11307624Y-20250357D01*
X11307624Y-20250357D02*
X11307624Y-20193214D01*
X11307624Y-20193214D02*
X11317148Y-20174166D01*
X11317148Y-20174166D02*
X11326672Y-20164643D01*
X11326672Y-20164643D02*
X11345719Y-20155119D01*
X11345719Y-20155119D02*
X11374291Y-20155119D01*
X11374291Y-20155119D02*
X11393338Y-20164643D01*
X11393338Y-20164643D02*
X11402862Y-20174166D01*
X11402862Y-20174166D02*
X11412386Y-20193214D01*
X11412386Y-20193214D02*
X11412386Y-20250357D01*
X11412386Y-20250357D02*
X11402862Y-20269404D01*
X11402862Y-20269404D02*
X11393338Y-20278928D01*
X11393338Y-20278928D02*
X11374291Y-20288452D01*
X11374291Y-20288452D02*
X11345719Y-20288452D01*
X11526672Y-20288452D02*
X11507624Y-20278928D01*
X11507624Y-20278928D02*
X11498100Y-20259881D01*
X11498100Y-20259881D02*
X11498100Y-20088452D01*
X11679053Y-20278928D02*
X11660005Y-20288452D01*
X11660005Y-20288452D02*
X11621910Y-20288452D01*
X11621910Y-20288452D02*
X11602862Y-20278928D01*
X11602862Y-20278928D02*
X11593338Y-20259881D01*
X11593338Y-20259881D02*
X11593338Y-20183690D01*
X11593338Y-20183690D02*
X11602862Y-20164643D01*
X11602862Y-20164643D02*
X11621910Y-20155119D01*
X11621910Y-20155119D02*
X11660005Y-20155119D01*
X11660005Y-20155119D02*
X11679053Y-20164643D01*
X11679053Y-20164643D02*
X11688577Y-20183690D01*
X11688577Y-20183690D02*
X11688577Y-20202738D01*
X11688577Y-20202738D02*
X11593338Y-20221785D01*
X11764767Y-20278928D02*
X11783815Y-20288452D01*
X11783815Y-20288452D02*
X11821910Y-20288452D01*
X11821910Y-20288452D02*
X11840958Y-20278928D01*
X11840958Y-20278928D02*
X11850481Y-20259881D01*
X11850481Y-20259881D02*
X11850481Y-20250357D01*
X11850481Y-20250357D02*
X11840958Y-20231309D01*
X11840958Y-20231309D02*
X11821910Y-20221785D01*
X11821910Y-20221785D02*
X11793338Y-20221785D01*
X11793338Y-20221785D02*
X11774291Y-20212262D01*
X11774291Y-20212262D02*
X11764767Y-20193214D01*
X11764767Y-20193214D02*
X11764767Y-20183690D01*
X11764767Y-20183690D02*
X11774291Y-20164643D01*
X11774291Y-20164643D02*
X11793338Y-20155119D01*
X11793338Y-20155119D02*
X11821910Y-20155119D01*
X11821910Y-20155119D02*
X11840958Y-20164643D01*
X11917148Y-20364643D02*
X11926672Y-20355119D01*
X11926672Y-20355119D02*
X11945719Y-20326547D01*
X11945719Y-20326547D02*
X11955243Y-20307500D01*
X11955243Y-20307500D02*
X11964767Y-20278928D01*
X11964767Y-20278928D02*
X11974291Y-20231309D01*
X11974291Y-20231309D02*
X11974291Y-20193214D01*
X11974291Y-20193214D02*
X11964767Y-20145595D01*
X11964767Y-20145595D02*
X11955243Y-20117024D01*
X11955243Y-20117024D02*
X11945719Y-20097976D01*
X11945719Y-20097976D02*
X11926672Y-20069404D01*
X11926672Y-20069404D02*
X11917148Y-20059881D01*
X12279053Y-20364643D02*
X12269529Y-20355119D01*
X12269529Y-20355119D02*
X12250481Y-20326547D01*
X12250481Y-20326547D02*
X12240958Y-20307500D01*
X12240958Y-20307500D02*
X12231434Y-20278928D01*
X12231434Y-20278928D02*
X12221910Y-20231309D01*
X12221910Y-20231309D02*
X12221910Y-20193214D01*
X12221910Y-20193214D02*
X12231434Y-20145595D01*
X12231434Y-20145595D02*
X12240958Y-20117024D01*
X12240958Y-20117024D02*
X12250481Y-20097976D01*
X12250481Y-20097976D02*
X12269529Y-20069404D01*
X12269529Y-20069404D02*
X12279053Y-20059881D01*
X12355243Y-20155119D02*
X12355243Y-20288452D01*
X12355243Y-20174166D02*
X12364767Y-20164643D01*
X12364767Y-20164643D02*
X12383815Y-20155119D01*
X12383815Y-20155119D02*
X12412386Y-20155119D01*
X12412386Y-20155119D02*
X12431434Y-20164643D01*
X12431434Y-20164643D02*
X12440958Y-20183690D01*
X12440958Y-20183690D02*
X12440958Y-20288452D01*
X12564767Y-20288452D02*
X12545719Y-20278928D01*
X12545719Y-20278928D02*
X12536196Y-20269404D01*
X12536196Y-20269404D02*
X12526672Y-20250357D01*
X12526672Y-20250357D02*
X12526672Y-20193214D01*
X12526672Y-20193214D02*
X12536196Y-20174166D01*
X12536196Y-20174166D02*
X12545719Y-20164643D01*
X12545719Y-20164643D02*
X12564767Y-20155119D01*
X12564767Y-20155119D02*
X12593339Y-20155119D01*
X12593339Y-20155119D02*
X12612386Y-20164643D01*
X12612386Y-20164643D02*
X12621910Y-20174166D01*
X12621910Y-20174166D02*
X12631434Y-20193214D01*
X12631434Y-20193214D02*
X12631434Y-20250357D01*
X12631434Y-20250357D02*
X12621910Y-20269404D01*
X12621910Y-20269404D02*
X12612386Y-20278928D01*
X12612386Y-20278928D02*
X12593339Y-20288452D01*
X12593339Y-20288452D02*
X12564767Y-20288452D01*
X12688577Y-20155119D02*
X12764767Y-20155119D01*
X12717148Y-20088452D02*
X12717148Y-20259881D01*
X12717148Y-20259881D02*
X12726672Y-20278928D01*
X12726672Y-20278928D02*
X12745719Y-20288452D01*
X12745719Y-20288452D02*
X12764767Y-20288452D01*
X12983815Y-20155119D02*
X12983815Y-20355119D01*
X12983815Y-20164643D02*
X13002862Y-20155119D01*
X13002862Y-20155119D02*
X13040958Y-20155119D01*
X13040958Y-20155119D02*
X13060005Y-20164643D01*
X13060005Y-20164643D02*
X13069529Y-20174166D01*
X13069529Y-20174166D02*
X13079053Y-20193214D01*
X13079053Y-20193214D02*
X13079053Y-20250357D01*
X13079053Y-20250357D02*
X13069529Y-20269404D01*
X13069529Y-20269404D02*
X13060005Y-20278928D01*
X13060005Y-20278928D02*
X13040958Y-20288452D01*
X13040958Y-20288452D02*
X13002862Y-20288452D01*
X13002862Y-20288452D02*
X12983815Y-20278928D01*
X13193339Y-20288452D02*
X13174291Y-20278928D01*
X13174291Y-20278928D02*
X13164767Y-20259881D01*
X13164767Y-20259881D02*
X13164767Y-20088452D01*
X13355243Y-20288452D02*
X13355243Y-20183690D01*
X13355243Y-20183690D02*
X13345720Y-20164643D01*
X13345720Y-20164643D02*
X13326672Y-20155119D01*
X13326672Y-20155119D02*
X13288577Y-20155119D01*
X13288577Y-20155119D02*
X13269529Y-20164643D01*
X13355243Y-20278928D02*
X13336196Y-20288452D01*
X13336196Y-20288452D02*
X13288577Y-20288452D01*
X13288577Y-20288452D02*
X13269529Y-20278928D01*
X13269529Y-20278928D02*
X13260005Y-20259881D01*
X13260005Y-20259881D02*
X13260005Y-20240833D01*
X13260005Y-20240833D02*
X13269529Y-20221785D01*
X13269529Y-20221785D02*
X13288577Y-20212262D01*
X13288577Y-20212262D02*
X13336196Y-20212262D01*
X13336196Y-20212262D02*
X13355243Y-20202738D01*
X13421910Y-20155119D02*
X13498100Y-20155119D01*
X13450481Y-20088452D02*
X13450481Y-20259881D01*
X13450481Y-20259881D02*
X13460005Y-20278928D01*
X13460005Y-20278928D02*
X13479053Y-20288452D01*
X13479053Y-20288452D02*
X13498100Y-20288452D01*
X13640958Y-20278928D02*
X13621910Y-20288452D01*
X13621910Y-20288452D02*
X13583815Y-20288452D01*
X13583815Y-20288452D02*
X13564767Y-20278928D01*
X13564767Y-20278928D02*
X13555243Y-20259881D01*
X13555243Y-20259881D02*
X13555243Y-20183690D01*
X13555243Y-20183690D02*
X13564767Y-20164643D01*
X13564767Y-20164643D02*
X13583815Y-20155119D01*
X13583815Y-20155119D02*
X13621910Y-20155119D01*
X13621910Y-20155119D02*
X13640958Y-20164643D01*
X13640958Y-20164643D02*
X13650481Y-20183690D01*
X13650481Y-20183690D02*
X13650481Y-20202738D01*
X13650481Y-20202738D02*
X13555243Y-20221785D01*
X13821910Y-20288452D02*
X13821910Y-20088452D01*
X13821910Y-20278928D02*
X13802862Y-20288452D01*
X13802862Y-20288452D02*
X13764767Y-20288452D01*
X13764767Y-20288452D02*
X13745720Y-20278928D01*
X13745720Y-20278928D02*
X13736196Y-20269404D01*
X13736196Y-20269404D02*
X13726672Y-20250357D01*
X13726672Y-20250357D02*
X13726672Y-20193214D01*
X13726672Y-20193214D02*
X13736196Y-20174166D01*
X13736196Y-20174166D02*
X13745720Y-20164643D01*
X13745720Y-20164643D02*
X13764767Y-20155119D01*
X13764767Y-20155119D02*
X13802862Y-20155119D01*
X13802862Y-20155119D02*
X13821910Y-20164643D01*
X13898101Y-20364643D02*
X13907624Y-20355119D01*
X13907624Y-20355119D02*
X13926672Y-20326547D01*
X13926672Y-20326547D02*
X13936196Y-20307500D01*
X13936196Y-20307500D02*
X13945720Y-20278928D01*
X13945720Y-20278928D02*
X13955243Y-20231309D01*
X13955243Y-20231309D02*
X13955243Y-20193214D01*
X13955243Y-20193214D02*
X13945720Y-20145595D01*
X13945720Y-20145595D02*
X13936196Y-20117024D01*
X13936196Y-20117024D02*
X13926672Y-20097976D01*
X13926672Y-20097976D02*
X13907624Y-20069404D01*
X13907624Y-20069404D02*
X13898101Y-20059881D01*
M02*
